<svg width="1440" height="1024" viewBox="0 0 1440 1024" fill="none" xmlns="http://www.w3.org/2000/svg">
<rect width="1440" height="1024" fill="#272932"/>
<g clip-path="url(#clip0_11_7)">
<path d="M1167.53 378.321C1168.12 379.265 1168.29 380.51 1169.22 381.13C1169.34 380.706 1169.54 380.461 1169.15 380.072C1168.66 379.367 1168.38 378.599 1167.53 378.321Z" fill="#D17A22" fill-opacity="0.7"/>
<path d="M1152.7 337.535C1152.49 337.34 1152.29 337.147 1152.08 336.951C1152.04 337.001 1152 337.048 1151.96 337.097C1152.06 337.224 1152.16 337.351 1152.3 337.521C1152.47 337.555 1152.58 337.546 1152.7 337.535Z" fill="#D17A22" fill-opacity="0.7"/>
<mask id="mask0_11_7" style="mask-type:luminance" maskUnits="userSpaceOnUse" x="864" y="281" width="319" height="323">
<path d="M864.4 281.238H1182.36V603.228H864.4V281.238Z" fill="white"/>
</mask>
<g mask="url(#mask0_11_7)">
<path d="M1182.24 438.551C1182.24 436.615 1182.24 434.676 1182.23 432.738C1182.24 430.402 1182.22 428.067 1182.08 425.735C1182.33 421.524 1182.3 417.3 1181.83 413.109C1181.73 410.848 1180.75 408.675 1180.98 406.415C1181.04 404.385 1179.94 402.446 1179.58 400.48C1178.69 397.79 1178.63 394.785 1177.08 392.373C1177.03 394.824 1177.57 397.209 1178.06 399.599C1178.04 400.243 1178.04 400.888 1178.09 401.529C1178.15 401.953 1178.21 402.311 1178.26 402.631C1178.29 403.077 1178.33 403.523 1178.38 403.966C1178.3 405.726 1178.36 407.48 1178.43 409.256C1178.49 410.873 1178.57 412.489 1178.75 414.097C1178.64 416.196 1178.61 418.291 1178.8 420.387C1178.8 420.439 1178.81 420.489 1178.81 420.538C1178.81 420.756 1178.81 420.965 1178.8 421.131C1178.76 422.452 1178.83 423.771 1178.91 425.093C1179.25 428.414 1179.27 431.686 1179.05 435.001C1178.92 441.233 1177.79 447.341 1176.64 453.451C1176.66 453.928 1176.39 454.784 1176.14 455.624C1176.43 453.897 1176.69 452.168 1176.8 450.422C1176.85 449.67 1176.87 448.921 1176.88 448.17C1177.01 447.22 1177.13 446.297 1177.23 445.562C1177.49 442.367 1177.75 439.168 1177.75 435.959C1177.72 432.162 1177.12 428.398 1176.52 424.658C1176.43 424.267 1176.35 423.879 1176.26 423.488C1176.04 422.265 1175.77 421.051 1175.44 419.853C1175.45 419.916 1175.45 419.979 1175.46 420.043C1174.95 417.854 1174.41 415.667 1173.9 413.478C1173.94 416.091 1174.18 418.696 1174.47 421.29C1174.64 422.491 1174.82 423.636 1174.99 424.752C1175.2 427.963 1175.34 431.179 1175.17 434.401C1174.97 439.214 1174.39 444.003 1173.97 448.8C1173.97 448.841 1173.96 448.883 1173.96 448.924C1173.92 448.528 1173.87 448.137 1173.81 447.743C1173.89 446.98 1173.96 446.181 1174 445.209C1173.98 443.827 1173.91 442.447 1173.8 441.073C1173.91 439.074 1173.9 437.072 1173.64 435.084C1173.59 433.723 1173.22 432.421 1172.84 431.127C1172.79 430.014 1172.73 428.902 1172.58 427.8C1172.4 426.745 1172.16 425.704 1171.87 424.675C1171.84 424.427 1171.8 424.182 1171.77 423.934C1171.61 423.127 1171.43 422.32 1171.25 421.519C1170.89 418.509 1170.4 415.485 1169.74 412.704C1169.25 409.873 1168.98 406.935 1168.07 404.159C1167.35 401.7 1167.08 399.123 1166.23 396.628C1163.05 386.29 1157.88 376.58 1151.88 367.614C1154.18 373.912 1157.6 379.874 1159.92 386.117C1159.84 386.015 1159.76 385.916 1159.68 385.814C1162.62 391.922 1164.73 398.459 1165.66 405.206C1166.67 412.886 1168.48 420.205 1168.54 427.916C1168.38 427.547 1168.2 427.186 1168.02 426.828C1168.01 425.437 1167.86 424.044 1167.57 422.681C1167.36 421.61 1167.44 421.502 1167.19 420.505C1166.85 419.426 1166.61 419.2 1166.45 418.283C1166.33 417.113 1166.21 415.857 1165.78 413.916C1165.49 412.806 1165.11 411.746 1164.67 410.702C1164.62 410.308 1164.55 409.898 1164.45 409.507C1164.24 408.507 1163.92 407.91 1163.66 407.227C1163.55 406.629 1163.44 406.035 1163.3 405.445C1162.89 403.71 1162.6 403.407 1162.04 401.876C1162.04 401.882 1161.73 401.07 1161.55 400.557C1161.41 400.012 1161.31 399.459 1161.09 398.935C1160.85 398.178 1160.41 397.503 1160.12 396.768C1160.1 396.73 1160.07 396.666 1160.05 396.619C1160.04 396.592 1160.03 396.564 1160.02 396.537C1160.01 396.468 1160 396.383 1159.98 396.275C1159.87 395.818 1159.93 396.058 1159.83 395.477C1159.78 395.281 1159.79 395.143 1159.64 394.615C1159.56 394.18 1159.51 393.736 1159.4 393.304C1159.26 392.544 1159 391.814 1158.72 391.098C1158.48 390.476 1158.33 389.82 1158.15 389.182C1157.88 388.389 1157.56 387.615 1157.22 386.852C1156.84 386.037 1156.37 385.269 1155.88 384.519C1155.79 384.266 1155.7 384.016 1155.6 383.77C1155.39 383.261 1155.36 383.11 1155.15 382.644C1154.84 381.936 1154.62 381.141 1154.12 380.122C1153.94 379.667 1153.96 379.673 1153.71 379.007C1153.42 378.329 1153.1 377.674 1152.81 377.002C1152.79 376.952 1152.63 376.536 1152.59 376.423C1152.43 375.966 1152.24 375.52 1152.02 375.085C1151.64 374.388 1151.22 373.714 1150.78 373.056C1150.61 372.706 1150.4 372.37 1150.16 372.067C1150.13 372.034 1150.11 372.009 1150.1 371.995C1150.09 371.987 1150.08 371.976 1150.07 371.965C1149.78 371.519 1149.55 371.037 1149.27 370.583C1148.86 369.927 1148.6 369.2 1148.23 368.523C1147.98 367.945 1147.75 367.355 1147.4 366.827C1146.9 366.003 1146.36 365.205 1145.68 364.525C1145.26 363.905 1144.82 363.302 1144.33 362.74C1144.23 362.578 1144.13 362.415 1144.03 362.25C1143.19 360.735 1142.4 359.171 1141.29 357.827C1141.08 357.566 1140.86 357.324 1140.62 357.089C1140.15 356.478 1139.45 355.539 1138.81 354.702C1138.21 354 1137.6 353.306 1136.99 352.617C1136.22 351.596 1135.39 350.618 1134.53 349.668C1134.5 349.561 1134.46 349.456 1134.43 349.346C1138.99 352.392 1142.11 356.112 1145.84 359.896C1145.77 358.571 1144.69 357.871 1143.91 356.954C1142.88 355.776 1141.9 354.545 1140.83 353.41C1138.77 351.34 1136.6 349.376 1134.52 347.316C1133.34 346.185 1131.81 345.394 1131.11 343.783C1130.59 343.224 1129.74 342.938 1129.65 342.04C1129.38 340.641 1127.94 340.146 1126.87 339.424C1126.2 338.65 1125.47 337.912 1124.72 337.205C1130.47 339.416 1134.3 344.461 1138.63 348.578C1140.47 350.037 1141.95 351.899 1143.45 353.724C1148.94 360.204 1154.71 366.477 1159.27 373.689C1162.58 378.993 1165.51 384.525 1168.01 390.236C1168.5 391.627 1169.01 392.96 1169.51 394.127C1169.7 394.549 1169.96 395.05 1170.16 395.457C1172.02 400.276 1173.6 405.206 1174.88 410.228C1174.34 405.027 1172.68 400.089 1170.68 395.298C1170.54 394.799 1170.36 394.312 1170.2 393.816C1169.84 392.461 1169.36 391.148 1168.81 389.865C1168.77 389.754 1168.74 389.644 1168.7 389.537C1168.31 388.38 1167.94 387.218 1167.44 386.108C1167.34 385.894 1167.24 385.684 1167.14 385.475C1166.77 384.597 1166.33 383.748 1165.83 382.928C1165.77 382.669 1165.7 382.413 1165.63 382.157C1165.14 380.854 1164.47 379.634 1163.69 378.481C1163.65 378.384 1163.62 378.291 1163.58 378.197C1163.48 377.974 1163.37 377.754 1163.25 377.536C1163.25 377.528 1163.25 377.522 1163.25 377.514C1162.84 376.669 1162.41 375.834 1162 374.992C1161.52 374.121 1161.18 373.193 1160.68 372.34C1160.51 372.056 1160.33 371.778 1160.15 371.5C1159.72 370.511 1159.19 369.352 1158.63 368.333C1158 367.176 1157.2 366.127 1156.47 365.034C1155.92 364.235 1155.37 363.44 1154.81 362.646C1154.56 362.198 1154.32 361.752 1154.07 361.308C1155.02 362.479 1156.13 363.528 1157.31 364.472C1157.46 364.648 1157.67 364.797 1157.82 364.976C1158.91 366.281 1160.09 367.529 1161.06 368.92C1162.95 371.533 1164.41 374.463 1166.45 376.969C1165.34 373.436 1162.99 370.396 1161.37 367.063C1161.19 366.777 1161.01 366.491 1160.82 366.202C1160.65 365.808 1160.44 365.431 1160.25 365.051C1159.96 364.395 1159.64 363.759 1159.24 363.17C1159.19 363.095 1159.14 363.024 1159.09 362.952C1158.8 362.366 1158.47 361.793 1158.12 361.237C1157.66 360.587 1157.14 359.995 1156.57 359.441C1156.33 359.089 1156.08 358.731 1155.83 358.397C1155.7 358.158 1155.55 357.932 1155.34 357.737C1155.3 357.676 1155.25 357.618 1155.19 357.56C1154.78 356.817 1154.36 356.079 1153.91 355.355C1153.37 354.595 1153.21 354.421 1152.71 353.763C1152.1 352.995 1151.58 352.24 1150.71 351.274C1149.58 350.125 1148.45 348.98 1147.33 347.812C1147.06 347.531 1146.78 347.27 1146.48 347.016C1146.25 346.683 1146.02 346.361 1145.79 346.055C1144.88 345.025 1143.91 344.056 1142.91 343.111C1142.63 342.72 1142.35 342.335 1142.04 341.96C1140.73 340.457 1139.16 339.212 1137.61 337.956C1136.73 337.224 1135.85 336.475 1134.96 335.74C1133.41 333.771 1131.55 332.165 1129.62 330.634C1128.29 328.946 1126.61 327.569 1125.07 326.08C1128.55 328.249 1131.54 331.119 1134.79 333.617C1137.55 336.169 1140.36 338.628 1143.52 340.666C1150.2 346 1155.61 352.744 1161.24 359.135C1164.46 362.627 1166.82 366.645 1170.37 369.845C1168.98 366.48 1167.53 363.101 1166.23 359.681C1165.43 358.772 1164.73 357.885 1164.12 356.82C1162.41 353.361 1160.08 350.379 1157.53 347.498C1156.1 345.802 1154.85 343.943 1152.96 342.665C1151.59 341.922 1152.33 340.958 1151.35 340.159C1147.5 336.849 1143.93 333.259 1139.98 330.097C1139.97 330.136 1139.96 330.177 1139.96 330.216C1139.7 330.004 1139.35 329.885 1139.42 329.577C1138.38 328.475 1137.2 327.578 1135.96 326.721C1134.97 326.115 1133.78 325.771 1133.27 324.551C1131.98 323.563 1130.55 322.61 1129.12 321.853C1124.86 319.517 1120.7 316.893 1116.36 314.734C1111.68 313.032 1107.61 310.13 1102.8 308.742C1094.79 305.906 1086.83 302.926 1078.81 300.084C1074.58 298.707 1070.29 297.518 1066.03 296.24C1065.92 296.193 1065.8 296.155 1065.67 296.124C1065.5 296.042 1065.32 295.962 1065.14 295.896C1065.12 295.887 1065.1 295.882 1065.08 295.876C1064.71 295.736 1064.33 295.615 1063.94 295.524C1063.92 295.499 1063.89 295.474 1063.86 295.447C1063.94 295.447 1064.02 295.45 1064.1 295.45C1064.82 295.51 1065.55 295.56 1066.27 295.585C1067.33 295.786 1068.41 295.876 1069.48 296.028C1075.62 296.923 1081.67 298.432 1087.78 299.506C1090.27 300.087 1092.68 301.034 1095.27 301.205C1096.95 301.596 1098.64 302.582 1100.36 302.725C1101.69 302.821 1102.92 303.058 1104.14 303.565C1107.23 304.62 1110.27 305.817 1113.25 307.164C1119.26 309.53 1124.2 313.902 1129.59 317.391C1136.82 322.577 1144.1 327.98 1149.83 334.831C1149.82 334.834 1149.84 334.768 1149.85 334.724C1148.84 333.526 1147.92 332.157 1147.16 330.761C1145.61 329.56 1144.63 327.806 1142.98 326.68C1141.55 325.482 1140.09 324.32 1138.65 323.127C1137.47 322.131 1136.68 320.787 1135.19 320.198C1134.08 319.647 1133.32 318.529 1132.45 317.7C1130.83 316.524 1129.14 315.445 1127.53 314.258C1126.23 313.308 1124.69 312.688 1123.71 311.325C1121.24 309.653 1118.51 308.282 1115.95 306.718C1114.47 306.118 1115.23 305.385 1114.22 304.782C1109.95 302.436 1105.39 300.671 1101.02 298.506C1097.23 297.014 1093.97 294.527 1090.08 293.304C1089.12 292.944 1088.17 292.583 1087.21 292.219C1086.59 291.886 1085.97 291.578 1085.33 291.302C1085.02 291.176 1084.7 291.068 1084.38 290.964C1084.06 290.81 1083.72 290.672 1083.39 290.545C1083.39 290.545 1083.39 290.545 1083.4 290.545C1083.69 290.611 1084 290.675 1084.28 290.727C1084.43 290.763 1084.59 290.801 1084.74 290.843C1085.05 290.92 1085.36 290.997 1085.67 291.074C1086.02 291.179 1086.37 291.283 1086.72 291.377C1087.47 291.627 1087.92 291.746 1088.32 291.925C1088.97 292.107 1089.62 292.269 1090.26 292.465C1090.49 292.52 1090.73 292.558 1090.97 292.588C1090.96 292.588 1090.97 292.591 1091 292.597C1091.03 292.608 1091.03 292.608 1091.01 292.599C1091.14 292.649 1091.27 292.677 1091.41 292.696C1091.41 292.699 1091.42 292.699 1091.44 292.701C1091.67 292.77 1091.91 292.806 1092.14 292.88C1092.64 292.944 1093.12 293.081 1093.6 293.222C1094.08 293.335 1094.56 293.503 1095.04 293.618C1095.27 293.657 1095.4 293.745 1095.52 293.786C1095.79 293.899 1096 294.007 1096.41 294.122C1096.75 294.227 1097.1 294.326 1097.44 294.442C1097.24 294.326 1097.05 294.183 1096.84 294.075C1097.32 294.252 1097.8 294.422 1098.28 294.593C1101.1 295.265 1103.25 296.358 1106.06 297.405C1103.16 294.712 1098.49 294.175 1094.89 292.591C1089.56 290.347 1083.85 289.43 1078.27 287.987C1077.66 287.838 1077.04 287.725 1076.42 287.615C1076.25 287.555 1076.08 287.5 1075.9 287.444C1075.58 287.348 1075.25 287.271 1074.92 287.208C1074.25 286.935 1073.55 286.673 1072.78 286.442C1072.63 286.395 1072.47 286.351 1072.32 286.315C1072.3 286.31 1072.28 286.304 1072.25 286.299C1072.23 286.293 1072.18 286.28 1072.11 286.266C1071.94 286.225 1071.77 286.194 1071.6 286.164C1071.41 286.112 1071.22 286.065 1071.03 286.029C1071.02 286.029 1071.02 286.024 1071.02 286.024C1070.4 285.897 1069.76 285.754 1069.17 285.506C1068.95 285.476 1068.75 285.437 1068.56 285.382C1063.08 283.765 1057.45 282.986 1051.79 282.325C1045.95 281.474 1040.09 281.439 1034.21 281.587C1034.03 281.568 1033.85 281.549 1033.67 281.532C1030.91 281.348 1028.14 281.24 1025.38 281.419C1022.86 281.417 1020.34 281.389 1017.82 281.425C1016.51 281.422 1015.2 281.62 1013.91 281.813C1013.15 281.934 1012.7 281.94 1011.63 282.077C1010.26 282.27 1008.88 282.336 1007.5 282.501C1005.17 282.884 1002.84 283.289 1000.5 283.644C996.668 284.264 992.815 284.76 989.008 285.514C988.643 285.594 988.278 285.682 987.913 285.767C981.851 286.795 975.886 288.191 970.481 290.088C960.283 293.002 950.78 297.369 941.972 303.042C941.214 303.433 940.464 303.838 939.711 304.242C937.855 305.223 936.05 306.31 934.422 307.643C934.378 307.676 934.339 307.709 934.298 307.742C933.068 308.472 931.826 309.188 930.686 310.061C930.45 310.215 930.211 310.372 929.978 310.532C927.646 312.11 925.358 313.754 923.216 315.582C922.746 315.929 922.167 316.381 921.552 316.876C921.442 316.956 921.326 317.036 921.217 317.116C920.931 317.361 920.648 317.606 920.365 317.854C919.673 318.427 918.986 319.011 918.393 319.523C918.528 319.435 918.66 319.349 918.794 319.261C918.555 319.479 918.319 319.696 918.083 319.917C917.111 320.586 916.179 321.321 915.276 322.087C909.094 326.994 904.46 333.377 899.747 339.625C899.184 340.118 898.583 340.724 898.16 341.393C897.811 341.933 896.405 343.023 895.792 344.039C895.177 344.97 894.515 345.871 893.892 346.796C893.603 347.239 893.359 347.71 893.095 348.167C892.862 348.528 892.604 348.872 892.378 349.239C891.755 350.337 890.989 351.345 890.313 352.411C890.058 352.84 889.868 353.306 889.604 353.73C889.31 354.281 888.964 354.804 888.618 355.322C888.374 355.806 888.075 356.258 887.808 356.731C887.476 357.255 887.185 357.805 886.877 358.345C886.487 358.984 886.092 359.623 885.732 360.281C885.498 360.76 885.237 361.228 885.015 361.716C885.009 361.729 885.004 361.749 884.996 361.763C884.864 361.983 884.732 362.206 884.606 362.429C884.089 363.387 883.529 364.321 883.095 365.32C883.065 365.395 883.035 365.469 883.004 365.541C881.499 367.79 880.101 370.12 878.844 372.565C875.702 379.728 873.021 387.069 870.555 394.494C868.844 398.137 867.748 402.738 866.179 406.638C864.556 410.391 867.951 417.107 865.421 420.505C865.064 421.654 864.812 422.882 864.51 424.058C864.466 424.248 864.463 424.6 864.554 424.644C865.718 425.228 864.51 426.2 864.853 427.406C866.591 426.9 866.166 428.406 865.658 429.32C865.067 430.21 865.361 431.091 865.652 431.961C865.699 432.112 865.949 432.256 866.127 432.294C868.643 432.98 868.215 429.857 870.057 429.474C870.75 430.576 869.192 431.587 869.742 432.636C870.437 432.74 870.64 431.639 871.087 431.251C872.032 430.265 870.832 430.204 870.903 429.254C870.914 429.163 871.299 429.012 871.45 429.067C873.059 429.48 872.999 426.321 874.419 425.974C875.009 427.101 874.087 428.389 873.958 429.571C873.362 431.016 873.4 434.109 872.348 434.952C872.17 435.067 872.008 435.362 872.008 435.574C871.966 436.607 872.343 437.771 872.073 438.766C871.741 439.446 871.727 440.137 871.9 440.812C872.126 441.696 871.906 442.442 871.472 443.188C870.859 444.08 870.34 445.653 871.818 445.956C873.26 446.143 873.103 443.529 873.746 442.621C874.238 441.679 874.537 440.701 874.749 439.702C875.262 438.705 875.787 437.719 876.276 436.714C876.311 436.708 876.347 436.706 876.383 436.706C876.377 436.783 876.372 436.86 876.366 436.937C875.91 438.666 875.6 440.448 875.572 442.238C875.567 442.959 875.583 443.678 875.614 444.397C875.062 445.611 874.433 445.939 874.71 448.043C874.537 448.808 874.666 449.252 874.924 449.544C874.595 450.612 874.455 451.736 874.567 452.851C874.628 453.729 875.034 454.514 875.32 455.329C875.622 456.098 875.825 456.891 876.012 457.692C876.026 458.069 876.045 458.444 876.067 458.821C876.086 459.733 876.078 460.65 876.141 461.564C876.135 461.919 876.103 462.269 876.006 462.602C875.144 465.141 877.418 466.909 877.564 469.258C878.053 473.788 879.621 471.094 879.959 472.915C880.535 476.715 882.329 475.013 884.82 477.742C887.767 479.639 890.11 476.12 892.496 474.856C895.29 472.951 896.306 469.417 898.176 466.711C898.498 465.78 898.627 464.744 898.907 463.792C899.107 463.021 899.56 462.473 900.329 462.205C901.494 461.613 901.598 462.993 901.983 463.736C904.177 463.461 902.702 459.512 902.768 457.998C902.398 456.888 903.205 455.886 903.059 454.834C902.625 453.829 902.719 452.826 902.755 451.766C903.007 443.375 905.215 435.186 906.591 426.927C908.047 420.971 909.157 414.918 911.346 409.163C915.295 398.85 919.67 388.658 925.891 379.488C931.368 370.343 938.245 361.931 947.119 355.966C944.782 358.213 942.925 360.782 940.459 362.853C940.404 363.051 940.324 363.131 940.162 363.117C931.373 374.256 922.672 385.85 917.135 399.128C912.991 408.023 910.931 417.625 908.259 427.024C905.861 434.83 905.075 442.924 904.169 450.995C904.26 451.006 904.353 451.014 904.449 451.025C905.342 448.93 905.295 446.589 905.828 444.416C906.19 443.494 906.287 442.563 906.306 441.594C906.352 439.404 906.627 437.256 907.242 435.139C908.401 430.039 909.895 425.027 911.098 419.935C912.744 413.996 914.262 407.918 917.267 402.499C917.284 402.518 917.297 402.534 917.308 402.554C916.265 405.156 915.441 407.855 914.933 410.614C914.378 412.963 912.697 415.014 912.969 417.52C912.752 418.735 912.038 419.894 911.711 421.097C911.326 423.091 911.524 425.157 911.258 427.175C913.172 424.005 914.004 420.337 915.518 416.972C915.496 415.904 916.039 414.761 916.454 413.861C917.262 412.162 917.671 410.317 918.157 408.513C918.717 406.855 919.744 405.332 920.645 403.818C922.285 399.662 924.213 395.645 926.256 391.687C927.245 390.118 928.682 388.766 929.582 387.149C929.761 386.307 930.464 385.566 930.956 384.894C931.991 383.476 932.521 381.733 933.496 380.27C935.056 377.638 937.058 375.314 938.58 372.645C941.096 369.151 943.966 365.871 947.138 362.958C948.352 362.165 949.475 361.336 950.286 360.105C951.071 359.232 952.263 357.414 953.595 357.191C955.38 354.908 957.566 352.918 959.942 351.246C963.488 347.826 967.671 345.257 971.983 342.93C972.826 342.448 973.639 341.916 974.438 341.363C976.523 340.314 978.599 339.242 980.662 338.152C980.695 338.138 980.725 338.127 980.758 338.116C981.947 337.689 983.153 337.315 984.32 336.833C986.938 335.781 989.582 334.817 992.238 333.873C994.801 332.978 997.333 331.978 999.929 331.188C1000.76 330.923 1001.58 330.667 1002.41 330.414C1002.71 330.386 1003.01 330.364 1003.31 330.345C1006.92 329.114 1010.71 328.963 1014.41 328.266C1015.55 328.249 1016.7 328.244 1017.84 328.244C1023.42 327.823 1029.03 327.949 1034.6 328.417C1034.83 328.428 1035.05 328.437 1035.28 328.445C1038.72 328.596 1042.15 328.897 1045.5 329.624C1046.66 329.731 1047.82 329.869 1048.98 330.031C1049.82 330.125 1050.66 330.221 1051.49 330.323C1058.88 331.383 1065.86 334.038 1072.84 336.582C1076.83 337.981 1080.48 339.796 1084.07 341.993C1087.17 343.478 1089.97 345.485 1092.97 347.137C1094.78 348.919 1096.96 350.591 1098.99 351.987C1099.32 352.361 1099.65 352.739 1099.97 353.119C1102.1 355.027 1104 357.169 1105.88 359.323C1108.13 361.308 1110.31 363.36 1112.16 365.736C1112.96 366.766 1113.71 367.832 1114.44 368.914C1117.03 371.949 1119.36 375.217 1121.46 378.626C1122.28 379.698 1123.08 380.769 1123.87 381.843C1125.55 384.787 1127.09 387.807 1128.66 390.809C1129.36 391.974 1130.01 393.172 1130.59 394.403C1130.95 395.066 1131.32 395.73 1131.7 396.388C1131.8 396.815 1131.9 397.239 1132.01 397.66C1132.35 398.453 1132.64 399.266 1132.84 400.095C1133.1 400.739 1133.35 401.386 1133.6 402.036C1133.73 402.35 1133.86 402.667 1133.99 402.986C1134.04 403.11 1134.1 403.234 1134.15 403.361C1134.38 403.92 1134.59 404.484 1134.78 405.054C1136.94 410.895 1138.38 417.003 1139.21 423.185C1139.66 425.289 1140.05 427.409 1140.38 429.538C1140.4 429.631 1140.41 429.722 1140.43 429.813C1140.44 429.863 1140.44 429.907 1140.44 429.956C1140.97 433.418 1141.34 436.904 1141.6 440.401C1141.66 440.861 1141.72 441.318 1141.78 441.773C1141.77 442.064 1141.76 442.354 1141.76 442.646C1141.95 445.832 1142.05 449.02 1142.1 452.207C1141.78 454.096 1141.54 455.998 1141.41 457.91C1141.34 458.953 1141.27 459.997 1141.21 461.038C1141.1 461.404 1141 461.768 1140.91 462.139C1139.76 466.482 1138.93 470.907 1137.75 475.242C1137.18 477.056 1136.6 478.877 1135.99 480.655C1135.06 482.839 1134.14 484.965 1133.21 487.212C1133.02 487.617 1132.82 488.022 1132.63 488.424C1132.05 489.542 1131.47 490.665 1130.9 491.792C1129.63 493.956 1128.31 496.093 1126.99 498.224C1125.66 500.295 1124.42 502.416 1123.12 504.503C1122.54 505.257 1121.96 506.012 1121.38 506.766C1120.26 508.377 1119.14 509.986 1117.96 511.553C1117.7 511.922 1117.42 512.288 1117.15 512.657C1116.08 514.036 1115.01 515.411 1113.93 516.785C1113.37 517.459 1112.82 518.139 1112.28 518.825C1112.13 519.004 1111.98 519.186 1111.83 519.368C1107.96 523.124 1104.04 526.825 1100.55 530.964C1095.18 535.103 1089.9 539.335 1083.96 542.642C1079.16 544.628 1074.91 547.679 1070.24 549.898C1060.8 554.087 1050.68 556.904 1040.3 557.108C1024.98 558.228 1009.54 557.014 994.559 553.343C989.56 552.236 984.801 550.625 980.033 548.623C977.306 547.125 974.751 545.335 971.997 543.887C968.05 541.34 963.785 539.332 959.904 536.68C954.35 533.153 949.415 528.807 944.251 524.757C940.354 521.309 936.789 517.495 933.364 513.582C928.964 507.934 924.641 501.656 919.731 496.319C919.736 496.33 919.742 496.341 919.747 496.355C919.379 495.931 918.97 495.539 918.602 495.115C920.673 498.902 922.815 502.663 925.13 506.304C924.886 506.009 924.647 505.712 924.413 505.409C924.998 506.466 925.636 507.491 926.303 508.496C925.833 508.055 925.268 507.681 924.801 507.226C924.825 507.259 924.85 507.292 924.875 507.326C924.131 506.744 923.565 506.359 923.018 505.888C925.655 510.264 928.901 514.268 931.76 518.47C935.866 525.043 941.491 530.515 947.105 535.807C946.07 535.207 945.056 534.571 944.065 533.905C944.337 534.326 944.985 534.596 945.067 535.1C949.75 538.581 954.584 541.813 959.234 545.352C946.616 540.274 937.182 529.606 925.32 523.446C929.028 529.014 933.776 533.682 938.712 538.151C939.69 538.916 940.692 539.643 941.714 540.332C941.895 540.527 942.079 540.72 942.268 540.907C943.403 542.001 944.529 543.121 945.864 543.975C947.187 544.771 948.465 545.649 949.813 546.404C949.835 546.418 949.857 546.426 949.876 546.44C950.508 546.831 951.129 547.236 951.752 547.64C952.161 547.943 952.573 548.235 952.999 548.513C953.658 548.957 954.326 549.392 955.007 549.802C957.838 551.688 960.687 553.542 963.757 555.026C966.929 556.89 970.244 558.548 973.428 560.376C977.259 562.648 981.546 563.929 985.493 565.991C993.186 569.874 1001.21 573.225 1009.69 574.867C1014.23 576.579 1019.09 577.304 1023.72 578.411C1023.52 578.441 1023.32 578.466 1023.13 578.493C1021.02 578.325 1018.93 578.072 1016.82 577.94C1016.36 577.921 1015.99 577.89 1015.65 577.849C1013.76 577.491 1011.84 577.094 1009.82 576.736C1007.8 576.365 1005.77 576.042 1003.76 575.607C1001.24 575.002 998.769 574.236 996.284 573.517C993.46 572.754 990.546 572.278 987.822 571.188C986.649 570.722 985.474 570.265 984.29 569.83C983.384 569.491 982.502 569.095 981.571 568.839C979.816 568.401 978.808 567.754 977.017 566.889C976.613 566.688 976.21 566.503 975.803 566.319C971.53 564.108 967.256 561.896 962.914 559.817C962.958 559.828 963.002 559.842 963.046 559.853C950.61 551.33 937.745 543.094 926.416 533.112C922.354 529.521 918.775 525.486 915.29 521.348C912.557 518.335 909.36 515.749 907.045 512.373C907.231 512.797 907.429 513.213 907.632 513.626C907.273 513.257 906.979 512.715 906.718 512.373C906.8 512.563 906.883 512.756 906.965 512.951C906.938 512.924 906.907 512.894 906.883 512.866C907.24 513.442 907.429 514.113 907.739 514.717C907.728 514.703 907.718 514.692 907.704 514.681C908.033 515.306 908.357 515.931 908.723 516.54C908.712 516.523 908.701 516.509 908.69 516.493C910.549 520.725 914.081 523.842 916.342 527.816C922.051 536.182 929.593 543.19 937.803 549.05C933.263 547.092 928.92 544.705 924.526 542.444C922.873 541.483 921.598 539.985 919.742 539.338C917.882 538.28 916.21 536.664 914.227 535.945C914.191 536.033 914.158 536.121 914.125 536.21C915.71 536.961 917.174 537.812 918.157 539.319C918.292 540.351 917.201 539.572 916.767 539.327C916.789 539.696 916.938 539.905 917.138 540.026C918.879 541.246 920.456 542.659 922.406 543.573C923.716 544.578 925.026 545.586 926.328 546.599C927.66 547.635 929.209 548.42 930.096 549.965C930.236 550.207 930.552 550.369 930.813 550.518C935.564 553.126 940.211 555.849 944.4 559.313C946.583 560.985 948.742 562.692 950.92 564.372C951.42 564.758 951.788 565.193 951.802 566.013C945.18 563.458 939.357 559.234 933.491 555.304C929.434 551.876 925.674 548.007 920.901 545.547C922.65 547.288 924.732 548.667 926.49 550.389C929.346 553.566 932.752 556.072 935.954 558.859C935.902 558.939 935.847 559.016 935.795 559.096C931.999 557.256 928.525 554.695 925.034 552.324C924.1 551.928 924.814 553.407 923.469 552.501C921.129 551.314 918.909 549.882 916.501 548.846C919.184 551.424 922.9 552.837 925.963 554.998C929.223 556.995 932.035 559.688 934.809 562.299C934.743 562.367 934.674 562.436 934.608 562.505C931.587 561.007 929.176 558.592 926.331 556.791C926.74 557.559 927.608 558.005 927.945 559.033C925.15 558.105 923.661 555.312 921.068 554.255C920.906 554.723 921.044 555.053 921.477 555.293C926.006 558.826 930.604 562.348 934.348 566.724C940.851 572.019 948.489 575.461 956.004 579.061C956.528 579.397 957.053 579.727 957.583 580.052C959.478 581.151 961.478 582.048 963.482 582.924C964.683 583.472 965.886 584.012 967.113 584.491C979.728 591.331 993.557 595.748 1007.64 598.403C1008.04 598.433 1008.44 598.469 1008.84 598.508C1011.05 599.168 1013.25 599.813 1015.52 600.198C1017.53 600.532 1019.56 600.766 1021.6 600.804C1024.04 601.36 1026.48 601.936 1028.93 602.443C1034.06 603.233 1039.16 602.454 1044.28 602.052C1048.13 601.809 1051.91 601.245 1055.6 600.138C1056.1 600.052 1056.31 599.802 1056.5 599.557C1057.33 599.342 1058.16 599.122 1058.98 598.885C1058.99 598.885 1058.99 598.882 1059 598.882C1059.16 598.871 1059.32 598.857 1059.48 598.819C1059.54 598.802 1059.61 598.788 1059.68 598.775C1059.7 598.775 1059.71 598.769 1059.73 598.769C1060.71 598.659 1061.67 598.389 1062.62 598.172C1063.81 597.926 1065.02 597.734 1066.2 597.464C1067.68 597.015 1069.23 596.828 1070.71 596.362C1071.75 596.087 1072.79 595.787 1073.85 595.556C1074.92 595.294 1076.02 595.109 1077.09 594.831C1078.23 594.506 1079.33 594.074 1080.46 593.746C1081.96 593.245 1083.17 592.752 1084.18 592.383C1085.42 591.901 1086.75 591.675 1087.98 591.15C1088.84 590.778 1088.68 590.855 1089.44 590.502C1090.11 590.153 1090.75 589.74 1091.45 589.428C1092.02 589.205 1092.6 589.035 1093.16 588.776C1094.38 588.197 1094.55 588.159 1095.76 587.638C1096.36 587.338 1096.92 586.967 1097.52 586.653C1098.84 585.92 1100.27 585.375 1101.53 584.527C1102.25 584.028 1102.52 583.83 1102.91 583.541C1103.2 583.378 1103.5 583.205 1103.81 583.007C1104.23 582.729 1104.63 582.409 1105.05 582.128C1105.66 581.765 1106.28 581.398 1106.85 580.98C1107.93 580.314 1109.07 579.743 1110.11 579.008C1110.48 578.716 1110.84 578.408 1111.2 578.097C1111.45 577.984 1111.69 577.832 1111.93 577.626C1115.64 574.82 1119.59 572.322 1123.02 569.164C1123.65 568.55 1124.29 567.935 1124.92 567.319C1125.09 567.186 1125.25 567.054 1125.42 566.919C1125.91 566.765 1126.35 566.435 1126.77 566.157C1128 565.41 1129.04 564.416 1130.08 563.439C1130.74 562.833 1131.43 562.254 1132.05 561.605C1132.71 560.93 1133.43 560.327 1134.15 559.718C1134.99 559.077 1135.72 558.322 1136.42 557.529C1136.96 556.962 1137.47 556.37 1137.95 555.758C1138.28 555.513 1138.59 555.241 1138.87 554.943C1138.97 554.963 1139.06 554.979 1139.16 554.993C1140.25 553.28 1141.51 551.653 1142.95 550.215C1143.03 550.121 1143.11 550.033 1143.2 549.942C1144.2 548.111 1145.21 546.31 1146.12 545.28C1149.7 539.214 1154.54 533.896 1157.23 527.323C1157.76 526.255 1158.36 525.225 1158.98 524.211C1159.92 522.89 1160.82 521.535 1161.6 520.111C1162.16 519.219 1162.72 518.318 1163.24 517.399C1164.61 515.099 1165.63 512.285 1166.58 509.592C1167.48 507.992 1168.34 506.367 1169.07 504.682C1169.77 502.975 1170.41 501.24 1170.89 499.455C1171.01 499.067 1171.13 498.676 1171.25 498.285C1172.61 495.611 1173.78 492.844 1174.69 489.985C1175.36 488.066 1175.92 486.122 1176.41 484.153C1176.79 482.429 1177.3 480.735 1177.6 478.995C1177.85 477.58 1178.01 476.159 1178.15 474.732C1178.17 474.636 1178.2 474.542 1178.22 474.446C1178.71 472.598 1178.93 470.695 1179.28 468.82C1179.49 467.438 1179.87 466.088 1180.05 464.703C1180.39 462.814 1180.52 460.903 1180.65 458.989C1180.68 458.424 1180.7 457.857 1180.71 457.293C1180.89 456.26 1180.94 455.214 1180.97 454.167C1181.04 452.956 1181.09 451.741 1181.09 450.527C1181.1 450.138 1181.12 449.753 1181.15 449.365C1181.21 449.081 1181.28 448.797 1181.33 448.508C1181.38 448.181 1181.41 447.853 1181.45 447.522C1181.78 446.113 1182.11 444.645 1181.93 443.441C1181.99 442.786 1182.06 442.144 1182.11 441.607C1182.25 440.591 1182.24 439.57 1182.24 438.551ZM1156.34 367.309C1156.42 367.46 1156.49 367.614 1156.57 367.766C1156.48 367.611 1156.39 367.46 1156.31 367.303C1156.25 367.187 1156.2 367.08 1156.15 366.973C1156.22 367.083 1156.28 367.196 1156.34 367.309ZM1153.33 362.277C1153.39 362.407 1153.45 362.539 1153.51 362.669C1153.52 362.696 1153.52 362.721 1153.53 362.748C1153.45 362.591 1153.36 362.437 1153.28 362.28C1153.3 362.28 1153.31 362.28 1153.33 362.277ZM876.127 450.893C876.108 450.813 876.094 450.733 876.081 450.653C876.064 450.491 876.056 450.32 876.053 450.147C876.083 450.161 876.111 450.169 876.138 450.183C876.138 450.334 876.144 450.483 876.152 450.634C876.141 450.72 876.135 450.805 876.127 450.893ZM929.096 327.517C928.66 327.801 928.231 328.092 927.819 328.412C927.031 328.993 926.325 329.679 925.603 330.34C924.732 331.047 923.938 331.838 923.197 332.677C923.125 332.76 923.057 332.843 922.988 332.925C922.615 333.206 922.26 333.479 921.898 333.856C921.381 334.41 920.961 335.043 920.557 335.685C920.187 336.007 919.813 336.329 919.442 336.651C910.129 345.537 902.03 355.735 895.177 366.631C889.338 376.795 884.38 387.485 879.959 398.338C878.723 401.788 877.577 405.269 876.328 408.714C875.663 410.223 875.413 412.74 874.213 413.764C874.21 413.756 874.205 413.745 874.202 413.734C876.3 407.359 878.514 401.017 880.165 394.502C884.488 383.952 889.077 372.929 895.386 363.503C902.095 353.95 908.583 343.943 917.624 336.423C921.296 333.005 924.966 329.646 929.234 326.974C929.657 326.688 929.978 326.228 930.426 326.071C929.978 326.55 929.533 327.03 929.096 327.517ZM919.03 398.233C918.945 398.222 918.857 398.203 918.772 398.181C918.885 398.101 918.973 398.115 919.061 398.126C919.05 398.162 919.036 398.233 919.03 398.233ZM920.761 394.648C920.761 394.667 920.623 394.678 920.549 394.692C920.571 394.505 920.593 394.32 920.615 394.133C920.761 394.284 920.772 394.466 920.761 394.648ZM938.78 367.92C936.385 370.787 934.331 373.951 932.381 377.117C928.272 382.019 925.413 387.397 921.486 392.417C923.466 387.353 927.031 383.143 929.744 378.461C932.549 374.612 935.465 370.795 938.945 367.534C938.907 367.672 938.857 367.804 938.78 367.92ZM964.779 296.435C963.867 296.774 962.974 297.157 962.043 297.446C962.955 297.102 963.867 296.763 964.779 296.435ZM950.483 352.84C950.387 352.937 950.294 353.036 950.198 353.132C950.302 352.984 950.417 352.86 950.546 352.744C950.524 352.777 950.502 352.807 950.483 352.84ZM953.573 304.975C953.518 305.148 953.169 305.336 952.961 305.33C951.392 305.286 950.137 306.162 948.866 306.831C946.138 308.282 943.562 310.011 940.931 311.633C946.49 307.475 952.551 304.019 958.536 300.516C963.183 298.52 967.929 296.777 972.719 295.16C969.992 296.254 967.366 297.548 964.691 298.762C962.052 300.773 954.405 302.411 953.573 304.975ZM998.564 293.346C993.158 294.825 987.731 296.248 982.439 298.085C982.019 298.234 981.601 298.382 981.184 298.534C979.324 299.068 977.495 299.679 975.691 300.412C975.147 300.602 974.609 300.811 974.073 301.026C972.332 301.643 970.618 302.334 968.937 303.097C968.945 303.011 968.948 302.921 968.959 302.841C969.728 302.287 970.483 301.717 971.302 301.238C971.73 300.985 972.156 300.731 972.582 300.481C973.551 300.01 974.521 299.539 975.529 299.164C977.017 298.611 978.531 298.192 980.005 297.581C980.066 297.556 980.123 297.548 980.176 297.553C985.125 295.604 990.294 294.202 995.474 292.96C996.795 292.792 998.113 292.624 999.44 292.503C1000.34 292.443 1001.25 292.393 1002.15 292.346C1000.96 292.679 999.758 293.013 998.564 293.346ZM1058.03 287.268C1058.53 287.219 1059.02 287.164 1059.51 287.114C1066.86 287.712 1074.12 289.135 1081.16 291.324C1081.65 291.542 1082.14 291.738 1082.64 291.917C1082.85 292.021 1083.06 292.126 1083.28 292.222C1083.88 292.506 1084.49 292.792 1085.14 292.955C1085.66 293.227 1086.18 293.508 1086.69 293.808C1087.32 294.199 1087.97 294.555 1088.62 294.91C1086.71 294.4 1084.87 293.662 1082.98 293.109C1080.63 292.451 1078.26 291.87 1075.9 291.264C1073.04 290.727 1070.2 290.016 1067.53 289.468C1064.36 288.623 1060.86 288.615 1057.87 287.337C1057.92 287.315 1057.98 287.293 1058.03 287.268ZM1097.67 318.909C1096.06 318.036 1094.43 317.204 1092.82 316.337C1098.75 317.876 1104.07 321.01 1109.07 324.482C1111.52 326.118 1113.99 327.831 1115.96 330.034C1109.47 327.214 1104.17 321.902 1097.67 318.909ZM1117.73 325.545C1116.07 324.229 1114.21 323.161 1112.51 321.872C1114.83 322.552 1116.76 323.846 1118.77 325.149C1121 326.608 1123.3 327.82 1125.29 329.648C1127.17 331.133 1129.15 332.504 1130.91 334.109C1134.17 337.37 1138.54 340.066 1140.77 344.117C1136.72 342.401 1133.56 338.851 1130.05 336.197C1126.29 332.303 1121.88 328.773 1117.73 325.545ZM1124.05 337.463C1124.15 337.574 1124.25 337.684 1124.35 337.797C1124.23 337.709 1124.12 337.604 1124.05 337.463ZM1037.24 581.063C1039.86 580.371 1042.33 579.504 1044.92 580.443C1043.28 582.784 1039.75 582.12 1037.25 582.128C1036.86 582.117 1036.4 582.175 1036.37 581.605C1036.35 580.985 1036.93 581.189 1037.24 581.063ZM987.028 581.514C988.91 582.269 991.019 582.908 992.812 583.808C990.118 584.072 987.921 582.943 985.578 581.679C986.169 581.162 986.613 581.363 987.028 581.514ZM972.483 576.717C972.84 576.94 974.128 576.979 973.941 577.469C973.422 577.328 972.796 577.097 972.406 576.984C972.431 576.893 972.458 576.805 972.483 576.717ZM957.517 557.309C956.265 556.755 955.048 555.932 953.903 555.15C955.092 555.896 956.298 556.618 957.517 557.309ZM962.733 574.261C956.825 572.584 951.799 569.772 946.792 566.528C946.828 566.448 946.866 566.369 946.902 566.289C948.618 566.649 950.115 567.814 951.711 568.547C957.553 572.102 964.301 573.272 970.431 576.15C967.792 575.877 965.342 574.737 962.733 574.261ZM978.901 580.961C978.629 582.175 967.413 578.518 966.476 577.659C970.596 578.116 974.507 579.961 978.624 580.713C980.752 581.071 983.046 580.793 984.62 582.42C983.128 582.858 981.189 581.853 979.635 581.627C979.354 581.555 979.143 581.189 978.901 580.961ZM1029.19 596.431C1022.97 596.106 1016.73 596.092 1010.59 594.776C1004.65 593.771 998.86 592.232 993.07 590.626C992.137 590.345 991.186 590.089 990.236 589.833C989.794 589.687 989.352 589.541 988.91 589.398C987.13 588.759 985.32 588.197 983.532 587.586C982.733 587.212 981.955 586.785 981.214 586.284C981.255 586.284 981.296 586.289 981.337 586.289C982.788 586.702 984.232 587.148 985.713 587.454C988.962 588.178 992.28 588.5 995.556 589.057C996.949 589.307 998.336 589.594 999.728 589.853C999.791 589.869 999.854 589.883 999.918 589.897C1000.96 590.155 1002.02 590.31 1003.07 590.494C1003.58 590.613 1004.1 590.712 1004.62 590.794C1005.44 591.103 1006.27 591.342 1007.11 591.524C1007.41 591.579 1007.71 591.62 1008.01 591.656C1008.16 591.711 1008.32 591.764 1008.48 591.808C1009.29 592.05 1010.13 592.188 1010.98 592.254C1012.45 592.667 1013.94 593.052 1015.41 593.452C1017.41 593.901 1019.42 594.3 1021.43 594.716C1024.21 595.36 1027 596.013 1029.82 596.461C1029.62 596.448 1029.41 596.439 1029.19 596.431ZM1032.62 596.811C1034.16 596.957 1035.7 597.062 1037.25 597.133C1037.43 597.158 1037.62 597.183 1037.8 597.205C1036.04 597.401 1034.38 597.095 1032.62 596.811ZM1036.82 595.699C1036.97 595.71 1037.11 595.723 1037.25 595.734C1037.54 595.803 1037.83 595.875 1038.12 595.944C1037.69 595.864 1037.26 595.784 1036.82 595.699ZM1085.33 586.705C1080.76 588.77 1077.81 589.993 1073.39 592.003C1071.64 592.799 1069.61 592.84 1067.76 593.375C1063.14 594.999 1058.04 595.55 1053.19 596.156C1049.04 596.046 1044.58 595.679 1040.51 595.255C1039.48 595.101 1038.45 594.947 1037.42 594.79C1034.17 594.052 1030.88 593.57 1027.59 593.077C1026.36 592.661 1025.12 592.276 1023.87 591.901C1026.31 592.022 1028.78 591.769 1031.17 592.441C1031.17 592.391 1031.18 592.345 1031.2 592.298C1033.72 592.714 1036.29 593.058 1038.85 592.876C1041.05 593.218 1043.29 593.328 1045.49 592.895C1050.48 593.454 1055.51 592.703 1060.52 592.694C1066.11 591.951 1071.48 590.084 1076.96 588.79C1078.44 588.365 1080 588.63 1081.43 588.005C1082.78 587.388 1084.15 586.887 1085.59 586.509C1085.51 586.576 1085.41 586.636 1085.33 586.705ZM1140.34 536.025C1138.6 539.999 1136.84 544.038 1133.88 547.277C1132.62 549.35 1130.4 550.89 1128.68 552.63C1128.31 552.963 1127.93 553.291 1127.56 553.613C1126.58 555.051 1124.89 555.656 1123.77 556.962C1122.69 559.498 1121.31 559.889 1119.13 561.211C1115.12 565.683 1109.94 568.753 1104.8 571.711C1104.13 572.184 1103.59 572.297 1102.98 572.958C1102.86 573.077 1102.91 573.049 1102.52 573.261C1099.37 575.31 1095.94 576.811 1092.58 578.504C1088.59 580.052 1084.56 582.037 1080.49 583.238C1070.95 585.391 1061.37 588.032 1051.52 587.468C1051.43 587.429 1051.34 587.388 1051.24 587.349C1054.65 586.386 1058.09 585.548 1061.54 584.761C1062.86 584.48 1064.2 584.315 1065.37 583.555C1065.58 583.42 1065.87 583.279 1066.09 583.318C1067.12 583.489 1067.95 583.004 1068.85 582.673C1071.76 581.718 1074.73 580.743 1077.4 579.237C1081.01 578.267 1084.61 577.224 1088.11 575.899C1091.99 573.779 1096.09 572.072 1099.77 569.599C1101.39 568.651 1102.85 567.459 1104.27 566.253C1106.14 564.568 1108.39 563.32 1110.05 561.409C1114.97 557.846 1119.15 553.357 1123.4 549.031C1128.23 542.937 1132.28 536.254 1137.18 530.226C1133.72 537.374 1129.31 543.945 1124.98 550.581C1121.61 554.913 1117.61 558.675 1114.02 562.813C1125.47 554.197 1133.93 542.623 1142.38 531.377C1141.68 532.913 1141.01 534.469 1140.34 536.025ZM1142.4 511.126C1142.35 511.327 1142.29 511.525 1142.24 511.723C1141.48 513.307 1140.79 514.923 1139.86 516.416C1138.96 517.916 1137.77 519.2 1136.57 520.756C1137.17 518.833 1138.25 517.008 1139.43 515.38C1140.42 513.819 1142.01 512.056 1141.55 510.068C1141.44 509.553 1141.39 509.033 1141.38 508.512C1141.4 508.482 1141.41 508.452 1141.42 508.421C1141.79 507.557 1142.09 506.67 1142.35 505.772C1143.16 503.955 1143.91 502.118 1144.52 500.221C1144.64 499.868 1144.75 499.513 1144.86 499.158C1146.1 497.239 1146.39 494.89 1147.39 492.835C1147.7 493.108 1147.49 493.469 1147.4 493.796C1146.19 499.709 1144.5 505.472 1142.4 511.126ZM1152.33 499.863C1151.65 502.559 1150.97 505.26 1150.19 507.931C1149.18 509.542 1148.2 511.172 1147.31 512.861C1147.66 511.354 1148.16 509.864 1148.78 508.493C1149.13 507.711 1149.42 506.901 1149.68 506.073C1149.69 506.042 1149.71 506.012 1149.72 505.982C1150.45 504.426 1150.98 502.793 1151.53 501.171C1152.13 499.359 1152.69 497.533 1153.22 495.702C1152.94 497.095 1152.66 498.483 1152.33 499.863ZM1161.94 482.564C1160.84 479.518 1162.72 476.161 1163.18 473.055C1163.85 474.479 1163.05 480.028 1161.94 482.564Z" fill="#D17A22" fill-opacity="0.7"/>
</g>
<path d="M916.514 543.242C916.75 543.297 916.989 543.352 917.175 543.377C916.936 543.264 916.745 543.182 916.553 543.1C916.539 543.149 916.528 543.193 916.514 543.242Z" fill="#D17A22" fill-opacity="0.7"/>
<path d="M1150.46 335.39C1150.34 335.263 1150.22 335.134 1150.1 335.002C1150.04 334.963 1149.97 334.925 1149.9 334.886C1150.1 335.117 1150.24 335.305 1150.38 335.484C1150.4 335.453 1150.43 335.42 1150.46 335.39Z" fill="#D17A22" fill-opacity="0.7"/>
</g>
<defs>
<clipPath id="clip0_11_7">
<rect width="502" height="355" fill="white" transform="translate(750 248)"/>
</clipPath>
</defs>
</svg>
