<svg width="1440" height="1024" viewBox="0 0 1440 1024" fill="none" xmlns="http://www.w3.org/2000/svg">
<rect width="1440" height="1024" fill="#272932"/>
<g clip-path="url(#clip0_11_7)">
<path d="M1327.53 590.321C1328.12 591.265 1328.29 592.51 1329.22 593.13C1329.34 592.706 1329.54 592.461 1329.15 592.072C1328.66 591.367 1328.38 590.599 1327.53 590.321Z" fill="#D17A22" fill-opacity="0.7"/>
<path d="M1312.7 549.535C1312.49 549.34 1312.29 549.147 1312.08 548.951C1312.04 549.001 1312 549.048 1311.96 549.097C1312.06 549.224 1312.16 549.351 1312.3 549.522C1312.47 549.555 1312.58 549.546 1312.7 549.535Z" fill="#D17A22" fill-opacity="0.7"/>
<mask id="mask0_11_7" style="mask-type:luminance" maskUnits="userSpaceOnUse" x="1024" y="493" width="319" height="323">
<path d="M1024.4 493.238H1342.36V815.228H1024.4V493.238Z" fill="white"/>
</mask>
<g mask="url(#mask0_11_7)">
<path d="M1342.24 650.551C1342.24 648.615 1342.24 646.676 1342.23 644.738C1342.24 642.402 1342.22 640.067 1342.08 637.735C1342.33 633.524 1342.3 629.3 1341.83 625.109C1341.73 622.848 1340.75 620.675 1340.98 618.415C1341.04 616.385 1339.94 614.446 1339.58 612.48C1338.69 609.79 1338.63 606.785 1337.08 604.373C1337.03 606.824 1337.57 609.209 1338.06 611.599C1338.04 612.243 1338.04 612.888 1338.09 613.529C1338.15 613.953 1338.21 614.311 1338.26 614.631C1338.29 615.077 1338.33 615.523 1338.38 615.966C1338.3 617.726 1338.36 619.48 1338.43 621.256C1338.49 622.873 1338.57 624.489 1338.75 626.097C1338.64 628.196 1338.61 630.291 1338.8 632.387C1338.8 632.439 1338.81 632.489 1338.81 632.538C1338.81 632.756 1338.81 632.965 1338.8 633.131C1338.76 634.452 1338.83 635.771 1338.91 637.093C1339.25 640.414 1339.27 643.686 1339.05 647.001C1338.92 653.233 1337.79 659.341 1336.64 665.451C1336.66 665.928 1336.39 666.784 1336.14 667.624C1336.43 665.897 1336.69 664.168 1336.8 662.422C1336.85 661.67 1336.87 660.921 1336.88 660.17C1337.01 659.22 1337.13 658.297 1337.23 657.562C1337.49 654.367 1337.75 651.168 1337.75 647.959C1337.72 644.162 1337.12 640.398 1336.52 636.658C1336.43 636.267 1336.35 635.879 1336.26 635.488C1336.04 634.265 1335.77 633.051 1335.44 631.853C1335.45 631.916 1335.45 631.979 1335.46 632.043C1334.95 629.854 1334.41 627.667 1333.9 625.478C1333.94 628.091 1334.18 630.696 1334.47 633.29C1334.64 634.491 1334.82 635.636 1334.99 636.752C1335.2 639.963 1335.34 643.179 1335.17 646.401C1334.97 651.214 1334.39 656.003 1333.97 660.8C1333.97 660.841 1333.96 660.883 1333.96 660.924C1333.92 660.528 1333.87 660.137 1333.81 659.743C1333.89 658.98 1333.96 658.181 1334 657.209C1333.98 655.827 1333.91 654.447 1333.8 653.073C1333.91 651.074 1333.9 649.072 1333.64 647.084C1333.59 645.723 1333.22 644.421 1332.84 643.127C1332.79 642.014 1332.73 640.902 1332.58 639.8C1332.4 638.745 1332.16 637.705 1331.87 636.675C1331.84 636.427 1331.8 636.182 1331.77 635.934C1331.61 635.127 1331.43 634.32 1331.25 633.519C1330.89 630.509 1330.4 627.485 1329.74 624.704C1329.25 621.873 1328.98 618.935 1328.07 616.159C1327.35 613.7 1327.08 611.123 1326.23 608.628C1323.05 598.29 1317.88 588.58 1311.88 579.614C1314.18 585.912 1317.6 591.874 1319.92 598.117C1319.84 598.015 1319.76 597.916 1319.68 597.814C1322.62 603.922 1324.73 610.459 1325.66 617.206C1326.67 624.886 1328.48 632.205 1328.54 639.916C1328.38 639.547 1328.2 639.186 1328.02 638.828C1328.01 637.437 1327.86 636.044 1327.57 634.681C1327.36 633.61 1327.44 633.502 1327.19 632.505C1326.85 631.426 1326.61 631.2 1326.45 630.283C1326.33 629.113 1326.21 627.857 1325.78 625.916C1325.49 624.806 1325.11 623.746 1324.67 622.702C1324.62 622.308 1324.55 621.898 1324.45 621.507C1324.24 620.507 1323.92 619.91 1323.66 619.227C1323.55 618.629 1323.44 618.035 1323.3 617.445C1322.89 615.71 1322.6 615.407 1322.04 613.876C1322.04 613.882 1321.73 613.07 1321.55 612.557C1321.41 612.012 1321.31 611.459 1321.09 610.935C1320.85 610.178 1320.41 609.503 1320.12 608.768C1320.1 608.73 1320.07 608.666 1320.05 608.619C1320.04 608.592 1320.03 608.564 1320.02 608.537C1320.01 608.468 1320 608.383 1319.98 608.275C1319.87 607.818 1319.93 608.058 1319.83 607.477C1319.78 607.281 1319.79 607.143 1319.64 606.615C1319.56 606.18 1319.51 605.736 1319.4 605.304C1319.26 604.544 1319 603.814 1318.72 603.098C1318.48 602.476 1318.33 601.82 1318.15 601.182C1317.88 600.389 1317.56 599.615 1317.22 598.852C1316.84 598.037 1316.37 597.269 1315.88 596.519C1315.79 596.266 1315.7 596.016 1315.6 595.77C1315.39 595.261 1315.36 595.11 1315.15 594.644C1314.84 593.936 1314.62 593.141 1314.12 592.122C1313.94 591.667 1313.96 591.673 1313.71 591.006C1313.42 590.329 1313.1 589.674 1312.81 589.002C1312.79 588.952 1312.63 588.536 1312.59 588.423C1312.43 587.966 1312.24 587.52 1312.02 587.085C1311.64 586.388 1311.22 585.714 1310.78 585.056C1310.61 584.706 1310.4 584.37 1310.16 584.067C1310.13 584.034 1310.11 584.009 1310.1 583.995C1310.09 583.987 1310.08 583.976 1310.07 583.965C1309.78 583.519 1309.55 583.037 1309.27 582.583C1308.86 581.927 1308.6 581.2 1308.23 580.523C1307.98 579.945 1307.75 579.355 1307.4 578.827C1306.9 578.003 1306.36 577.205 1305.68 576.525C1305.26 575.905 1304.82 575.302 1304.33 574.74C1304.23 574.578 1304.13 574.415 1304.03 574.25C1303.19 572.735 1302.4 571.171 1301.29 569.827C1301.08 569.566 1300.86 569.324 1300.62 569.089C1300.15 568.478 1299.45 567.539 1298.81 566.702C1298.21 566 1297.6 565.306 1296.99 564.617C1296.22 563.596 1295.39 562.618 1294.53 561.668C1294.5 561.561 1294.46 561.456 1294.43 561.346C1298.99 564.392 1302.11 568.112 1305.84 571.896C1305.77 570.571 1304.69 569.871 1303.91 568.955C1302.88 567.776 1301.9 566.545 1300.83 565.41C1298.77 563.34 1296.6 561.376 1294.52 559.316C1293.34 558.185 1291.81 557.394 1291.11 555.783C1290.59 555.224 1289.74 554.938 1289.65 554.04C1289.38 552.641 1287.94 552.146 1286.87 551.424C1286.2 550.65 1285.47 549.912 1284.72 549.205C1290.47 551.416 1294.3 556.461 1298.63 560.578C1300.47 562.037 1301.95 563.899 1303.45 565.724C1308.94 572.204 1314.71 578.477 1319.27 585.689C1322.58 590.993 1325.51 596.525 1328.01 602.236C1328.5 603.627 1329.01 604.96 1329.51 606.127C1329.7 606.549 1329.96 607.05 1330.16 607.457C1332.02 612.276 1333.6 617.206 1334.88 622.228C1334.34 617.027 1332.68 612.089 1330.68 607.298C1330.54 606.799 1330.36 606.312 1330.2 605.816C1329.84 604.461 1329.36 603.148 1328.81 601.865C1328.77 601.754 1328.74 601.644 1328.7 601.537C1328.31 600.38 1327.94 599.218 1327.44 598.108C1327.34 597.894 1327.24 597.684 1327.14 597.475C1326.77 596.597 1326.33 595.748 1325.83 594.928C1325.77 594.669 1325.7 594.413 1325.63 594.157C1325.14 592.854 1324.47 591.634 1323.69 590.481C1323.65 590.384 1323.62 590.291 1323.58 590.197C1323.48 589.974 1323.37 589.754 1323.25 589.536C1323.25 589.528 1323.25 589.522 1323.25 589.514C1322.84 588.669 1322.41 587.834 1322 586.992C1321.52 586.121 1321.18 585.193 1320.68 584.34C1320.51 584.056 1320.33 583.778 1320.15 583.5C1319.72 582.511 1319.19 581.352 1318.63 580.333C1318 579.176 1317.2 578.127 1316.47 577.034C1315.92 576.235 1315.37 575.44 1314.81 574.646C1314.56 574.198 1314.32 573.752 1314.07 573.308C1315.02 574.479 1316.13 575.528 1317.31 576.472C1317.46 576.648 1317.67 576.797 1317.82 576.976C1318.91 578.281 1320.09 579.529 1321.06 580.92C1322.95 583.533 1324.41 586.463 1326.45 588.969C1325.34 585.436 1322.99 582.396 1321.37 579.063C1321.19 578.777 1321.01 578.491 1320.82 578.202C1320.65 577.808 1320.44 577.431 1320.25 577.051C1319.96 576.395 1319.64 575.759 1319.24 575.17C1319.19 575.095 1319.14 575.024 1319.09 574.952C1318.8 574.366 1318.47 573.793 1318.12 573.237C1317.66 572.587 1317.14 571.995 1316.57 571.441C1316.33 571.089 1316.08 570.731 1315.83 570.397C1315.7 570.158 1315.55 569.932 1315.34 569.737C1315.3 569.676 1315.25 569.618 1315.19 569.56C1314.78 568.817 1314.36 568.079 1313.91 567.355C1313.37 566.595 1313.21 566.421 1312.71 565.763C1312.1 564.995 1311.58 564.24 1310.71 563.274C1309.58 562.125 1308.45 560.98 1307.33 559.812C1307.06 559.531 1306.78 559.27 1306.48 559.016C1306.25 558.683 1306.02 558.361 1305.79 558.055C1304.88 557.025 1303.91 556.056 1302.91 555.111C1302.63 554.72 1302.35 554.335 1302.04 553.96C1300.73 552.457 1299.16 551.212 1297.61 549.956C1296.73 549.224 1295.85 548.475 1294.96 547.74C1293.41 545.771 1291.55 544.165 1289.62 542.634C1288.29 540.946 1286.61 539.569 1285.07 538.08C1288.55 540.249 1291.54 543.119 1294.79 545.617C1297.55 548.169 1300.36 550.628 1303.52 552.666C1310.2 558 1315.61 564.744 1321.24 571.135C1324.46 574.627 1326.82 578.645 1330.37 581.845C1328.98 578.48 1327.53 575.101 1326.23 571.681C1325.43 570.772 1324.73 569.885 1324.12 568.82C1322.41 565.361 1320.08 562.379 1317.53 559.498C1316.1 557.802 1314.85 555.943 1312.96 554.665C1311.59 553.922 1312.33 552.958 1311.35 552.159C1307.5 548.849 1303.93 545.259 1299.98 542.097C1299.97 542.136 1299.96 542.177 1299.96 542.216C1299.7 542.004 1299.35 541.885 1299.42 541.577C1298.38 540.475 1297.2 539.578 1295.96 538.721C1294.97 538.115 1293.78 537.771 1293.27 536.551C1291.98 535.563 1290.55 534.61 1289.12 533.853C1284.86 531.517 1280.7 528.893 1276.36 526.734C1271.68 525.032 1267.61 522.13 1262.8 520.742C1254.79 517.906 1246.83 514.926 1238.81 512.084C1234.58 510.707 1230.29 509.518 1226.03 508.24C1225.92 508.193 1225.8 508.155 1225.67 508.124C1225.5 508.042 1225.32 507.962 1225.14 507.896C1225.12 507.887 1225.1 507.882 1225.08 507.876C1224.71 507.736 1224.33 507.615 1223.94 507.524C1223.92 507.499 1223.89 507.474 1223.86 507.447C1223.94 507.447 1224.02 507.45 1224.1 507.45C1224.82 507.51 1225.55 507.56 1226.27 507.585C1227.33 507.786 1228.41 507.876 1229.48 508.028C1235.62 508.923 1241.67 510.432 1247.78 511.506C1250.27 512.087 1252.68 513.034 1255.27 513.205C1256.95 513.596 1258.64 514.582 1260.36 514.725C1261.69 514.821 1262.92 515.058 1264.14 515.565C1267.23 516.62 1270.27 517.817 1273.25 519.164C1279.26 521.53 1284.2 525.902 1289.59 529.391C1296.82 534.577 1304.1 539.98 1309.83 546.831C1309.82 546.834 1309.84 546.768 1309.85 546.724C1308.84 545.526 1307.92 544.157 1307.16 542.761C1305.61 541.56 1304.63 539.806 1302.98 538.68C1301.55 537.482 1300.09 536.32 1298.65 535.127C1297.47 534.131 1296.68 532.787 1295.19 532.198C1294.08 531.647 1293.32 530.529 1292.45 529.7C1290.83 528.524 1289.14 527.445 1287.53 526.258C1286.23 525.308 1284.69 524.688 1283.71 523.325C1281.24 521.653 1278.51 520.282 1275.95 518.718C1274.47 518.118 1275.23 517.385 1274.22 516.782C1269.95 514.436 1265.39 512.671 1261.02 510.506C1257.23 509.014 1253.97 506.527 1250.08 505.304C1249.12 504.944 1248.17 504.583 1247.21 504.219C1246.59 503.886 1245.97 503.578 1245.33 503.302C1245.02 503.176 1244.7 503.068 1244.38 502.964C1244.06 502.81 1243.72 502.672 1243.39 502.545C1243.39 502.545 1243.39 502.545 1243.4 502.545C1243.69 502.611 1244 502.675 1244.28 502.727C1244.43 502.763 1244.59 502.801 1244.74 502.843C1245.05 502.92 1245.36 502.997 1245.67 503.074C1246.02 503.179 1246.37 503.283 1246.72 503.377C1247.47 503.627 1247.92 503.746 1248.32 503.925C1248.97 504.107 1249.62 504.269 1250.26 504.465C1250.49 504.52 1250.73 504.558 1250.97 504.588C1250.96 504.588 1250.97 504.591 1251 504.597C1251.03 504.608 1251.03 504.608 1251.01 504.599C1251.14 504.649 1251.27 504.677 1251.41 504.696C1251.41 504.699 1251.42 504.699 1251.44 504.701C1251.67 504.77 1251.91 504.806 1252.14 504.88C1252.64 504.944 1253.12 505.081 1253.6 505.222C1254.08 505.335 1254.56 505.503 1255.04 505.618C1255.27 505.657 1255.4 505.745 1255.52 505.786C1255.79 505.899 1256 506.007 1256.41 506.122C1256.75 506.227 1257.1 506.326 1257.44 506.442C1257.24 506.326 1257.05 506.183 1256.84 506.075C1257.32 506.252 1257.8 506.422 1258.28 506.593C1261.1 507.265 1263.25 508.358 1266.06 509.405C1263.16 506.712 1258.49 506.175 1254.89 504.591C1249.56 502.347 1243.85 501.43 1238.27 499.987C1237.66 499.838 1237.04 499.725 1236.42 499.615C1236.25 499.555 1236.08 499.5 1235.9 499.444C1235.58 499.348 1235.25 499.271 1234.92 499.208C1234.25 498.935 1233.55 498.673 1232.78 498.442C1232.63 498.395 1232.47 498.351 1232.32 498.315C1232.3 498.31 1232.28 498.304 1232.25 498.299C1232.23 498.293 1232.18 498.28 1232.11 498.266C1231.94 498.225 1231.77 498.194 1231.6 498.164C1231.41 498.112 1231.22 498.065 1231.03 498.029C1231.02 498.029 1231.02 498.024 1231.02 498.024C1230.4 497.897 1229.76 497.754 1229.17 497.506C1228.95 497.476 1228.75 497.437 1228.56 497.382C1223.08 495.765 1217.45 494.986 1211.79 494.325C1205.95 493.474 1200.09 493.439 1194.21 493.587C1194.03 493.568 1193.85 493.549 1193.67 493.532C1190.91 493.348 1188.14 493.24 1185.38 493.419C1182.86 493.417 1180.34 493.389 1177.82 493.425C1176.51 493.422 1175.2 493.62 1173.91 493.813C1173.15 493.934 1172.7 493.94 1171.63 494.077C1170.26 494.27 1168.88 494.336 1167.5 494.501C1165.17 494.884 1162.84 495.289 1160.5 495.644C1156.67 496.264 1152.82 496.76 1149.01 497.514C1148.64 497.594 1148.28 497.682 1147.91 497.767C1141.85 498.795 1135.89 500.191 1130.48 502.088C1120.28 505.002 1110.78 509.369 1101.97 515.042C1101.21 515.433 1100.46 515.838 1099.71 516.242C1097.85 517.223 1096.05 518.31 1094.42 519.643C1094.38 519.676 1094.34 519.709 1094.3 519.742C1093.07 520.472 1091.83 521.188 1090.69 522.061C1090.45 522.215 1090.21 522.372 1089.98 522.532C1087.65 524.11 1085.36 525.754 1083.22 527.582C1082.75 527.929 1082.17 528.381 1081.55 528.876C1081.44 528.956 1081.33 529.036 1081.22 529.116C1080.93 529.361 1080.65 529.606 1080.37 529.854C1079.67 530.427 1078.99 531.011 1078.39 531.523C1078.53 531.435 1078.66 531.349 1078.79 531.261C1078.56 531.479 1078.32 531.696 1078.08 531.917C1077.11 532.586 1076.18 533.321 1075.28 534.087C1069.09 538.994 1064.46 545.377 1059.75 551.625C1059.18 552.118 1058.58 552.724 1058.16 553.393C1057.81 553.933 1056.4 555.023 1055.79 556.039C1055.18 556.97 1054.52 557.871 1053.89 558.796C1053.6 559.239 1053.36 559.71 1053.1 560.167C1052.86 560.528 1052.6 560.872 1052.38 561.239C1051.75 562.337 1050.99 563.345 1050.31 564.411C1050.06 564.84 1049.87 565.306 1049.6 565.73C1049.31 566.281 1048.96 566.804 1048.62 567.322C1048.37 567.806 1048.07 568.258 1047.81 568.731C1047.48 569.255 1047.18 569.805 1046.88 570.345C1046.49 570.984 1046.09 571.623 1045.73 572.281C1045.5 572.76 1045.24 573.228 1045.01 573.716C1045.01 573.729 1045 573.749 1045 573.763C1044.86 573.983 1044.73 574.206 1044.61 574.429C1044.09 575.387 1043.53 576.321 1043.1 577.32C1043.06 577.395 1043.03 577.469 1043 577.541C1041.5 579.79 1040.1 582.12 1038.84 584.565C1035.7 591.728 1033.02 599.069 1030.55 606.494C1028.84 610.137 1027.75 614.738 1026.18 618.638C1024.56 622.391 1027.95 629.107 1025.42 632.505C1025.06 633.654 1024.81 634.882 1024.51 636.058C1024.47 636.248 1024.46 636.6 1024.55 636.644C1025.72 637.228 1024.51 638.2 1024.85 639.406C1026.59 638.9 1026.17 640.406 1025.66 641.32C1025.07 642.21 1025.36 643.091 1025.65 643.961C1025.7 644.112 1025.95 644.256 1026.13 644.294C1028.64 644.98 1028.21 641.857 1030.06 641.474C1030.75 642.576 1029.19 643.587 1029.74 644.636C1030.44 644.74 1030.64 643.639 1031.09 643.251C1032.03 642.265 1030.83 642.204 1030.9 641.254C1030.91 641.163 1031.3 641.012 1031.45 641.067C1033.06 641.48 1033 638.321 1034.42 637.974C1035.01 639.101 1034.09 640.389 1033.96 641.571C1033.36 643.016 1033.4 646.109 1032.35 646.952C1032.17 647.067 1032.01 647.362 1032.01 647.574C1031.97 648.607 1032.34 649.771 1032.07 650.766C1031.74 651.446 1031.73 652.137 1031.9 652.812C1032.13 653.696 1031.91 654.442 1031.47 655.188C1030.86 656.08 1030.34 657.653 1031.82 657.956C1033.26 658.143 1033.1 655.529 1033.75 654.621C1034.24 653.679 1034.54 652.701 1034.75 651.702C1035.26 650.705 1035.79 649.719 1036.28 648.714C1036.31 648.708 1036.35 648.706 1036.38 648.706C1036.38 648.783 1036.37 648.86 1036.37 648.937C1035.91 650.666 1035.6 652.448 1035.57 654.238C1035.57 654.959 1035.58 655.678 1035.61 656.397C1035.06 657.611 1034.43 657.939 1034.71 660.043C1034.54 660.808 1034.67 661.252 1034.92 661.544C1034.59 662.612 1034.45 663.736 1034.57 664.851C1034.63 665.729 1035.03 666.514 1035.32 667.329C1035.62 668.098 1035.83 668.891 1036.01 669.692C1036.03 670.069 1036.04 670.444 1036.07 670.821C1036.09 671.733 1036.08 672.65 1036.14 673.564C1036.14 673.919 1036.1 674.269 1036.01 674.602C1035.14 677.141 1037.42 678.909 1037.56 681.258C1038.05 685.788 1039.62 683.094 1039.96 684.915C1040.54 688.715 1042.33 687.013 1044.82 689.742C1047.77 691.639 1050.11 688.12 1052.5 686.856C1055.29 684.951 1056.31 681.417 1058.18 678.711C1058.5 677.78 1058.63 676.744 1058.91 675.792C1059.11 675.021 1059.56 674.473 1060.33 674.205C1061.49 673.613 1061.6 674.993 1061.98 675.736C1064.18 675.461 1062.7 671.512 1062.77 669.998C1062.4 668.888 1063.21 667.886 1063.06 666.834C1062.63 665.829 1062.72 664.826 1062.75 663.766C1063.01 655.375 1065.22 647.186 1066.59 638.927C1068.05 632.971 1069.16 626.918 1071.35 621.163C1075.3 610.85 1079.67 600.658 1085.89 591.488C1091.37 582.343 1098.24 573.931 1107.12 567.966C1104.78 570.213 1102.92 572.782 1100.46 574.853C1100.4 575.051 1100.32 575.131 1100.16 575.117C1091.37 586.256 1082.67 597.85 1077.14 611.128C1072.99 620.023 1070.93 629.625 1068.26 639.024C1065.86 646.83 1065.08 654.924 1064.17 662.995C1064.26 663.006 1064.35 663.014 1064.45 663.025C1065.34 660.93 1065.3 658.589 1065.83 656.416C1066.19 655.494 1066.29 654.563 1066.31 653.594C1066.35 651.404 1066.63 649.256 1067.24 647.139C1068.4 642.039 1069.9 637.027 1071.1 631.935C1072.74 625.996 1074.26 619.918 1077.27 614.499C1077.28 614.518 1077.3 614.534 1077.31 614.554C1076.26 617.156 1075.44 619.855 1074.93 622.614C1074.38 624.963 1072.7 627.014 1072.97 629.52C1072.75 630.735 1072.04 631.894 1071.71 633.097C1071.33 635.091 1071.52 637.157 1071.26 639.175C1073.17 636.005 1074 632.337 1075.52 628.972C1075.5 627.904 1076.04 626.761 1076.45 625.861C1077.26 624.162 1077.67 622.317 1078.16 620.513C1078.72 618.855 1079.74 617.332 1080.65 615.818C1082.28 611.662 1084.21 607.645 1086.26 603.687C1087.25 602.118 1088.68 600.766 1089.58 599.149C1089.76 598.307 1090.46 597.566 1090.96 596.894C1091.99 595.476 1092.52 593.733 1093.5 592.27C1095.06 589.638 1097.06 587.314 1098.58 584.645C1101.1 581.151 1103.97 577.871 1107.14 574.958C1108.35 574.165 1109.48 573.336 1110.29 572.105C1111.07 571.232 1112.26 569.414 1113.6 569.191C1115.38 566.908 1117.57 564.918 1119.94 563.246C1123.49 559.826 1127.67 557.257 1131.98 554.93C1132.83 554.448 1133.64 553.916 1134.44 553.363C1136.52 552.314 1138.6 551.242 1140.66 550.152C1140.69 550.138 1140.72 550.127 1140.76 550.116C1141.95 549.689 1143.15 549.315 1144.32 548.833C1146.94 547.781 1149.58 546.817 1152.24 545.873C1154.8 544.978 1157.33 543.978 1159.93 543.188C1160.76 542.923 1161.58 542.667 1162.41 542.414C1162.71 542.386 1163.01 542.364 1163.31 542.345C1166.92 541.114 1170.71 540.963 1174.41 540.266C1175.55 540.249 1176.7 540.244 1177.84 540.244C1183.42 539.823 1189.03 539.949 1194.6 540.417C1194.83 540.428 1195.05 540.437 1195.28 540.445C1198.72 540.596 1202.15 540.897 1205.5 541.624C1206.66 541.731 1207.82 541.869 1208.98 542.031C1209.82 542.125 1210.66 542.221 1211.49 542.323C1218.88 543.383 1225.86 546.038 1232.84 548.582C1236.83 549.981 1240.48 551.796 1244.07 553.993C1247.17 555.478 1249.97 557.485 1252.97 559.137C1254.78 560.919 1256.96 562.591 1258.99 563.987C1259.32 564.361 1259.65 564.739 1259.97 565.119C1262.1 567.027 1264 569.169 1265.88 571.323C1268.13 573.308 1270.31 575.36 1272.16 577.736C1272.96 578.766 1273.71 579.832 1274.44 580.914C1277.03 583.949 1279.36 587.217 1281.46 590.626C1282.28 591.698 1283.08 592.769 1283.87 593.843C1285.55 596.787 1287.09 599.807 1288.66 602.809C1289.36 603.974 1290.01 605.172 1290.59 606.403C1290.95 607.066 1291.32 607.73 1291.7 608.388C1291.8 608.815 1291.9 609.239 1292.01 609.66C1292.35 610.453 1292.64 611.266 1292.84 612.095C1293.1 612.739 1293.35 613.386 1293.6 614.036C1293.73 614.35 1293.86 614.667 1293.99 614.986C1294.04 615.11 1294.1 615.234 1294.15 615.361C1294.38 615.92 1294.59 616.484 1294.78 617.054C1296.94 622.895 1298.38 629.003 1299.21 635.185C1299.66 637.289 1300.05 639.409 1300.38 641.538C1300.4 641.631 1300.41 641.722 1300.43 641.813C1300.44 641.863 1300.44 641.907 1300.44 641.956C1300.97 645.418 1301.34 648.904 1301.6 652.401C1301.66 652.861 1301.72 653.318 1301.78 653.773C1301.77 654.065 1301.76 654.354 1301.76 654.646C1301.95 657.832 1302.05 661.02 1302.1 664.207C1301.78 666.096 1301.54 667.998 1301.41 669.91C1301.34 670.953 1301.27 671.997 1301.21 673.038C1301.1 673.404 1301 673.768 1300.91 674.139C1299.76 678.482 1298.93 682.907 1297.75 687.242C1297.18 689.056 1296.6 690.877 1295.99 692.655C1295.06 694.839 1294.14 696.965 1293.21 699.212C1293.02 699.617 1292.82 700.022 1292.63 700.424C1292.05 701.542 1291.47 702.665 1290.9 703.792C1289.63 705.956 1288.31 708.093 1286.99 710.224C1285.66 712.295 1284.42 714.416 1283.12 716.503C1282.54 717.257 1281.96 718.012 1281.38 718.766C1280.26 720.377 1279.14 721.986 1277.96 723.553C1277.7 723.922 1277.42 724.288 1277.15 724.657C1276.08 726.036 1275.01 727.411 1273.93 728.785C1273.37 729.459 1272.82 730.139 1272.28 730.825C1272.13 731.004 1271.98 731.186 1271.83 731.368C1267.96 735.124 1264.04 738.825 1260.55 742.964C1255.18 747.103 1249.9 751.335 1243.96 754.642C1239.16 756.628 1234.91 759.679 1230.24 761.898C1220.8 766.087 1210.68 768.904 1200.3 769.108C1184.98 770.228 1169.54 769.014 1154.56 765.343C1149.56 764.236 1144.8 762.625 1140.03 760.623C1137.31 759.125 1134.75 757.335 1132 755.887C1128.05 753.34 1123.78 751.332 1119.9 748.68C1114.35 745.153 1109.41 740.807 1104.25 736.757C1100.35 733.309 1096.79 729.495 1093.36 725.582C1088.96 719.934 1084.64 713.656 1079.73 708.319C1079.74 708.33 1079.74 708.341 1079.75 708.355C1079.38 707.931 1078.97 707.539 1078.6 707.115C1080.67 710.902 1082.82 714.663 1085.13 718.304C1084.89 718.009 1084.65 717.712 1084.41 717.409C1085 718.466 1085.64 719.491 1086.3 720.496C1085.83 720.055 1085.27 719.681 1084.8 719.226C1084.83 719.259 1084.85 719.292 1084.87 719.326C1084.13 718.744 1083.56 718.359 1083.02 717.888C1085.65 722.264 1088.9 726.268 1091.76 730.47C1095.87 737.043 1101.49 742.515 1107.11 747.807C1106.07 747.207 1105.06 746.571 1104.06 745.905C1104.34 746.326 1104.98 746.596 1105.07 747.1C1109.75 750.581 1114.58 753.813 1119.23 757.352C1106.62 752.274 1097.18 741.606 1085.32 735.446C1089.03 741.014 1093.78 745.682 1098.71 750.151C1099.69 750.916 1100.69 751.643 1101.71 752.332C1101.89 752.527 1102.08 752.72 1102.27 752.907C1103.4 754.001 1104.53 755.121 1105.86 755.975C1107.19 756.771 1108.46 757.649 1109.81 758.404C1109.84 758.418 1109.86 758.426 1109.88 758.44C1110.51 758.831 1111.13 759.236 1111.75 759.64C1112.16 759.943 1112.57 760.235 1113 760.513C1113.66 760.957 1114.33 761.392 1115.01 761.802C1117.84 763.688 1120.69 765.542 1123.76 767.026C1126.93 768.89 1130.24 770.548 1133.43 772.376C1137.26 774.648 1141.55 775.929 1145.49 777.991C1153.19 781.874 1161.21 785.225 1169.69 786.867C1174.23 788.579 1179.09 789.304 1183.72 790.411C1183.52 790.441 1183.32 790.466 1183.13 790.493C1181.02 790.325 1178.93 790.072 1176.82 789.94C1176.36 789.921 1175.99 789.89 1175.65 789.849C1173.76 789.491 1171.84 789.094 1169.82 788.736C1167.8 788.365 1165.77 788.042 1163.76 787.607C1161.24 787.002 1158.77 786.236 1156.28 785.517C1153.46 784.754 1150.55 784.278 1147.82 783.188C1146.65 782.722 1145.47 782.265 1144.29 781.83C1143.38 781.491 1142.5 781.095 1141.57 780.839C1139.82 780.401 1138.81 779.754 1137.02 778.889C1136.61 778.688 1136.21 778.503 1135.8 778.319C1131.53 776.108 1127.26 773.896 1122.91 771.817C1122.96 771.828 1123 771.842 1123.05 771.853C1110.61 763.33 1097.74 755.094 1086.42 745.112C1082.35 741.521 1078.77 737.486 1075.29 733.348C1072.56 730.335 1069.36 727.749 1067.04 724.373C1067.23 724.797 1067.43 725.213 1067.63 725.626C1067.27 725.257 1066.98 724.715 1066.72 724.373C1066.8 724.563 1066.88 724.756 1066.96 724.951C1066.94 724.924 1066.91 724.894 1066.88 724.866C1067.24 725.442 1067.43 726.113 1067.74 726.717C1067.73 726.703 1067.72 726.692 1067.7 726.681C1068.03 727.306 1068.36 727.931 1068.72 728.54C1068.71 728.523 1068.7 728.509 1068.69 728.493C1070.55 732.725 1074.08 735.842 1076.34 739.816C1082.05 748.182 1089.59 755.19 1097.8 761.05C1093.26 759.092 1088.92 756.705 1084.53 754.444C1082.87 753.483 1081.6 751.985 1079.74 751.338C1077.88 750.28 1076.21 748.664 1074.23 747.945C1074.19 748.033 1074.16 748.121 1074.13 748.21C1075.71 748.961 1077.17 749.812 1078.16 751.319C1078.29 752.351 1077.2 751.572 1076.77 751.327C1076.79 751.696 1076.94 751.905 1077.14 752.026C1078.88 753.246 1080.46 754.659 1082.41 755.573C1083.72 756.578 1085.03 757.586 1086.33 758.599C1087.66 759.635 1089.21 760.42 1090.1 761.964C1090.24 762.207 1090.55 762.369 1090.81 762.518C1095.56 765.126 1100.21 767.849 1104.4 771.313C1106.58 772.985 1108.74 774.692 1110.92 776.372C1111.42 776.758 1111.79 777.193 1111.8 778.013C1105.18 775.458 1099.36 771.234 1093.49 767.304C1089.43 763.876 1085.67 760.007 1080.9 757.547C1082.65 759.288 1084.73 760.667 1086.49 762.389C1089.35 765.566 1092.75 768.072 1095.95 770.859C1095.9 770.939 1095.85 771.016 1095.79 771.096C1092 769.256 1088.52 766.695 1085.03 764.324C1084.1 763.928 1084.81 765.407 1083.47 764.501C1081.13 763.314 1078.91 761.882 1076.5 760.846C1079.18 763.424 1082.9 764.837 1085.96 766.998C1089.22 768.995 1092.04 771.688 1094.81 774.299C1094.74 774.367 1094.67 774.436 1094.61 774.505C1091.59 773.007 1089.18 770.592 1086.33 768.791C1086.74 769.559 1087.61 770.005 1087.95 771.033C1085.15 770.105 1083.66 767.312 1081.07 766.255C1080.91 766.723 1081.04 767.053 1081.48 767.293C1086.01 770.826 1090.6 774.348 1094.35 778.724C1100.85 784.019 1108.49 787.461 1116 791.061C1116.53 791.397 1117.05 791.727 1117.58 792.052C1119.48 793.151 1121.48 794.048 1123.48 794.924C1124.68 795.472 1125.89 796.012 1127.11 796.491C1139.73 803.331 1153.56 807.748 1167.64 810.403C1168.04 810.433 1168.44 810.469 1168.84 810.508C1171.05 811.168 1173.25 811.813 1175.52 812.198C1177.53 812.532 1179.56 812.766 1181.6 812.804C1184.04 813.36 1186.48 813.936 1188.93 814.443C1194.06 815.233 1199.16 814.454 1204.28 814.052C1208.13 813.809 1211.91 813.245 1215.6 812.138C1216.1 812.052 1216.31 811.802 1216.5 811.557C1217.33 811.342 1218.16 811.122 1218.98 810.885C1218.99 810.885 1218.99 810.882 1219 810.882C1219.16 810.871 1219.32 810.857 1219.48 810.819C1219.54 810.802 1219.61 810.788 1219.68 810.775C1219.7 810.775 1219.71 810.769 1219.73 810.769C1220.71 810.659 1221.67 810.389 1222.62 810.172C1223.81 809.926 1225.02 809.734 1226.2 809.464C1227.68 809.015 1229.23 808.828 1230.71 808.362C1231.75 808.087 1232.79 807.787 1233.85 807.556C1234.92 807.294 1236.02 807.109 1237.09 806.831C1238.23 806.506 1239.33 806.074 1240.46 805.746C1241.96 805.245 1243.17 804.752 1244.18 804.383C1245.42 803.901 1246.75 803.675 1247.98 803.15C1248.84 802.778 1248.68 802.855 1249.44 802.502C1250.11 802.153 1250.75 801.74 1251.45 801.428C1252.02 801.205 1252.6 801.035 1253.16 800.776C1254.38 800.197 1254.55 800.159 1255.76 799.638C1256.36 799.338 1256.92 798.967 1257.52 798.653C1258.84 797.92 1260.27 797.375 1261.53 796.527C1262.25 796.028 1262.52 795.83 1262.91 795.541C1263.2 795.378 1263.5 795.205 1263.81 795.007C1264.23 794.729 1264.63 794.409 1265.05 794.128C1265.66 793.765 1266.28 793.398 1266.85 792.98C1267.93 792.314 1269.07 791.743 1270.11 791.008C1270.48 790.716 1270.84 790.408 1271.2 790.097C1271.45 789.984 1271.69 789.832 1271.93 789.626C1275.64 786.82 1279.59 784.322 1283.02 781.164C1283.65 780.55 1284.29 779.935 1284.92 779.319C1285.09 779.186 1285.25 779.054 1285.42 778.919C1285.91 778.765 1286.35 778.435 1286.77 778.157C1288 777.41 1289.04 776.416 1290.08 775.439C1290.74 774.833 1291.43 774.254 1292.05 773.605C1292.71 772.93 1293.43 772.327 1294.15 771.718C1294.99 771.077 1295.72 770.322 1296.42 769.529C1296.96 768.962 1297.47 768.37 1297.95 767.758C1298.28 767.513 1298.59 767.241 1298.87 766.943C1298.97 766.963 1299.06 766.979 1299.16 766.993C1300.25 765.28 1301.51 763.653 1302.95 762.215C1303.03 762.121 1303.11 762.033 1303.2 761.942C1304.2 760.111 1305.21 758.31 1306.12 757.28C1309.7 751.214 1314.54 745.896 1317.23 739.323C1317.76 738.255 1318.36 737.225 1318.98 736.211C1319.92 734.89 1320.82 733.535 1321.6 732.111C1322.16 731.219 1322.72 730.318 1323.24 729.399C1324.61 727.099 1325.63 724.285 1326.58 721.592C1327.48 719.992 1328.34 718.367 1329.07 716.682C1329.77 714.975 1330.41 713.24 1330.89 711.455C1331.01 711.067 1331.13 710.676 1331.25 710.285C1332.61 707.611 1333.78 704.844 1334.69 701.985C1335.36 700.066 1335.92 698.122 1336.41 696.153C1336.79 694.429 1337.3 692.735 1337.6 690.995C1337.85 689.58 1338.01 688.159 1338.15 686.732C1338.17 686.636 1338.2 686.542 1338.22 686.446C1338.71 684.598 1338.93 682.695 1339.28 680.82C1339.49 679.438 1339.87 678.088 1340.05 676.703C1340.39 674.814 1340.52 672.903 1340.65 670.989C1340.68 670.425 1340.7 669.857 1340.71 669.293C1340.89 668.26 1340.94 667.214 1340.97 666.167C1341.04 664.956 1341.09 663.741 1341.09 662.527C1341.1 662.138 1341.12 661.753 1341.15 661.365C1341.21 661.081 1341.28 660.797 1341.33 660.508C1341.38 660.181 1341.41 659.853 1341.45 659.522C1341.78 658.113 1342.11 656.645 1341.93 655.441C1341.99 654.786 1342.06 654.144 1342.11 653.607C1342.25 652.591 1342.24 651.57 1342.24 650.551ZM1316.34 579.309C1316.42 579.46 1316.49 579.614 1316.57 579.766C1316.48 579.611 1316.39 579.46 1316.31 579.303C1316.25 579.187 1316.2 579.08 1316.15 578.973C1316.22 579.083 1316.28 579.196 1316.34 579.309ZM1313.33 574.277C1313.39 574.407 1313.45 574.539 1313.51 574.669C1313.52 574.696 1313.52 574.721 1313.53 574.748C1313.45 574.591 1313.36 574.437 1313.28 574.28C1313.3 574.28 1313.31 574.28 1313.33 574.277ZM1036.13 662.893C1036.11 662.813 1036.09 662.733 1036.08 662.653C1036.06 662.491 1036.06 662.32 1036.05 662.147C1036.08 662.161 1036.11 662.169 1036.14 662.183C1036.14 662.334 1036.14 662.483 1036.15 662.634C1036.14 662.72 1036.14 662.805 1036.13 662.893ZM1089.1 539.517C1088.66 539.801 1088.23 540.092 1087.82 540.412C1087.03 540.993 1086.33 541.679 1085.6 542.34C1084.73 543.047 1083.94 543.838 1083.2 544.677C1083.13 544.76 1083.06 544.843 1082.99 544.925C1082.61 545.206 1082.26 545.479 1081.9 545.856C1081.38 546.41 1080.96 547.043 1080.56 547.685C1080.19 548.007 1079.81 548.329 1079.44 548.651C1070.13 557.537 1062.03 567.735 1055.18 578.631C1049.34 588.795 1044.38 599.485 1039.96 610.338C1038.72 613.788 1037.58 617.269 1036.33 620.714C1035.66 622.223 1035.41 624.74 1034.21 625.764C1034.21 625.756 1034.2 625.745 1034.2 625.734C1036.3 619.359 1038.51 613.017 1040.16 606.502C1044.49 595.952 1049.08 584.929 1055.39 575.503C1062.1 565.95 1068.58 555.943 1077.62 548.423C1081.3 545.005 1084.97 541.646 1089.23 538.974C1089.66 538.688 1089.98 538.228 1090.43 538.071C1089.98 538.55 1089.53 539.03 1089.1 539.517ZM1079.03 610.233C1078.95 610.222 1078.86 610.203 1078.77 610.181C1078.88 610.101 1078.97 610.115 1079.06 610.126C1079.05 610.162 1079.04 610.233 1079.03 610.233ZM1080.76 606.648C1080.76 606.667 1080.62 606.678 1080.55 606.692C1080.57 606.505 1080.59 606.32 1080.62 606.133C1080.76 606.284 1080.77 606.466 1080.76 606.648ZM1098.78 579.92C1096.39 582.787 1094.33 585.951 1092.38 589.117C1088.27 594.019 1085.41 599.397 1081.49 604.417C1083.47 599.353 1087.03 595.143 1089.74 590.461C1092.55 586.612 1095.47 582.795 1098.95 579.534C1098.91 579.672 1098.86 579.804 1098.78 579.92ZM1124.78 508.435C1123.87 508.774 1122.97 509.157 1122.04 509.446C1122.96 509.102 1123.87 508.763 1124.78 508.435ZM1110.48 564.84C1110.39 564.937 1110.29 565.036 1110.2 565.132C1110.3 564.984 1110.42 564.86 1110.55 564.744C1110.52 564.777 1110.5 564.807 1110.48 564.84ZM1113.57 516.975C1113.52 517.148 1113.17 517.336 1112.96 517.33C1111.39 517.286 1110.14 518.162 1108.87 518.831C1106.14 520.282 1103.56 522.011 1100.93 523.633C1106.49 519.475 1112.55 516.019 1118.54 512.516C1123.18 510.52 1127.93 508.777 1132.72 507.16C1129.99 508.254 1127.37 509.548 1124.69 510.762C1122.05 512.773 1114.41 514.411 1113.57 516.975ZM1158.56 505.346C1153.16 506.825 1147.73 508.248 1142.44 510.085C1142.02 510.234 1141.6 510.382 1141.18 510.534C1139.32 511.068 1137.5 511.679 1135.69 512.412C1135.15 512.602 1134.61 512.811 1134.07 513.026C1132.33 513.643 1130.62 514.334 1128.94 515.097C1128.95 515.011 1128.95 514.921 1128.96 514.841C1129.73 514.287 1130.48 513.717 1131.3 513.238C1131.73 512.985 1132.16 512.731 1132.58 512.481C1133.55 512.01 1134.52 511.539 1135.53 511.164C1137.02 510.611 1138.53 510.192 1140.01 509.581C1140.07 509.556 1140.12 509.548 1140.18 509.553C1145.12 507.604 1150.29 506.202 1155.47 504.96C1156.79 504.792 1158.11 504.624 1159.44 504.503C1160.34 504.443 1161.25 504.393 1162.15 504.346C1160.96 504.679 1159.76 505.013 1158.56 505.346ZM1218.03 499.268C1218.53 499.219 1219.02 499.164 1219.51 499.114C1226.86 499.712 1234.12 501.135 1241.16 503.324C1241.65 503.542 1242.14 503.738 1242.64 503.917C1242.85 504.021 1243.06 504.126 1243.28 504.222C1243.88 504.506 1244.49 504.792 1245.14 504.955C1245.66 505.227 1246.18 505.508 1246.69 505.808C1247.32 506.199 1247.97 506.555 1248.62 506.91C1246.71 506.4 1244.87 505.662 1242.98 505.109C1240.63 504.451 1238.26 503.87 1235.9 503.264C1233.04 502.727 1230.2 502.016 1227.53 501.468C1224.36 500.623 1220.86 500.615 1217.87 499.337C1217.92 499.315 1217.98 499.293 1218.03 499.268ZM1257.67 530.909C1256.06 530.036 1254.43 529.204 1252.82 528.337C1258.75 529.876 1264.07 533.01 1269.07 536.482C1271.52 538.118 1273.99 539.831 1275.96 542.034C1269.47 539.214 1264.17 533.902 1257.67 530.909ZM1277.73 537.545C1276.07 536.229 1274.21 535.161 1272.51 533.872C1274.83 534.552 1276.76 535.846 1278.77 537.149C1281 538.608 1283.3 539.82 1285.29 541.648C1287.17 543.133 1289.15 544.504 1290.91 546.109C1294.17 549.37 1298.54 552.066 1300.77 556.117C1296.72 554.401 1293.56 550.851 1290.05 548.197C1286.29 544.303 1281.88 540.773 1277.73 537.545ZM1284.05 549.463C1284.15 549.574 1284.25 549.684 1284.35 549.797C1284.23 549.709 1284.12 549.604 1284.05 549.463ZM1197.24 793.063C1199.86 792.371 1202.33 791.504 1204.92 792.443C1203.28 794.784 1199.75 794.12 1197.25 794.128C1196.86 794.117 1196.4 794.175 1196.37 793.605C1196.35 792.985 1196.93 793.189 1197.24 793.063ZM1147.03 793.514C1148.91 794.269 1151.02 794.908 1152.81 795.808C1150.12 796.072 1147.92 794.943 1145.58 793.679C1146.17 793.162 1146.61 793.363 1147.03 793.514ZM1132.48 788.717C1132.84 788.94 1134.13 788.979 1133.94 789.469C1133.42 789.328 1132.8 789.097 1132.41 788.984C1132.43 788.893 1132.46 788.805 1132.48 788.717ZM1117.52 769.309C1116.26 768.755 1115.05 767.932 1113.9 767.15C1115.09 767.896 1116.3 768.618 1117.52 769.309ZM1122.73 786.261C1116.82 784.584 1111.8 781.772 1106.79 778.528C1106.83 778.448 1106.87 778.369 1106.9 778.289C1108.62 778.649 1110.12 779.814 1111.71 780.547C1117.55 784.102 1124.3 785.272 1130.43 788.15C1127.79 787.877 1125.34 786.737 1122.73 786.261ZM1138.9 792.961C1138.63 794.175 1127.41 790.518 1126.48 789.659C1130.6 790.116 1134.51 791.961 1138.62 792.713C1140.75 793.071 1143.05 792.793 1144.62 794.42C1143.13 794.858 1141.19 793.853 1139.63 793.627C1139.35 793.555 1139.14 793.189 1138.9 792.961ZM1189.19 808.431C1182.97 808.106 1176.73 808.092 1170.59 806.776C1164.65 805.771 1158.86 804.232 1153.07 802.626C1152.14 802.345 1151.19 802.089 1150.24 801.833C1149.79 801.687 1149.35 801.541 1148.91 801.398C1147.13 800.759 1145.32 800.197 1143.53 799.586C1142.73 799.212 1141.96 798.785 1141.21 798.284C1141.26 798.284 1141.3 798.289 1141.34 798.289C1142.79 798.702 1144.23 799.148 1145.71 799.454C1148.96 800.178 1152.28 800.5 1155.56 801.057C1156.95 801.307 1158.34 801.594 1159.73 801.852C1159.79 801.869 1159.85 801.883 1159.92 801.897C1160.96 802.155 1162.02 802.31 1163.07 802.494C1163.58 802.613 1164.1 802.712 1164.62 802.794C1165.44 803.103 1166.27 803.342 1167.11 803.524C1167.41 803.579 1167.71 803.62 1168.01 803.656C1168.16 803.711 1168.32 803.764 1168.48 803.808C1169.29 804.05 1170.13 804.188 1170.98 804.254C1172.45 804.667 1173.94 805.052 1175.41 805.452C1177.41 805.901 1179.42 806.3 1181.43 806.716C1184.21 807.36 1187 808.013 1189.82 808.461C1189.62 808.448 1189.41 808.439 1189.19 808.431ZM1192.62 808.811C1194.16 808.957 1195.7 809.062 1197.25 809.133C1197.43 809.158 1197.62 809.183 1197.8 809.205C1196.04 809.401 1194.38 809.095 1192.62 808.811ZM1196.82 807.699C1196.97 807.71 1197.11 807.723 1197.25 807.734C1197.54 807.803 1197.83 807.875 1198.12 807.944C1197.69 807.864 1197.26 807.784 1196.82 807.699ZM1245.33 798.705C1240.76 800.77 1237.81 801.993 1233.39 804.003C1231.64 804.799 1229.61 804.84 1227.76 805.375C1223.14 806.999 1218.04 807.55 1213.19 808.156C1209.04 808.046 1204.58 807.679 1200.51 807.255C1199.48 807.101 1198.45 806.947 1197.42 806.79C1194.17 806.052 1190.88 805.57 1187.59 805.077C1186.36 804.661 1185.12 804.276 1183.87 803.901C1186.31 804.022 1188.78 803.769 1191.17 804.441C1191.17 804.391 1191.18 804.345 1191.2 804.298C1193.72 804.714 1196.29 805.058 1198.85 804.876C1201.05 805.218 1203.29 805.328 1205.49 804.895C1210.48 805.454 1215.51 804.703 1220.52 804.694C1226.11 803.951 1231.48 802.084 1236.96 800.79C1238.44 800.365 1240 800.63 1241.43 800.005C1242.78 799.388 1244.15 798.887 1245.59 798.509C1245.51 798.576 1245.41 798.636 1245.33 798.705ZM1300.34 748.025C1298.6 751.999 1296.84 756.038 1293.88 759.277C1292.62 761.35 1290.4 762.89 1288.68 764.63C1288.31 764.963 1287.93 765.291 1287.56 765.613C1286.58 767.051 1284.89 767.656 1283.77 768.962C1282.69 771.498 1281.31 771.889 1279.13 773.211C1275.12 777.683 1269.94 780.753 1264.8 783.711C1264.13 784.184 1263.59 784.297 1262.98 784.958C1262.86 785.077 1262.91 785.049 1262.52 785.261C1259.37 787.31 1255.94 788.811 1252.58 790.504C1248.59 792.052 1244.56 794.037 1240.49 795.238C1230.95 797.391 1221.37 800.032 1211.52 799.468C1211.43 799.429 1211.34 799.388 1211.24 799.349C1214.65 798.386 1218.09 797.548 1221.54 796.761C1222.86 796.48 1224.2 796.315 1225.37 795.555C1225.58 795.42 1225.87 795.279 1226.09 795.318C1227.12 795.489 1227.95 795.004 1228.85 794.673C1231.76 793.718 1234.73 792.743 1237.4 791.237C1241.01 790.267 1244.61 789.224 1248.11 787.899C1251.99 785.779 1256.09 784.072 1259.77 781.599C1261.39 780.651 1262.85 779.459 1264.27 778.253C1266.14 776.568 1268.39 775.32 1270.05 773.409C1274.97 769.846 1279.15 765.357 1283.4 761.031C1288.23 754.937 1292.28 748.254 1297.18 742.226C1293.72 749.374 1289.31 755.945 1284.98 762.581C1281.61 766.913 1277.61 770.675 1274.02 774.813C1285.47 766.197 1293.93 754.623 1302.38 743.377C1301.68 744.913 1301.01 746.469 1300.34 748.025ZM1302.4 723.126C1302.35 723.327 1302.29 723.525 1302.24 723.723C1301.48 725.307 1300.79 726.923 1299.86 728.416C1298.96 729.916 1297.77 731.2 1296.57 732.756C1297.17 730.833 1298.25 729.008 1299.43 727.38C1300.42 725.819 1302.01 724.056 1301.55 722.068C1301.44 721.553 1301.39 721.033 1301.38 720.512C1301.4 720.482 1301.41 720.452 1301.42 720.422C1301.79 719.557 1302.09 718.67 1302.35 717.772C1303.16 715.955 1303.91 714.118 1304.52 712.221C1304.64 711.868 1304.75 711.513 1304.86 711.158C1306.1 709.239 1306.39 706.89 1307.39 704.835C1307.7 705.108 1307.49 705.469 1307.4 705.796C1306.19 711.709 1304.5 717.472 1302.4 723.126ZM1312.33 711.863C1311.65 714.559 1310.97 717.26 1310.19 719.931C1309.18 721.542 1308.2 723.172 1307.31 724.861C1307.66 723.354 1308.16 721.864 1308.78 720.493C1309.13 719.711 1309.42 718.901 1309.68 718.073C1309.69 718.042 1309.71 718.012 1309.72 717.982C1310.45 716.426 1310.98 714.793 1311.53 713.171C1312.13 711.359 1312.69 709.533 1313.22 707.702C1312.94 709.095 1312.66 710.483 1312.33 711.863ZM1321.94 694.564C1320.84 691.518 1322.72 688.161 1323.18 685.055C1323.85 686.479 1323.05 692.028 1321.94 694.564Z" fill="#D17A22" fill-opacity="0.7"/>
</g>
<path d="M1076.51 755.242C1076.75 755.297 1076.99 755.352 1077.17 755.377C1076.94 755.264 1076.74 755.182 1076.55 755.1C1076.54 755.149 1076.53 755.193 1076.51 755.242Z" fill="#D17A22" fill-opacity="0.7"/>
<path d="M1310.46 547.39C1310.34 547.263 1310.22 547.134 1310.1 547.002C1310.04 546.963 1309.97 546.925 1309.9 546.886C1310.1 547.117 1310.24 547.305 1310.38 547.484C1310.4 547.453 1310.43 547.42 1310.46 547.39Z" fill="#D17A22" fill-opacity="0.7"/>
</g>
<defs>
<clipPath id="clip0_11_7">
<rect width="502" height="355" fill="white" transform="translate(910 460)"/>
</clipPath>
</defs>
</svg>
