<svg width="1440" height="1024" viewBox="0 0 1440 1024" fill="none" xmlns="http://www.w3.org/2000/svg">
<rect width="1440" height="1024" fill="#272932"/>
<g clip-path="url(#clip0_11_7)">
<path d="M1137.53 364.321C1138.12 365.265 1138.29 366.51 1139.22 367.13C1139.34 366.706 1139.54 366.461 1139.15 366.072C1138.66 365.367 1138.38 364.599 1137.53 364.321Z" fill="#D17A22" fill-opacity="0.7"/>
<path d="M1122.7 323.535C1122.49 323.34 1122.29 323.147 1122.08 322.951C1122.04 323.001 1122 323.048 1121.96 323.097C1122.06 323.224 1122.16 323.351 1122.3 323.521C1122.47 323.555 1122.58 323.546 1122.7 323.535Z" fill="#D17A22" fill-opacity="0.7"/>
<mask id="mask0_11_7" style="mask-type:luminance" maskUnits="userSpaceOnUse" x="834" y="267" width="319" height="323">
<path d="M834.4 267.238H1152.36V589.228H834.4V267.238Z" fill="white"/>
</mask>
<g mask="url(#mask0_11_7)">
<path d="M1152.24 424.551C1152.24 422.615 1152.24 420.676 1152.23 418.738C1152.24 416.402 1152.22 414.067 1152.08 411.735C1152.33 407.524 1152.3 403.3 1151.83 399.109C1151.73 396.848 1150.75 394.675 1150.98 392.415C1151.04 390.385 1149.94 388.446 1149.58 386.48C1148.69 383.79 1148.63 380.785 1147.08 378.373C1147.03 380.824 1147.57 383.209 1148.06 385.599C1148.04 386.243 1148.04 386.888 1148.09 387.529C1148.15 387.953 1148.21 388.311 1148.26 388.631C1148.29 389.077 1148.33 389.523 1148.38 389.966C1148.3 391.726 1148.36 393.48 1148.43 395.256C1148.49 396.873 1148.57 398.489 1148.75 400.097C1148.64 402.196 1148.61 404.291 1148.8 406.387C1148.8 406.439 1148.81 406.489 1148.81 406.538C1148.81 406.756 1148.81 406.965 1148.8 407.131C1148.76 408.452 1148.83 409.771 1148.91 411.093C1149.25 414.414 1149.27 417.686 1149.05 421.001C1148.92 427.233 1147.79 433.341 1146.64 439.451C1146.66 439.928 1146.39 440.784 1146.14 441.624C1146.43 439.897 1146.69 438.168 1146.8 436.422C1146.85 435.67 1146.87 434.921 1146.88 434.17C1147.01 433.22 1147.13 432.297 1147.23 431.562C1147.49 428.367 1147.75 425.168 1147.75 421.959C1147.72 418.162 1147.12 414.398 1146.52 410.658C1146.43 410.267 1146.35 409.879 1146.26 409.488C1146.04 408.265 1145.77 407.051 1145.44 405.853C1145.45 405.916 1145.45 405.979 1145.46 406.043C1144.95 403.854 1144.41 401.667 1143.9 399.478C1143.94 402.091 1144.18 404.696 1144.47 407.29C1144.64 408.491 1144.82 409.636 1144.99 410.752C1145.2 413.963 1145.34 417.179 1145.17 420.401C1144.97 425.214 1144.39 430.003 1143.97 434.8C1143.97 434.841 1143.96 434.883 1143.96 434.924C1143.92 434.528 1143.87 434.137 1143.81 433.743C1143.89 432.98 1143.96 432.181 1144 431.209C1143.98 429.827 1143.91 428.447 1143.8 427.073C1143.91 425.074 1143.9 423.072 1143.64 421.084C1143.59 419.723 1143.22 418.421 1142.84 417.127C1142.79 416.014 1142.73 414.902 1142.58 413.8C1142.4 412.745 1142.16 411.705 1141.87 410.675C1141.84 410.427 1141.8 410.182 1141.77 409.934C1141.61 409.127 1141.43 408.32 1141.25 407.519C1140.89 404.509 1140.4 401.485 1139.74 398.704C1139.25 395.873 1138.98 392.935 1138.07 390.159C1137.35 387.7 1137.08 385.123 1136.23 382.628C1133.05 372.29 1127.88 362.58 1121.88 353.614C1124.18 359.912 1127.6 365.874 1129.92 372.117C1129.84 372.015 1129.76 371.916 1129.68 371.814C1132.62 377.922 1134.73 384.459 1135.66 391.206C1136.67 398.886 1138.48 406.205 1138.54 413.916C1138.38 413.547 1138.2 413.186 1138.02 412.828C1138.01 411.437 1137.86 410.044 1137.57 408.681C1137.36 407.61 1137.44 407.502 1137.19 406.505C1136.85 405.426 1136.61 405.2 1136.45 404.283C1136.33 403.113 1136.21 401.857 1135.78 399.916C1135.49 398.806 1135.11 397.746 1134.67 396.702C1134.62 396.308 1134.55 395.898 1134.45 395.507C1134.24 394.507 1133.92 393.91 1133.66 393.227C1133.55 392.629 1133.44 392.035 1133.3 391.445C1132.89 389.71 1132.6 389.407 1132.04 387.876C1132.04 387.882 1131.73 387.07 1131.55 386.557C1131.41 386.012 1131.31 385.459 1131.09 384.935C1130.85 384.178 1130.41 383.503 1130.12 382.768C1130.1 382.73 1130.07 382.666 1130.05 382.619C1130.04 382.592 1130.03 382.564 1130.02 382.537C1130.01 382.468 1130 382.383 1129.98 382.275C1129.87 381.818 1129.93 382.058 1129.83 381.477C1129.78 381.281 1129.79 381.143 1129.64 380.615C1129.56 380.18 1129.51 379.736 1129.4 379.304C1129.26 378.544 1129 377.814 1128.72 377.098C1128.48 376.476 1128.33 375.82 1128.15 375.182C1127.88 374.389 1127.56 373.615 1127.22 372.852C1126.84 372.037 1126.37 371.269 1125.88 370.519C1125.79 370.266 1125.7 370.016 1125.6 369.77C1125.39 369.261 1125.36 369.11 1125.15 368.644C1124.84 367.936 1124.62 367.141 1124.12 366.122C1123.94 365.667 1123.96 365.673 1123.71 365.006C1123.42 364.329 1123.1 363.674 1122.81 363.002C1122.79 362.952 1122.63 362.536 1122.59 362.423C1122.43 361.966 1122.24 361.52 1122.02 361.085C1121.64 360.388 1121.22 359.714 1120.78 359.056C1120.61 358.706 1120.4 358.37 1120.16 358.067C1120.13 358.034 1120.11 358.009 1120.1 357.995C1120.09 357.987 1120.08 357.976 1120.07 357.965C1119.78 357.519 1119.55 357.037 1119.27 356.583C1118.86 355.927 1118.6 355.2 1118.23 354.523C1117.98 353.945 1117.75 353.355 1117.4 352.827C1116.9 352.003 1116.36 351.205 1115.68 350.525C1115.26 349.905 1114.82 349.302 1114.33 348.74C1114.23 348.578 1114.13 348.415 1114.03 348.25C1113.19 346.735 1112.4 345.171 1111.29 343.827C1111.08 343.566 1110.86 343.324 1110.62 343.089C1110.15 342.478 1109.45 341.539 1108.81 340.702C1108.21 340 1107.6 339.306 1106.99 338.617C1106.22 337.596 1105.39 336.618 1104.53 335.668C1104.5 335.561 1104.46 335.456 1104.43 335.346C1108.99 338.392 1112.11 342.112 1115.84 345.896C1115.77 344.571 1114.69 343.871 1113.91 342.955C1112.88 341.776 1111.9 340.545 1110.83 339.41C1108.77 337.34 1106.6 335.376 1104.52 333.316C1103.34 332.185 1101.81 331.394 1101.11 329.783C1100.59 329.224 1099.74 328.938 1099.65 328.04C1099.38 326.641 1097.94 326.146 1096.87 325.424C1096.2 324.65 1095.47 323.912 1094.72 323.205C1100.47 325.416 1104.3 330.461 1108.63 334.578C1110.47 336.037 1111.95 337.899 1113.45 339.724C1118.94 346.204 1124.71 352.477 1129.27 359.689C1132.58 364.993 1135.51 370.525 1138.01 376.236C1138.5 377.627 1139.01 378.96 1139.51 380.127C1139.7 380.549 1139.96 381.05 1140.16 381.457C1142.02 386.276 1143.6 391.206 1144.88 396.228C1144.34 391.027 1142.68 386.089 1140.68 381.298C1140.54 380.799 1140.36 380.312 1140.2 379.816C1139.84 378.461 1139.36 377.148 1138.81 375.865C1138.77 375.754 1138.74 375.644 1138.7 375.537C1138.31 374.38 1137.94 373.218 1137.44 372.108C1137.34 371.894 1137.24 371.684 1137.14 371.475C1136.77 370.597 1136.33 369.748 1135.83 368.928C1135.77 368.669 1135.7 368.413 1135.63 368.157C1135.14 366.854 1134.47 365.634 1133.69 364.481C1133.65 364.384 1133.62 364.291 1133.58 364.197C1133.48 363.974 1133.37 363.754 1133.25 363.536C1133.25 363.528 1133.25 363.522 1133.25 363.514C1132.84 362.669 1132.41 361.834 1132 360.992C1131.52 360.121 1131.18 359.193 1130.68 358.34C1130.51 358.056 1130.33 357.778 1130.15 357.5C1129.72 356.511 1129.19 355.352 1128.63 354.333C1128 353.176 1127.2 352.127 1126.47 351.034C1125.92 350.235 1125.37 349.44 1124.81 348.646C1124.56 348.198 1124.32 347.752 1124.07 347.308C1125.02 348.479 1126.13 349.528 1127.31 350.472C1127.46 350.648 1127.67 350.797 1127.82 350.976C1128.91 352.281 1130.09 353.529 1131.06 354.92C1132.95 357.533 1134.41 360.463 1136.45 362.969C1135.34 359.436 1132.99 356.396 1131.37 353.063C1131.19 352.777 1131.01 352.491 1130.82 352.202C1130.65 351.808 1130.44 351.431 1130.25 351.051C1129.96 350.395 1129.64 349.759 1129.24 349.17C1129.19 349.095 1129.14 349.024 1129.09 348.952C1128.8 348.366 1128.47 347.793 1128.12 347.237C1127.66 346.587 1127.14 345.995 1126.57 345.441C1126.33 345.089 1126.08 344.731 1125.83 344.397C1125.7 344.158 1125.55 343.932 1125.34 343.737C1125.3 343.676 1125.25 343.618 1125.19 343.56C1124.78 342.817 1124.36 342.079 1123.91 341.355C1123.37 340.595 1123.21 340.421 1122.71 339.763C1122.1 338.995 1121.58 338.24 1120.71 337.274C1119.58 336.125 1118.45 334.98 1117.33 333.812C1117.06 333.531 1116.78 333.27 1116.48 333.016C1116.25 332.683 1116.02 332.361 1115.79 332.055C1114.88 331.025 1113.91 330.056 1112.91 329.111C1112.63 328.72 1112.35 328.335 1112.04 327.96C1110.73 326.457 1109.16 325.212 1107.61 323.956C1106.73 323.224 1105.85 322.475 1104.96 321.74C1103.41 319.771 1101.55 318.165 1099.62 316.634C1098.29 314.946 1096.61 313.569 1095.07 312.08C1098.55 314.249 1101.54 317.119 1104.79 319.617C1107.55 322.169 1110.36 324.628 1113.52 326.666C1120.2 332 1125.61 338.744 1131.24 345.135C1134.46 348.627 1136.82 352.645 1140.37 355.845C1138.98 352.48 1137.53 349.101 1136.23 345.681C1135.43 344.772 1134.73 343.885 1134.12 342.82C1132.41 339.361 1130.08 336.379 1127.53 333.498C1126.1 331.802 1124.85 329.943 1122.96 328.665C1121.59 327.922 1122.33 326.958 1121.35 326.159C1117.5 322.849 1113.93 319.259 1109.98 316.097C1109.97 316.136 1109.96 316.177 1109.96 316.216C1109.7 316.004 1109.35 315.885 1109.42 315.577C1108.38 314.475 1107.2 313.578 1105.96 312.721C1104.97 312.115 1103.78 311.771 1103.27 310.551C1101.98 309.563 1100.55 308.61 1099.12 307.853C1094.86 305.517 1090.7 302.893 1086.36 300.734C1081.68 299.032 1077.61 296.13 1072.8 294.742C1064.79 291.906 1056.83 288.926 1048.81 286.084C1044.58 284.707 1040.29 283.518 1036.03 282.24C1035.92 282.193 1035.8 282.155 1035.67 282.124C1035.5 282.042 1035.32 281.962 1035.14 281.896C1035.12 281.887 1035.1 281.882 1035.08 281.876C1034.71 281.736 1034.33 281.615 1033.94 281.524C1033.92 281.499 1033.89 281.474 1033.86 281.447C1033.94 281.447 1034.02 281.45 1034.1 281.45C1034.82 281.51 1035.55 281.56 1036.27 281.585C1037.33 281.786 1038.41 281.876 1039.48 282.028C1045.62 282.923 1051.67 284.432 1057.78 285.506C1060.27 286.087 1062.68 287.034 1065.27 287.205C1066.95 287.596 1068.64 288.582 1070.36 288.725C1071.69 288.821 1072.92 289.058 1074.14 289.565C1077.23 290.62 1080.27 291.817 1083.25 293.164C1089.26 295.53 1094.2 299.902 1099.59 303.391C1106.82 308.577 1114.1 313.98 1119.83 320.831C1119.82 320.834 1119.84 320.768 1119.85 320.724C1118.84 319.526 1117.92 318.157 1117.16 316.761C1115.61 315.56 1114.63 313.806 1112.98 312.68C1111.55 311.482 1110.09 310.32 1108.65 309.127C1107.47 308.131 1106.68 306.787 1105.19 306.198C1104.08 305.647 1103.32 304.529 1102.45 303.7C1100.83 302.524 1099.14 301.445 1097.53 300.258C1096.23 299.308 1094.69 298.688 1093.71 297.325C1091.24 295.653 1088.51 294.282 1085.95 292.718C1084.47 292.118 1085.23 291.385 1084.22 290.782C1079.95 288.436 1075.39 286.671 1071.02 284.506C1067.23 283.014 1063.97 280.527 1060.08 279.304C1059.12 278.944 1058.17 278.583 1057.21 278.219C1056.59 277.886 1055.97 277.578 1055.33 277.302C1055.02 277.176 1054.7 277.068 1054.38 276.964C1054.06 276.81 1053.72 276.672 1053.39 276.545C1053.39 276.545 1053.39 276.545 1053.4 276.545C1053.69 276.611 1054 276.675 1054.28 276.727C1054.43 276.763 1054.59 276.801 1054.74 276.843C1055.05 276.92 1055.36 276.997 1055.67 277.074C1056.02 277.179 1056.37 277.283 1056.72 277.377C1057.47 277.627 1057.92 277.746 1058.32 277.925C1058.97 278.107 1059.62 278.269 1060.26 278.465C1060.49 278.52 1060.73 278.558 1060.97 278.588C1060.96 278.588 1060.97 278.591 1061 278.597C1061.03 278.608 1061.03 278.608 1061.01 278.599C1061.14 278.649 1061.27 278.677 1061.41 278.696C1061.41 278.699 1061.42 278.699 1061.44 278.701C1061.67 278.77 1061.91 278.806 1062.14 278.88C1062.64 278.944 1063.12 279.081 1063.6 279.222C1064.08 279.335 1064.56 279.503 1065.04 279.618C1065.27 279.657 1065.4 279.745 1065.52 279.786C1065.79 279.899 1066 280.007 1066.41 280.122C1066.75 280.227 1067.1 280.326 1067.44 280.442C1067.24 280.326 1067.05 280.183 1066.84 280.075C1067.32 280.252 1067.8 280.422 1068.28 280.593C1071.1 281.265 1073.25 282.358 1076.06 283.405C1073.16 280.712 1068.49 280.175 1064.89 278.591C1059.56 276.347 1053.85 275.43 1048.27 273.987C1047.66 273.838 1047.04 273.725 1046.42 273.615C1046.25 273.555 1046.08 273.5 1045.9 273.444C1045.58 273.348 1045.25 273.271 1044.92 273.208C1044.25 272.935 1043.55 272.673 1042.78 272.442C1042.63 272.395 1042.47 272.351 1042.32 272.315C1042.3 272.31 1042.28 272.304 1042.25 272.299C1042.23 272.293 1042.18 272.28 1042.11 272.266C1041.94 272.225 1041.77 272.194 1041.6 272.164C1041.41 272.112 1041.22 272.065 1041.03 272.029C1041.02 272.029 1041.02 272.024 1041.02 272.024C1040.4 271.897 1039.76 271.754 1039.17 271.506C1038.95 271.476 1038.75 271.437 1038.56 271.382C1033.08 269.765 1027.45 268.986 1021.79 268.325C1015.95 267.474 1010.09 267.439 1004.21 267.587C1004.03 267.568 1003.85 267.549 1003.67 267.532C1000.91 267.348 998.143 267.24 995.378 267.419C992.859 267.417 990.341 267.389 987.825 267.425C986.509 267.422 985.205 267.62 983.905 267.813C983.153 267.934 982.7 267.94 981.634 268.077C980.264 268.27 978.877 268.336 977.503 268.501C975.169 268.884 972.84 269.289 970.5 269.644C966.668 270.264 962.815 270.76 959.008 271.514C958.643 271.594 958.278 271.682 957.913 271.767C951.851 272.795 945.886 274.191 940.481 276.088C930.283 279.002 920.78 283.369 911.972 289.042C911.214 289.433 910.464 289.838 909.711 290.242C907.855 291.223 906.05 292.31 904.422 293.643C904.378 293.676 904.339 293.709 904.298 293.742C903.068 294.472 901.826 295.188 900.686 296.061C900.45 296.215 900.211 296.372 899.978 296.532C897.646 298.11 895.358 299.754 893.216 301.582C892.746 301.929 892.167 302.381 891.552 302.876C891.442 302.956 891.326 303.036 891.217 303.116C890.931 303.361 890.648 303.606 890.365 303.854C889.673 304.427 888.986 305.011 888.393 305.523C888.528 305.435 888.66 305.349 888.794 305.261C888.555 305.479 888.319 305.696 888.083 305.917C887.111 306.586 886.179 307.321 885.276 308.087C879.094 312.994 874.46 319.377 869.747 325.625C869.184 326.118 868.583 326.724 868.16 327.393C867.811 327.933 866.405 329.023 865.792 330.039C865.177 330.97 864.515 331.871 863.892 332.796C863.603 333.239 863.359 333.71 863.095 334.167C862.862 334.528 862.604 334.872 862.378 335.239C861.755 336.337 860.989 337.345 860.313 338.411C860.058 338.84 859.868 339.306 859.604 339.73C859.31 340.281 858.964 340.804 858.618 341.322C858.374 341.806 858.075 342.258 857.808 342.731C857.476 343.255 857.185 343.805 856.877 344.345C856.487 344.984 856.092 345.623 855.732 346.281C855.498 346.76 855.237 347.228 855.015 347.716C855.009 347.729 855.004 347.749 854.996 347.763C854.864 347.983 854.732 348.206 854.606 348.429C854.089 349.387 853.529 350.321 853.095 351.32C853.065 351.395 853.035 351.469 853.004 351.541C851.499 353.79 850.101 356.12 848.844 358.565C845.702 365.728 843.021 373.069 840.555 380.494C838.844 384.137 837.748 388.738 836.179 392.638C834.556 396.391 837.951 403.107 835.421 406.505C835.064 407.654 834.812 408.882 834.51 410.058C834.466 410.248 834.463 410.6 834.554 410.644C835.718 411.228 834.51 412.2 834.853 413.406C836.591 412.9 836.166 414.406 835.658 415.32C835.067 416.21 835.361 417.091 835.652 417.961C835.699 418.112 835.949 418.256 836.127 418.294C838.643 418.98 838.215 415.857 840.057 415.474C840.75 416.576 839.192 417.587 839.742 418.636C840.437 418.74 840.64 417.639 841.087 417.251C842.032 416.265 840.832 416.204 840.903 415.254C840.914 415.163 841.299 415.012 841.45 415.067C843.059 415.48 842.999 412.321 844.419 411.974C845.009 413.101 844.087 414.389 843.958 415.571C843.362 417.016 843.4 420.109 842.348 420.952C842.17 421.067 842.008 421.362 842.008 421.574C841.966 422.607 842.343 423.771 842.073 424.766C841.741 425.446 841.727 426.137 841.9 426.812C842.126 427.696 841.906 428.442 841.472 429.188C840.859 430.08 840.34 431.653 841.818 431.956C843.26 432.143 843.103 429.529 843.746 428.621C844.238 427.679 844.537 426.701 844.749 425.702C845.262 424.705 845.787 423.719 846.276 422.714C846.311 422.708 846.347 422.706 846.383 422.706C846.377 422.783 846.372 422.86 846.366 422.937C845.91 424.666 845.6 426.448 845.572 428.238C845.567 428.959 845.583 429.678 845.614 430.397C845.062 431.611 844.433 431.939 844.71 434.043C844.537 434.808 844.666 435.252 844.924 435.544C844.595 436.612 844.455 437.736 844.567 438.851C844.628 439.729 845.034 440.514 845.32 441.329C845.622 442.098 845.825 442.891 846.012 443.692C846.026 444.069 846.045 444.444 846.067 444.821C846.086 445.733 846.078 446.65 846.141 447.564C846.135 447.919 846.103 448.269 846.006 448.602C845.144 451.141 847.418 452.909 847.564 455.258C848.053 459.788 849.621 457.094 849.959 458.915C850.535 462.715 852.329 461.013 854.82 463.742C857.767 465.639 860.11 462.12 862.496 460.856C865.29 458.951 866.306 455.417 868.176 452.711C868.498 451.78 868.627 450.744 868.907 449.792C869.107 449.021 869.56 448.473 870.329 448.205C871.494 447.613 871.598 448.993 871.983 449.736C874.177 449.461 872.702 445.512 872.768 443.998C872.398 442.888 873.205 441.886 873.059 440.834C872.625 439.829 872.719 438.826 872.755 437.766C873.007 429.375 875.215 421.186 876.591 412.927C878.047 406.971 879.157 400.918 881.346 395.163C885.295 384.85 889.67 374.658 895.891 365.488C901.368 356.343 908.245 347.931 917.119 341.966C914.782 344.213 912.925 346.782 910.459 348.853C910.404 349.051 910.324 349.131 910.162 349.117C901.373 360.256 892.672 371.85 887.135 385.128C882.991 394.023 880.931 403.625 878.259 413.024C875.861 420.83 875.075 428.924 874.169 436.995C874.26 437.006 874.353 437.014 874.449 437.025C875.342 434.93 875.295 432.589 875.828 430.416C876.19 429.494 876.287 428.563 876.306 427.594C876.352 425.404 876.627 423.256 877.242 421.139C878.401 416.039 879.895 411.027 881.098 405.935C882.744 399.996 884.262 393.918 887.267 388.499C887.284 388.518 887.297 388.534 887.308 388.554C886.265 391.156 885.441 393.855 884.933 396.614C884.378 398.963 882.697 401.014 882.969 403.52C882.752 404.735 882.038 405.894 881.711 407.097C881.326 409.091 881.524 411.157 881.258 413.175C883.172 410.005 884.004 406.337 885.518 402.972C885.496 401.904 886.039 400.761 886.454 399.861C887.262 398.162 887.671 396.317 888.157 394.513C888.717 392.855 889.744 391.332 890.645 389.818C892.285 385.662 894.213 381.645 896.256 377.687C897.245 376.118 898.682 374.766 899.582 373.149C899.761 372.307 900.464 371.566 900.956 370.894C901.991 369.476 902.521 367.733 903.496 366.27C905.056 363.638 907.058 361.314 908.58 358.645C911.096 355.151 913.966 351.871 917.138 348.958C918.352 348.165 919.475 347.336 920.286 346.105C921.071 345.232 922.263 343.414 923.595 343.191C925.38 340.908 927.566 338.918 929.942 337.246C933.488 333.826 937.671 331.257 941.983 328.93C942.826 328.448 943.639 327.916 944.438 327.363C946.523 326.314 948.599 325.242 950.662 324.152C950.695 324.138 950.725 324.127 950.758 324.116C951.947 323.689 953.153 323.315 954.32 322.833C956.938 321.781 959.582 320.817 962.238 319.873C964.801 318.978 967.333 317.978 969.929 317.188C970.755 316.923 971.582 316.667 972.409 316.414C972.711 316.386 973.013 316.364 973.312 316.345C976.918 315.114 980.714 314.963 984.408 314.266C985.553 314.249 986.696 314.244 987.844 314.244C993.419 313.823 999.028 313.949 1004.6 314.417C1004.83 314.428 1005.05 314.437 1005.28 314.445C1008.72 314.596 1012.15 314.897 1015.5 315.624C1016.66 315.731 1017.82 315.869 1018.98 316.031C1019.82 316.125 1020.66 316.221 1021.49 316.323C1028.88 317.383 1035.86 320.038 1042.84 322.582C1046.83 323.981 1050.48 325.796 1054.07 327.993C1057.17 329.478 1059.97 331.485 1062.97 333.137C1064.78 334.919 1066.96 336.591 1068.99 337.987C1069.32 338.361 1069.65 338.739 1069.97 339.119C1072.1 341.027 1074 343.169 1075.88 345.323C1078.13 347.308 1080.31 349.36 1082.16 351.736C1082.96 352.766 1083.71 353.832 1084.44 354.914C1087.03 357.949 1089.36 361.217 1091.46 364.626C1092.28 365.698 1093.08 366.769 1093.87 367.843C1095.55 370.787 1097.09 373.807 1098.66 376.809C1099.36 377.974 1100.01 379.172 1100.59 380.403C1100.95 381.066 1101.32 381.73 1101.7 382.388C1101.8 382.815 1101.9 383.239 1102.01 383.66C1102.35 384.453 1102.64 385.266 1102.84 386.095C1103.1 386.739 1103.35 387.386 1103.6 388.036C1103.73 388.35 1103.86 388.667 1103.99 388.986C1104.04 389.11 1104.1 389.234 1104.15 389.361C1104.38 389.92 1104.59 390.484 1104.78 391.054C1106.94 396.895 1108.38 403.003 1109.21 409.185C1109.66 411.289 1110.05 413.409 1110.38 415.538C1110.4 415.631 1110.41 415.722 1110.43 415.813C1110.44 415.863 1110.44 415.907 1110.44 415.956C1110.97 419.418 1111.34 422.904 1111.6 426.401C1111.66 426.861 1111.72 427.318 1111.78 427.773C1111.77 428.065 1111.76 428.354 1111.76 428.646C1111.95 431.832 1112.05 435.02 1112.1 438.207C1111.78 440.096 1111.54 441.998 1111.41 443.91C1111.34 444.953 1111.27 445.997 1111.21 447.038C1111.1 447.404 1111 447.768 1110.91 448.139C1109.76 452.482 1108.93 456.907 1107.75 461.242C1107.18 463.056 1106.6 464.877 1105.99 466.655C1105.06 468.839 1104.14 470.965 1103.21 473.212C1103.02 473.617 1102.82 474.022 1102.63 474.424C1102.05 475.542 1101.47 476.665 1100.9 477.792C1099.63 479.956 1098.31 482.093 1096.99 484.224C1095.66 486.295 1094.42 488.416 1093.12 490.503C1092.54 491.257 1091.96 492.012 1091.38 492.766C1090.26 494.377 1089.14 495.986 1087.96 497.553C1087.7 497.922 1087.42 498.288 1087.15 498.657C1086.08 500.036 1085.01 501.411 1083.93 502.785C1083.37 503.459 1082.82 504.139 1082.28 504.825C1082.13 505.004 1081.98 505.186 1081.83 505.368C1077.96 509.124 1074.04 512.825 1070.55 516.964C1065.18 521.103 1059.9 525.335 1053.96 528.642C1049.16 530.628 1044.91 533.679 1040.24 535.898C1030.8 540.087 1020.68 542.904 1010.3 543.108C994.979 544.228 979.536 543.014 964.559 539.343C959.56 538.236 954.801 536.625 950.033 534.623C947.306 533.125 944.751 531.335 941.997 529.887C938.05 527.34 933.785 525.332 929.904 522.68C924.35 519.153 919.415 514.807 914.251 510.757C910.354 507.309 906.789 503.495 903.364 499.582C898.964 493.934 894.641 487.656 889.731 482.319C889.736 482.33 889.742 482.341 889.747 482.355C889.379 481.931 888.97 481.539 888.602 481.115C890.673 484.902 892.815 488.663 895.13 492.304C894.886 492.009 894.647 491.712 894.413 491.409C894.998 492.466 895.636 493.491 896.303 494.496C895.833 494.055 895.268 493.681 894.801 493.226C894.825 493.259 894.85 493.292 894.875 493.326C894.131 492.744 893.565 492.359 893.018 491.888C895.655 496.264 898.901 500.268 901.76 504.47C905.866 511.043 911.491 516.515 917.105 521.807C916.07 521.207 915.056 520.571 914.065 519.905C914.337 520.326 914.985 520.596 915.067 521.1C919.75 524.581 924.584 527.813 929.234 531.352C916.616 526.274 907.182 515.606 895.32 509.446C899.028 515.014 903.776 519.682 908.712 524.151C909.69 524.916 910.692 525.643 911.714 526.332C911.895 526.527 912.079 526.72 912.268 526.907C913.403 528.001 914.529 529.121 915.864 529.975C917.187 530.771 918.465 531.649 919.813 532.404C919.835 532.418 919.857 532.426 919.876 532.44C920.508 532.831 921.129 533.236 921.752 533.64C922.161 533.943 922.573 534.235 922.999 534.513C923.658 534.957 924.326 535.392 925.007 535.802C927.838 537.688 930.687 539.542 933.757 541.026C936.929 542.89 940.244 544.548 943.428 546.376C947.259 548.648 951.546 549.929 955.493 551.991C963.186 555.874 971.206 559.225 979.69 560.867C984.23 562.579 989.091 563.304 993.716 564.411C993.518 564.441 993.323 564.466 993.125 564.493C991.024 564.325 988.929 564.072 986.825 563.94C986.358 563.921 985.99 563.89 985.652 563.849C983.763 563.491 981.84 563.094 979.821 562.736C977.8 562.365 975.768 562.042 973.757 561.607C971.241 561.002 968.769 560.236 966.284 559.517C963.461 558.754 960.546 558.278 957.822 557.188C956.649 556.722 955.474 556.265 954.29 555.83C953.384 555.491 952.502 555.095 951.571 554.839C949.816 554.401 948.808 553.754 947.017 552.889C946.613 552.688 946.21 552.503 945.803 552.319C941.53 550.108 937.256 547.896 932.914 545.817C932.958 545.828 933.002 545.842 933.046 545.853C920.61 537.33 907.745 529.094 896.416 519.112C892.354 515.521 888.775 511.486 885.29 507.348C882.557 504.335 879.36 501.749 877.045 498.373C877.231 498.797 877.429 499.213 877.632 499.626C877.273 499.257 876.979 498.715 876.718 498.373C876.8 498.563 876.883 498.756 876.965 498.951C876.938 498.924 876.907 498.894 876.883 498.866C877.24 499.442 877.429 500.113 877.739 500.717C877.728 500.703 877.718 500.692 877.704 500.681C878.033 501.306 878.357 501.931 878.723 502.54C878.712 502.523 878.701 502.509 878.69 502.493C880.549 506.725 884.081 509.842 886.342 513.816C892.051 522.182 899.593 529.19 907.803 535.05C903.263 533.092 898.92 530.705 894.526 528.444C892.873 527.483 891.598 525.985 889.742 525.338C887.882 524.28 886.21 522.664 884.227 521.945C884.191 522.033 884.158 522.121 884.125 522.21C885.71 522.961 887.174 523.812 888.157 525.319C888.292 526.351 887.201 525.572 886.767 525.327C886.789 525.696 886.938 525.905 887.138 526.026C888.879 527.246 890.456 528.659 892.406 529.573C893.716 530.578 895.026 531.586 896.328 532.599C897.66 533.635 899.209 534.42 900.096 535.964C900.236 536.207 900.552 536.369 900.813 536.518C905.564 539.126 910.211 541.849 914.4 545.313C916.583 546.985 918.742 548.692 920.92 550.372C921.42 550.758 921.788 551.193 921.802 552.013C915.18 549.458 909.357 545.234 903.491 541.304C899.434 537.876 895.674 534.007 890.901 531.547C892.65 533.288 894.732 534.667 896.49 536.389C899.346 539.566 902.752 542.072 905.954 544.859C905.902 544.939 905.847 545.016 905.795 545.096C901.999 543.256 898.525 540.695 895.034 538.324C894.1 537.928 894.814 539.407 893.469 538.501C891.129 537.314 888.909 535.882 886.501 534.846C889.184 537.424 892.9 538.837 895.963 540.998C899.223 542.995 902.035 545.688 904.809 548.299C904.743 548.367 904.674 548.436 904.608 548.505C901.587 547.007 899.176 544.592 896.331 542.791C896.74 543.559 897.608 544.005 897.945 545.033C895.15 544.105 893.661 541.312 891.068 540.255C890.906 540.723 891.044 541.053 891.477 541.293C896.006 544.826 900.604 548.348 904.348 552.724C910.851 558.019 918.489 561.461 926.004 565.061C926.528 565.397 927.053 565.727 927.583 566.052C929.478 567.151 931.478 568.048 933.482 568.924C934.683 569.472 935.886 570.012 937.113 570.491C949.728 577.331 963.557 581.748 977.638 584.403C978.042 584.433 978.443 584.469 978.844 584.508C981.046 585.168 983.252 585.813 985.518 586.198C987.531 586.532 989.558 586.766 991.598 586.804C994.04 587.36 996.482 587.936 998.934 588.443C1004.06 589.233 1009.16 588.454 1014.28 588.052C1018.13 587.809 1021.91 587.245 1025.6 586.138C1026.1 586.052 1026.31 585.802 1026.5 585.557C1027.33 585.342 1028.16 585.122 1028.98 584.885C1028.99 584.885 1028.99 584.882 1029 584.882C1029.16 584.871 1029.32 584.857 1029.48 584.819C1029.54 584.802 1029.61 584.788 1029.68 584.775C1029.7 584.775 1029.71 584.769 1029.73 584.769C1030.71 584.659 1031.67 584.389 1032.62 584.172C1033.81 583.926 1035.02 583.734 1036.2 583.464C1037.68 583.015 1039.23 582.828 1040.71 582.362C1041.75 582.087 1042.79 581.787 1043.85 581.556C1044.92 581.294 1046.02 581.109 1047.09 580.831C1048.23 580.506 1049.33 580.074 1050.46 579.746C1051.96 579.245 1053.17 578.752 1054.18 578.383C1055.42 577.901 1056.75 577.675 1057.98 577.15C1058.84 576.778 1058.68 576.855 1059.44 576.502C1060.11 576.153 1060.75 575.74 1061.45 575.428C1062.02 575.205 1062.6 575.035 1063.16 574.776C1064.38 574.197 1064.55 574.159 1065.76 573.638C1066.36 573.338 1066.92 572.967 1067.52 572.653C1068.84 571.92 1070.27 571.375 1071.53 570.527C1072.25 570.028 1072.52 569.83 1072.91 569.541C1073.2 569.378 1073.5 569.205 1073.81 569.007C1074.23 568.729 1074.63 568.409 1075.05 568.128C1075.66 567.765 1076.28 567.398 1076.85 566.98C1077.93 566.314 1079.07 565.743 1080.11 565.008C1080.48 564.716 1080.84 564.408 1081.2 564.097C1081.45 563.984 1081.69 563.832 1081.93 563.626C1085.64 560.82 1089.59 558.322 1093.02 555.164C1093.65 554.55 1094.29 553.935 1094.92 553.319C1095.09 553.186 1095.25 553.054 1095.42 552.919C1095.91 552.765 1096.35 552.435 1096.77 552.157C1098 551.41 1099.04 550.416 1100.08 549.439C1100.74 548.833 1101.43 548.254 1102.05 547.605C1102.71 546.93 1103.43 546.327 1104.15 545.718C1104.99 545.077 1105.72 544.322 1106.42 543.529C1106.96 542.962 1107.47 542.37 1107.95 541.758C1108.28 541.513 1108.59 541.241 1108.87 540.943C1108.97 540.963 1109.06 540.979 1109.16 540.993C1110.25 539.28 1111.51 537.653 1112.95 536.215C1113.03 536.121 1113.11 536.033 1113.2 535.942C1114.2 534.111 1115.21 532.31 1116.12 531.28C1119.7 525.214 1124.54 519.896 1127.23 513.323C1127.76 512.255 1128.36 511.225 1128.98 510.211C1129.92 508.89 1130.82 507.535 1131.6 506.111C1132.16 505.219 1132.72 504.318 1133.24 503.399C1134.61 501.099 1135.63 498.285 1136.58 495.592C1137.48 493.992 1138.34 492.367 1139.07 490.682C1139.77 488.975 1140.41 487.24 1140.89 485.455C1141.01 485.067 1141.13 484.676 1141.25 484.285C1142.61 481.611 1143.78 478.844 1144.69 475.985C1145.36 474.066 1145.92 472.122 1146.41 470.153C1146.79 468.429 1147.3 466.735 1147.6 464.995C1147.85 463.58 1148.01 462.159 1148.15 460.732C1148.17 460.636 1148.2 460.542 1148.22 460.446C1148.71 458.598 1148.93 456.695 1149.28 454.82C1149.49 453.438 1149.87 452.088 1150.05 450.703C1150.39 448.814 1150.52 446.903 1150.65 444.989C1150.68 444.425 1150.7 443.857 1150.71 443.293C1150.89 442.26 1150.94 441.214 1150.97 440.167C1151.04 438.956 1151.09 437.741 1151.09 436.527C1151.1 436.138 1151.12 435.753 1151.15 435.365C1151.21 435.081 1151.28 434.797 1151.33 434.508C1151.38 434.181 1151.41 433.853 1151.45 433.522C1151.78 432.113 1152.11 430.645 1151.93 429.441C1151.99 428.786 1152.06 428.144 1152.11 427.607C1152.25 426.591 1152.24 425.57 1152.24 424.551ZM1126.34 353.309C1126.42 353.46 1126.49 353.614 1126.57 353.766C1126.48 353.611 1126.39 353.46 1126.31 353.303C1126.25 353.187 1126.2 353.08 1126.15 352.973C1126.22 353.083 1126.28 353.196 1126.34 353.309ZM1123.33 348.277C1123.39 348.407 1123.45 348.539 1123.51 348.669C1123.52 348.696 1123.52 348.721 1123.53 348.748C1123.45 348.591 1123.36 348.437 1123.28 348.28C1123.3 348.28 1123.31 348.28 1123.33 348.277ZM846.127 436.893C846.108 436.813 846.094 436.733 846.081 436.653C846.064 436.491 846.056 436.32 846.053 436.147C846.083 436.161 846.111 436.169 846.138 436.183C846.138 436.334 846.144 436.483 846.152 436.634C846.141 436.72 846.135 436.805 846.127 436.893ZM899.096 313.517C898.66 313.801 898.231 314.092 897.819 314.412C897.031 314.993 896.325 315.679 895.603 316.34C894.732 317.047 893.938 317.838 893.197 318.677C893.125 318.76 893.057 318.843 892.988 318.925C892.615 319.206 892.26 319.479 891.898 319.856C891.381 320.41 890.961 321.043 890.557 321.685C890.187 322.007 889.813 322.329 889.442 322.651C880.129 331.537 872.03 341.735 865.177 352.631C859.338 362.795 854.38 373.485 849.959 384.338C848.723 387.788 847.577 391.269 846.328 394.714C845.663 396.223 845.413 398.74 844.213 399.764C844.21 399.756 844.205 399.745 844.202 399.734C846.3 393.359 848.514 387.017 850.165 380.502C854.488 369.952 859.077 358.929 865.386 349.503C872.095 339.95 878.583 329.943 887.624 322.423C891.296 319.005 894.966 315.646 899.234 312.974C899.657 312.688 899.978 312.228 900.426 312.071C899.978 312.55 899.533 313.03 899.096 313.517ZM889.03 384.233C888.945 384.222 888.857 384.203 888.772 384.181C888.885 384.101 888.973 384.115 889.061 384.126C889.05 384.162 889.036 384.233 889.03 384.233ZM890.761 380.648C890.761 380.667 890.623 380.678 890.549 380.692C890.571 380.505 890.593 380.32 890.615 380.133C890.761 380.284 890.772 380.466 890.761 380.648ZM908.78 353.92C906.385 356.787 904.331 359.951 902.381 363.117C898.272 368.019 895.413 373.397 891.486 378.417C893.466 373.353 897.031 369.143 899.744 364.461C902.549 360.612 905.465 356.795 908.945 353.534C908.907 353.672 908.857 353.804 908.78 353.92ZM934.779 282.435C933.867 282.774 932.974 283.157 932.043 283.446C932.955 283.102 933.867 282.763 934.779 282.435ZM920.483 338.84C920.387 338.937 920.294 339.036 920.198 339.132C920.302 338.984 920.417 338.86 920.546 338.744C920.524 338.777 920.502 338.807 920.483 338.84ZM923.573 290.975C923.518 291.148 923.169 291.336 922.961 291.33C921.392 291.286 920.137 292.162 918.866 292.831C916.138 294.282 913.562 296.011 910.931 297.633C916.49 293.475 922.551 290.019 928.536 286.516C933.183 284.52 937.929 282.777 942.719 281.16C939.992 282.254 937.366 283.548 934.691 284.762C932.052 286.773 924.405 288.411 923.573 290.975ZM968.563 279.346C963.158 280.825 957.731 282.248 952.439 284.085C952.019 284.234 951.601 284.382 951.184 284.534C949.324 285.068 947.495 285.679 945.691 286.412C945.147 286.602 944.609 286.811 944.073 287.026C942.332 287.643 940.618 288.334 938.937 289.097C938.945 289.011 938.948 288.921 938.959 288.841C939.728 288.287 940.483 287.717 941.302 287.238C941.73 286.985 942.156 286.731 942.582 286.481C943.551 286.01 944.521 285.539 945.529 285.164C947.017 284.611 948.531 284.192 950.005 283.581C950.066 283.556 950.123 283.548 950.176 283.553C955.125 281.604 960.294 280.202 965.474 278.96C966.795 278.792 968.113 278.624 969.44 278.503C970.34 278.443 971.247 278.393 972.15 278.346C970.956 278.679 969.758 279.013 968.563 279.346ZM1028.03 273.268C1028.53 273.219 1029.02 273.164 1029.51 273.114C1036.86 273.712 1044.12 275.135 1051.16 277.324C1051.65 277.542 1052.14 277.738 1052.64 277.917C1052.85 278.021 1053.06 278.126 1053.28 278.222C1053.88 278.506 1054.49 278.792 1055.14 278.955C1055.66 279.227 1056.18 279.508 1056.69 279.808C1057.32 280.199 1057.97 280.555 1058.62 280.91C1056.71 280.4 1054.87 279.662 1052.98 279.109C1050.63 278.451 1048.26 277.87 1045.9 277.264C1043.04 276.727 1040.2 276.016 1037.53 275.468C1034.36 274.623 1030.86 274.615 1027.87 273.337C1027.92 273.315 1027.98 273.293 1028.03 273.268ZM1067.67 304.909C1066.06 304.036 1064.43 303.204 1062.82 302.337C1068.75 303.876 1074.07 307.01 1079.07 310.482C1081.52 312.118 1083.99 313.831 1085.96 316.034C1079.47 313.214 1074.17 307.902 1067.67 304.909ZM1087.73 311.545C1086.07 310.229 1084.21 309.161 1082.51 307.872C1084.83 308.552 1086.76 309.846 1088.77 311.149C1091 312.608 1093.3 313.82 1095.29 315.648C1097.17 317.133 1099.15 318.504 1100.91 320.109C1104.17 323.37 1108.54 326.066 1110.77 330.117C1106.72 328.401 1103.56 324.851 1100.05 322.197C1096.29 318.303 1091.88 314.773 1087.73 311.545ZM1094.05 323.463C1094.15 323.574 1094.25 323.684 1094.35 323.797C1094.23 323.709 1094.12 323.604 1094.05 323.463ZM1007.24 567.063C1009.86 566.371 1012.33 565.504 1014.92 566.443C1013.28 568.784 1009.75 568.12 1007.25 568.128C1006.86 568.117 1006.4 568.175 1006.37 567.605C1006.35 566.985 1006.93 567.189 1007.24 567.063ZM957.028 567.514C958.91 568.269 961.019 568.908 962.812 569.808C960.118 570.072 957.921 568.943 955.578 567.679C956.169 567.162 956.613 567.363 957.028 567.514ZM942.483 562.717C942.84 562.94 944.128 562.979 943.941 563.469C943.422 563.328 942.796 563.097 942.406 562.984C942.431 562.893 942.458 562.805 942.483 562.717ZM927.517 543.309C926.265 542.755 925.048 541.932 923.903 541.15C925.092 541.896 926.298 542.618 927.517 543.309ZM932.733 560.261C926.825 558.584 921.799 555.772 916.792 552.528C916.828 552.448 916.866 552.369 916.902 552.289C918.618 552.649 920.115 553.814 921.711 554.547C927.553 558.102 934.301 559.272 940.431 562.15C937.792 561.877 935.342 560.737 932.733 560.261ZM948.901 566.961C948.629 568.175 937.413 564.518 936.476 563.659C940.596 564.116 944.507 565.961 948.624 566.713C950.752 567.071 953.046 566.793 954.62 568.42C953.128 568.858 951.189 567.853 949.635 567.627C949.354 567.555 949.143 567.189 948.901 566.961ZM999.19 582.431C992.966 582.106 986.729 582.092 980.588 580.776C974.652 579.771 968.86 578.232 963.07 576.626C962.137 576.345 961.186 576.089 960.236 575.833C959.794 575.687 959.352 575.541 958.91 575.398C957.13 574.759 955.32 574.197 953.532 573.586C952.733 573.212 951.955 572.785 951.214 572.284C951.255 572.284 951.296 572.289 951.337 572.289C952.788 572.702 954.232 573.148 955.713 573.454C958.962 574.178 962.28 574.5 965.556 575.057C966.949 575.307 968.336 575.594 969.728 575.852C969.791 575.869 969.854 575.883 969.918 575.897C970.956 576.155 972.016 576.31 973.068 576.494C973.581 576.613 974.1 576.712 974.622 576.794C975.435 577.103 976.273 577.342 977.111 577.524C977.41 577.579 977.707 577.62 978.009 577.656C978.163 577.711 978.319 577.764 978.478 577.808C979.294 578.05 980.132 578.188 980.978 578.254C982.453 578.667 983.936 579.052 985.413 579.452C987.413 579.901 989.42 580.3 991.425 580.716C994.213 581.36 997.001 582.013 999.824 582.461C999.618 582.448 999.407 582.439 999.19 582.431ZM1002.62 582.811C1004.16 582.957 1005.7 583.062 1007.25 583.133C1007.43 583.158 1007.62 583.183 1007.8 583.205C1006.04 583.401 1004.38 583.095 1002.62 582.811ZM1006.82 581.699C1006.97 581.71 1007.11 581.723 1007.25 581.734C1007.54 581.803 1007.83 581.875 1008.12 581.944C1007.69 581.864 1007.26 581.784 1006.82 581.699ZM1055.33 572.705C1050.76 574.77 1047.81 575.993 1043.39 578.003C1041.64 578.799 1039.61 578.84 1037.76 579.375C1033.14 580.999 1028.04 581.55 1023.19 582.156C1019.04 582.046 1014.58 581.679 1010.51 581.255C1009.48 581.101 1008.45 580.947 1007.42 580.79C1004.17 580.052 1000.88 579.57 997.589 579.077C996.355 578.661 995.117 578.276 993.87 577.901C996.311 578.022 998.778 577.769 1001.17 578.441C1001.17 578.391 1001.18 578.345 1001.2 578.298C1003.72 578.714 1006.29 579.058 1008.85 578.876C1011.05 579.218 1013.29 579.328 1015.49 578.895C1020.48 579.454 1025.51 578.703 1030.52 578.694C1036.11 577.951 1041.48 576.084 1046.96 574.79C1048.44 574.365 1050 574.63 1051.43 574.005C1052.78 573.388 1054.15 572.887 1055.59 572.509C1055.51 572.576 1055.41 572.636 1055.33 572.705ZM1110.34 522.025C1108.6 525.999 1106.84 530.038 1103.88 533.277C1102.62 535.35 1100.4 536.89 1098.68 538.63C1098.31 538.963 1097.93 539.291 1097.56 539.613C1096.58 541.051 1094.89 541.656 1093.77 542.962C1092.69 545.498 1091.31 545.889 1089.13 547.211C1085.12 551.683 1079.94 554.753 1074.8 557.711C1074.13 558.184 1073.59 558.297 1072.98 558.958C1072.86 559.077 1072.91 559.049 1072.52 559.261C1069.37 561.31 1065.94 562.811 1062.58 564.504C1058.59 566.052 1054.56 568.037 1050.49 569.238C1040.95 571.391 1031.37 574.032 1021.52 573.468C1021.43 573.429 1021.34 573.388 1021.24 573.349C1024.65 572.386 1028.09 571.548 1031.54 570.761C1032.86 570.48 1034.2 570.315 1035.37 569.555C1035.58 569.42 1035.87 569.279 1036.09 569.318C1037.12 569.489 1037.95 569.004 1038.85 568.673C1041.76 567.718 1044.73 566.743 1047.4 565.237C1051.01 564.267 1054.61 563.224 1058.11 561.899C1061.99 559.779 1066.09 558.072 1069.77 555.599C1071.39 554.651 1072.85 553.459 1074.27 552.253C1076.14 550.568 1078.39 549.32 1080.05 547.409C1084.97 543.846 1089.15 539.357 1093.4 535.031C1098.23 528.937 1102.28 522.254 1107.18 516.226C1103.72 523.374 1099.31 529.945 1094.98 536.581C1091.61 540.913 1087.61 544.675 1084.02 548.813C1095.47 540.197 1103.93 528.623 1112.38 517.377C1111.68 518.913 1111.01 520.469 1110.34 522.025ZM1112.4 497.126C1112.35 497.327 1112.29 497.525 1112.24 497.723C1111.48 499.307 1110.79 500.923 1109.86 502.416C1108.96 503.916 1107.77 505.2 1106.57 506.756C1107.17 504.833 1108.25 503.008 1109.43 501.38C1110.42 499.819 1112.01 498.056 1111.55 496.068C1111.44 495.553 1111.39 495.033 1111.38 494.512C1111.4 494.482 1111.41 494.452 1111.42 494.422C1111.79 493.557 1112.09 492.67 1112.35 491.772C1113.16 489.955 1113.91 488.118 1114.52 486.221C1114.64 485.868 1114.75 485.513 1114.86 485.158C1116.1 483.239 1116.39 480.89 1117.39 478.835C1117.7 479.108 1117.49 479.469 1117.4 479.796C1116.19 485.709 1114.5 491.472 1112.4 497.126ZM1122.33 485.863C1121.65 488.559 1120.97 491.26 1120.19 493.931C1119.18 495.542 1118.2 497.172 1117.31 498.861C1117.66 497.354 1118.16 495.864 1118.78 494.493C1119.13 493.711 1119.42 492.901 1119.68 492.073C1119.69 492.042 1119.71 492.012 1119.72 491.982C1120.45 490.426 1120.98 488.793 1121.53 487.171C1122.13 485.359 1122.69 483.533 1123.22 481.702C1122.94 483.095 1122.66 484.483 1122.33 485.863ZM1131.94 468.564C1130.84 465.518 1132.72 462.161 1133.18 459.055C1133.85 460.479 1133.05 466.028 1131.94 468.564Z" fill="#D17A22" fill-opacity="0.7"/>
</g>
<path d="M886.514 529.242C886.75 529.297 886.989 529.352 887.175 529.377C886.936 529.264 886.745 529.182 886.553 529.1C886.539 529.149 886.528 529.193 886.514 529.242Z" fill="#D17A22" fill-opacity="0.7"/>
<path d="M1120.46 321.39C1120.34 321.263 1120.22 321.134 1120.1 321.002C1120.04 320.963 1119.97 320.925 1119.9 320.886C1120.1 321.117 1120.24 321.305 1120.38 321.484C1120.4 321.453 1120.43 321.42 1120.46 321.39Z" fill="#D17A22" fill-opacity="0.7"/>
</g>
<defs>
<clipPath id="clip0_11_7">
<rect width="502" height="355" fill="white" transform="translate(720 234)"/>
</clipPath>
</defs>
</svg>
