<svg xmlns="http://www.w3.org/2000/svg" xmlns:xlink="http://www.w3.org/1999/xlink" width="1366" zoomAndPan="magnify" viewBox="0 0 1024.5 576" height="768" preserveAspectRatio="xMidYMid meet" version="1.0"><defs><clipPath id="a5f05f747e"><path d="M 273.769531 47.148438 L 726 47.148438 L 726 503.898438 L 273.769531 503.898438 Z M 273.769531 47.148438 " clip-rule="nonzero"/></clipPath></defs><path fill="#d17a22" d="M 704.898438 184.863281 C 705.738281 186.203125 705.988281 187.96875 707.308594 188.847656 C 707.480469 188.246094 707.753906 187.898438 707.199219 187.347656 C 706.511719 186.347656 706.109375 185.257812 704.898438 184.863281 " fill-opacity="1" fill-rule="nonzero"/><path fill="#d17a22" d="M 683.808594 127.007812 C 683.515625 126.730469 683.222656 126.457031 682.929688 126.179688 C 682.875 126.25 682.8125 126.316406 682.753906 126.386719 C 682.894531 126.566406 683.039062 126.746094 683.242188 126.988281 C 683.476562 127.035156 683.640625 127.023438 683.808594 127.007812 " fill-opacity="1" fill-rule="nonzero"/><g clip-path="url(#a5f05f747e)"><path fill="#d17a22" d="M 725.816406 270.300781 C 725.816406 267.554688 725.816406 264.804688 725.8125 262.054688 C 725.824219 258.742188 725.800781 255.429688 725.59375 252.121094 C 725.949219 246.148438 725.90625 240.15625 725.242188 234.210938 C 725.101562 231.003906 723.703125 227.921875 724.023438 224.714844 C 724.113281 221.835938 722.550781 219.085938 722.035156 216.296875 C 720.773438 212.480469 720.691406 208.21875 718.488281 204.796875 C 718.417969 208.273438 719.179688 211.65625 719.875 215.046875 C 719.847656 215.960938 719.855469 216.875 719.914062 217.785156 C 720.007812 218.386719 720.089844 218.894531 720.160156 219.347656 C 720.207031 219.980469 720.265625 220.613281 720.328125 221.242188 C 720.214844 223.738281 720.308594 226.226562 720.398438 228.746094 C 720.496094 231.039062 720.605469 233.332031 720.855469 235.613281 C 720.699219 238.589844 720.660156 241.5625 720.925781 244.535156 C 720.933594 244.609375 720.941406 244.679688 720.945312 244.75 C 720.941406 245.058594 720.949219 245.355469 720.929688 245.589844 C 720.878906 247.464844 720.972656 249.335938 721.089844 251.210938 C 721.570312 255.921875 721.601562 260.5625 721.285156 265.265625 C 721.105469 274.105469 719.488281 282.769531 717.851562 291.4375 C 717.882812 292.113281 717.503906 293.328125 717.152344 294.519531 C 717.554688 292.070312 717.921875 289.617188 718.085938 287.140625 C 718.160156 286.074219 718.1875 285.011719 718.199219 283.945312 C 718.378906 282.597656 718.554688 281.289062 718.691406 280.246094 C 719.070312 275.714844 719.433594 271.175781 719.433594 266.625 C 719.394531 261.238281 718.539062 255.898438 717.683594 250.59375 C 717.5625 250.039062 717.441406 249.488281 717.316406 248.933594 C 717.007812 247.199219 716.621094 245.476562 716.152344 243.777344 C 716.164062 243.867188 716.171875 243.957031 716.183594 244.046875 C 715.449219 240.941406 714.691406 237.839844 713.960938 234.734375 C 714.019531 238.441406 714.359375 242.136719 714.765625 245.816406 C 715.011719 247.519531 715.265625 249.144531 715.511719 250.726562 C 715.808594 255.28125 716.015625 259.84375 715.765625 264.414062 C 715.480469 271.242188 714.65625 278.035156 714.0625 284.839844 C 714.058594 284.898438 714.050781 284.957031 714.046875 285.015625 C 713.988281 284.453125 713.917969 283.898438 713.839844 283.339844 C 713.945312 282.257812 714.042969 281.125 714.097656 279.746094 C 714.078125 277.785156 713.980469 275.828125 713.820312 273.878906 C 713.96875 271.042969 713.960938 268.203125 713.59375 265.382812 C 713.515625 263.453125 712.996094 261.605469 712.457031 259.769531 C 712.375 258.191406 712.292969 256.613281 712.078125 255.050781 C 711.828125 253.554688 711.488281 252.078125 711.070312 250.617188 C 711.027344 250.265625 710.980469 249.917969 710.933594 249.566406 C 710.707031 248.421875 710.453125 247.277344 710.191406 246.140625 C 709.683594 241.871094 708.984375 237.582031 708.042969 233.636719 C 707.34375 229.621094 706.960938 225.453125 705.667969 221.515625 C 704.644531 218.027344 704.253906 214.371094 703.046875 210.832031 C 698.523438 196.167969 691.179688 182.394531 682.644531 169.675781 C 685.917969 178.609375 690.78125 187.066406 694.074219 195.921875 C 693.964844 195.777344 693.855469 195.636719 693.742188 195.492188 C 697.914062 204.15625 700.921875 213.429688 702.234375 223 C 703.679688 233.894531 706.257812 244.277344 706.332031 255.214844 C 706.105469 254.691406 705.851562 254.179688 705.59375 253.671875 C 705.578125 251.699219 705.371094 249.722656 704.960938 247.789062 C 704.660156 246.269531 704.769531 246.117188 704.421875 244.703125 C 703.929688 243.171875 703.585938 242.851562 703.367188 241.550781 C 703.195312 239.890625 703.019531 238.109375 702.414062 235.355469 C 702.003906 233.78125 701.464844 232.277344 700.832031 230.796875 C 700.757812 230.238281 700.660156 229.65625 700.523438 229.101562 C 700.214844 227.683594 699.773438 226.835938 699.394531 225.867188 C 699.242188 225.019531 699.078125 224.175781 698.882812 223.339844 C 698.304688 220.878906 697.886719 220.449219 697.097656 218.277344 C 697.09375 218.285156 696.65625 217.132812 696.394531 216.40625 C 696.195312 215.632812 696.050781 214.847656 695.746094 214.105469 C 695.398438 213.03125 694.78125 212.074219 694.359375 211.03125 C 694.335938 210.976562 694.292969 210.886719 694.265625 210.820312 C 694.25 210.78125 694.234375 210.742188 694.21875 210.703125 C 694.207031 210.605469 694.191406 210.484375 694.164062 210.332031 C 694.011719 209.683594 694.09375 210.023438 693.945312 209.199219 C 693.875 208.921875 693.894531 208.726562 693.679688 207.976562 C 693.558594 207.359375 693.496094 206.730469 693.34375 206.117188 C 693.132812 205.039062 692.769531 204.003906 692.367188 202.988281 C 692.027344 202.105469 691.8125 201.175781 691.554688 200.269531 C 691.175781 199.144531 690.722656 198.046875 690.234375 196.964844 C 689.691406 195.808594 689.035156 194.71875 688.328125 193.65625 C 688.207031 193.296875 688.082031 192.941406 687.929688 192.59375 C 687.628906 191.871094 687.585938 191.65625 687.296875 190.996094 C 686.851562 189.992188 686.539062 188.863281 685.824219 187.417969 C 685.566406 186.773438 685.59375 186.78125 685.242188 185.835938 C 684.839844 184.875 684.382812 183.945312 683.960938 182.992188 C 683.9375 182.921875 683.714844 182.332031 683.65625 182.171875 C 683.429688 181.523438 683.148438 180.890625 682.839844 180.273438 C 682.296875 179.285156 681.703125 178.328125 681.078125 177.394531 C 680.832031 176.898438 680.535156 176.421875 680.191406 175.992188 C 680.148438 175.945312 680.125 175.910156 680.105469 175.890625 C 680.09375 175.878906 680.082031 175.863281 680.074219 175.847656 C 679.652344 175.214844 679.328125 174.53125 678.925781 173.886719 C 678.347656 172.957031 677.972656 171.925781 677.457031 170.964844 C 677.101562 170.144531 676.765625 169.308594 676.277344 168.558594 C 675.558594 167.390625 674.796875 166.257812 673.824219 165.292969 C 673.222656 164.414062 672.597656 163.558594 671.898438 162.761719 C 671.757812 162.53125 671.613281 162.300781 671.472656 162.066406 C 670.277344 159.917969 669.164062 157.699219 667.585938 155.792969 C 667.289062 155.421875 666.964844 155.078125 666.625 154.746094 C 665.953125 153.878906 664.96875 152.546875 664.054688 151.359375 C 663.199219 150.363281 662.332031 149.378906 661.460938 148.402344 C 660.363281 146.953125 659.195312 145.566406 657.972656 144.21875 C 657.921875 144.066406 657.867188 143.917969 657.824219 143.761719 C 664.308594 148.082031 668.75 153.359375 674.054688 158.726562 C 673.949219 156.847656 672.410156 155.855469 671.304688 154.554688 C 669.835938 152.882812 668.449219 151.136719 666.921875 149.527344 C 663.996094 146.589844 660.90625 143.804688 657.953125 140.882812 C 656.273438 139.277344 654.09375 138.15625 653.105469 135.871094 C 652.367188 135.078125 651.160156 134.671875 651.027344 133.398438 C 650.648438 131.414062 648.589844 130.710938 647.078125 129.6875 C 646.113281 128.589844 645.082031 127.542969 644.011719 126.539062 C 652.191406 129.675781 657.636719 136.832031 663.796875 142.671875 C 666.417969 144.742188 668.515625 147.382812 670.648438 149.972656 C 678.460938 159.164062 686.664062 168.0625 693.148438 178.292969 C 697.867188 185.816406 702.023438 193.664062 705.582031 201.765625 C 706.277344 203.738281 707.007812 205.628906 707.710938 207.285156 C 707.980469 207.882812 708.359375 208.59375 708.644531 209.171875 C 711.292969 216.007812 713.535156 223 715.351562 230.125 C 714.585938 222.746094 712.222656 215.742188 709.378906 208.945312 C 709.175781 208.238281 708.921875 207.546875 708.703125 206.84375 C 708.191406 204.921875 707.507812 203.058594 706.722656 201.238281 C 706.667969 201.082031 706.617188 200.925781 706.558594 200.773438 C 706.011719 199.132812 705.480469 197.484375 704.769531 195.910156 C 704.636719 195.605469 704.492188 195.308594 704.347656 195.011719 C 703.816406 193.765625 703.1875 192.5625 702.488281 191.398438 C 702.402344 191.03125 702.304688 190.667969 702.195312 190.304688 C 701.5 188.457031 700.542969 186.726562 699.4375 185.089844 C 699.386719 184.953125 699.335938 184.820312 699.285156 184.6875 C 699.136719 184.371094 698.980469 184.058594 698.820312 183.75 C 698.8125 183.738281 698.8125 183.730469 698.808594 183.71875 C 698.234375 182.519531 697.617188 181.335938 697.03125 180.140625 C 696.359375 178.90625 695.867188 177.589844 695.160156 176.378906 C 694.917969 175.976562 694.664062 175.582031 694.410156 175.1875 C 693.792969 173.785156 693.039062 172.140625 692.238281 170.695312 C 691.347656 169.054688 690.207031 167.566406 689.167969 166.015625 C 688.386719 164.882812 687.601562 163.753906 686.808594 162.628906 C 686.460938 161.992188 686.109375 161.359375 685.757812 160.730469 C 687.113281 162.390625 688.6875 163.878906 690.363281 165.21875 C 690.582031 165.46875 690.875 165.679688 691.089844 165.933594 C 692.644531 167.785156 694.316406 169.554688 695.695312 171.527344 C 698.390625 175.234375 700.46875 179.390625 703.367188 182.945312 C 701.789062 177.933594 698.4375 173.621094 696.136719 168.894531 C 695.878906 168.488281 695.621094 168.082031 695.359375 167.671875 C 695.121094 167.113281 694.824219 166.578125 694.546875 166.039062 C 694.140625 165.109375 693.683594 164.207031 693.105469 163.371094 C 693.035156 163.265625 692.964844 163.164062 692.894531 163.0625 C 692.480469 162.230469 692.019531 161.417969 691.523438 160.628906 C 690.867188 159.707031 690.117188 158.867188 689.308594 158.082031 C 688.964844 157.582031 688.609375 157.074219 688.257812 156.601562 C 688.082031 156.261719 687.867188 155.941406 687.570312 155.664062 C 687.5 155.578125 687.429688 155.496094 687.355469 155.414062 C 686.769531 154.359375 686.167969 153.3125 685.53125 152.285156 C 684.757812 151.207031 684.53125 150.960938 683.828125 150.027344 C 682.953125 148.9375 682.222656 147.867188 680.984375 146.496094 C 679.375 144.867188 677.761719 143.242188 676.175781 141.585938 C 675.792969 141.1875 675.386719 140.816406 674.96875 140.457031 C 674.636719 139.984375 674.304688 139.527344 673.980469 139.09375 C 672.6875 137.632812 671.308594 136.257812 669.886719 134.917969 C 669.492188 134.363281 669.085938 133.816406 668.652344 133.285156 C 666.785156 131.152344 664.546875 129.386719 662.347656 127.605469 C 661.089844 126.566406 659.839844 125.503906 658.582031 124.460938 C 656.378906 121.667969 653.726562 119.390625 650.984375 117.21875 C 649.09375 114.824219 646.699219 112.871094 644.507812 110.757812 C 649.464844 113.835938 653.707031 117.90625 658.339844 121.449219 C 662.265625 125.070312 666.257812 128.558594 670.757812 131.449219 C 680.257812 139.015625 687.941406 148.582031 695.953125 157.648438 C 700.539062 162.601562 703.886719 168.300781 708.941406 172.839844 C 706.960938 168.066406 704.898438 163.273438 703.050781 158.421875 C 701.910156 157.132812 700.917969 155.875 700.050781 154.363281 C 697.613281 149.457031 694.300781 145.226562 690.675781 141.140625 C 688.648438 138.734375 686.867188 136.097656 684.179688 134.285156 C 682.226562 133.230469 683.277344 131.863281 681.886719 130.730469 C 676.410156 126.035156 671.339844 120.941406 665.722656 116.457031 C 665.707031 116.511719 665.695312 116.570312 665.683594 116.625 C 665.324219 116.324219 664.828125 116.15625 664.917969 115.71875 C 663.441406 114.15625 661.765625 112.882812 660 111.667969 C 658.585938 110.808594 656.894531 110.320312 656.171875 108.589844 C 654.339844 107.1875 652.3125 105.835938 650.269531 104.761719 C 644.210938 101.449219 638.300781 97.726562 632.117188 94.664062 C 625.460938 92.25 619.683594 88.132812 612.84375 86.164062 C 601.445312 82.140625 590.117188 77.914062 578.71875 73.882812 C 572.707031 71.929688 566.601562 70.242188 560.542969 68.429688 C 560.382812 68.363281 560.210938 68.308594 560.035156 68.265625 C 559.785156 68.148438 559.53125 68.035156 559.273438 67.941406 C 559.246094 67.929688 559.21875 67.921875 559.191406 67.914062 C 558.664062 67.714844 558.125 67.542969 557.574219 67.414062 C 557.535156 67.378906 557.496094 67.34375 557.457031 67.304688 C 557.570312 67.304688 557.6875 67.308594 557.800781 67.308594 C 558.824219 67.394531 559.855469 67.464844 560.882812 67.5 C 562.386719 67.785156 563.925781 67.914062 565.445312 68.128906 C 574.1875 69.398438 582.78125 71.539062 591.472656 73.0625 C 595.023438 73.886719 598.445312 75.230469 602.132812 75.472656 C 604.519531 76.027344 606.917969 77.425781 609.367188 77.628906 C 611.257812 77.765625 613.003906 78.101562 614.742188 78.820312 C 619.132812 80.316406 623.460938 82.015625 627.695312 83.925781 C 636.253906 87.28125 643.28125 93.484375 650.945312 98.433594 C 661.226562 105.789062 671.574219 113.453125 679.726562 123.171875 C 679.71875 123.175781 679.738281 123.082031 679.761719 123.019531 C 678.3125 121.320312 677.003906 119.378906 675.929688 117.398438 C 673.730469 115.695312 672.332031 113.207031 669.988281 111.609375 C 667.949219 109.910156 665.867188 108.261719 663.820312 106.570312 C 662.152344 105.15625 661.027344 103.25 658.902344 102.414062 C 657.324219 101.632812 656.246094 100.046875 655.003906 98.871094 C 652.699219 97.203125 650.296875 95.671875 648.007812 93.988281 C 646.167969 92.640625 643.96875 91.761719 642.578125 89.828125 C 639.0625 87.457031 635.183594 85.511719 631.546875 83.292969 C 629.441406 82.441406 630.523438 81.402344 629.078125 80.546875 C 623 77.21875 616.523438 74.714844 610.308594 71.644531 C 604.914062 69.527344 600.273438 66 594.75 64.265625 C 593.386719 63.753906 592.023438 63.242188 590.660156 62.726562 C 589.789062 62.253906 588.902344 61.816406 587.996094 61.425781 C 587.550781 61.246094 587.097656 61.09375 586.640625 60.945312 C 586.179688 60.726562 585.707031 60.53125 585.226562 60.351562 C 585.230469 60.351562 585.234375 60.351562 585.242188 60.351562 C 585.660156 60.445312 586.101562 60.535156 586.492188 60.609375 C 586.714844 60.660156 586.933594 60.714844 587.15625 60.773438 C 587.597656 60.882812 588.035156 60.992188 588.472656 61.101562 C 588.96875 61.25 589.464844 61.398438 589.96875 61.53125 C 591.03125 61.886719 591.671875 62.054688 592.246094 62.308594 C 593.164062 62.566406 594.085938 62.796875 594.996094 63.074219 C 595.328125 63.152344 595.667969 63.207031 596.007812 63.25 C 596.003906 63.25 596.015625 63.253906 596.050781 63.261719 C 596.101562 63.277344 596.097656 63.277344 596.070312 63.265625 C 596.25 63.335938 596.441406 63.375 596.636719 63.402344 C 596.640625 63.40625 596.652344 63.40625 596.679688 63.410156 C 597.007812 63.507812 597.347656 63.558594 597.675781 63.664062 C 598.382812 63.753906 599.066406 63.949219 599.75 64.148438 C 600.441406 64.308594 601.113281 64.546875 601.804688 64.710938 C 602.121094 64.765625 602.3125 64.890625 602.484375 64.949219 C 602.867188 65.109375 603.167969 65.261719 603.75 65.425781 C 604.238281 65.574219 604.734375 65.714844 605.21875 65.878906 C 604.925781 65.714844 604.660156 65.511719 604.363281 65.359375 C 605.042969 65.609375 605.722656 65.851562 606.402344 66.09375 C 610.425781 67.046875 613.484375 68.597656 617.46875 70.082031 C 613.34375 66.261719 606.703125 65.5 601.582031 63.253906 C 594.003906 60.070312 585.878906 58.769531 577.953125 56.722656 C 577.085938 56.511719 576.203125 56.351562 575.324219 56.195312 C 575.082031 56.109375 574.835938 56.03125 574.578125 55.953125 C 574.121094 55.816406 573.65625 55.707031 573.191406 55.617188 C 572.226562 55.230469 571.238281 54.859375 570.148438 54.53125 C 569.929688 54.464844 569.707031 54.402344 569.492188 54.351562 C 569.460938 54.34375 569.425781 54.335938 569.394531 54.328125 C 569.363281 54.320312 569.28125 54.300781 569.191406 54.28125 C 568.949219 54.222656 568.703125 54.179688 568.460938 54.136719 C 568.195312 54.0625 567.925781 53.996094 567.652344 53.945312 C 567.644531 53.945312 567.640625 53.9375 567.632812 53.9375 C 566.753906 53.757812 565.839844 53.554688 565 53.203125 C 564.699219 53.160156 564.40625 53.105469 564.132812 53.027344 C 556.339844 50.734375 548.339844 49.628906 540.289062 48.691406 C 531.988281 47.484375 523.640625 47.433594 515.289062 47.644531 C 515.035156 47.617188 514.777344 47.589844 514.523438 47.566406 C 510.589844 47.304688 506.65625 47.152344 502.722656 47.40625 C 499.140625 47.402344 495.558594 47.363281 491.980469 47.414062 C 490.109375 47.410156 488.253906 47.691406 486.40625 47.964844 C 485.335938 48.136719 484.691406 48.144531 483.175781 48.339844 C 481.226562 48.613281 479.253906 48.707031 477.300781 48.941406 C 473.980469 49.484375 470.667969 50.058594 467.339844 50.5625 C 461.890625 51.441406 456.410156 52.144531 450.996094 53.214844 C 450.476562 53.328125 449.957031 53.453125 449.4375 53.574219 C 440.816406 55.03125 432.332031 57.011719 424.644531 59.703125 C 410.140625 63.835938 396.625 70.03125 384.097656 78.078125 C 383.019531 78.632812 381.953125 79.207031 380.882812 79.78125 C 378.242188 81.171875 375.675781 82.714844 373.359375 84.605469 C 373.296875 84.652344 373.242188 84.699219 373.183594 84.746094 C 371.433594 85.78125 369.667969 86.796875 368.046875 88.035156 C 367.710938 88.253906 367.371094 88.476562 367.039062 88.703125 C 363.722656 90.941406 360.46875 93.273438 357.421875 95.867188 C 356.753906 96.359375 355.929688 97 355.054688 97.703125 C 354.898438 97.816406 354.734375 97.929688 354.578125 98.042969 C 354.171875 98.390625 353.769531 98.738281 353.367188 99.089844 C 352.382812 99.902344 351.40625 100.730469 350.5625 101.457031 C 350.753906 101.332031 350.941406 101.210938 351.132812 101.085938 C 350.792969 101.394531 350.457031 101.703125 350.121094 102.015625 C 348.738281 102.964844 347.414062 104.007812 346.128906 105.09375 C 337.335938 112.054688 330.746094 121.109375 324.042969 129.972656 C 323.242188 130.671875 322.386719 131.53125 321.785156 132.480469 C 321.289062 133.246094 319.289062 134.792969 318.417969 136.234375 C 317.542969 137.554688 316.601562 138.832031 315.714844 140.144531 C 315.304688 140.773438 314.957031 141.441406 314.582031 142.089844 C 314.25 142.601562 313.882812 143.089844 313.5625 143.609375 C 312.675781 145.167969 311.585938 146.597656 310.625 148.109375 C 310.261719 148.71875 309.992188 149.378906 309.617188 149.980469 C 309.199219 150.761719 308.707031 151.503906 308.214844 152.238281 C 307.867188 152.925781 307.441406 153.566406 307.0625 154.238281 C 306.589844 154.980469 306.175781 155.761719 305.738281 156.527344 C 305.183594 157.433594 304.621094 158.339844 304.109375 159.273438 C 303.777344 159.953125 303.40625 160.617188 303.089844 161.308594 C 303.082031 161.328125 303.074219 161.355469 303.0625 161.375 C 302.875 161.6875 302.6875 162.003906 302.507812 162.320312 C 301.773438 163.679688 300.976562 165.003906 300.359375 166.421875 C 300.316406 166.527344 300.273438 166.632812 300.230469 166.734375 C 298.089844 169.925781 296.101562 173.230469 294.3125 176.699219 C 289.84375 186.859375 286.03125 197.273438 282.523438 207.804688 C 280.089844 212.972656 278.53125 219.5 276.300781 225.03125 C 273.992188 230.355469 278.820312 239.882812 275.222656 244.703125 C 274.714844 246.332031 274.355469 248.074219 273.925781 249.742188 C 273.863281 250.011719 273.859375 250.511719 273.988281 250.574219 C 275.644531 251.402344 273.925781 252.78125 274.414062 254.492188 C 276.886719 253.773438 276.28125 255.910156 275.558594 257.207031 C 274.71875 258.46875 275.136719 259.71875 275.550781 260.953125 C 275.617188 261.167969 275.972656 261.371094 276.226562 261.425781 C 279.804688 262.398438 279.195312 257.96875 281.816406 257.425781 C 282.800781 258.988281 280.585938 260.421875 281.367188 261.910156 C 282.355469 262.058594 282.644531 260.496094 283.28125 259.945312 C 284.625 258.546875 282.917969 258.460938 283.019531 257.113281 C 283.035156 256.984375 283.582031 256.769531 283.796875 256.847656 C 286.085938 257.433594 286 252.953125 288.019531 252.460938 C 288.859375 254.058594 287.546875 255.886719 287.363281 257.5625 C 286.515625 259.613281 286.570312 264 285.074219 265.195312 C 284.820312 265.359375 284.589844 265.777344 284.589844 266.078125 C 284.53125 267.542969 285.066406 269.195312 284.683594 270.605469 C 284.210938 271.570312 284.191406 272.550781 284.4375 273.507812 C 284.757812 274.761719 284.445312 275.820312 283.828125 276.878906 C 282.957031 278.144531 282.21875 280.375 284.320312 280.804688 C 286.371094 281.070312 286.148438 277.363281 287.0625 276.074219 C 287.761719 274.738281 288.1875 273.351562 288.488281 271.933594 C 289.21875 270.519531 289.964844 269.121094 290.660156 267.695312 C 290.710938 267.6875 290.761719 267.683594 290.8125 267.683594 C 290.804688 267.792969 290.796875 267.902344 290.789062 268.011719 C 290.140625 270.464844 289.699219 272.992188 289.660156 275.53125 C 289.652344 276.554688 289.675781 277.574219 289.71875 278.59375 C 288.933594 280.316406 288.039062 280.78125 288.433594 283.765625 C 288.1875 284.851562 288.371094 285.480469 288.738281 285.894531 C 288.269531 287.410156 288.070312 289.003906 288.230469 290.585938 C 288.316406 291.832031 288.894531 292.945312 289.300781 294.101562 C 289.730469 295.191406 290.019531 296.316406 290.285156 297.453125 C 290.304688 297.988281 290.332031 298.519531 290.363281 299.054688 C 290.390625 300.347656 290.378906 301.648438 290.46875 302.945312 C 290.460938 303.449219 290.414062 303.945312 290.277344 304.417969 C 289.050781 308.019531 292.285156 310.527344 292.492188 313.859375 C 293.1875 320.285156 295.417969 316.464844 295.898438 319.046875 C 296.71875 324.4375 299.269531 322.023438 302.8125 325.894531 C 307.003906 328.585938 310.335938 323.59375 313.730469 321.800781 C 317.703125 319.097656 319.148438 314.085938 321.808594 310.246094 C 322.265625 308.925781 322.449219 307.457031 322.847656 306.105469 C 323.132812 305.011719 323.777344 304.234375 324.871094 303.855469 C 326.527344 303.015625 326.675781 304.972656 327.222656 306.027344 C 330.34375 305.636719 328.246094 300.035156 328.339844 297.886719 C 327.8125 296.3125 328.960938 294.890625 328.753906 293.398438 C 328.136719 291.972656 328.269531 290.550781 328.320312 289.046875 C 328.679688 277.144531 331.820312 265.527344 333.777344 253.8125 C 335.847656 245.363281 337.425781 236.777344 340.539062 228.613281 C 346.15625 213.984375 352.378906 199.527344 361.226562 186.519531 C 369.015625 173.546875 378.796875 161.613281 391.417969 153.152344 C 388.09375 156.339844 385.453125 159.984375 381.945312 162.921875 C 381.867188 163.203125 381.753906 163.316406 381.523438 163.296875 C 369.023438 179.097656 356.648438 195.542969 348.773438 214.378906 C 342.878906 226.996094 339.949219 240.617188 336.148438 253.949219 C 332.738281 265.023438 331.621094 276.503906 330.332031 287.953125 C 330.460938 287.96875 330.59375 287.980469 330.730469 287.996094 C 332 285.023438 331.933594 281.703125 332.691406 278.621094 C 333.207031 277.3125 333.34375 275.992188 333.371094 274.617188 C 333.4375 271.511719 333.828125 268.464844 334.703125 265.460938 C 336.351562 258.226562 338.476562 251.117188 340.1875 243.894531 C 342.527344 235.46875 344.6875 226.847656 348.960938 219.160156 C 348.984375 219.1875 349.003906 219.210938 349.019531 219.238281 C 347.535156 222.929688 346.363281 226.757812 345.640625 230.671875 C 344.851562 234.003906 342.460938 236.914062 342.847656 240.46875 C 342.539062 242.191406 341.523438 243.835938 341.058594 245.542969 C 340.511719 248.371094 340.792969 251.300781 340.414062 254.164062 C 343.136719 249.667969 344.320312 244.464844 346.472656 239.691406 C 346.441406 238.175781 347.214844 236.554688 347.804688 235.277344 C 348.953125 232.867188 349.535156 230.25 350.226562 227.691406 C 351.023438 225.339844 352.484375 223.179688 353.765625 221.03125 C 356.097656 215.136719 358.839844 209.4375 361.746094 203.824219 C 363.152344 201.597656 365.195312 199.679688 366.476562 197.386719 C 366.730469 196.191406 367.730469 195.140625 368.429688 194.1875 C 369.902344 192.175781 370.65625 189.703125 372.042969 187.628906 C 374.261719 183.894531 377.109375 180.597656 379.273438 176.8125 C 382.851562 171.855469 386.933594 167.203125 391.445312 163.070312 C 393.171875 161.945312 394.769531 160.769531 395.921875 159.023438 C 397.039062 157.785156 398.734375 155.207031 400.628906 154.890625 C 403.167969 151.652344 406.277344 148.828125 409.65625 146.457031 C 414.699219 141.605469 420.648438 137.960938 426.78125 134.660156 C 427.980469 133.976562 429.136719 133.222656 430.273438 132.4375 C 433.238281 130.949219 436.191406 129.429688 439.125 127.882812 C 439.171875 127.863281 439.214844 127.847656 439.261719 127.832031 C 440.953125 127.226562 442.667969 126.695312 444.328125 126.011719 C 448.050781 124.519531 451.8125 123.152344 455.589844 121.8125 C 459.234375 120.542969 462.835938 119.125 466.527344 118.003906 C 467.703125 117.628906 468.878906 117.265625 470.054688 116.90625 C 470.484375 116.867188 470.914062 116.835938 471.339844 116.808594 C 476.46875 115.0625 481.867188 114.847656 487.121094 113.859375 C 488.75 113.835938 490.375 113.828125 492.007812 113.828125 C 499.9375 113.230469 507.914062 113.410156 515.835938 114.074219 C 516.160156 114.089844 516.484375 114.101562 516.804688 114.113281 C 521.695312 114.328125 526.574219 114.753906 531.335938 115.785156 C 532.992188 115.9375 534.644531 116.132812 536.292969 116.363281 C 537.484375 116.496094 538.675781 116.632812 539.867188 116.777344 C 550.371094 118.28125 560.300781 122.046875 570.230469 125.65625 C 575.90625 127.640625 581.097656 130.214844 586.199219 133.332031 C 590.609375 135.4375 594.585938 138.285156 598.863281 140.628906 C 601.4375 143.15625 604.527344 145.527344 607.425781 147.507812 C 607.894531 148.039062 608.355469 148.574219 608.816406 149.113281 C 611.84375 151.820312 614.550781 154.859375 617.222656 157.914062 C 620.414062 160.730469 623.515625 163.640625 626.148438 167.011719 C 627.289062 168.472656 628.359375 169.984375 629.398438 171.519531 C 633.078125 175.824219 636.390625 180.460938 639.375 185.296875 C 640.539062 186.816406 641.6875 188.335938 642.804688 189.859375 C 645.195312 194.035156 647.378906 198.320312 649.621094 202.578125 C 650.617188 204.230469 651.535156 205.929688 652.355469 207.675781 C 652.878906 208.617188 653.40625 209.558594 653.945312 210.492188 C 654.082031 211.097656 654.226562 211.699219 654.382812 212.296875 C 654.871094 213.421875 655.273438 214.574219 655.566406 215.75 C 655.929688 216.664062 656.285156 217.582031 656.640625 218.503906 C 656.828125 218.949219 657.011719 219.398438 657.195312 219.851562 C 657.273438 220.027344 657.347656 220.203125 657.421875 220.382812 C 657.75 221.175781 658.054688 221.976562 658.328125 222.785156 C 661.394531 231.070312 663.4375 239.734375 664.621094 248.503906 C 665.265625 251.488281 665.816406 254.496094 666.28125 257.515625 C 666.308594 257.648438 666.335938 257.777344 666.363281 257.90625 C 666.367188 257.976562 666.371094 258.039062 666.375 258.109375 C 667.121094 263.019531 667.652344 267.964844 668.023438 272.925781 C 668.109375 273.578125 668.195312 274.226562 668.277344 274.871094 C 668.269531 275.285156 668.253906 275.695312 668.242188 276.109375 C 668.519531 280.628906 668.667969 285.152344 668.734375 289.671875 C 668.273438 292.351562 667.933594 295.050781 667.75 297.761719 C 667.65625 299.242188 667.546875 300.722656 667.464844 302.199219 C 667.316406 302.71875 667.167969 303.234375 667.046875 303.761719 C 665.40625 309.921875 664.226562 316.199219 662.542969 322.347656 C 661.738281 324.921875 660.914062 327.503906 660.042969 330.027344 C 658.726562 333.125 657.40625 336.140625 656.089844 339.328125 C 655.816406 339.902344 655.539062 340.476562 655.261719 341.046875 C 654.433594 342.632812 653.613281 344.226562 652.804688 345.824219 C 650.996094 348.894531 649.121094 351.925781 647.238281 354.949219 C 645.355469 357.886719 643.585938 360.894531 641.738281 363.855469 C 640.910156 364.925781 640.082031 365.996094 639.261719 367.066406 C 637.675781 369.351562 636.082031 371.632812 634.40625 373.855469 C 634.023438 374.378906 633.636719 374.898438 633.25 375.421875 C 631.726562 377.378906 630.199219 379.328125 628.667969 381.277344 C 627.871094 382.234375 627.089844 383.199219 626.316406 384.171875 C 626.105469 384.425781 625.894531 384.683594 625.6875 384.941406 C 620.179688 390.269531 614.601562 395.519531 609.640625 401.390625 C 602.003906 407.261719 594.492188 413.265625 586.042969 417.957031 C 579.21875 420.773438 573.171875 425.101562 566.53125 428.25 C 553.097656 434.191406 538.703125 438.1875 523.945312 438.476562 C 502.15625 440.066406 480.191406 438.34375 458.890625 433.136719 C 451.78125 431.566406 445.011719 429.28125 438.230469 426.441406 C 434.351562 424.316406 430.71875 421.777344 426.800781 419.722656 C 421.1875 416.109375 415.121094 413.261719 409.601562 409.5 C 401.703125 404.496094 394.683594 398.332031 387.339844 392.585938 C 381.796875 387.695312 376.726562 382.285156 371.855469 376.734375 C 365.597656 368.722656 359.449219 359.816406 352.464844 352.246094 C 352.472656 352.261719 352.480469 352.277344 352.488281 352.296875 C 351.964844 351.695312 351.382812 351.140625 350.859375 350.539062 C 353.804688 355.910156 356.851562 361.246094 360.144531 366.410156 C 359.796875 365.992188 359.457031 365.570312 359.125 365.140625 C 359.957031 366.640625 360.863281 368.09375 361.8125 369.519531 C 361.144531 368.894531 360.339844 368.363281 359.675781 367.71875 C 359.710938 367.765625 359.746094 367.8125 359.78125 367.859375 C 358.722656 367.035156 357.917969 366.488281 357.140625 365.820312 C 360.890625 372.027344 365.507812 377.707031 369.574219 383.667969 C 375.414062 392.992188 383.414062 400.753906 391.398438 408.261719 C 389.925781 407.410156 388.484375 406.507812 387.074219 405.5625 C 387.460938 406.160156 388.382812 406.542969 388.5 407.257812 C 395.160156 412.195312 402.035156 416.78125 408.648438 421.800781 C 390.703125 414.597656 377.285156 399.464844 360.414062 390.726562 C 365.6875 398.625 372.441406 405.246094 379.460938 411.585938 C 380.851562 412.671875 382.277344 413.703125 383.730469 414.679688 C 383.988281 414.957031 384.25 415.230469 384.519531 415.496094 C 386.132812 417.046875 387.734375 418.636719 389.632812 419.847656 C 391.515625 420.976562 393.332031 422.222656 395.25 423.292969 C 395.28125 423.3125 395.3125 423.324219 395.339844 423.34375 C 396.238281 423.898438 397.121094 424.472656 398.007812 425.046875 C 398.589844 425.476562 399.175781 425.890625 399.78125 426.285156 C 400.71875 426.914062 401.667969 427.53125 402.636719 428.113281 C 406.664062 430.789062 410.714844 433.417969 415.082031 435.523438 C 419.59375 438.167969 424.308594 440.519531 428.835938 443.113281 C 434.285156 446.335938 440.382812 448.152344 445.996094 451.078125 C 456.9375 456.585938 468.34375 461.339844 480.410156 463.667969 C 486.867188 466.097656 493.78125 467.125 500.359375 468.695312 C 500.078125 468.738281 499.800781 468.773438 499.519531 468.8125 C 496.53125 468.574219 493.550781 468.214844 490.558594 468.027344 C 489.894531 468 489.371094 467.957031 488.890625 467.898438 C 486.203125 467.390625 483.46875 466.828125 480.597656 466.320312 C 477.722656 465.792969 474.832031 465.335938 471.972656 464.71875 C 468.394531 463.859375 464.878906 462.773438 461.34375 461.753906 C 457.328125 460.671875 453.183594 459.996094 449.308594 458.449219 C 447.640625 457.789062 445.96875 457.140625 444.285156 456.523438 C 442.996094 456.042969 441.742188 455.480469 440.417969 455.117188 C 437.921875 454.496094 436.488281 453.578125 433.941406 452.351562 C 433.367188 452.066406 432.792969 451.804688 432.214844 451.542969 C 426.136719 448.40625 420.058594 445.269531 413.882812 442.320312 C 413.945312 442.335938 414.007812 442.355469 414.070312 442.371094 C 396.382812 430.28125 378.085938 418.597656 361.972656 404.4375 C 356.195312 399.34375 351.105469 393.621094 346.148438 387.75 C 342.261719 383.476562 337.714844 379.808594 334.421875 375.019531 C 334.6875 375.621094 334.96875 376.210938 335.257812 376.796875 C 334.746094 376.273438 334.328125 375.503906 333.957031 375.019531 C 334.074219 375.289062 334.191406 375.5625 334.308594 375.839844 C 334.269531 375.800781 334.226562 375.757812 334.191406 375.71875 C 334.699219 376.535156 334.96875 377.488281 335.410156 378.34375 C 335.394531 378.324219 335.378906 378.308594 335.359375 378.292969 C 335.828125 379.179688 336.289062 380.066406 336.808594 380.929688 C 336.792969 380.90625 336.777344 380.886719 336.761719 380.863281 C 339.40625 386.867188 344.429688 391.289062 347.644531 396.925781 C 355.765625 408.792969 366.492188 418.734375 378.167969 427.046875 C 371.710938 424.269531 365.535156 420.882812 359.285156 417.675781 C 356.933594 416.3125 355.121094 414.1875 352.480469 413.269531 C 349.835938 411.769531 347.457031 409.476562 344.636719 408.457031 C 344.585938 408.582031 344.539062 408.707031 344.492188 408.832031 C 346.746094 409.898438 348.828125 411.105469 350.226562 413.242188 C 350.417969 414.707031 348.867188 413.601562 348.25 413.253906 C 348.28125 413.777344 348.492188 414.074219 348.777344 414.246094 C 351.253906 415.976562 353.496094 417.980469 356.269531 419.277344 C 358.132812 420.703125 359.996094 422.132812 361.847656 423.570312 C 363.742188 425.039062 365.945312 426.152344 367.207031 428.34375 C 367.40625 428.6875 367.855469 428.917969 368.226562 429.128906 C 374.984375 432.828125 381.59375 436.691406 387.550781 441.605469 C 390.65625 443.976562 393.726562 446.398438 396.824219 448.78125 C 397.535156 449.328125 398.058594 449.945312 398.078125 451.109375 C 388.660156 447.484375 380.378906 441.492188 372.035156 435.917969 C 366.265625 431.054688 360.917969 425.566406 354.128906 422.078125 C 356.617188 424.546875 359.578125 426.503906 362.078125 428.945312 C 366.140625 433.453125 370.984375 437.007812 375.539062 440.960938 C 375.464844 441.074219 375.386719 441.183594 375.3125 441.296875 C 369.914062 438.6875 364.972656 435.054688 360.007812 431.691406 C 358.679688 431.128906 359.695312 433.226562 357.78125 431.941406 C 354.453125 430.257812 351.296875 428.226562 347.871094 426.757812 C 351.6875 430.414062 356.972656 432.417969 361.328125 435.484375 C 365.964844 438.316406 369.964844 442.136719 373.910156 445.839844 C 373.816406 445.9375 373.71875 446.035156 373.625 446.132812 C 369.328125 444.007812 365.898438 440.582031 361.851562 438.027344 C 362.433594 439.117188 363.667969 439.75 364.148438 441.207031 C 360.171875 439.890625 358.054688 435.929688 354.367188 434.429688 C 354.136719 435.09375 354.332031 435.5625 354.949219 435.902344 C 361.390625 440.914062 367.929688 445.910156 373.253906 452.117188 C 382.503906 459.628906 393.367188 464.511719 404.054688 469.617188 C 404.800781 470.09375 405.546875 470.5625 406.300781 471.023438 C 408.996094 472.582031 411.839844 473.855469 414.691406 475.097656 C 416.398438 475.875 418.109375 476.640625 419.855469 477.320312 C 437.796875 487.023438 457.464844 493.289062 477.492188 497.054688 C 478.066406 497.097656 478.636719 497.148438 479.207031 497.203125 C 482.339844 498.140625 485.476562 499.054688 488.699219 499.601562 C 491.5625 500.074219 494.445312 500.40625 497.347656 500.460938 C 500.820312 501.25 504.292969 502.066406 507.78125 502.785156 C 515.074219 503.90625 522.328125 502.800781 529.613281 502.230469 C 535.082031 501.886719 540.453125 501.085938 545.703125 499.515625 C 546.421875 499.394531 546.714844 499.039062 546.980469 498.691406 C 548.167969 498.386719 549.347656 498.074219 550.519531 497.738281 C 550.527344 497.738281 550.535156 497.734375 550.539062 497.734375 C 550.765625 497.71875 550.996094 497.699219 551.21875 497.644531 C 551.316406 497.621094 551.410156 497.601562 551.507812 497.582031 C 551.53125 497.582031 551.558594 497.574219 551.582031 497.574219 C 552.976562 497.417969 554.335938 497.035156 555.695312 496.726562 C 557.390625 496.378906 559.101562 496.105469 560.789062 495.722656 C 562.894531 495.085938 565.09375 494.820312 567.191406 494.160156 C 568.675781 493.769531 570.15625 493.34375 571.65625 493.015625 C 573.1875 492.644531 574.75 492.382812 576.277344 491.988281 C 577.886719 491.527344 579.453125 490.914062 581.0625 490.449219 C 583.191406 489.738281 584.917969 489.039062 586.359375 488.515625 C 588.125 487.832031 590.011719 487.511719 591.753906 486.765625 C 592.976562 486.238281 592.761719 486.347656 593.835938 485.847656 C 594.792969 485.351562 595.703125 484.765625 596.691406 484.324219 C 597.5 484.007812 598.335938 483.765625 599.125 483.398438 C 600.855469 482.578125 601.109375 482.523438 602.828125 481.785156 C 603.683594 481.359375 604.476562 480.832031 605.324219 480.386719 C 607.207031 479.347656 609.242188 478.574219 611.03125 477.371094 C 612.054688 476.664062 612.433594 476.382812 612.988281 475.972656 C 613.402344 475.742188 613.828125 475.496094 614.269531 475.214844 C 614.875 474.820312 615.441406 474.367188 616.039062 473.96875 C 616.910156 473.453125 617.78125 472.933594 618.601562 472.339844 C 620.136719 471.394531 621.761719 470.585938 623.234375 469.542969 C 623.765625 469.128906 624.277344 468.691406 624.789062 468.25 C 625.136719 468.089844 625.480469 467.875 625.824219 467.582031 C 631.101562 463.601562 636.71875 460.058594 641.601562 455.578125 C 642.496094 454.707031 643.398438 453.835938 644.296875 452.960938 C 644.539062 452.773438 644.773438 452.585938 645.011719 452.394531 C 645.707031 452.175781 646.328125 451.707031 646.925781 451.3125 C 648.671875 450.253906 650.152344 448.84375 651.632812 447.457031 C 652.578125 446.597656 653.554688 445.777344 654.441406 444.855469 C 655.375 443.898438 656.402344 443.042969 657.421875 442.179688 C 658.617188 441.269531 659.664062 440.199219 660.652344 439.074219 C 661.417969 438.269531 662.140625 437.429688 662.828125 436.5625 C 663.292969 436.214844 663.742188 435.828125 664.140625 435.40625 C 664.28125 435.433594 664.414062 435.457031 664.546875 435.476562 C 666.101562 433.046875 667.894531 430.738281 669.941406 428.699219 C 670.058594 428.566406 670.175781 428.441406 670.296875 428.3125 C 671.714844 425.714844 673.160156 423.160156 674.449219 421.699219 C 679.546875 413.09375 686.429688 405.550781 690.253906 396.226562 C 691.011719 394.710938 691.855469 393.25 692.738281 391.8125 C 694.078125 389.9375 695.355469 388.015625 696.460938 385.996094 C 697.265625 384.730469 698.058594 383.453125 698.796875 382.148438 C 700.742188 378.886719 702.203125 374.894531 703.554688 371.074219 C 704.828125 368.804688 706.046875 366.5 707.085938 364.109375 C 708.089844 361.6875 708.992188 359.226562 709.675781 356.695312 C 709.855469 356.144531 710.027344 355.589844 710.195312 355.035156 C 712.121094 351.242188 713.792969 347.316406 715.078125 343.261719 C 716.03125 340.539062 716.839844 337.78125 717.535156 334.988281 C 718.074219 332.542969 718.800781 330.140625 719.226562 327.671875 C 719.578125 325.664062 719.808594 323.648438 720.003906 321.625 C 720.039062 321.488281 720.078125 321.355469 720.109375 321.21875 C 720.804688 318.597656 721.121094 315.898438 721.617188 313.238281 C 721.910156 311.277344 722.453125 309.363281 722.710938 307.398438 C 723.191406 304.71875 723.382812 302.007812 723.554688 299.292969 C 723.601562 298.492188 723.628906 297.6875 723.640625 296.886719 C 723.902344 295.421875 723.96875 293.9375 724.019531 292.453125 C 724.113281 290.734375 724.183594 289.011719 724.183594 287.289062 C 724.203125 286.738281 724.234375 286.191406 724.265625 285.640625 C 724.363281 285.238281 724.457031 284.835938 724.53125 284.425781 C 724.59375 283.960938 724.644531 283.496094 724.695312 283.027344 C 725.167969 281.027344 725.636719 278.945312 725.375 277.238281 C 725.46875 276.308594 725.5625 275.398438 725.644531 274.636719 C 725.835938 273.195312 725.824219 271.746094 725.816406 270.300781 Z M 688.992188 169.242188 C 689.097656 169.457031 689.203125 169.675781 689.308594 169.890625 C 689.1875 169.671875 689.058594 169.457031 688.941406 169.234375 C 688.863281 169.070312 688.789062 168.917969 688.71875 168.765625 C 688.808594 168.921875 688.898438 169.082031 688.992188 169.242188 Z M 684.707031 162.105469 C 684.789062 162.289062 684.871094 162.476562 684.957031 162.660156 C 684.96875 162.699219 684.980469 162.734375 684.992188 162.773438 C 684.875 162.550781 684.75 162.332031 684.628906 162.109375 C 684.65625 162.109375 684.679688 162.109375 684.707031 162.105469 Z M 290.449219 287.808594 C 290.421875 287.695312 290.402344 287.582031 290.382812 287.46875 C 290.359375 287.238281 290.347656 286.996094 290.34375 286.75 C 290.386719 286.769531 290.425781 286.78125 290.464844 286.800781 C 290.464844 287.015625 290.472656 287.226562 290.484375 287.441406 C 290.46875 287.5625 290.460938 287.683594 290.449219 287.808594 Z M 365.785156 112.796875 C 365.164062 113.199219 364.554688 113.613281 363.96875 114.066406 C 362.847656 114.890625 361.84375 115.863281 360.816406 116.800781 C 359.578125 117.804688 358.449219 118.925781 357.394531 120.117188 C 357.292969 120.234375 357.195312 120.351562 357.097656 120.46875 C 356.566406 120.867188 356.0625 121.253906 355.546875 121.789062 C 354.8125 122.574219 354.214844 123.472656 353.640625 124.382812 C 353.113281 124.839844 352.582031 125.296875 352.054688 125.753906 C 338.808594 138.359375 327.289062 152.824219 317.542969 168.28125 C 309.238281 182.699219 302.1875 197.863281 295.898438 213.257812 C 294.140625 218.152344 292.511719 223.089844 290.734375 227.976562 C 289.789062 230.117188 289.433594 233.6875 287.726562 235.140625 C 287.722656 235.128906 287.714844 235.113281 287.710938 235.097656 C 290.695312 226.054688 293.84375 217.058594 296.191406 207.816406 C 302.339844 192.851562 308.867188 177.214844 317.839844 163.84375 C 327.382812 150.292969 336.609375 136.097656 349.46875 125.429688 C 354.691406 120.582031 359.910156 115.816406 365.980469 112.027344 C 366.582031 111.621094 367.039062 110.96875 367.675781 110.746094 C 367.039062 111.425781 366.40625 112.105469 365.785156 112.796875 Z M 351.46875 213.109375 C 351.347656 213.09375 351.222656 213.066406 351.101562 213.035156 C 351.261719 212.921875 351.386719 212.941406 351.511719 212.957031 C 351.496094 213.007812 351.476562 213.109375 351.46875 213.109375 Z M 353.929688 208.023438 C 353.929688 208.050781 353.734375 208.066406 353.628906 208.085938 C 353.660156 207.820312 353.691406 207.558594 353.722656 207.292969 C 353.929688 207.507812 353.945312 207.765625 353.929688 208.023438 Z M 379.558594 170.109375 C 376.152344 174.175781 373.230469 178.664062 370.457031 183.15625 C 364.613281 190.109375 360.546875 197.738281 354.960938 204.859375 C 357.777344 197.675781 362.847656 191.703125 366.707031 185.0625 C 370.695312 179.601562 374.84375 174.1875 379.792969 169.5625 C 379.738281 169.757812 379.667969 169.945312 379.558594 170.109375 Z M 416.535156 68.707031 C 415.238281 69.1875 413.96875 69.730469 412.644531 70.140625 C 413.941406 69.652344 415.238281 69.171875 416.535156 68.707031 Z M 396.203125 148.71875 C 396.066406 148.855469 395.933594 148.996094 395.796875 149.132812 C 395.945312 148.921875 396.109375 148.746094 396.292969 148.582031 C 396.261719 148.628906 396.230469 148.671875 396.203125 148.71875 Z M 400.597656 80.820312 C 400.519531 81.066406 400.023438 81.332031 399.726562 81.324219 C 397.496094 81.261719 395.710938 82.503906 393.902344 83.453125 C 390.023438 85.511719 386.359375 87.964844 382.617188 90.265625 C 390.523438 84.367188 399.144531 79.464844 407.65625 74.496094 C 414.265625 71.664062 421.015625 69.191406 427.828125 66.898438 C 423.949219 68.449219 420.214844 70.285156 416.410156 72.007812 C 412.65625 74.859375 401.78125 77.183594 400.597656 80.820312 Z M 464.585938 64.324219 C 456.898438 66.421875 449.179688 68.441406 441.652344 71.046875 C 441.054688 71.257812 440.460938 71.46875 439.867188 71.683594 C 437.222656 72.441406 434.621094 73.308594 432.054688 74.347656 C 431.28125 74.617188 430.515625 74.914062 429.753906 75.21875 C 427.277344 76.09375 424.839844 77.074219 422.449219 78.15625 C 422.460938 78.035156 422.464844 77.90625 422.480469 77.792969 C 423.574219 77.007812 424.648438 76.199219 425.8125 75.519531 C 426.421875 75.160156 427.027344 74.800781 427.632812 74.445312 C 429.011719 73.777344 430.390625 73.109375 431.824219 72.578125 C 433.941406 71.792969 436.09375 71.199219 438.191406 70.332031 C 438.277344 70.296875 438.359375 70.285156 438.433594 70.292969 C 445.472656 67.527344 452.824219 65.539062 460.191406 63.777344 C 462.070312 63.539062 463.945312 63.300781 465.832031 63.128906 C 467.113281 63.042969 468.402344 62.972656 469.6875 62.90625 C 467.988281 63.378906 466.285156 63.851562 464.585938 64.324219 Z M 549.167969 55.703125 C 549.867188 55.632812 550.570312 55.554688 551.269531 55.484375 C 561.726562 56.332031 572.050781 58.351562 582.0625 61.457031 C 582.75 61.765625 583.453125 62.042969 584.164062 62.296875 C 584.460938 62.445312 584.765625 62.59375 585.070312 62.730469 C 585.921875 63.132812 586.796875 63.539062 587.71875 63.769531 C 588.460938 64.15625 589.203125 64.554688 589.929688 64.980469 C 590.824219 65.535156 591.746094 66.039062 592.667969 66.542969 C 589.953125 65.820312 587.339844 64.773438 584.648438 63.988281 C 581.308594 63.054688 577.933594 62.230469 574.574219 61.371094 C 570.511719 60.609375 566.476562 59.601562 562.679688 58.824219 C 558.167969 57.625 553.1875 57.613281 548.933594 55.800781 C 549.007812 55.769531 549.085938 55.738281 549.167969 55.703125 Z M 605.539062 100.585938 C 603.25 99.347656 600.933594 98.167969 598.640625 96.9375 C 607.074219 99.121094 614.648438 103.566406 621.753906 108.492188 C 625.238281 110.8125 628.753906 113.242188 631.558594 116.367188 C 622.324219 112.367188 614.785156 104.832031 605.539062 100.585938 Z M 634.078125 110 C 631.707031 108.132812 629.066406 106.617188 626.652344 104.789062 C 629.945312 105.753906 632.695312 107.589844 635.546875 109.4375 C 638.71875 111.507812 641.996094 113.226562 644.820312 115.820312 C 647.492188 117.925781 650.308594 119.871094 652.824219 122.148438 C 657.449219 126.773438 663.671875 130.597656 666.839844 136.34375 C 661.085938 133.910156 656.582031 128.875 651.589844 125.109375 C 646.25 119.585938 639.980469 114.578125 634.078125 110 Z M 643.0625 126.90625 C 643.203125 127.0625 643.347656 127.21875 643.492188 127.378906 C 643.3125 127.253906 643.15625 127.105469 643.0625 126.90625 Z M 519.597656 472.457031 C 523.316406 471.476562 526.828125 470.246094 530.515625 471.578125 C 528.191406 474.898438 523.160156 473.957031 519.601562 473.96875 C 519.046875 473.953125 518.394531 474.035156 518.363281 473.226562 C 518.332031 472.347656 519.148438 472.636719 519.597656 472.457031 Z M 448.179688 473.097656 C 450.855469 474.167969 453.855469 475.074219 456.40625 476.351562 C 452.574219 476.726562 449.449219 475.125 446.117188 473.332031 C 446.957031 472.597656 447.589844 472.882812 448.179688 473.097656 Z M 427.492188 466.292969 C 428 466.609375 429.832031 466.664062 429.566406 467.359375 C 428.828125 467.160156 427.9375 466.832031 427.382812 466.671875 C 427.417969 466.542969 427.457031 466.417969 427.492188 466.292969 Z M 406.207031 438.761719 C 404.425781 437.976562 402.695312 436.808594 401.066406 435.699219 C 402.757812 436.757812 404.472656 437.78125 406.207031 438.761719 Z M 413.625 462.808594 C 405.222656 460.429688 398.074219 456.441406 390.953125 451.839844 C 391.003906 451.726562 391.058594 451.613281 391.109375 451.5 C 393.550781 452.011719 395.679688 453.664062 397.949219 454.703125 C 406.257812 459.746094 415.855469 461.40625 424.574219 465.488281 C 420.820312 465.101562 417.335938 463.484375 413.625 462.808594 Z M 436.621094 472.3125 C 436.234375 474.035156 420.28125 468.847656 418.949219 467.628906 C 424.808594 468.277344 430.371094 470.894531 436.226562 471.960938 C 439.253906 472.46875 442.515625 472.074219 444.753906 474.382812 C 442.632812 475.003906 439.875 473.578125 437.664062 473.257812 C 437.265625 473.15625 436.964844 472.636719 436.621094 472.3125 Z M 508.144531 494.257812 C 499.292969 493.796875 490.421875 493.777344 481.6875 491.910156 C 473.246094 490.484375 465.007812 488.300781 456.773438 486.023438 C 455.445312 485.625 454.09375 485.261719 452.742188 484.898438 C 452.113281 484.691406 451.484375 484.484375 450.855469 484.28125 C 448.324219 483.375 445.75 482.578125 443.207031 481.710938 C 442.070312 481.179688 440.964844 480.574219 439.910156 479.863281 C 439.96875 479.863281 440.027344 479.871094 440.085938 479.871094 C 442.148438 480.457031 444.203125 481.089844 446.308594 481.523438 C 450.929688 482.550781 455.648438 483.007812 460.308594 483.796875 C 462.289062 484.152344 464.261719 484.558594 466.242188 484.925781 C 466.332031 484.949219 466.421875 484.96875 466.511719 484.988281 C 467.988281 485.355469 469.496094 485.574219 470.992188 485.835938 C 471.722656 486.003906 472.460938 486.144531 473.203125 486.261719 C 474.359375 486.699219 475.550781 487.039062 476.742188 487.296875 C 477.167969 487.375 477.589844 487.433594 478.019531 487.484375 C 478.238281 487.5625 478.460938 487.636719 478.6875 487.699219 C 479.847656 488.042969 481.039062 488.238281 482.242188 488.332031 C 484.339844 488.917969 486.449219 489.464844 488.550781 490.03125 C 491.394531 490.667969 494.25 491.234375 497.101562 491.824219 C 501.066406 492.738281 505.03125 493.664062 509.046875 494.300781 C 508.753906 494.28125 508.453125 494.269531 508.144531 494.257812 Z M 513.027344 494.796875 C 515.21875 495.003906 517.410156 495.152344 519.609375 495.253906 C 519.871094 495.289062 520.132812 495.324219 520.394531 495.355469 C 517.890625 495.632812 515.53125 495.199219 513.027344 494.796875 Z M 519.003906 493.21875 C 519.207031 493.234375 519.410156 493.253906 519.613281 493.269531 C 520.027344 493.367188 520.4375 493.46875 520.847656 493.566406 C 520.238281 493.453125 519.621094 493.339844 519.003906 493.21875 Z M 587.988281 480.460938 C 581.492188 483.390625 577.292969 485.125 571.003906 487.976562 C 568.515625 489.105469 565.636719 489.164062 563.007812 489.921875 C 556.433594 492.226562 549.171875 493.007812 542.277344 493.867188 C 536.382812 493.710938 530.039062 493.191406 524.238281 492.589844 C 522.773438 492.371094 521.308594 492.152344 519.847656 491.929688 C 515.230469 490.882812 510.546875 490.199219 505.867188 489.5 C 504.113281 488.910156 502.351562 488.363281 500.578125 487.832031 C 504.050781 488.003906 507.558594 487.644531 510.960938 488.597656 C 510.964844 488.527344 510.980469 488.460938 511 488.394531 C 514.589844 488.984375 518.238281 489.472656 521.878906 489.214844 C 525.019531 489.699219 528.199219 489.855469 531.332031 489.242188 C 538.425781 490.035156 545.582031 488.96875 552.703125 488.957031 C 560.65625 487.902344 568.292969 485.253906 576.085938 483.417969 C 578.195312 482.816406 580.40625 483.191406 582.449219 482.304688 C 584.371094 481.429688 586.316406 480.71875 588.363281 480.183594 C 588.242188 480.277344 588.109375 480.363281 587.988281 480.460938 Z M 666.234375 408.570312 C 663.757812 414.207031 661.246094 419.9375 657.042969 424.53125 C 655.25 427.472656 652.09375 429.65625 649.640625 432.125 C 649.121094 432.597656 648.582031 433.0625 648.046875 433.519531 C 646.660156 435.558594 644.25 436.417969 642.667969 438.269531 C 641.132812 441.867188 639.160156 442.421875 636.0625 444.296875 C 630.359375 450.640625 622.988281 454.996094 615.683594 459.191406 C 614.722656 459.863281 613.960938 460.023438 613.097656 460.960938 C 612.925781 461.128906 613 461.089844 612.445312 461.390625 C 607.964844 464.296875 603.074219 466.425781 598.304688 468.828125 C 592.628906 471.023438 586.902344 473.839844 581.105469 475.542969 C 567.539062 478.597656 553.914062 482.34375 539.898438 481.542969 C 539.769531 481.488281 539.644531 481.429688 539.511719 481.375 C 544.351562 480.007812 549.246094 478.820312 554.15625 477.703125 C 556.03125 477.304688 557.945312 477.070312 559.609375 475.992188 C 559.902344 475.800781 560.316406 475.601562 560.632812 475.65625 C 562.085938 475.898438 563.277344 475.210938 564.550781 474.742188 C 568.695312 473.386719 572.910156 472.003906 576.71875 469.867188 C 581.851562 468.492188 586.960938 467.011719 591.941406 465.132812 C 597.457031 462.125 603.300781 459.703125 608.527344 456.195312 C 610.832031 454.851562 612.910156 453.160156 614.933594 451.449219 C 617.585938 449.058594 620.789062 447.289062 623.144531 444.578125 C 630.148438 439.523438 636.097656 433.15625 642.132812 427.019531 C 649.003906 418.375 654.761719 408.894531 661.730469 400.34375 C 656.816406 410.484375 650.535156 419.804688 644.386719 429.21875 C 639.597656 435.363281 633.894531 440.699219 628.789062 446.570312 C 645.074219 434.347656 657.109375 417.929688 669.128906 401.976562 C 668.128906 404.15625 667.179688 406.363281 666.234375 408.570312 Z M 669.160156 373.25 C 669.082031 373.535156 669.007812 373.816406 668.933594 374.097656 C 667.851562 376.34375 666.863281 378.636719 665.542969 380.753906 C 664.273438 382.882812 662.578125 384.703125 660.867188 386.910156 C 661.71875 384.183594 663.257812 381.59375 664.929688 379.285156 C 666.339844 377.070312 668.605469 374.570312 667.945312 371.75 C 667.796875 371.019531 667.726562 370.28125 667.710938 369.542969 C 667.730469 369.5 667.75 369.457031 667.769531 369.414062 C 668.292969 368.1875 668.71875 366.929688 669.082031 365.65625 C 670.234375 363.078125 671.3125 360.472656 672.179688 357.78125 C 672.34375 357.28125 672.5 356.777344 672.652344 356.273438 C 674.421875 353.550781 674.832031 350.21875 676.253906 347.304688 C 676.703125 347.691406 676.394531 348.203125 676.269531 348.667969 C 674.542969 357.054688 672.148438 365.230469 669.160156 373.25 Z M 683.277344 357.273438 C 682.316406 361.097656 681.351562 364.929688 680.238281 368.71875 C 678.796875 371.003906 677.402344 373.316406 676.148438 375.710938 C 676.636719 373.574219 677.347656 371.460938 678.226562 369.515625 C 678.734375 368.40625 679.148438 367.257812 679.511719 366.082031 C 679.53125 366.039062 679.550781 365.996094 679.570312 365.953125 C 680.605469 363.746094 681.355469 361.429688 682.144531 359.128906 C 682.992188 356.558594 683.789062 353.96875 684.554688 351.371094 C 684.15625 353.347656 683.746094 355.316406 683.277344 357.273438 Z M 696.953125 332.734375 C 695.382812 328.414062 698.066406 323.652344 698.714844 319.246094 C 699.664062 321.265625 698.523438 329.136719 696.953125 332.734375 " fill-opacity="1" fill-rule="nonzero"/></g><path fill="#d17a22" d="M 347.890625 418.808594 C 348.226562 418.886719 348.566406 418.964844 348.832031 419 C 348.492188 418.839844 348.21875 418.722656 347.945312 418.605469 C 347.925781 418.675781 347.910156 418.738281 347.890625 418.808594 " fill-opacity="1" fill-rule="nonzero"/><path fill="#d17a22" d="M 680.617188 123.964844 C 680.449219 123.785156 680.28125 123.601562 680.117188 123.414062 C 680.019531 123.359375 679.921875 123.304688 679.828125 123.25 C 680.117188 123.578125 680.3125 123.84375 680.503906 124.097656 C 680.542969 124.054688 680.582031 124.007812 680.617188 123.964844 " fill-opacity="1" fill-rule="nonzero"/></svg>