<svg width="1440" height="1024" viewBox="0 0 1440 1024" fill="none" xmlns="http://www.w3.org/2000/svg">
<rect width="1440" height="1024" fill="#272932"/>
<g clip-path="url(#clip0_11_7)">
<path d="M1295.53 275.321C1296.12 276.265 1296.29 277.51 1297.22 278.13C1297.34 277.706 1297.54 277.461 1297.15 277.072C1296.66 276.367 1296.38 275.599 1295.53 275.321Z" fill="#D17A22" fill-opacity="0.7"/>
<path d="M1280.7 234.535C1280.49 234.34 1280.29 234.147 1280.08 233.951C1280.04 234.001 1280 234.048 1279.96 234.097C1280.06 234.224 1280.16 234.351 1280.3 234.521C1280.47 234.555 1280.58 234.546 1280.7 234.535Z" fill="#D17A22" fill-opacity="0.7"/>
<mask id="mask0_11_7" style="mask-type:luminance" maskUnits="userSpaceOnUse" x="992" y="178" width="319" height="323">
<path d="M992.4 178.238H1310.36V500.228H992.4V178.238Z" fill="white"/>
</mask>
<g mask="url(#mask0_11_7)">
<path d="M1310.24 335.551C1310.24 333.615 1310.24 331.676 1310.23 329.738C1310.24 327.402 1310.22 325.067 1310.08 322.735C1310.33 318.524 1310.3 314.3 1309.83 310.109C1309.73 307.848 1308.75 305.675 1308.98 303.415C1309.04 301.385 1307.94 299.446 1307.58 297.48C1306.69 294.79 1306.63 291.785 1305.08 289.373C1305.03 291.824 1305.57 294.209 1306.06 296.599C1306.04 297.243 1306.04 297.888 1306.09 298.529C1306.15 298.953 1306.21 299.311 1306.26 299.631C1306.29 300.077 1306.33 300.523 1306.38 300.966C1306.3 302.726 1306.36 304.48 1306.43 306.256C1306.49 307.873 1306.57 309.489 1306.75 311.097C1306.64 313.196 1306.61 315.291 1306.8 317.387C1306.8 317.439 1306.81 317.489 1306.81 317.538C1306.81 317.756 1306.81 317.965 1306.8 318.131C1306.76 319.452 1306.83 320.771 1306.91 322.093C1307.25 325.414 1307.27 328.686 1307.05 332.001C1306.92 338.233 1305.79 344.341 1304.64 350.451C1304.66 350.928 1304.39 351.784 1304.14 352.624C1304.43 350.897 1304.69 349.168 1304.8 347.422C1304.85 346.67 1304.87 345.921 1304.88 345.17C1305.01 344.22 1305.13 343.297 1305.23 342.562C1305.49 339.367 1305.75 336.168 1305.75 332.959C1305.72 329.162 1305.12 325.398 1304.52 321.658C1304.43 321.267 1304.35 320.879 1304.26 320.488C1304.04 319.265 1303.77 318.051 1303.44 316.853C1303.45 316.916 1303.45 316.979 1303.46 317.043C1302.95 314.854 1302.41 312.667 1301.9 310.478C1301.94 313.091 1302.18 315.696 1302.47 318.29C1302.64 319.491 1302.82 320.636 1302.99 321.752C1303.2 324.963 1303.34 328.179 1303.17 331.401C1302.97 336.214 1302.39 341.003 1301.97 345.8C1301.97 345.841 1301.96 345.883 1301.96 345.924C1301.92 345.528 1301.87 345.137 1301.81 344.743C1301.89 343.98 1301.96 343.181 1302 342.209C1301.98 340.827 1301.91 339.447 1301.8 338.073C1301.91 336.074 1301.9 334.072 1301.64 332.084C1301.59 330.723 1301.22 329.421 1300.84 328.127C1300.79 327.014 1300.73 325.902 1300.58 324.8C1300.4 323.745 1300.16 322.704 1299.87 321.675C1299.84 321.427 1299.8 321.182 1299.77 320.934C1299.61 320.127 1299.43 319.32 1299.25 318.519C1298.89 315.509 1298.4 312.485 1297.74 309.704C1297.25 306.873 1296.98 303.935 1296.07 301.159C1295.35 298.7 1295.08 296.123 1294.23 293.628C1291.05 283.29 1285.88 273.58 1279.88 264.614C1282.18 270.912 1285.6 276.874 1287.92 283.117C1287.84 283.015 1287.76 282.916 1287.68 282.814C1290.62 288.922 1292.73 295.459 1293.66 302.206C1294.67 309.886 1296.48 317.205 1296.54 324.916C1296.38 324.547 1296.2 324.186 1296.02 323.828C1296.01 322.437 1295.86 321.044 1295.57 319.681C1295.36 318.61 1295.44 318.502 1295.19 317.505C1294.85 316.426 1294.61 316.2 1294.45 315.283C1294.33 314.113 1294.21 312.857 1293.78 310.916C1293.49 309.806 1293.11 308.746 1292.67 307.702C1292.62 307.308 1292.55 306.898 1292.45 306.507C1292.24 305.507 1291.92 304.91 1291.66 304.227C1291.55 303.629 1291.44 303.034 1291.3 302.445C1290.89 300.71 1290.6 300.407 1290.04 298.876C1290.04 298.882 1289.73 298.069 1289.55 297.557C1289.41 297.012 1289.31 296.459 1289.09 295.935C1288.85 295.178 1288.41 294.503 1288.12 293.768C1288.1 293.73 1288.07 293.666 1288.05 293.619C1288.04 293.592 1288.03 293.564 1288.02 293.537C1288.01 293.468 1288 293.383 1287.98 293.275C1287.87 292.818 1287.93 293.058 1287.83 292.477C1287.78 292.281 1287.79 292.143 1287.64 291.615C1287.56 291.18 1287.51 290.736 1287.4 290.304C1287.26 289.544 1287 288.814 1286.72 288.098C1286.48 287.476 1286.33 286.82 1286.15 286.182C1285.88 285.388 1285.56 284.615 1285.22 283.852C1284.84 283.037 1284.37 282.269 1283.88 281.519C1283.79 281.266 1283.7 281.016 1283.6 280.77C1283.39 280.261 1283.36 280.11 1283.15 279.644C1282.84 278.936 1282.62 278.141 1282.12 277.122C1281.94 276.667 1281.96 276.673 1281.71 276.006C1281.42 275.329 1281.1 274.674 1280.81 274.002C1280.79 273.952 1280.63 273.536 1280.59 273.423C1280.43 272.966 1280.24 272.52 1280.02 272.085C1279.64 271.388 1279.22 270.714 1278.78 270.056C1278.61 269.706 1278.4 269.37 1278.16 269.067C1278.13 269.034 1278.11 269.009 1278.1 268.995C1278.09 268.987 1278.08 268.976 1278.07 268.965C1277.78 268.519 1277.55 268.037 1277.27 267.583C1276.86 266.927 1276.6 266.2 1276.23 265.523C1275.98 264.945 1275.75 264.355 1275.4 263.827C1274.9 263.003 1274.36 262.205 1273.68 261.525C1273.26 260.905 1272.82 260.302 1272.33 259.74C1272.23 259.578 1272.13 259.415 1272.03 259.25C1271.19 257.735 1270.4 256.171 1269.29 254.827C1269.08 254.566 1268.86 254.323 1268.62 254.089C1268.15 253.478 1267.45 252.539 1266.81 251.702C1266.21 251 1265.6 250.306 1264.99 249.617C1264.22 248.596 1263.39 247.618 1262.53 246.668C1262.5 246.561 1262.46 246.456 1262.43 246.346C1266.99 249.392 1270.11 253.112 1273.84 256.895C1273.77 255.571 1272.69 254.871 1271.91 253.954C1270.88 252.776 1269.9 251.545 1268.83 250.41C1266.77 248.34 1264.6 246.376 1262.52 244.316C1261.34 243.185 1259.81 242.394 1259.11 240.783C1258.59 240.224 1257.74 239.938 1257.65 239.04C1257.38 237.641 1255.94 237.146 1254.87 236.424C1254.2 235.65 1253.47 234.912 1252.72 234.205C1258.47 236.416 1262.3 241.461 1266.63 245.578C1268.47 247.037 1269.95 248.899 1271.45 250.724C1276.94 257.204 1282.71 263.477 1287.27 270.689C1290.58 275.993 1293.51 281.525 1296.01 287.236C1296.5 288.627 1297.01 289.96 1297.51 291.127C1297.7 291.549 1297.96 292.05 1298.16 292.457C1300.02 297.276 1301.6 302.206 1302.88 307.228C1302.34 302.027 1300.68 297.089 1298.68 292.298C1298.54 291.799 1298.36 291.312 1298.2 290.816C1297.84 289.461 1297.36 288.148 1296.81 286.865C1296.77 286.754 1296.74 286.644 1296.7 286.537C1296.31 285.38 1295.94 284.218 1295.44 283.108C1295.34 282.894 1295.24 282.684 1295.14 282.475C1294.77 281.597 1294.33 280.748 1293.83 279.928C1293.77 279.669 1293.7 279.413 1293.63 279.157C1293.14 277.854 1292.47 276.634 1291.69 275.481C1291.65 275.384 1291.62 275.291 1291.58 275.197C1291.48 274.974 1291.37 274.754 1291.25 274.536C1291.25 274.528 1291.25 274.522 1291.25 274.514C1290.84 273.669 1290.41 272.834 1290 271.992C1289.52 271.121 1289.18 270.193 1288.68 269.34C1288.51 269.056 1288.33 268.778 1288.15 268.5C1287.72 267.511 1287.19 266.352 1286.63 265.333C1286 264.176 1285.2 263.127 1284.47 262.034C1283.92 261.235 1283.37 260.44 1282.81 259.646C1282.56 259.198 1282.32 258.752 1282.07 258.308C1283.02 259.479 1284.13 260.528 1285.31 261.472C1285.46 261.648 1285.67 261.797 1285.82 261.976C1286.91 263.281 1288.09 264.529 1289.06 265.92C1290.95 268.533 1292.41 271.463 1294.45 273.969C1293.34 270.436 1290.99 267.396 1289.37 264.063C1289.19 263.777 1289.01 263.491 1288.82 263.202C1288.65 262.808 1288.44 262.431 1288.25 262.051C1287.96 261.395 1287.64 260.759 1287.24 260.17C1287.19 260.095 1287.14 260.024 1287.09 259.952C1286.8 259.366 1286.47 258.793 1286.12 258.237C1285.66 257.587 1285.14 256.995 1284.57 256.441C1284.33 256.089 1284.08 255.731 1283.83 255.397C1283.7 255.158 1283.55 254.932 1283.34 254.737C1283.3 254.676 1283.25 254.618 1283.19 254.56C1282.78 253.817 1282.36 253.079 1281.91 252.355C1281.37 251.595 1281.21 251.421 1280.71 250.763C1280.1 249.995 1279.58 249.24 1278.71 248.274C1277.58 247.125 1276.45 245.98 1275.33 244.812C1275.06 244.531 1274.78 244.27 1274.48 244.016C1274.25 243.683 1274.02 243.361 1273.79 243.055C1272.88 242.025 1271.91 241.056 1270.91 240.111C1270.63 239.72 1270.35 239.335 1270.04 238.96C1268.73 237.457 1267.16 236.212 1265.61 234.956C1264.73 234.224 1263.85 233.475 1262.96 232.74C1261.41 230.771 1259.55 229.165 1257.62 227.634C1256.29 225.946 1254.61 224.569 1253.07 223.08C1256.55 225.249 1259.54 228.119 1262.79 230.617C1265.55 233.169 1268.36 235.628 1271.52 237.666C1278.2 243 1283.61 249.744 1289.24 256.135C1292.46 259.627 1294.82 263.645 1298.37 266.845C1296.98 263.48 1295.53 260.101 1294.23 256.681C1293.43 255.772 1292.73 254.885 1292.12 253.82C1290.41 250.361 1288.08 247.379 1285.53 244.498C1284.1 242.802 1282.85 240.943 1280.96 239.665C1279.59 238.922 1280.33 237.958 1279.35 237.159C1275.5 233.849 1271.93 230.259 1267.98 227.097C1267.97 227.136 1267.96 227.177 1267.96 227.216C1267.7 227.004 1267.35 226.885 1267.42 226.577C1266.38 225.475 1265.2 224.578 1263.96 223.721C1262.97 223.115 1261.78 222.771 1261.27 221.551C1259.98 220.563 1258.55 219.61 1257.12 218.853C1252.86 216.517 1248.7 213.893 1244.36 211.734C1239.68 210.032 1235.61 207.13 1230.8 205.742C1222.79 202.906 1214.83 199.926 1206.81 197.084C1202.58 195.707 1198.29 194.518 1194.03 193.24C1193.92 193.193 1193.8 193.155 1193.67 193.124C1193.5 193.042 1193.32 192.962 1193.14 192.896C1193.12 192.887 1193.1 192.882 1193.08 192.876C1192.71 192.736 1192.33 192.615 1191.94 192.524C1191.92 192.499 1191.89 192.474 1191.86 192.447C1191.94 192.447 1192.02 192.45 1192.1 192.45C1192.82 192.51 1193.55 192.56 1194.27 192.585C1195.33 192.786 1196.41 192.876 1197.48 193.028C1203.62 193.923 1209.67 195.432 1215.78 196.506C1218.27 197.087 1220.68 198.034 1223.27 198.205C1224.95 198.596 1226.64 199.582 1228.36 199.725C1229.69 199.821 1230.92 200.058 1232.14 200.565C1235.23 201.62 1238.27 202.817 1241.25 204.164C1247.26 206.529 1252.2 210.902 1257.59 214.391C1264.82 219.577 1272.1 224.98 1277.83 231.831C1277.82 231.834 1277.84 231.768 1277.85 231.724C1276.84 230.526 1275.92 229.157 1275.16 227.761C1273.61 226.56 1272.63 224.806 1270.98 223.68C1269.55 222.482 1268.09 221.32 1266.65 220.127C1265.47 219.131 1264.68 217.787 1263.19 217.198C1262.08 216.647 1261.32 215.529 1260.45 214.7C1258.83 213.524 1257.14 212.445 1255.53 211.258C1254.23 210.308 1252.69 209.688 1251.71 208.325C1249.24 206.653 1246.51 205.282 1243.95 203.718C1242.47 203.118 1243.23 202.385 1242.22 201.782C1237.95 199.436 1233.39 197.671 1229.02 195.506C1225.23 194.014 1221.97 191.527 1218.08 190.304C1217.12 189.944 1216.17 189.583 1215.21 189.219C1214.59 188.886 1213.97 188.578 1213.33 188.302C1213.02 188.176 1212.7 188.068 1212.38 187.964C1212.06 187.81 1211.72 187.672 1211.39 187.545C1211.39 187.545 1211.39 187.545 1211.4 187.545C1211.69 187.611 1212 187.675 1212.28 187.727C1212.43 187.763 1212.59 187.801 1212.74 187.843C1213.05 187.92 1213.36 187.997 1213.67 188.074C1214.02 188.179 1214.37 188.283 1214.72 188.377C1215.47 188.627 1215.92 188.746 1216.32 188.925C1216.97 189.107 1217.62 189.269 1218.26 189.465C1218.49 189.52 1218.73 189.558 1218.97 189.588C1218.96 189.588 1218.97 189.591 1219 189.597C1219.03 189.608 1219.03 189.608 1219.01 189.599C1219.14 189.649 1219.27 189.677 1219.41 189.696C1219.41 189.699 1219.42 189.699 1219.44 189.701C1219.67 189.77 1219.91 189.806 1220.14 189.88C1220.64 189.944 1221.12 190.081 1221.6 190.222C1222.08 190.335 1222.56 190.503 1223.04 190.618C1223.27 190.657 1223.4 190.745 1223.52 190.786C1223.79 190.899 1224 191.007 1224.41 191.122C1224.75 191.227 1225.1 191.326 1225.44 191.442C1225.24 191.326 1225.05 191.183 1224.84 191.075C1225.32 191.252 1225.8 191.422 1226.28 191.593C1229.1 192.265 1231.25 193.358 1234.06 194.405C1231.16 191.712 1226.49 191.175 1222.89 189.591C1217.56 187.347 1211.85 186.43 1206.27 184.987C1205.66 184.838 1205.04 184.725 1204.42 184.615C1204.25 184.555 1204.08 184.5 1203.9 184.444C1203.58 184.348 1203.25 184.271 1202.92 184.208C1202.25 183.935 1201.55 183.673 1200.78 183.442C1200.63 183.395 1200.47 183.351 1200.32 183.315C1200.3 183.31 1200.28 183.304 1200.25 183.299C1200.23 183.293 1200.18 183.28 1200.11 183.266C1199.94 183.225 1199.77 183.194 1199.6 183.164C1199.41 183.112 1199.22 183.065 1199.03 183.029C1199.02 183.029 1199.02 183.024 1199.02 183.024C1198.4 182.897 1197.76 182.754 1197.17 182.506C1196.95 182.476 1196.75 182.437 1196.56 182.382C1191.08 180.765 1185.45 179.986 1179.79 179.325C1173.95 178.474 1168.09 178.439 1162.21 178.587C1162.03 178.568 1161.85 178.549 1161.67 178.532C1158.91 178.348 1156.14 178.24 1153.38 178.419C1150.86 178.417 1148.34 178.389 1145.82 178.425C1144.51 178.422 1143.2 178.62 1141.91 178.813C1141.15 178.934 1140.7 178.94 1139.63 179.077C1138.26 179.27 1136.88 179.336 1135.5 179.501C1133.17 179.884 1130.84 180.289 1128.5 180.644C1124.67 181.264 1120.82 181.76 1117.01 182.514C1116.64 182.594 1116.28 182.682 1115.91 182.767C1109.85 183.795 1103.89 185.191 1098.48 187.088C1088.28 190.002 1078.78 194.369 1069.97 200.042C1069.21 200.433 1068.46 200.838 1067.71 201.242C1065.85 202.223 1064.05 203.31 1062.42 204.643C1062.38 204.676 1062.34 204.709 1062.3 204.742C1061.07 205.472 1059.83 206.188 1058.69 207.061C1058.45 207.215 1058.21 207.372 1057.98 207.532C1055.65 209.11 1053.36 210.754 1051.22 212.582C1050.75 212.929 1050.17 213.381 1049.55 213.876C1049.44 213.956 1049.33 214.036 1049.22 214.116C1048.93 214.361 1048.65 214.606 1048.37 214.854C1047.67 215.427 1046.99 216.011 1046.39 216.523C1046.53 216.435 1046.66 216.349 1046.79 216.261C1046.56 216.479 1046.32 216.696 1046.08 216.917C1045.11 217.586 1044.18 218.321 1043.28 219.087C1037.09 223.994 1032.46 230.377 1027.75 236.625C1027.18 237.118 1026.58 237.724 1026.16 238.393C1025.81 238.933 1024.4 240.023 1023.79 241.039C1023.18 241.97 1022.52 242.871 1021.89 243.796C1021.6 244.239 1021.36 244.71 1021.1 245.167C1020.86 245.528 1020.6 245.872 1020.38 246.238C1019.75 247.337 1018.99 248.345 1018.31 249.411C1018.06 249.84 1017.87 250.306 1017.6 250.73C1017.31 251.281 1016.96 251.804 1016.62 252.322C1016.37 252.806 1016.07 253.258 1015.81 253.731C1015.48 254.255 1015.18 254.805 1014.88 255.345C1014.49 255.984 1014.09 256.623 1013.73 257.281C1013.5 257.76 1013.24 258.228 1013.01 258.716C1013.01 258.729 1013 258.749 1013 258.763C1012.86 258.983 1012.73 259.206 1012.61 259.429C1012.09 260.387 1011.53 261.321 1011.1 262.32C1011.06 262.395 1011.03 262.469 1011 262.541C1009.5 264.79 1008.1 267.12 1006.84 269.565C1003.7 276.728 1001.02 284.069 998.555 291.494C996.844 295.137 995.748 299.738 994.179 303.638C992.556 307.391 995.951 314.107 993.421 317.505C993.064 318.654 992.812 319.882 992.51 321.058C992.466 321.248 992.463 321.6 992.554 321.644C993.718 322.228 992.51 323.2 992.853 324.406C994.591 323.9 994.166 325.406 993.658 326.32C993.067 327.21 993.361 328.091 993.652 328.961C993.699 329.112 993.949 329.256 994.127 329.294C996.643 329.98 996.215 326.857 998.057 326.474C998.75 327.576 997.192 328.586 997.742 329.636C998.437 329.74 998.64 328.639 999.087 328.251C1000.03 327.265 998.832 327.204 998.903 326.254C998.914 326.163 999.299 326.012 999.45 326.067C1001.06 326.48 1001 323.321 1002.42 322.974C1003.01 324.101 1002.09 325.389 1001.96 326.571C1001.36 328.016 1001.4 331.109 1000.35 331.952C1000.17 332.067 1000.01 332.362 1000.01 332.574C999.966 333.607 1000.34 334.771 1000.07 335.766C999.741 336.446 999.727 337.137 999.9 337.812C1000.13 338.695 999.906 339.442 999.472 340.188C998.859 341.08 998.34 342.653 999.818 342.956C1001.26 343.143 1001.1 340.529 1001.75 339.621C1002.24 338.679 1002.54 337.701 1002.75 336.702C1003.26 335.705 1003.79 334.719 1004.28 333.714C1004.31 333.708 1004.35 333.706 1004.38 333.706C1004.38 333.783 1004.37 333.86 1004.37 333.937C1003.91 335.666 1003.6 337.448 1003.57 339.238C1003.57 339.959 1003.58 340.678 1003.61 341.397C1003.06 342.611 1002.43 342.939 1002.71 345.043C1002.54 345.808 1002.67 346.252 1002.92 346.544C1002.59 347.612 1002.45 348.736 1002.57 349.851C1002.63 350.729 1003.03 351.514 1003.32 352.329C1003.62 353.098 1003.83 353.891 1004.01 354.692C1004.03 355.069 1004.04 355.444 1004.07 355.821C1004.09 356.733 1004.08 357.65 1004.14 358.564C1004.14 358.919 1004.1 359.269 1004.01 359.602C1003.14 362.141 1005.42 363.909 1005.56 366.258C1006.05 370.788 1007.62 368.094 1007.96 369.915C1008.54 373.715 1010.33 372.013 1012.82 374.742C1015.77 376.639 1018.11 373.12 1020.5 371.856C1023.29 369.951 1024.31 366.417 1026.18 363.711C1026.5 362.78 1026.63 361.744 1026.91 360.792C1027.11 360.02 1027.56 359.473 1028.33 359.205C1029.49 358.613 1029.6 359.993 1029.98 360.736C1032.18 360.461 1030.7 356.512 1030.77 354.998C1030.4 353.888 1031.21 352.886 1031.06 351.834C1030.63 350.828 1030.72 349.826 1030.75 348.766C1031.01 340.375 1033.22 332.186 1034.59 323.927C1036.05 317.971 1037.16 311.918 1039.35 306.163C1043.3 295.85 1047.67 285.658 1053.89 276.488C1059.37 267.343 1066.24 258.931 1075.12 252.966C1072.78 255.213 1070.92 257.782 1068.46 259.853C1068.4 260.051 1068.32 260.131 1068.16 260.117C1059.37 271.256 1050.67 282.85 1045.14 296.128C1040.99 305.023 1038.93 314.625 1036.26 324.024C1033.86 331.83 1033.08 339.924 1032.17 347.995C1032.26 348.006 1032.35 348.014 1032.45 348.025C1033.34 345.93 1033.3 343.589 1033.83 341.416C1034.19 340.494 1034.29 339.563 1034.31 338.594C1034.35 336.404 1034.63 334.256 1035.24 332.139C1036.4 327.039 1037.9 322.027 1039.1 316.935C1040.74 310.996 1042.26 304.918 1045.27 299.499C1045.28 299.518 1045.3 299.534 1045.31 299.554C1044.26 302.156 1043.44 304.855 1042.93 307.614C1042.38 309.963 1040.7 312.014 1040.97 314.52C1040.75 315.735 1040.04 316.894 1039.71 318.097C1039.33 320.091 1039.52 322.157 1039.26 324.175C1041.17 321.005 1042 317.337 1043.52 313.972C1043.5 312.904 1044.04 311.761 1044.45 310.861C1045.26 309.162 1045.67 307.317 1046.16 305.513C1046.72 303.855 1047.74 302.332 1048.65 300.818C1050.28 296.662 1052.21 292.645 1054.26 288.687C1055.25 287.118 1056.68 285.766 1057.58 284.149C1057.76 283.307 1058.46 282.566 1058.96 281.894C1059.99 280.476 1060.52 278.733 1061.5 277.27C1063.06 274.638 1065.06 272.314 1066.58 269.645C1069.1 266.151 1071.97 262.871 1075.14 259.958C1076.35 259.165 1077.48 258.336 1078.29 257.105C1079.07 256.232 1080.26 254.414 1081.6 254.191C1083.38 251.908 1085.57 249.918 1087.94 248.246C1091.49 244.826 1095.67 242.257 1099.98 239.93C1100.83 239.448 1101.64 238.916 1102.44 238.363C1104.52 237.314 1106.6 236.242 1108.66 235.152C1108.69 235.138 1108.72 235.127 1108.76 235.116C1109.95 234.689 1111.15 234.315 1112.32 233.833C1114.94 232.781 1117.58 231.817 1120.24 230.873C1122.8 229.978 1125.33 228.978 1127.93 228.188C1128.76 227.923 1129.58 227.667 1130.41 227.414C1130.71 227.386 1131.01 227.364 1131.31 227.345C1134.92 226.114 1138.71 225.963 1142.41 225.266C1143.55 225.249 1144.7 225.244 1145.84 225.244C1151.42 224.823 1157.03 224.949 1162.6 225.417C1162.83 225.428 1163.05 225.437 1163.28 225.445C1166.72 225.596 1170.15 225.897 1173.5 226.624C1174.66 226.731 1175.82 226.869 1176.98 227.031C1177.82 227.125 1178.66 227.221 1179.49 227.323C1186.88 228.383 1193.86 231.038 1200.84 233.582C1204.83 234.981 1208.48 236.796 1212.07 238.993C1215.17 240.478 1217.97 242.485 1220.97 244.137C1222.78 245.919 1224.96 247.591 1226.99 248.987C1227.32 249.361 1227.65 249.739 1227.97 250.119C1230.1 252.027 1232 254.169 1233.88 256.323C1236.13 258.308 1238.31 260.36 1240.16 262.736C1240.96 263.766 1241.71 264.832 1242.44 265.914C1245.03 268.949 1247.36 272.217 1249.46 275.626C1250.28 276.698 1251.08 277.769 1251.87 278.843C1253.55 281.787 1255.09 284.807 1256.66 287.809C1257.36 288.974 1258.01 290.172 1258.59 291.403C1258.95 292.066 1259.32 292.73 1259.7 293.388C1259.8 293.815 1259.9 294.239 1260.01 294.66C1260.35 295.453 1260.64 296.266 1260.84 297.095C1261.1 297.739 1261.35 298.386 1261.6 299.036C1261.73 299.35 1261.86 299.667 1261.99 299.986C1262.04 300.11 1262.1 300.234 1262.15 300.361C1262.38 300.92 1262.59 301.484 1262.78 302.054C1264.94 307.895 1266.38 314.003 1267.21 320.185C1267.66 322.289 1268.05 324.409 1268.38 326.538C1268.4 326.631 1268.41 326.722 1268.43 326.813C1268.44 326.863 1268.44 326.907 1268.44 326.956C1268.97 330.418 1269.34 333.904 1269.6 337.401C1269.66 337.861 1269.72 338.318 1269.78 338.773C1269.77 339.064 1269.76 339.354 1269.76 339.646C1269.95 342.832 1270.05 346.02 1270.1 349.207C1269.78 351.096 1269.54 352.998 1269.41 354.91C1269.34 355.953 1269.27 356.997 1269.21 358.038C1269.1 358.404 1269 358.768 1268.91 359.139C1267.76 363.482 1266.93 367.907 1265.75 372.242C1265.18 374.056 1264.6 375.877 1263.99 377.655C1263.06 379.839 1262.14 381.965 1261.21 384.212C1261.02 384.617 1260.82 385.022 1260.63 385.424C1260.05 386.542 1259.47 387.665 1258.9 388.792C1257.63 390.956 1256.31 393.093 1254.99 395.224C1253.66 397.295 1252.42 399.416 1251.12 401.503C1250.54 402.257 1249.96 403.012 1249.38 403.766C1248.26 405.377 1247.14 406.986 1245.96 408.553C1245.7 408.922 1245.42 409.288 1245.15 409.657C1244.08 411.036 1243.01 412.41 1241.93 413.785C1241.37 414.459 1240.82 415.139 1240.28 415.825C1240.13 416.004 1239.98 416.186 1239.83 416.368C1235.96 420.124 1232.04 423.825 1228.55 427.964C1223.18 432.103 1217.9 436.335 1211.96 439.642C1207.16 441.628 1202.91 444.679 1198.24 446.898C1188.8 451.087 1178.68 453.904 1168.3 454.108C1152.98 455.228 1137.54 454.014 1122.56 450.343C1117.56 449.236 1112.8 447.625 1108.03 445.623C1105.31 444.125 1102.75 442.335 1100 440.887C1096.05 438.34 1091.78 436.332 1087.9 433.68C1082.35 430.153 1077.41 425.807 1072.25 421.757C1068.35 418.309 1064.79 414.495 1061.36 410.582C1056.96 404.934 1052.64 398.656 1047.73 393.319C1047.74 393.33 1047.74 393.341 1047.75 393.355C1047.38 392.931 1046.97 392.539 1046.6 392.115C1048.67 395.902 1050.82 399.663 1053.13 403.304C1052.89 403.009 1052.65 402.712 1052.41 402.409C1053 403.466 1053.64 404.491 1054.3 405.496C1053.83 405.055 1053.27 404.681 1052.8 404.226C1052.83 404.259 1052.85 404.292 1052.87 404.326C1052.13 403.744 1051.56 403.359 1051.02 402.888C1053.65 407.264 1056.9 411.268 1059.76 415.47C1063.87 422.043 1069.49 427.515 1075.11 432.807C1074.07 432.207 1073.06 431.571 1072.06 430.905C1072.34 431.326 1072.98 431.596 1073.07 432.1C1077.75 435.581 1082.58 438.813 1087.23 442.352C1074.62 437.274 1065.18 426.606 1053.32 420.446C1057.03 426.014 1061.78 430.682 1066.71 435.151C1067.69 435.916 1068.69 436.643 1069.71 437.332C1069.89 437.527 1070.08 437.72 1070.27 437.907C1071.4 439.001 1072.53 440.121 1073.86 440.975C1075.19 441.771 1076.46 442.649 1077.81 443.404C1077.84 443.418 1077.86 443.426 1077.88 443.44C1078.51 443.831 1079.13 444.236 1079.75 444.64C1080.16 444.943 1080.57 445.235 1081 445.513C1081.66 445.957 1082.33 446.392 1083.01 446.802C1085.84 448.688 1088.69 450.542 1091.76 452.026C1094.93 453.89 1098.24 455.548 1101.43 457.376C1105.26 459.648 1109.55 460.929 1113.49 462.991C1121.19 466.874 1129.21 470.225 1137.69 471.867C1142.23 473.579 1147.09 474.304 1151.72 475.411C1151.52 475.441 1151.32 475.466 1151.13 475.493C1149.02 475.325 1146.93 475.072 1144.82 474.94C1144.36 474.921 1143.99 474.89 1143.65 474.849C1141.76 474.491 1139.84 474.094 1137.82 473.736C1135.8 473.365 1133.77 473.042 1131.76 472.607C1129.24 472.002 1126.77 471.236 1124.28 470.517C1121.46 469.754 1118.55 469.278 1115.82 468.188C1114.65 467.722 1113.47 467.265 1112.29 466.83C1111.38 466.491 1110.5 466.095 1109.57 465.839C1107.82 465.401 1106.81 464.754 1105.02 463.889C1104.61 463.688 1104.21 463.503 1103.8 463.319C1099.53 461.108 1095.26 458.896 1090.91 456.817C1090.96 456.828 1091 456.842 1091.05 456.853C1078.61 448.33 1065.74 440.094 1054.42 430.112C1050.35 426.521 1046.77 422.486 1043.29 418.348C1040.56 415.335 1037.36 412.749 1035.04 409.373C1035.23 409.797 1035.43 410.213 1035.63 410.626C1035.27 410.257 1034.98 409.715 1034.72 409.373C1034.8 409.563 1034.88 409.756 1034.96 409.951C1034.94 409.924 1034.91 409.894 1034.88 409.866C1035.24 410.442 1035.43 411.113 1035.74 411.717C1035.73 411.703 1035.72 411.692 1035.7 411.681C1036.03 412.306 1036.36 412.931 1036.72 413.54C1036.71 413.523 1036.7 413.509 1036.69 413.493C1038.55 417.725 1042.08 420.842 1044.34 424.816C1050.05 433.182 1057.59 440.19 1065.8 446.05C1061.26 444.092 1056.92 441.705 1052.53 439.444C1050.87 438.483 1049.6 436.985 1047.74 436.338C1045.88 435.28 1044.21 433.664 1042.23 432.945C1042.19 433.033 1042.16 433.121 1042.13 433.21C1043.71 433.961 1045.17 434.812 1046.16 436.319C1046.29 437.351 1045.2 436.572 1044.77 436.327C1044.79 436.696 1044.94 436.905 1045.14 437.026C1046.88 438.246 1048.46 439.659 1050.41 440.573C1051.72 441.578 1053.03 442.586 1054.33 443.599C1055.66 444.635 1057.21 445.42 1058.1 446.964C1058.24 447.207 1058.55 447.369 1058.81 447.518C1063.56 450.126 1068.21 452.849 1072.4 456.313C1074.58 457.985 1076.74 459.692 1078.92 461.372C1079.42 461.758 1079.79 462.193 1079.8 463.013C1073.18 460.458 1067.36 456.234 1061.49 452.304C1057.43 448.876 1053.67 445.007 1048.9 442.547C1050.65 444.288 1052.73 445.667 1054.49 447.389C1057.35 450.566 1060.75 453.072 1063.95 455.859C1063.9 455.939 1063.85 456.016 1063.79 456.096C1060 454.256 1056.52 451.695 1053.03 449.324C1052.1 448.928 1052.81 450.407 1051.47 449.501C1049.13 448.314 1046.91 446.882 1044.5 445.846C1047.18 448.424 1050.9 449.837 1053.96 451.998C1057.22 453.995 1060.04 456.688 1062.81 459.299C1062.74 459.367 1062.67 459.436 1062.61 459.505C1059.59 458.007 1057.18 455.592 1054.33 453.791C1054.74 454.559 1055.61 455.005 1055.95 456.033C1053.15 455.105 1051.66 452.312 1049.07 451.255C1048.91 451.723 1049.04 452.053 1049.48 452.293C1054.01 455.826 1058.6 459.348 1062.35 463.724C1068.85 469.019 1076.49 472.461 1084 476.061C1084.53 476.397 1085.05 476.727 1085.58 477.052C1087.48 478.151 1089.48 479.048 1091.48 479.924C1092.68 480.472 1093.89 481.012 1095.11 481.491C1107.73 488.331 1121.56 492.748 1135.64 495.403C1136.04 495.433 1136.44 495.469 1136.84 495.508C1139.05 496.168 1141.25 496.813 1143.52 497.198C1145.53 497.532 1147.56 497.766 1149.6 497.804C1152.04 498.36 1154.48 498.936 1156.93 499.443C1162.06 500.233 1167.16 499.454 1172.28 499.052C1176.13 498.809 1179.91 498.245 1183.6 497.138C1184.1 497.052 1184.31 496.802 1184.5 496.557C1185.33 496.342 1186.16 496.122 1186.98 495.885C1186.99 495.885 1186.99 495.882 1187 495.882C1187.16 495.871 1187.32 495.857 1187.48 495.819C1187.54 495.802 1187.61 495.788 1187.68 495.775C1187.7 495.775 1187.71 495.769 1187.73 495.769C1188.71 495.659 1189.67 495.389 1190.62 495.172C1191.81 494.926 1193.02 494.734 1194.2 494.464C1195.68 494.015 1197.23 493.828 1198.71 493.362C1199.75 493.087 1200.79 492.787 1201.85 492.555C1202.92 492.294 1204.02 492.109 1205.09 491.831C1206.23 491.506 1207.33 491.074 1208.46 490.746C1209.96 490.245 1211.17 489.752 1212.18 489.383C1213.42 488.901 1214.75 488.675 1215.98 488.15C1216.84 487.778 1216.68 487.855 1217.44 487.502C1218.11 487.153 1218.75 486.74 1219.45 486.428C1220.02 486.205 1220.6 486.035 1221.16 485.776C1222.38 485.197 1222.55 485.159 1223.76 484.638C1224.36 484.338 1224.92 483.967 1225.52 483.653C1226.84 482.92 1228.27 482.375 1229.53 481.527C1230.25 481.028 1230.52 480.83 1230.91 480.541C1231.2 480.378 1231.5 480.205 1231.81 480.007C1232.23 479.729 1232.63 479.409 1233.05 479.128C1233.66 478.765 1234.28 478.398 1234.85 477.98C1235.93 477.314 1237.07 476.743 1238.11 476.008C1238.48 475.716 1238.84 475.408 1239.2 475.097C1239.45 474.984 1239.69 474.832 1239.93 474.626C1243.64 471.82 1247.59 469.322 1251.02 466.164C1251.65 465.55 1252.29 464.935 1252.92 464.319C1253.09 464.186 1253.25 464.054 1253.42 463.919C1253.91 463.765 1254.35 463.435 1254.77 463.157C1256 462.41 1257.04 461.416 1258.08 460.439C1258.74 459.833 1259.43 459.254 1260.05 458.605C1260.71 457.93 1261.43 457.327 1262.15 456.718C1262.99 456.077 1263.72 455.322 1264.42 454.529C1264.96 453.962 1265.47 453.37 1265.95 452.758C1266.28 452.513 1266.59 452.241 1266.87 451.943C1266.97 451.963 1267.06 451.979 1267.16 451.993C1268.25 450.28 1269.51 448.653 1270.95 447.215C1271.03 447.121 1271.11 447.033 1271.2 446.942C1272.2 445.111 1273.21 443.31 1274.12 442.28C1277.7 436.214 1282.54 430.896 1285.23 424.323C1285.76 423.255 1286.36 422.225 1286.98 421.211C1287.92 419.89 1288.82 418.535 1289.6 417.111C1290.16 416.219 1290.72 415.318 1291.24 414.399C1292.61 412.099 1293.63 409.285 1294.58 406.592C1295.48 404.992 1296.34 403.367 1297.07 401.682C1297.77 399.975 1298.41 398.24 1298.89 396.455C1299.01 396.067 1299.13 395.676 1299.25 395.285C1300.61 392.611 1301.78 389.844 1302.69 386.985C1303.36 385.066 1303.92 383.122 1304.41 381.153C1304.79 379.429 1305.3 377.735 1305.6 375.995C1305.85 374.58 1306.01 373.159 1306.15 371.732C1306.17 371.636 1306.2 371.542 1306.22 371.446C1306.71 369.598 1306.93 367.695 1307.28 365.82C1307.49 364.438 1307.87 363.088 1308.05 361.703C1308.39 359.814 1308.52 357.903 1308.65 355.989C1308.68 355.424 1308.7 354.857 1308.71 354.293C1308.89 353.26 1308.94 352.214 1308.97 351.167C1309.04 349.956 1309.09 348.741 1309.09 347.527C1309.1 347.138 1309.12 346.753 1309.15 346.365C1309.21 346.081 1309.28 345.797 1309.33 345.508C1309.38 345.181 1309.41 344.853 1309.45 344.522C1309.78 343.113 1310.11 341.645 1309.93 340.441C1309.99 339.786 1310.06 339.144 1310.11 338.607C1310.25 337.591 1310.24 336.57 1310.24 335.551ZM1284.34 264.309C1284.42 264.46 1284.49 264.614 1284.57 264.766C1284.48 264.611 1284.39 264.46 1284.31 264.303C1284.25 264.187 1284.2 264.08 1284.15 263.973C1284.22 264.083 1284.28 264.196 1284.34 264.309ZM1281.33 259.277C1281.39 259.407 1281.45 259.539 1281.51 259.669C1281.52 259.696 1281.52 259.721 1281.53 259.748C1281.45 259.591 1281.36 259.437 1281.28 259.28C1281.3 259.28 1281.31 259.28 1281.33 259.277ZM1004.13 347.893C1004.11 347.813 1004.09 347.733 1004.08 347.653C1004.06 347.491 1004.06 347.32 1004.05 347.147C1004.08 347.161 1004.11 347.169 1004.14 347.183C1004.14 347.334 1004.14 347.483 1004.15 347.634C1004.14 347.72 1004.14 347.805 1004.13 347.893ZM1057.1 224.517C1056.66 224.801 1056.23 225.092 1055.82 225.412C1055.03 225.993 1054.33 226.679 1053.6 227.34C1052.73 228.047 1051.94 228.838 1051.2 229.677C1051.13 229.76 1051.06 229.843 1050.99 229.925C1050.61 230.206 1050.26 230.479 1049.9 230.856C1049.38 231.41 1048.96 232.043 1048.56 232.685C1048.19 233.007 1047.81 233.329 1047.44 233.651C1038.13 242.537 1030.03 252.735 1023.18 263.631C1017.34 273.795 1012.38 284.485 1007.96 295.338C1006.72 298.788 1005.58 302.269 1004.33 305.714C1003.66 307.223 1003.41 309.74 1002.21 310.764C1002.21 310.756 1002.2 310.745 1002.2 310.734C1004.3 304.359 1006.51 298.017 1008.16 291.502C1012.49 280.952 1017.08 269.929 1023.39 260.503C1030.1 250.95 1036.58 240.943 1045.62 233.423C1049.3 230.005 1052.97 226.646 1057.23 223.974C1057.66 223.688 1057.98 223.228 1058.43 223.071C1057.98 223.55 1057.53 224.03 1057.1 224.517ZM1047.03 295.233C1046.95 295.222 1046.86 295.203 1046.77 295.181C1046.88 295.101 1046.97 295.115 1047.06 295.126C1047.05 295.162 1047.04 295.233 1047.03 295.233ZM1048.76 291.648C1048.76 291.667 1048.62 291.678 1048.55 291.692C1048.57 291.505 1048.59 291.32 1048.62 291.133C1048.76 291.284 1048.77 291.466 1048.76 291.648ZM1066.78 264.92C1064.39 267.787 1062.33 270.951 1060.38 274.117C1056.27 279.019 1053.41 284.397 1049.49 289.417C1051.47 284.353 1055.03 280.143 1057.74 275.461C1060.55 271.612 1063.47 267.795 1066.95 264.534C1066.91 264.672 1066.86 264.804 1066.78 264.92ZM1092.78 193.435C1091.87 193.774 1090.97 194.157 1090.04 194.446C1090.96 194.102 1091.87 193.763 1092.78 193.435ZM1078.48 249.84C1078.39 249.937 1078.29 250.036 1078.2 250.132C1078.3 249.984 1078.42 249.86 1078.55 249.744C1078.52 249.777 1078.5 249.807 1078.48 249.84ZM1081.57 201.975C1081.52 202.148 1081.17 202.336 1080.96 202.33C1079.39 202.286 1078.14 203.162 1076.87 203.831C1074.14 205.282 1071.56 207.011 1068.93 208.633C1074.49 204.475 1080.55 201.019 1086.54 197.516C1091.18 195.52 1095.93 193.777 1100.72 192.16C1097.99 193.254 1095.37 194.548 1092.69 195.762C1090.05 197.773 1082.41 199.411 1081.57 201.975ZM1126.56 190.346C1121.16 191.824 1115.73 193.248 1110.44 195.085C1110.02 195.234 1109.6 195.382 1109.18 195.534C1107.32 196.068 1105.5 196.679 1103.69 197.412C1103.15 197.602 1102.61 197.811 1102.07 198.026C1100.33 198.643 1098.62 199.334 1096.94 200.097C1096.95 200.011 1096.95 199.921 1096.96 199.841C1097.73 199.287 1098.48 198.717 1099.3 198.238C1099.73 197.985 1100.16 197.731 1100.58 197.481C1101.55 197.01 1102.52 196.539 1103.53 196.164C1105.02 195.611 1106.53 195.192 1108.01 194.581C1108.07 194.556 1108.12 194.548 1108.18 194.553C1113.12 192.604 1118.29 191.202 1123.47 189.96C1124.79 189.792 1126.11 189.624 1127.44 189.503C1128.34 189.443 1129.25 189.393 1130.15 189.346C1128.96 189.679 1127.76 190.013 1126.56 190.346ZM1186.03 184.268C1186.53 184.219 1187.02 184.164 1187.51 184.114C1194.86 184.712 1202.12 186.135 1209.16 188.324C1209.65 188.542 1210.14 188.738 1210.64 188.917C1210.85 189.021 1211.06 189.126 1211.28 189.222C1211.88 189.506 1212.49 189.792 1213.14 189.955C1213.66 190.227 1214.18 190.508 1214.69 190.808C1215.32 191.199 1215.97 191.555 1216.62 191.91C1214.71 191.4 1212.87 190.662 1210.98 190.109C1208.63 189.451 1206.26 188.87 1203.9 188.264C1201.04 187.727 1198.2 187.016 1195.53 186.468C1192.36 185.623 1188.86 185.615 1185.87 184.337C1185.92 184.315 1185.98 184.293 1186.03 184.268ZM1225.67 215.909C1224.06 215.036 1222.43 214.204 1220.82 213.337C1226.75 214.876 1232.07 218.01 1237.07 221.482C1239.52 223.118 1241.99 224.831 1243.96 227.034C1237.47 224.214 1232.17 218.902 1225.67 215.909ZM1245.73 222.545C1244.07 221.229 1242.21 220.161 1240.51 218.872C1242.83 219.552 1244.76 220.846 1246.77 222.149C1249 223.608 1251.3 224.82 1253.29 226.648C1255.17 228.133 1257.15 229.504 1258.91 231.109C1262.17 234.37 1266.54 237.066 1268.77 241.117C1264.72 239.401 1261.56 235.851 1258.05 233.197C1254.29 229.303 1249.88 225.773 1245.73 222.545ZM1252.05 234.463C1252.15 234.574 1252.25 234.684 1252.35 234.797C1252.23 234.709 1252.12 234.604 1252.05 234.463ZM1165.24 478.063C1167.86 477.371 1170.33 476.504 1172.92 477.443C1171.28 479.784 1167.75 479.12 1165.25 479.128C1164.86 479.117 1164.4 479.175 1164.37 478.605C1164.35 477.985 1164.93 478.189 1165.24 478.063ZM1115.03 478.514C1116.91 479.269 1119.02 479.908 1120.81 480.808C1118.12 481.072 1115.92 479.943 1113.58 478.679C1114.17 478.162 1114.61 478.363 1115.03 478.514ZM1100.48 473.717C1100.84 473.94 1102.13 473.979 1101.94 474.469C1101.42 474.328 1100.8 474.097 1100.41 473.984C1100.43 473.893 1100.46 473.805 1100.48 473.717ZM1085.52 454.309C1084.26 453.755 1083.05 452.932 1081.9 452.15C1083.09 452.896 1084.3 453.618 1085.52 454.309ZM1090.73 471.261C1084.82 469.584 1079.8 466.772 1074.79 463.528C1074.83 463.448 1074.87 463.369 1074.9 463.289C1076.62 463.649 1078.12 464.814 1079.71 465.547C1085.55 469.102 1092.3 470.272 1098.43 473.15C1095.79 472.877 1093.34 471.737 1090.73 471.261ZM1106.9 477.961C1106.63 479.175 1095.41 475.518 1094.48 474.659C1098.6 475.116 1102.51 476.961 1106.62 477.713C1108.75 478.071 1111.05 477.793 1112.62 479.42C1111.13 479.858 1109.19 478.853 1107.63 478.627C1107.35 478.555 1107.14 478.189 1106.9 477.961ZM1157.19 493.431C1150.97 493.106 1144.73 493.092 1138.59 491.776C1132.65 490.771 1126.86 489.232 1121.07 487.626C1120.14 487.345 1119.19 487.089 1118.24 486.833C1117.79 486.687 1117.35 486.541 1116.91 486.398C1115.13 485.759 1113.32 485.197 1111.53 484.586C1110.73 484.212 1109.96 483.785 1109.21 483.284C1109.26 483.284 1109.3 483.289 1109.34 483.289C1110.79 483.702 1112.23 484.148 1113.71 484.454C1116.96 485.178 1120.28 485.5 1123.56 486.057C1124.95 486.307 1126.34 486.594 1127.73 486.852C1127.79 486.869 1127.85 486.883 1127.92 486.897C1128.96 487.155 1130.02 487.31 1131.07 487.494C1131.58 487.613 1132.1 487.712 1132.62 487.794C1133.44 488.103 1134.27 488.342 1135.11 488.524C1135.41 488.579 1135.71 488.62 1136.01 488.656C1136.16 488.711 1136.32 488.764 1136.48 488.808C1137.29 489.05 1138.13 489.188 1138.98 489.254C1140.45 489.667 1141.94 490.052 1143.41 490.452C1145.41 490.9 1147.42 491.3 1149.43 491.716C1152.21 492.36 1155 493.013 1157.82 493.461C1157.62 493.448 1157.41 493.439 1157.19 493.431ZM1160.62 493.811C1162.16 493.957 1163.7 494.062 1165.25 494.133C1165.43 494.158 1165.62 494.183 1165.8 494.205C1164.04 494.401 1162.38 494.095 1160.62 493.811ZM1164.82 492.699C1164.97 492.71 1165.11 492.723 1165.25 492.734C1165.54 492.803 1165.83 492.875 1166.12 492.944C1165.69 492.864 1165.26 492.784 1164.82 492.699ZM1213.33 483.705C1208.76 485.77 1205.81 486.993 1201.39 489.003C1199.64 489.799 1197.61 489.84 1195.76 490.375C1191.14 491.999 1186.04 492.55 1181.19 493.156C1177.04 493.046 1172.58 492.679 1168.51 492.255C1167.48 492.101 1166.45 491.947 1165.42 491.79C1162.17 491.052 1158.88 490.57 1155.59 490.077C1154.36 489.661 1153.12 489.276 1151.87 488.901C1154.31 489.022 1156.78 488.769 1159.17 489.441C1159.17 489.391 1159.18 489.345 1159.2 489.298C1161.72 489.714 1164.29 490.058 1166.85 489.876C1169.05 490.218 1171.29 490.328 1173.49 489.895C1178.48 490.454 1183.51 489.703 1188.52 489.694C1194.11 488.951 1199.48 487.084 1204.96 485.79C1206.44 485.365 1208 485.63 1209.43 485.005C1210.78 484.388 1212.15 483.887 1213.59 483.509C1213.51 483.576 1213.41 483.636 1213.33 483.705ZM1268.34 433.025C1266.6 436.999 1264.84 441.038 1261.88 444.277C1260.62 446.35 1258.4 447.89 1256.68 449.63C1256.31 449.963 1255.93 450.291 1255.56 450.613C1254.58 452.051 1252.89 452.656 1251.77 453.962C1250.69 456.498 1249.31 456.889 1247.13 458.211C1243.12 462.683 1237.94 465.753 1232.8 468.711C1232.13 469.184 1231.59 469.297 1230.98 469.958C1230.86 470.077 1230.91 470.049 1230.52 470.261C1227.37 472.31 1223.94 473.811 1220.58 475.504C1216.59 477.052 1212.56 479.037 1208.49 480.238C1198.95 482.391 1189.37 485.032 1179.52 484.468C1179.43 484.429 1179.34 484.388 1179.24 484.349C1182.65 483.386 1186.09 482.548 1189.54 481.761C1190.86 481.48 1192.2 481.315 1193.37 480.555C1193.58 480.42 1193.87 480.279 1194.09 480.318C1195.12 480.489 1195.95 480.004 1196.85 479.673C1199.76 478.718 1202.73 477.743 1205.4 476.237C1209.01 475.267 1212.61 474.224 1216.11 472.899C1219.99 470.779 1224.09 469.072 1227.77 466.599C1229.39 465.651 1230.85 464.459 1232.27 463.253C1234.14 461.568 1236.39 460.32 1238.05 458.409C1242.97 454.846 1247.15 450.357 1251.4 446.031C1256.23 439.937 1260.28 433.254 1265.18 427.226C1261.72 434.374 1257.31 440.945 1252.98 447.581C1249.61 451.913 1245.61 455.675 1242.02 459.813C1253.47 451.197 1261.93 439.623 1270.38 428.377C1269.68 429.913 1269.01 431.469 1268.34 433.025ZM1270.4 408.126C1270.35 408.327 1270.29 408.525 1270.24 408.723C1269.48 410.307 1268.79 411.923 1267.86 413.416C1266.96 414.916 1265.77 416.2 1264.57 417.756C1265.17 415.833 1266.25 414.008 1267.43 412.38C1268.42 410.819 1270.01 409.056 1269.55 407.068C1269.44 406.553 1269.39 406.033 1269.38 405.512C1269.4 405.482 1269.41 405.452 1269.42 405.421C1269.79 404.557 1270.09 403.67 1270.35 402.772C1271.16 400.955 1271.91 399.118 1272.52 397.221C1272.64 396.868 1272.75 396.513 1272.86 396.158C1274.1 394.239 1274.39 391.89 1275.39 389.835C1275.7 390.108 1275.49 390.469 1275.4 390.796C1274.19 396.709 1272.5 402.472 1270.4 408.126ZM1280.33 396.863C1279.65 399.559 1278.97 402.26 1278.19 404.931C1277.18 406.542 1276.2 408.172 1275.31 409.861C1275.66 408.354 1276.16 406.864 1276.78 405.493C1277.13 404.711 1277.42 403.901 1277.68 403.073C1277.69 403.042 1277.71 403.012 1277.72 402.982C1278.45 401.426 1278.98 399.793 1279.53 398.171C1280.13 396.359 1280.69 394.533 1281.22 392.702C1280.94 394.095 1280.66 395.483 1280.33 396.863ZM1289.94 379.564C1288.84 376.518 1290.72 373.161 1291.18 370.055C1291.85 371.479 1291.05 377.028 1289.94 379.564Z" fill="#D17A22" fill-opacity="0.7"/>
</g>
<path d="M1044.51 440.242C1044.75 440.297 1044.99 440.352 1045.17 440.377C1044.94 440.264 1044.74 440.182 1044.55 440.1C1044.54 440.149 1044.53 440.193 1044.51 440.242Z" fill="#D17A22" fill-opacity="0.7"/>
<path d="M1278.46 232.39C1278.34 232.263 1278.22 232.134 1278.1 232.002C1278.04 231.963 1277.97 231.925 1277.9 231.886C1278.1 232.117 1278.24 232.305 1278.38 232.484C1278.4 232.453 1278.43 232.42 1278.46 232.39Z" fill="#D17A22" fill-opacity="0.7"/>
</g>
<defs>
<clipPath id="clip0_11_7">
<rect width="502" height="355" fill="white" transform="translate(878 145)"/>
</clipPath>
</defs>
</svg>
