<svg xmlns="http://www.w3.org/2000/svg" xmlns:xlink="http://www.w3.org/1999/xlink" width="500" zoomAndPan="magnify" viewBox="0 0 375 374.999991" height="500" preserveAspectRatio="xMidYMid meet" version="1.0"><defs><g/><clipPath id="f77a21b187"><path d="M 112.5 132.050781 L 262 132.050781 L 262 192 L 112.5 192 Z M 112.5 132.050781 " clip-rule="nonzero"/></clipPath></defs><rect x="-37.5" width="450" fill="#ffffff" y="-37.499999" height="449.999989" fill-opacity="1"/><rect x="-37.5" width="450" fill="#ffffff" y="-37.499999" height="449.999989" fill-opacity="1"/><rect x="-37.5" width="450" fill="#272932" y="-37.499999" height="449.999989" fill-opacity="1"/><g clip-path="url(#f77a21b187)"><path fill="#d17a22" d="M 165.9375 138.804688 C 167.828125 139.035156 169.761719 139.21875 171.738281 139.3125 C 176.101562 136.417969 182.113281 135.375 188.785156 135.660156 C 189.675781 134.285156 191.113281 132.761719 194.433594 132.589844 C 205.003906 132.039062 217.863281 135.796875 227.933594 141.410156 C 227.949219 138.371094 228.164062 136.039062 230.34375 137 C 231.691406 137.597656 236.472656 139.511719 235.191406 142.898438 C 236.824219 143.152344 245.328125 147.007812 249.828125 152.894531 C 252.414062 153.316406 259.945312 156.332031 261.3125 158.566406 C 262.273438 160.136719 259.363281 162.472656 259.671875 165.289062 C 260.230469 170.390625 258.335938 172.621094 255.667969 173.125 C 255.308594 174.878906 254.265625 176.203125 253.269531 177.558594 C 253.714844 175.914062 254.015625 174.335938 253.472656 173.191406 C 251.101562 172.941406 248.503906 171.765625 246.546875 170.261719 C 244.367188 168.582031 242.773438 168.71875 241.839844 169.644531 C 239.71875 171.742188 240.636719 177.070312 247.164062 180.96875 C 248.34375 180.664062 249.074219 179.339844 249.730469 177.859375 C 249.664062 179.246094 249.644531 180.636719 248.992188 181.949219 C 249.511719 182.199219 250.0625 182.441406 250.640625 182.675781 C 249.0625 184.476562 246.351562 186.730469 243.136719 187.894531 C 241.46875 188.5 240.34375 185.773438 239.257812 182.804688 C 230.847656 180.777344 225.214844 183.277344 220.105469 186.003906 C 221.613281 186.542969 223.1875 187.238281 224.832031 188.117188 C 223.015625 187.300781 221.289062 186.691406 219.636719 186.257812 C 213.652344 189.484375 208.304688 192.847656 199.90625 189.300781 C 207.757812 191.761719 212.890625 188.863281 218.246094 185.925781 C 200.660156 182.214844 191.769531 198.050781 175.828125 188.363281 C 192.578125 196.457031 201.164062 180.148438 218.859375 185.589844 C 224.292969 182.625 230.070312 179.832031 239.222656 182.703125 C 238.1875 179.859375 237.1875 176.824219 235.789062 176.289062 C 233.101562 176.539062 225.589844 179.199219 222.90625 183.300781 C 221.640625 181.722656 220.671875 180.144531 219.964844 178.589844 C 218.597656 179.632812 217.214844 180.871094 215.828125 182.34375 C 216.785156 180.367188 218.027344 178.707031 219.441406 177.316406 C 218.921875 175.910156 218.609375 174.53125 218.472656 173.1875 C 217.480469 173.84375 216.445312 174.582031 215.359375 175.410156 C 216.289062 174.066406 217.3125 172.894531 218.398438 171.871094 C 218.367188 169.992188 218.675781 168.203125 219.242188 166.554688 C 218.136719 167.207031 216.996094 167.96875 215.824219 168.847656 C 217.042969 167.414062 218.378906 166.207031 219.785156 165.183594 C 221.851562 160.589844 225.90625 157.296875 229.792969 156.492188 C 225.6875 158.203125 222.929688 160.910156 221.394531 164.105469 C 228.191406 159.945312 236.132812 159.613281 240.4375 159.605469 C 239.4375 160.703125 238.71875 161.855469 238.554688 163.050781 C 235.976562 163.070312 229.507812 161.140625 220.734375 165.722656 C 220.210938 167.265625 219.945312 168.894531 219.917969 170.558594 C 226.25 165.570312 233.992188 164.960938 237.65625 164.980469 C 237.234375 165.949219 236.894531 166.9375 236.8125 167.941406 C 233.109375 167.929688 228.160156 167.25 219.972656 172.234375 C 220.078125 173.539062 220.328125 174.855469 220.714844 176.164062 C 225.929688 171.847656 232.78125 170.539062 236.386719 169.921875 C 236 170.851562 235.886719 171.785156 236.066406 172.726562 C 232.898438 173.074219 227.332031 173.5 221.226562 177.675781 C 221.703125 178.925781 222.304688 180.152344 223.027344 181.34375 C 226.789062 176.75 232.101562 175.859375 236.207031 174.625 C 239.886719 177.007812 240.144531 186.222656 243.1875 185.949219 C 245.496094 185.738281 246.960938 183.917969 247.921875 183.066406 C 243.492188 181.277344 235.820312 173.59375 241.316406 168.304688 C 244.769531 164.976562 252.441406 163.316406 256.089844 163.609375 C 249.621094 164.5625 244.695312 167.210938 247.472656 169.136719 C 254.90625 174.285156 259.523438 172.621094 258.476562 163.667969 C 258.152344 153.835938 241.074219 151.558594 234.445312 154.085938 C 237.4375 152.308594 240.640625 151.714844 244.285156 151.992188 C 244.058594 151.4375 243.609375 150.871094 243.296875 150.695312 C 242.140625 150.453125 239.296875 150.832031 237.949219 151.171875 C 239.664062 150.128906 242.289062 149.761719 243.523438 149.644531 C 244.128906 149.855469 245.304688 150.882812 246.292969 152.222656 C 246.796875 152.300781 247.308594 152.390625 247.828125 152.492188 C 244.671875 148.785156 238.917969 144.796875 233.96875 143.351562 C 235.433594 140.289062 231.726562 138.578125 230.527344 138.289062 C 228.976562 137.914062 228.980469 146.058594 230 147 C 229.152344 146.425781 228.050781 144.449219 227.90625 142.640625 C 218.734375 137.914062 206.820312 133.429688 194.511719 133.789062 C 192.558594 133.847656 191.207031 134.664062 190.164062 135.738281 C 202.914062 136.617188 217.769531 142.101562 228.09375 148.671875 C 221.878906 145.449219 204.449219 138.058594 189.300781 136.765625 C 189.039062 137.117188 188.796875 137.480469 188.566406 137.839844 C 182.804688 139.550781 177.113281 140.15625 171.484375 139.65625 C 170.875 140.023438 170.296875 140.421875 169.753906 140.859375 C 170.230469 140.421875 170.734375 140.015625 171.265625 139.636719 C 169.484375 139.46875 167.707031 139.191406 165.9375 138.804688 Z M 144.03125 177.96875 C 156.28125 184.292969 161.25 172.996094 171.089844 179.621094 C 160.859375 174.863281 156.144531 186.867188 144.03125 177.96875 Z M 125.710938 173.515625 C 143.175781 164.5 150.265625 180.609375 164.296875 171.15625 C 149.707031 177.941406 142.980469 160.828125 125.710938 173.515625 Z M 112.71875 160.390625 C 122.976562 155.089844 127.144531 164.554688 135.386719 159.003906 C 126.816406 162.988281 122.863281 152.933594 112.71875 160.390625 Z M 120.339844 155.507812 C 137.804688 146.488281 144.894531 162.601562 158.925781 153.148438 C 144.335938 159.933594 137.609375 142.816406 120.339844 155.507812 Z M 156.296875 187.394531 C 173.761719 178.375 180.851562 194.488281 194.882812 185.035156 C 180.292969 191.820312 173.566406 174.703125 156.296875 187.394531 Z M 126.03125 170.011719 C 154.738281 155.191406 166.394531 181.671875 189.457031 166.136719 C 165.472656 177.289062 154.421875 149.15625 126.03125 170.011719 Z M 202.886719 147.769531 C 202.171875 147.449219 201.472656 147.160156 200.78125 146.886719 C 193.878906 147.726562 187.941406 150.457031 182.050781 152.441406 C 193.785156 149.230469 205.28125 144.125 221.316406 157.53125 C 194.4375 141.78125 179.953125 166.917969 158.890625 151.558594 C 152.957031 152.824219 146.785156 152.539062 139.464844 148.089844 C 161.511719 156.882812 172.628906 133.207031 196.335938 144.066406 C 203.183594 142.835938 210.847656 143.742188 220.527344 150.210938 C 213.199219 146.914062 206.984375 146.234375 201.40625 146.816406 C 201.894531 147.121094 202.386719 147.4375 202.886719 147.769531 Z M 193.359375 144.738281 C 179.535156 142.230469 169.871094 149 159.601562 151.402344 C 172.847656 155.390625 182.199219 147.75 193.359375 144.738281 Z M 214.820312 182.59375 C 195.5625 168.941406 183.054688 187.3125 168.105469 173.675781 C 184.375 184.175781 196.671875 164.53125 214.820312 182.59375 Z M 214.691406 182.707031 C 199.851562 176.023438 193.824219 190.113281 181.898438 182.871094 C 194.300781 187.816406 200.015625 172.894531 214.691406 182.707031 Z M 209.945312 172.867188 C 191.371094 164.507812 183.828125 182.140625 168.910156 173.074219 C 184.425781 180.574219 191.574219 163.058594 209.945312 172.867188 Z M 214.535156 163.976562 C 192.351562 153.992188 183.34375 175.046875 165.527344 164.222656 C 184.058594 173.179688 192.597656 152.261719 214.535156 163.976562 Z M 216.273438 162.382812 C 190.925781 149.472656 179.222656 173.5625 159.015625 159.917969 C 180.160156 171.417969 191.308594 147.464844 216.273438 162.382812 Z M 172.054688 139.324219 C 177.125 139.535156 182.453125 139.101562 187.90625 137.128906 C 187.992188 136.992188 188.082031 136.839844 188.175781 136.683594 C 182.066406 136.28125 176.390625 136.933594 172.054688 139.324219 Z M 221.339844 158.625 C 192.632812 145.703125 180.976562 172.953125 157.917969 158.945312 C 181.898438 170.535156 192.949219 143.464844 221.339844 158.625 Z M 221.339844 158.625 " fill-opacity="1" fill-rule="evenodd"/></g><g fill="#d17a22" fill-opacity="1"><g transform="translate(80.882812, 227.999985)"><g><path d="M 20.257812 -14.636719 L 26.085938 0 L 27.679688 0 L 37.253906 -23.746094 C 38.328125 -26.417969 39.8125 -26.605469 39.8125 -26.605469 L 35.898438 -26.605469 C 35.898438 -26.605469 37.214844 -26.382812 36.175781 -23.765625 C 36.175781 -23.765625 27.644531 -2.355469 27.570312 -2.152344 C 27.511719 -2.28125 23.949219 -11.1875 21.429688 -17.53125 L 23.933594 -23.746094 C 25.007812 -26.417969 26.492188 -26.605469 26.492188 -26.605469 L 22.578125 -26.605469 C 22.578125 -26.605469 23.914062 -26.382812 22.855469 -23.765625 C 22.855469 -23.765625 22.039062 -21.6875 20.890625 -18.832031 L 18.921875 -23.765625 C 17.882812 -26.382812 19.21875 -26.605469 19.21875 -26.605469 L 14.082031 -26.605469 C 14.082031 -26.605469 15.566406 -26.417969 16.640625 -23.746094 L 19.738281 -15.9375 C 17.289062 -9.796875 14.285156 -2.28125 14.25 -2.152344 C 14.175781 -2.335938 5.621094 -23.765625 5.621094 -23.765625 C 4.5625 -26.382812 5.898438 -26.605469 5.898438 -26.605469 L 0.761719 -26.605469 C 0.761719 -26.605469 2.246094 -26.417969 3.320312 -23.746094 L 12.765625 0 L 14.378906 0 Z M 20.257812 -14.636719 "/></g></g></g><g fill="#d17a22" fill-opacity="1"><g transform="translate(121.453568, 227.999985)"><g><path d="M 12.894531 -13.171875 L 12.894531 -18.757812 C 12.894531 -18.757812 12.207031 -16.25 6.417969 -16.25 L 4.472656 -16.25 L 4.472656 -23.746094 C 4.472656 -24.488281 4.453125 -25.433594 5.675781 -25.433594 C 5.675781 -25.433594 7.03125 -25.433594 11.835938 -25.433594 C 18.625 -25.433594 19.441406 -22.929688 19.441406 -22.929688 L 19.441406 -26.585938 L 0.761719 -26.605469 C 0.761719 -26.605469 2.171875 -26.363281 2.171875 -23.765625 L 2.171875 -2.839844 C 2.171875 -0.222656 0.761719 0 0.761719 0 L 19.441406 0 L 19.441406 -3.65625 C 19.441406 -3.65625 18.625 -1.148438 11.835938 -1.148438 C 7.03125 -1.148438 5.675781 -1.148438 5.675781 -1.148438 C 4.546875 -1.148438 4.472656 -2.097656 4.472656 -2.839844 L 4.472656 -15.65625 L 6.417969 -15.675781 C 12.207031 -15.675781 12.894531 -13.171875 12.894531 -13.171875 Z M 12.894531 -13.171875 "/></g></g></g><g fill="#d17a22" fill-opacity="1"><g transform="translate(141.674018, 227.999985)"><g><path d="M 16.160156 -16.640625 C 17.660156 -17.273438 18.644531 -18.757812 18.644531 -20.59375 C 18.644531 -24.933594 14.433594 -26.605469 10.09375 -26.605469 C 10.019531 -26.605469 0.761719 -26.605469 0.761719 -26.605469 C 0.761719 -26.605469 2.171875 -26.363281 2.171875 -23.765625 L 2.171875 -2.839844 C 2.171875 -0.222656 0.761719 0 0.761719 0 L 8.441406 -0.0195312 C 21.074219 -0.0195312 23.914062 -3.859375 23.914062 -8.460938 C 23.914062 -12.929688 20.722656 -15.789062 16.160156 -16.640625 Z M 4.472656 -23.746094 C 4.472656 -25.898438 5.695312 -25.992188 5.882812 -25.992188 C 5.882812 -25.992188 10.035156 -26.011719 10.09375 -26.011719 C 13.507812 -26.011719 16.269531 -23.652344 16.269531 -20.667969 C 16.269531 -19.183594 15.582031 -17.847656 14.472656 -16.863281 C 14.027344 -16.902344 13.582031 -16.917969 13.117188 -16.917969 C 10.257812 -16.917969 6.753906 -15.695312 4.472656 -13.96875 Z M 8.3125 -1.039062 C 4.582031 -1 4.453125 -1.316406 4.472656 -2.839844 L 4.472656 -11.707031 C 6.105469 -13.96875 9.980469 -16.085938 13.117188 -16.085938 C 17.867188 -16.085938 21.371094 -12.707031 21.371094 -8.570312 C 21.371094 -4.488281 17.996094 -1.148438 8.3125 -1.039062 Z M 8.3125 -1.039062 "/></g></g></g><g fill="#d17a22" fill-opacity="1"><g transform="translate(175.900376, 227.999985)"><g><path d="M 22.96875 -6.4375 C 22.449219 -5.472656 19.535156 -1.296875 13.710938 -1.296875 C 7.902344 -1.296875 3.171875 -6.714844 3.171875 -13.375 C 3.171875 -20.054688 7.902344 -25.472656 13.710938 -25.472656 C 18.367188 -25.472656 21.242188 -23.023438 20.742188 -20.242188 L 23.671875 -22.820312 C 22.261719 -23.429688 19.515625 -26.605469 13.878906 -26.605469 C 6.640625 -26.605469 0.761719 -20.667969 0.761719 -13.339844 C 0.761719 -6.03125 6.640625 -0.0742188 13.878906 -0.0742188 C 19.351562 -0.0742188 22.78125 -4.210938 22.96875 -6.4375 Z M 22.96875 -6.4375 "/></g></g></g><g fill="#d17a22" fill-opacity="1"><g transform="translate(200.331874, 227.999985)"><g><path d="M 19.292969 -2.839844 L 14.453125 -10.074219 C 21.78125 -11.167969 23.894531 -14.414062 23.894531 -18.125 C 23.894531 -23.5625 19.109375 -26.585938 13.078125 -26.585938 L 0.761719 -26.605469 C 0.761719 -26.605469 2.1875 -26.363281 2.1875 -23.765625 L 2.1875 -2.839844 C 2.1875 -0.222656 0.761719 0 0.761719 0 L 5.898438 0 C 5.898438 0 4.488281 -0.183594 4.472656 -2.839844 L 4.472656 -9.683594 L 8.402344 -9.683594 C 9.832031 -9.683594 11.132812 -9.722656 12.320312 -9.832031 L 16.992188 -2.839844 C 18.757812 -0.183594 17.476562 0 17.476562 0 L 22.613281 0 C 22.613281 0 21.058594 -0.222656 19.292969 -2.839844 Z M 8.402344 -10.703125 L 4.472656 -10.703125 L 4.472656 -23.746094 C 4.472656 -24.488281 4.601562 -25.433594 5.769531 -25.433594 L 13.078125 -25.433594 C 17.828125 -25.433594 21.335938 -22.390625 21.335938 -18.238281 C 21.335938 -14.15625 18.089844 -10.816406 8.402344 -10.703125 Z M 8.402344 -10.703125 "/></g></g></g><g fill="#d17a22" fill-opacity="1"><g transform="translate(224.985983, 227.999985)"><g><path d="M 21.355469 0 L 26.492188 0 C 26.492188 0 25.007812 -0.183594 23.933594 -2.839844 L 14.488281 -26.605469 L 12.78125 -26.605469 L 3.320312 -2.839844 C 2.246094 -0.183594 0.761719 0 0.761719 0 L 4.675781 0 C 4.675781 0 3.339844 -0.222656 4.398438 -2.839844 L 7.292969 -10.09375 L 18.738281 -10.09375 L 21.632812 -2.839844 C 22.6875 -0.222656 21.355469 0 21.355469 0 Z M 7.570312 -10.777344 C 7.570312 -10.777344 12.929688 -24.230469 12.988281 -24.433594 C 13.078125 -24.230469 18.460938 -10.777344 18.460938 -10.777344 Z M 7.570312 -10.777344 "/></g></g></g><g fill="#d17a22" fill-opacity="1"><g transform="translate(252.218663, 227.999985)"><g><path d="M 12.894531 -13.171875 L 12.894531 -18.757812 C 12.894531 -18.757812 12.207031 -16.25 6.417969 -16.25 L 4.472656 -16.25 L 4.472656 -23.746094 C 4.472656 -24.488281 4.453125 -25.433594 5.546875 -25.433594 C 5.546875 -25.433594 7.03125 -25.433594 11.835938 -25.433594 C 18.625 -25.433594 19.441406 -22.929688 19.441406 -22.929688 L 19.441406 -26.585938 L 0.761719 -26.605469 C 0.761719 -26.605469 2.171875 -26.363281 2.171875 -23.765625 L 2.171875 -2.839844 C 2.171875 -0.222656 0.761719 0 0.761719 0 L 5.898438 0 C 5.898438 0 4.488281 -0.183594 4.472656 -2.839844 L 4.472656 -15.65625 L 6.417969 -15.675781 C 12.207031 -15.675781 12.894531 -13.171875 12.894531 -13.171875 Z M 12.894531 -13.171875 "/></g></g></g><g fill="#d17a22" fill-opacity="1"><g transform="translate(272.439113, 227.999985)"><g><path d="M 0.761719 -26.585938 L 0.761719 -22.261719 C 0.761719 -22.261719 1.726562 -25.433594 7.21875 -25.433594 L 9.40625 -25.433594 C 9.554688 -25.027344 9.664062 -24.488281 9.664062 -23.765625 L 9.664062 -2.839844 C 9.664062 -0.222656 8.253906 0 8.253906 0 L 13.394531 0 C 13.394531 0 11.964844 -0.183594 11.964844 -2.839844 L 11.964844 -23.746094 C 11.964844 -24.488281 12.078125 -25.027344 12.226562 -25.433594 L 14.453125 -25.433594 C 19.960938 -25.433594 20.910156 -22.261719 20.910156 -22.261719 L 20.910156 -26.585938 Z M 0.761719 -26.585938 "/></g></g></g><path stroke-linecap="round" transform="matrix(0.746263, 0, 0, 0.75, 89.931963, 192.299987)" fill="none" stroke-linejoin="miter" d="M 0.499454 0.501059 L 77.895546 0.501059 " stroke="#ed5b01" stroke-width="1" stroke-opacity="1" stroke-miterlimit="4"/><path stroke-linecap="round" transform="matrix(0.746269, 0, 0, 0.75, 253.535261, 193.049987)" fill="none" stroke-linejoin="miter" d="M 0.50236 0.501059 L 49.763067 0.501059 " stroke="#ed5b01" stroke-width="1" stroke-opacity="1" stroke-miterlimit="4"/><g fill="#d17a22" fill-opacity="1"><g transform="translate(134.451492, 242.156365)"><g><path d="M 0.640625 -6.046875 C 0.492188 -6.160156 0.296875 -6.25 0.046875 -6.3125 L 0.078125 -6.671875 L 2.515625 -6.671875 L 2.453125 -6.3125 C 2.109375 -6.257812 1.820312 -6.171875 1.59375 -6.046875 L 2.90625 -1.59375 L 4.40625 -6.671875 L 4.71875 -6.671875 L 6.3125 -1.609375 L 7.515625 -6.046875 C 7.242188 -6.179688 6.9375 -6.269531 6.59375 -6.3125 L 6.65625 -6.671875 L 8.84375 -6.671875 L 8.796875 -6.3125 C 8.566406 -6.269531 8.363281 -6.1875 8.1875 -6.0625 L 6.453125 0 L 5.984375 0 L 4.4375 -4.625 L 3.046875 0 L 2.5625 0 Z M 0.640625 -6.046875 "/></g></g></g><g fill="#d17a22" fill-opacity="1"><g transform="translate(143.337989, 242.156365)"><g><path d="M 2.375 0.0625 C 1.625 0.0625 1.085938 -0.140625 0.765625 -0.546875 C 0.441406 -0.953125 0.28125 -1.5625 0.28125 -2.375 C 0.28125 -3.113281 0.457031 -3.695312 0.8125 -4.125 C 1.164062 -4.550781 1.6875 -4.765625 2.375 -4.765625 C 3.03125 -4.765625 3.488281 -4.585938 3.75 -4.234375 C 4.019531 -3.890625 4.164062 -3.378906 4.1875 -2.703125 L 3.984375 -2.4375 L 1.203125 -2.4375 L 1.203125 -2.375 C 1.203125 -1.945312 1.226562 -1.59375 1.28125 -1.3125 C 1.332031 -1.039062 1.445312 -0.820312 1.625 -0.65625 C 1.8125 -0.5 2.082031 -0.421875 2.4375 -0.421875 C 2.695312 -0.421875 2.9375 -0.46875 3.15625 -0.5625 C 3.375 -0.664062 3.554688 -0.773438 3.703125 -0.890625 L 3.953125 -0.59375 C 3.785156 -0.4375 3.566406 -0.285156 3.296875 -0.140625 C 3.035156 -0.00390625 2.726562 0.0625 2.375 0.0625 Z M 3.296875 -2.875 C 3.296875 -3.394531 3.222656 -3.769531 3.078125 -4 C 2.941406 -4.238281 2.691406 -4.359375 2.328125 -4.359375 C 1.953125 -4.359375 1.671875 -4.21875 1.484375 -3.9375 C 1.304688 -3.664062 1.210938 -3.285156 1.203125 -2.796875 Z M 3.296875 -2.875 "/></g></g></g><g fill="#d17a22" fill-opacity="1"><g transform="translate(147.746252, 242.156365)"><g><path d="M 2.765625 0.0625 C 2.335938 0.0625 1.945312 -0.0976562 1.59375 -0.421875 C 1.5 -0.265625 1.4375 -0.125 1.40625 0 L 0.921875 0 L 0.921875 -5.671875 C 0.921875 -5.921875 0.867188 -6.085938 0.765625 -6.171875 C 0.671875 -6.265625 0.488281 -6.316406 0.21875 -6.328125 L 0.25 -6.625 C 0.507812 -6.664062 0.78125 -6.726562 1.0625 -6.8125 C 1.34375 -6.894531 1.515625 -6.945312 1.578125 -6.96875 L 1.78125 -6.875 L 1.78125 -4.0625 C 1.882812 -4.25 2.046875 -4.410156 2.265625 -4.546875 C 2.484375 -4.691406 2.710938 -4.765625 2.953125 -4.765625 C 3.640625 -4.765625 4.140625 -4.550781 4.453125 -4.125 C 4.765625 -3.695312 4.921875 -3.113281 4.921875 -2.375 C 4.921875 -1.644531 4.734375 -1.054688 4.359375 -0.609375 C 3.984375 -0.160156 3.453125 0.0625 2.765625 0.0625 Z M 2.8125 -0.34375 C 3.289062 -0.34375 3.609375 -0.53125 3.765625 -0.90625 C 3.929688 -1.289062 4.015625 -1.78125 4.015625 -2.375 C 4.015625 -2.78125 3.988281 -3.117188 3.9375 -3.390625 C 3.894531 -3.671875 3.796875 -3.894531 3.640625 -4.0625 C 3.492188 -4.238281 3.273438 -4.328125 2.984375 -4.328125 C 2.492188 -4.328125 2.171875 -4.117188 2.015625 -3.703125 C 1.859375 -3.296875 1.78125 -2.742188 1.78125 -2.046875 L 1.78125 -0.84375 C 1.957031 -0.695312 2.125 -0.578125 2.28125 -0.484375 C 2.4375 -0.390625 2.613281 -0.34375 2.8125 -0.34375 Z M 2.8125 -0.34375 "/></g></g></g><g fill="#d17a22" fill-opacity="1"><g transform="translate(152.944204, 242.156365)"><g/></g></g><g fill="#d17a22" fill-opacity="1"><g transform="translate(155.143335, 242.156365)"><g><path d="M 0.359375 -0.375 C 0.554688 -0.394531 0.722656 -0.421875 0.859375 -0.453125 C 1.003906 -0.492188 1.140625 -0.550781 1.265625 -0.625 L 1.265625 -6.046875 C 1.035156 -6.171875 0.710938 -6.257812 0.296875 -6.3125 L 0.34375 -6.671875 L 2.5 -6.671875 C 3.664062 -6.671875 4.535156 -6.398438 5.109375 -5.859375 C 5.691406 -5.328125 5.984375 -4.484375 5.984375 -3.328125 C 5.984375 -2.160156 5.691406 -1.3125 5.109375 -0.78125 C 4.523438 -0.257812 3.632812 0 2.4375 0 L 0.3125 0 Z M 2.609375 -0.484375 C 3.410156 -0.484375 4.003906 -0.695312 4.390625 -1.125 C 4.785156 -1.5625 4.984375 -2.300781 4.984375 -3.34375 C 4.984375 -4.375 4.789062 -5.101562 4.40625 -5.53125 C 4.019531 -5.957031 3.429688 -6.171875 2.640625 -6.171875 L 2.15625 -6.171875 L 2.15625 -0.53125 C 2.269531 -0.5 2.421875 -0.484375 2.609375 -0.484375 Z M 2.609375 -0.484375 "/></g></g></g><g fill="#d17a22" fill-opacity="1"><g transform="translate(161.390871, 242.156365)"><g><path d="M 2.375 0.0625 C 1.625 0.0625 1.085938 -0.140625 0.765625 -0.546875 C 0.441406 -0.953125 0.28125 -1.5625 0.28125 -2.375 C 0.28125 -3.113281 0.457031 -3.695312 0.8125 -4.125 C 1.164062 -4.550781 1.6875 -4.765625 2.375 -4.765625 C 3.03125 -4.765625 3.488281 -4.585938 3.75 -4.234375 C 4.019531 -3.890625 4.164062 -3.378906 4.1875 -2.703125 L 3.984375 -2.4375 L 1.203125 -2.4375 L 1.203125 -2.375 C 1.203125 -1.945312 1.226562 -1.59375 1.28125 -1.3125 C 1.332031 -1.039062 1.445312 -0.820312 1.625 -0.65625 C 1.8125 -0.5 2.082031 -0.421875 2.4375 -0.421875 C 2.695312 -0.421875 2.9375 -0.46875 3.15625 -0.5625 C 3.375 -0.664062 3.554688 -0.773438 3.703125 -0.890625 L 3.953125 -0.59375 C 3.785156 -0.4375 3.566406 -0.285156 3.296875 -0.140625 C 3.035156 -0.00390625 2.726562 0.0625 2.375 0.0625 Z M 3.296875 -2.875 C 3.296875 -3.394531 3.222656 -3.769531 3.078125 -4 C 2.941406 -4.238281 2.691406 -4.359375 2.328125 -4.359375 C 1.953125 -4.359375 1.671875 -4.21875 1.484375 -3.9375 C 1.304688 -3.664062 1.210938 -3.285156 1.203125 -2.796875 Z M 3.296875 -2.875 "/></g></g></g><g fill="#d17a22" fill-opacity="1"><g transform="translate(165.799134, 242.156365)"><g><path d="M 0.4375 -3.90625 C 0.382812 -4.03125 0.304688 -4.125 0.203125 -4.1875 C 0.109375 -4.257812 -0.0546875 -4.320312 -0.296875 -4.375 L -0.28125 -4.671875 L 1.953125 -4.671875 L 1.921875 -4.375 C 1.773438 -4.351562 1.65625 -4.328125 1.5625 -4.296875 C 1.46875 -4.273438 1.378906 -4.226562 1.296875 -4.15625 L 2.359375 -0.953125 L 3.421875 -4.15625 C 3.273438 -4.25 3.070312 -4.320312 2.8125 -4.375 L 2.84375 -4.671875 L 4.75 -4.671875 L 4.71875 -4.375 C 4.476562 -4.320312 4.3125 -4.269531 4.21875 -4.21875 C 4.125 -4.175781 4.0625 -4.109375 4.03125 -4.015625 L 2.53125 0 L 1.859375 0 Z M 0.4375 -3.90625 "/></g></g></g><g fill="#d17a22" fill-opacity="1"><g transform="translate(170.497277, 242.156365)"><g><path d="M 2.375 0.0625 C 1.625 0.0625 1.085938 -0.140625 0.765625 -0.546875 C 0.441406 -0.953125 0.28125 -1.5625 0.28125 -2.375 C 0.28125 -3.113281 0.457031 -3.695312 0.8125 -4.125 C 1.164062 -4.550781 1.6875 -4.765625 2.375 -4.765625 C 3.03125 -4.765625 3.488281 -4.585938 3.75 -4.234375 C 4.019531 -3.890625 4.164062 -3.378906 4.1875 -2.703125 L 3.984375 -2.4375 L 1.203125 -2.4375 L 1.203125 -2.375 C 1.203125 -1.945312 1.226562 -1.59375 1.28125 -1.3125 C 1.332031 -1.039062 1.445312 -0.820312 1.625 -0.65625 C 1.8125 -0.5 2.082031 -0.421875 2.4375 -0.421875 C 2.695312 -0.421875 2.9375 -0.46875 3.15625 -0.5625 C 3.375 -0.664062 3.554688 -0.773438 3.703125 -0.890625 L 3.953125 -0.59375 C 3.785156 -0.4375 3.566406 -0.285156 3.296875 -0.140625 C 3.035156 -0.00390625 2.726562 0.0625 2.375 0.0625 Z M 3.296875 -2.875 C 3.296875 -3.394531 3.222656 -3.769531 3.078125 -4 C 2.941406 -4.238281 2.691406 -4.359375 2.328125 -4.359375 C 1.953125 -4.359375 1.671875 -4.21875 1.484375 -3.9375 C 1.304688 -3.664062 1.210938 -3.285156 1.203125 -2.796875 Z M 3.296875 -2.875 "/></g></g></g><g fill="#d17a22" fill-opacity="1"><g transform="translate(174.905541, 242.156365)"><g><path d="M 0.296875 -0.375 C 0.453125 -0.394531 0.578125 -0.421875 0.671875 -0.453125 C 0.765625 -0.484375 0.859375 -0.539062 0.953125 -0.625 L 0.953125 -5.671875 C 0.953125 -5.921875 0.898438 -6.085938 0.796875 -6.171875 C 0.703125 -6.265625 0.523438 -6.316406 0.265625 -6.328125 L 0.296875 -6.625 C 0.554688 -6.664062 0.828125 -6.726562 1.109375 -6.8125 C 1.390625 -6.894531 1.5625 -6.945312 1.625 -6.96875 L 1.8125 -6.875 L 1.8125 -0.625 C 1.976562 -0.5 2.210938 -0.40625 2.515625 -0.34375 L 2.46875 0 L 0.265625 0 Z M 0.296875 -0.375 "/></g></g></g><g fill="#d17a22" fill-opacity="1"><g transform="translate(177.614472, 242.156365)"><g><path d="M 2.40625 0.0625 C 1.695312 0.0625 1.164062 -0.140625 0.8125 -0.546875 C 0.457031 -0.960938 0.28125 -1.5625 0.28125 -2.34375 C 0.28125 -3.132812 0.457031 -3.734375 0.8125 -4.140625 C 1.164062 -4.554688 1.695312 -4.765625 2.40625 -4.765625 C 3.101562 -4.765625 3.628906 -4.554688 3.984375 -4.140625 C 4.335938 -3.734375 4.515625 -3.132812 4.515625 -2.34375 C 4.515625 -1.5625 4.335938 -0.960938 3.984375 -0.546875 C 3.628906 -0.140625 3.101562 0.0625 2.40625 0.0625 Z M 2.40625 -0.390625 C 2.832031 -0.390625 3.144531 -0.539062 3.34375 -0.84375 C 3.539062 -1.15625 3.640625 -1.65625 3.640625 -2.34375 C 3.640625 -3.039062 3.539062 -3.539062 3.34375 -3.84375 C 3.15625 -4.144531 2.84375 -4.296875 2.40625 -4.296875 C 1.96875 -4.296875 1.65625 -4.144531 1.46875 -3.84375 C 1.28125 -3.539062 1.1875 -3.039062 1.1875 -2.34375 C 1.1875 -1.65625 1.28125 -1.15625 1.46875 -0.84375 C 1.65625 -0.539062 1.96875 -0.390625 2.40625 -0.390625 Z M 2.40625 -0.390625 "/></g></g></g><g fill="#d17a22" fill-opacity="1"><g transform="translate(182.412579, 242.156365)"><g><path d="M 0.296875 1.734375 C 0.441406 1.710938 0.5625 1.679688 0.65625 1.640625 C 0.75 1.609375 0.847656 1.554688 0.953125 1.484375 L 0.953125 -3.484375 C 0.953125 -3.722656 0.898438 -3.890625 0.796875 -3.984375 C 0.703125 -4.078125 0.523438 -4.128906 0.265625 -4.140625 L 0.296875 -4.4375 C 0.492188 -4.46875 0.789062 -4.546875 1.1875 -4.671875 L 1.515625 -4.765625 L 1.6875 -4.671875 L 1.78125 -4.0625 C 2.050781 -4.53125 2.488281 -4.765625 3.09375 -4.765625 C 3.695312 -4.765625 4.148438 -4.566406 4.453125 -4.171875 C 4.765625 -3.785156 4.921875 -3.207031 4.921875 -2.4375 C 4.921875 -1.625 4.726562 -1.003906 4.34375 -0.578125 C 3.957031 -0.148438 3.394531 0.0625 2.65625 0.0625 C 2.34375 0.0625 2.0625 0.0078125 1.8125 -0.09375 L 1.8125 1.484375 C 1.976562 1.617188 2.207031 1.710938 2.5 1.765625 L 2.46875 2.09375 L 0.265625 2.09375 Z M 2.6875 -0.34375 C 3.113281 -0.34375 3.445312 -0.523438 3.6875 -0.890625 C 3.925781 -1.265625 4.046875 -1.78125 4.046875 -2.4375 C 4.046875 -3.082031 3.960938 -3.554688 3.796875 -3.859375 C 3.628906 -4.171875 3.367188 -4.328125 3.015625 -4.328125 C 2.617188 -4.328125 2.316406 -4.164062 2.109375 -3.84375 C 1.910156 -3.53125 1.8125 -3.066406 1.8125 -2.453125 L 1.8125 -0.546875 C 2.050781 -0.410156 2.34375 -0.34375 2.6875 -0.34375 Z M 2.6875 -0.34375 "/></g></g></g><g fill="#d17a22" fill-opacity="1"><g transform="translate(187.61053, 242.156365)"><g><path d="M 0.34375 -0.359375 C 0.5 -0.390625 0.625 -0.421875 0.71875 -0.453125 C 0.8125 -0.484375 0.90625 -0.539062 1 -0.625 L 1 -3.46875 C 1 -3.71875 0.945312 -3.882812 0.84375 -3.96875 C 0.75 -4.0625 0.566406 -4.113281 0.296875 -4.125 L 0.328125 -4.421875 C 0.566406 -4.460938 0.867188 -4.539062 1.234375 -4.65625 C 1.273438 -4.675781 1.382812 -4.710938 1.5625 -4.765625 L 1.734375 -4.671875 L 1.8125 -4.15625 C 1.925781 -4.28125 2.082031 -4.410156 2.28125 -4.546875 C 2.488281 -4.691406 2.738281 -4.765625 3.03125 -4.765625 C 3.644531 -4.765625 4.082031 -4.554688 4.34375 -4.140625 C 4.550781 -4.328125 4.757812 -4.476562 4.96875 -4.59375 C 5.1875 -4.707031 5.425781 -4.765625 5.6875 -4.765625 C 6.132812 -4.765625 6.503906 -4.640625 6.796875 -4.390625 C 7.085938 -4.148438 7.234375 -3.773438 7.234375 -3.265625 L 7.234375 -0.625 C 7.296875 -0.570312 7.390625 -0.515625 7.515625 -0.453125 C 7.648438 -0.398438 7.789062 -0.363281 7.9375 -0.34375 L 7.890625 0 L 5.703125 0 L 5.71875 -0.34375 C 5.96875 -0.382812 6.1875 -0.476562 6.375 -0.625 L 6.375 -3.296875 C 6.375 -3.628906 6.304688 -3.875 6.171875 -4.03125 C 6.046875 -4.195312 5.851562 -4.28125 5.59375 -4.28125 C 5.375 -4.28125 5.171875 -4.210938 4.984375 -4.078125 C 4.796875 -3.941406 4.65625 -3.785156 4.5625 -3.609375 L 4.5625 -0.625 C 4.625 -0.570312 4.722656 -0.515625 4.859375 -0.453125 C 4.992188 -0.398438 5.128906 -0.363281 5.265625 -0.34375 L 5.234375 0 L 3.03125 0 L 3.0625 -0.34375 C 3.3125 -0.382812 3.53125 -0.476562 3.71875 -0.625 L 3.71875 -3.296875 C 3.71875 -3.628906 3.648438 -3.875 3.515625 -4.03125 C 3.390625 -4.195312 3.195312 -4.28125 2.9375 -4.28125 C 2.695312 -4.28125 2.472656 -4.195312 2.265625 -4.03125 C 2.054688 -3.875 1.921875 -3.695312 1.859375 -3.5 L 1.859375 -0.625 C 2.015625 -0.5 2.242188 -0.40625 2.546875 -0.34375 L 2.515625 0 L 0.296875 0 Z M 0.34375 -0.359375 "/></g></g></g><g fill="#d17a22" fill-opacity="1"><g transform="translate(195.737323, 242.156365)"><g><path d="M 2.375 0.0625 C 1.625 0.0625 1.085938 -0.140625 0.765625 -0.546875 C 0.441406 -0.953125 0.28125 -1.5625 0.28125 -2.375 C 0.28125 -3.113281 0.457031 -3.695312 0.8125 -4.125 C 1.164062 -4.550781 1.6875 -4.765625 2.375 -4.765625 C 3.03125 -4.765625 3.488281 -4.585938 3.75 -4.234375 C 4.019531 -3.890625 4.164062 -3.378906 4.1875 -2.703125 L 3.984375 -2.4375 L 1.203125 -2.4375 L 1.203125 -2.375 C 1.203125 -1.945312 1.226562 -1.59375 1.28125 -1.3125 C 1.332031 -1.039062 1.445312 -0.820312 1.625 -0.65625 C 1.8125 -0.5 2.082031 -0.421875 2.4375 -0.421875 C 2.695312 -0.421875 2.9375 -0.46875 3.15625 -0.5625 C 3.375 -0.664062 3.554688 -0.773438 3.703125 -0.890625 L 3.953125 -0.59375 C 3.785156 -0.4375 3.566406 -0.285156 3.296875 -0.140625 C 3.035156 -0.00390625 2.726562 0.0625 2.375 0.0625 Z M 3.296875 -2.875 C 3.296875 -3.394531 3.222656 -3.769531 3.078125 -4 C 2.941406 -4.238281 2.691406 -4.359375 2.328125 -4.359375 C 1.953125 -4.359375 1.671875 -4.21875 1.484375 -3.9375 C 1.304688 -3.664062 1.210938 -3.285156 1.203125 -2.796875 Z M 3.296875 -2.875 "/></g></g></g><g fill="#d17a22" fill-opacity="1"><g transform="translate(200.145587, 242.156365)"><g><path d="M 0.34375 -0.359375 C 0.488281 -0.390625 0.609375 -0.421875 0.703125 -0.453125 C 0.804688 -0.492188 0.90625 -0.550781 1 -0.625 L 1 -3.46875 C 1 -3.71875 0.945312 -3.882812 0.84375 -3.96875 C 0.738281 -4.0625 0.554688 -4.113281 0.296875 -4.125 L 0.328125 -4.421875 C 0.535156 -4.460938 0.832031 -4.539062 1.21875 -4.65625 L 1.546875 -4.765625 L 1.734375 -4.671875 L 1.8125 -4.046875 C 1.96875 -4.265625 2.164062 -4.4375 2.40625 -4.5625 C 2.644531 -4.695312 2.890625 -4.765625 3.140625 -4.765625 C 3.628906 -4.765625 4.007812 -4.640625 4.28125 -4.390625 C 4.550781 -4.148438 4.6875 -3.8125 4.6875 -3.375 L 4.6875 -0.625 C 4.738281 -0.570312 4.832031 -0.515625 4.96875 -0.453125 C 5.101562 -0.398438 5.238281 -0.363281 5.375 -0.34375 L 5.34375 0 L 3.140625 0 L 3.171875 -0.34375 C 3.421875 -0.382812 3.640625 -0.476562 3.828125 -0.625 L 3.828125 -3.296875 C 3.828125 -3.953125 3.539062 -4.28125 2.96875 -4.28125 C 2.738281 -4.28125 2.519531 -4.203125 2.3125 -4.046875 C 2.113281 -3.890625 1.957031 -3.6875 1.84375 -3.4375 L 1.84375 -0.625 C 2.007812 -0.5 2.242188 -0.40625 2.546875 -0.34375 L 2.515625 0 L 0.296875 0 Z M 0.34375 -0.359375 "/></g></g></g><g fill="#d17a22" fill-opacity="1"><g transform="translate(205.723391, 242.156365)"><g><path d="M 2.0625 0.09375 C 1.613281 0.09375 1.304688 0.00390625 1.140625 -0.171875 C 0.984375 -0.359375 0.90625 -0.675781 0.90625 -1.125 L 0.90625 -4.125 L 0.09375 -4.125 L 0.09375 -4.4375 C 0.738281 -4.65625 1.164062 -5.054688 1.375 -5.640625 L 1.78125 -5.640625 L 1.78125 -4.671875 L 3.0625 -4.671875 L 3.0625 -4.125 L 1.765625 -4.125 L 1.765625 -1.0625 C 1.765625 -0.8125 1.796875 -0.632812 1.859375 -0.53125 C 1.921875 -0.425781 2.066406 -0.375 2.296875 -0.375 C 2.441406 -0.375 2.566406 -0.390625 2.671875 -0.421875 C 2.785156 -0.460938 2.894531 -0.507812 3 -0.5625 L 3.203125 -0.265625 C 3.054688 -0.171875 2.898438 -0.0859375 2.734375 -0.015625 C 2.566406 0.0546875 2.34375 0.09375 2.0625 0.09375 Z M 2.0625 0.09375 "/></g></g></g><g fill="#d17a22" fill-opacity="1"><g transform="translate(208.972105, 242.156365)"><g/></g></g><g fill="#d17a22" fill-opacity="1"><g transform="translate(211.171236, 242.156365)"><g><path d="M 3.125 0.078125 C 2.269531 0.078125 1.609375 -0.0976562 1.140625 -0.453125 C 0.671875 -0.816406 0.4375 -1.316406 0.4375 -1.953125 C 0.4375 -2.910156 0.894531 -3.546875 1.8125 -3.859375 C 1.550781 -3.984375 1.34375 -4.15625 1.1875 -4.375 C 1.039062 -4.59375 0.96875 -4.863281 0.96875 -5.1875 C 0.96875 -5.6875 1.144531 -6.0625 1.5 -6.3125 C 1.851562 -6.570312 2.300781 -6.703125 2.84375 -6.703125 C 3.363281 -6.703125 3.789062 -6.59375 4.125 -6.375 C 4.457031 -6.164062 4.625 -5.878906 4.625 -5.515625 C 4.625 -5.316406 4.570312 -5.15625 4.46875 -5.03125 C 4.363281 -4.914062 4.238281 -4.859375 4.09375 -4.859375 C 4 -4.859375 3.910156 -4.878906 3.828125 -4.921875 C 3.742188 -4.972656 3.675781 -5.039062 3.625 -5.125 C 3.71875 -5.269531 3.765625 -5.40625 3.765625 -5.53125 C 3.765625 -5.800781 3.675781 -6 3.5 -6.125 C 3.332031 -6.25 3.113281 -6.3125 2.84375 -6.3125 C 2.519531 -6.3125 2.269531 -6.207031 2.09375 -6 C 1.914062 -5.800781 1.828125 -5.523438 1.828125 -5.171875 C 1.828125 -4.898438 1.914062 -4.65625 2.09375 -4.4375 C 2.28125 -4.226562 2.566406 -4.125 2.953125 -4.125 L 2.953125 -3.640625 C 2.472656 -3.578125 2.085938 -3.398438 1.796875 -3.109375 C 1.503906 -2.828125 1.359375 -2.457031 1.359375 -2 C 1.359375 -1.476562 1.515625 -1.082031 1.828125 -0.8125 C 2.148438 -0.550781 2.582031 -0.421875 3.125 -0.421875 C 3.507812 -0.421875 3.863281 -0.492188 4.1875 -0.640625 C 4.519531 -0.796875 4.78125 -1.03125 4.96875 -1.34375 C 5.164062 -1.65625 5.265625 -2.046875 5.265625 -2.515625 C 5.265625 -2.941406 5.191406 -3.382812 5.046875 -3.84375 C 4.773438 -3.820312 4.582031 -3.769531 4.46875 -3.6875 C 4.351562 -3.613281 4.296875 -3.5 4.296875 -3.34375 C 4.296875 -3.1875 4.359375 -3.050781 4.484375 -2.9375 C 4.359375 -2.8125 4.210938 -2.75 4.046875 -2.75 C 3.898438 -2.75 3.78125 -2.804688 3.6875 -2.921875 C 3.59375 -3.035156 3.546875 -3.175781 3.546875 -3.34375 C 3.546875 -3.957031 4.078125 -4.265625 5.140625 -4.265625 C 5.503906 -4.265625 5.765625 -4.300781 5.921875 -4.375 C 6.085938 -4.445312 6.171875 -4.578125 6.171875 -4.765625 C 6.171875 -4.929688 6.109375 -5.070312 5.984375 -5.1875 C 6.109375 -5.3125 6.25 -5.375 6.40625 -5.375 C 6.550781 -5.375 6.671875 -5.320312 6.765625 -5.21875 C 6.859375 -5.113281 6.90625 -4.976562 6.90625 -4.8125 C 6.90625 -4.507812 6.785156 -4.273438 6.546875 -4.109375 C 6.316406 -3.941406 5.972656 -3.851562 5.515625 -3.84375 C 5.710938 -3.382812 5.8125 -2.894531 5.8125 -2.375 C 5.8125 -1.59375 5.566406 -0.988281 5.078125 -0.5625 C 4.585938 -0.132812 3.9375 0.078125 3.125 0.078125 Z M 3.125 0.078125 "/></g></g></g><g fill="#d17a22" fill-opacity="1"><g transform="translate(218.038526, 242.156365)"><g/></g></g><g fill="#d17a22" fill-opacity="1"><g transform="translate(220.237657, 242.156365)"><g><path d="M 2.109375 0.0625 C 1.503906 0.0625 1.046875 -0.128906 0.734375 -0.515625 C 0.429688 -0.898438 0.28125 -1.472656 0.28125 -2.234375 C 0.28125 -3.054688 0.472656 -3.679688 0.859375 -4.109375 C 1.242188 -4.546875 1.804688 -4.765625 2.546875 -4.765625 C 2.828125 -4.765625 3.109375 -4.707031 3.390625 -4.59375 L 3.390625 -5.671875 C 3.390625 -5.921875 3.335938 -6.085938 3.234375 -6.171875 C 3.140625 -6.265625 2.960938 -6.316406 2.703125 -6.328125 L 2.71875 -6.625 C 3.03125 -6.675781 3.40625 -6.769531 3.84375 -6.90625 L 4.046875 -6.96875 L 4.25 -6.875 L 4.25 -0.609375 C 4.40625 -0.492188 4.632812 -0.40625 4.9375 -0.34375 L 4.90625 0 L 3.46875 0 L 3.390625 -0.59375 C 3.109375 -0.15625 2.679688 0.0625 2.109375 0.0625 Z M 2.203125 -0.359375 C 2.585938 -0.359375 2.878906 -0.515625 3.078125 -0.828125 C 3.285156 -1.140625 3.390625 -1.609375 3.390625 -2.234375 L 3.390625 -4.140625 C 3.265625 -4.203125 3.132812 -4.25 3 -4.28125 C 2.875 -4.320312 2.710938 -4.34375 2.515625 -4.34375 C 2.085938 -4.34375 1.753906 -4.15625 1.515625 -3.78125 C 1.273438 -3.414062 1.15625 -2.898438 1.15625 -2.234375 C 1.15625 -1.585938 1.238281 -1.113281 1.40625 -0.8125 C 1.582031 -0.507812 1.847656 -0.359375 2.203125 -0.359375 Z M 2.203125 -0.359375 "/></g></g></g><g fill="#d17a22" fill-opacity="1"><g transform="translate(225.435609, 242.156365)"><g><path d="M 2.375 0.0625 C 1.625 0.0625 1.085938 -0.140625 0.765625 -0.546875 C 0.441406 -0.953125 0.28125 -1.5625 0.28125 -2.375 C 0.28125 -3.113281 0.457031 -3.695312 0.8125 -4.125 C 1.164062 -4.550781 1.6875 -4.765625 2.375 -4.765625 C 3.03125 -4.765625 3.488281 -4.585938 3.75 -4.234375 C 4.019531 -3.890625 4.164062 -3.378906 4.1875 -2.703125 L 3.984375 -2.4375 L 1.203125 -2.4375 L 1.203125 -2.375 C 1.203125 -1.945312 1.226562 -1.59375 1.28125 -1.3125 C 1.332031 -1.039062 1.445312 -0.820312 1.625 -0.65625 C 1.8125 -0.5 2.082031 -0.421875 2.4375 -0.421875 C 2.695312 -0.421875 2.9375 -0.46875 3.15625 -0.5625 C 3.375 -0.664062 3.554688 -0.773438 3.703125 -0.890625 L 3.953125 -0.59375 C 3.785156 -0.4375 3.566406 -0.285156 3.296875 -0.140625 C 3.035156 -0.00390625 2.726562 0.0625 2.375 0.0625 Z M 3.296875 -2.875 C 3.296875 -3.394531 3.222656 -3.769531 3.078125 -4 C 2.941406 -4.238281 2.691406 -4.359375 2.328125 -4.359375 C 1.953125 -4.359375 1.671875 -4.21875 1.484375 -3.9375 C 1.304688 -3.664062 1.210938 -3.285156 1.203125 -2.796875 Z M 3.296875 -2.875 "/></g></g></g><g fill="#d17a22" fill-opacity="1"><g transform="translate(229.843873, 242.156365)"><g><path d="M 1.828125 0.0625 C 1.597656 0.0625 1.328125 0.0234375 1.015625 -0.046875 C 0.710938 -0.128906 0.488281 -0.21875 0.34375 -0.3125 L 0.34375 -1.546875 L 0.875 -1.625 C 0.894531 -1.34375 0.921875 -1.117188 0.953125 -0.953125 C 0.992188 -0.785156 1.054688 -0.628906 1.140625 -0.484375 C 1.347656 -0.421875 1.601562 -0.390625 1.90625 -0.390625 C 2.175781 -0.390625 2.398438 -0.460938 2.578125 -0.609375 C 2.753906 -0.753906 2.84375 -0.9375 2.84375 -1.15625 C 2.84375 -1.375 2.753906 -1.535156 2.578125 -1.640625 C 2.410156 -1.753906 2.144531 -1.878906 1.78125 -2.015625 C 1.46875 -2.117188 1.21875 -2.21875 1.03125 -2.3125 C 0.84375 -2.414062 0.679688 -2.5625 0.546875 -2.75 C 0.410156 -2.9375 0.34375 -3.175781 0.34375 -3.46875 C 0.34375 -3.863281 0.488281 -4.175781 0.78125 -4.40625 C 1.082031 -4.632812 1.492188 -4.75 2.015625 -4.75 C 2.296875 -4.75 2.554688 -4.703125 2.796875 -4.609375 C 3.035156 -4.523438 3.222656 -4.410156 3.359375 -4.265625 C 3.492188 -4.117188 3.5625 -3.953125 3.5625 -3.765625 C 3.5625 -3.421875 3.410156 -3.25 3.109375 -3.25 C 2.984375 -3.25 2.878906 -3.269531 2.796875 -3.3125 C 2.710938 -3.351562 2.632812 -3.421875 2.5625 -3.515625 C 2.675781 -3.597656 2.734375 -3.71875 2.734375 -3.875 C 2.734375 -4.019531 2.660156 -4.132812 2.515625 -4.21875 C 2.367188 -4.300781 2.179688 -4.34375 1.953125 -4.34375 C 1.691406 -4.34375 1.484375 -4.28125 1.328125 -4.15625 C 1.171875 -4.039062 1.09375 -3.882812 1.09375 -3.6875 C 1.09375 -3.519531 1.144531 -3.378906 1.25 -3.265625 C 1.351562 -3.148438 1.476562 -3.0625 1.625 -3 C 1.769531 -2.9375 1.984375 -2.859375 2.265625 -2.765625 C 2.546875 -2.648438 2.773438 -2.539062 2.953125 -2.4375 C 3.140625 -2.34375 3.296875 -2.207031 3.421875 -2.03125 C 3.554688 -1.851562 3.625 -1.628906 3.625 -1.359375 C 3.625 -0.910156 3.46875 -0.5625 3.15625 -0.3125 C 2.84375 -0.0625 2.398438 0.0625 1.828125 0.0625 Z M 1.828125 0.0625 "/></g></g></g><g fill="#d17a22" fill-opacity="1"><g transform="translate(233.76233, 242.156365)"><g><path d="M 0.34375 -0.359375 C 0.488281 -0.390625 0.609375 -0.421875 0.703125 -0.453125 C 0.796875 -0.484375 0.894531 -0.535156 1 -0.609375 L 1 -3.484375 C 1 -3.734375 0.945312 -3.898438 0.84375 -3.984375 C 0.738281 -4.078125 0.554688 -4.132812 0.296875 -4.15625 L 0.328125 -4.4375 C 0.597656 -4.488281 0.875 -4.554688 1.15625 -4.640625 C 1.4375 -4.722656 1.601562 -4.773438 1.65625 -4.796875 L 1.84375 -4.6875 L 1.84375 -0.609375 C 2.007812 -0.492188 2.242188 -0.40625 2.546875 -0.34375 L 2.515625 0 L 0.296875 0 Z M 1.3125 -5.53125 C 0.96875 -5.53125 0.796875 -5.722656 0.796875 -6.109375 C 0.796875 -6.492188 0.96875 -6.6875 1.3125 -6.6875 C 1.488281 -6.6875 1.617188 -6.632812 1.703125 -6.53125 C 1.796875 -6.4375 1.84375 -6.296875 1.84375 -6.109375 C 1.84375 -5.921875 1.796875 -5.773438 1.703125 -5.671875 C 1.617188 -5.578125 1.488281 -5.53125 1.3125 -5.53125 Z M 1.3125 -5.53125 "/></g></g></g><g fill="#d17a22" fill-opacity="1"><g transform="translate(236.531239, 242.156365)"><g><path d="M 2.34375 2.1875 C 1.644531 2.1875 1.113281 2.070312 0.75 1.84375 C 0.394531 1.625 0.21875 1.320312 0.21875 0.9375 C 0.21875 0.695312 0.242188 0.503906 0.296875 0.359375 C 0.347656 0.222656 0.425781 0.109375 0.53125 0.015625 C 0.644531 -0.078125 0.796875 -0.175781 0.984375 -0.28125 C 0.835938 -0.445312 0.765625 -0.671875 0.765625 -0.953125 L 1.59375 -1.53125 C 1.195312 -1.625 0.890625 -1.804688 0.671875 -2.078125 C 0.453125 -2.347656 0.34375 -2.679688 0.34375 -3.078125 C 0.34375 -3.628906 0.492188 -4.046875 0.796875 -4.328125 C 1.109375 -4.609375 1.570312 -4.75 2.1875 -4.75 C 2.644531 -4.75 3.015625 -4.671875 3.296875 -4.515625 C 3.535156 -4.585938 3.65625 -4.71875 3.65625 -4.90625 C 3.65625 -4.96875 3.628906 -5.03125 3.578125 -5.09375 C 3.535156 -5.164062 3.46875 -5.222656 3.375 -5.265625 C 3.375 -5.359375 3.414062 -5.4375 3.5 -5.5 C 3.582031 -5.5625 3.695312 -5.59375 3.84375 -5.59375 C 4 -5.59375 4.117188 -5.546875 4.203125 -5.453125 C 4.296875 -5.367188 4.34375 -5.25 4.34375 -5.09375 C 4.34375 -4.894531 4.28125 -4.71875 4.15625 -4.5625 C 4.039062 -4.414062 3.875 -4.304688 3.65625 -4.234375 C 3.894531 -3.953125 4.015625 -3.566406 4.015625 -3.078125 C 4.015625 -2.585938 3.847656 -2.195312 3.515625 -1.90625 C 3.191406 -1.613281 2.75 -1.46875 2.1875 -1.46875 L 2.046875 -1.46875 L 1.625 -0.953125 C 1.632812 -0.847656 1.679688 -0.773438 1.765625 -0.734375 C 1.859375 -0.703125 2.023438 -0.679688 2.265625 -0.671875 L 2.6875 -0.671875 C 3.289062 -0.671875 3.738281 -0.53125 4.03125 -0.25 C 4.320312 0.0195312 4.46875 0.367188 4.46875 0.796875 C 4.46875 1.242188 4.289062 1.585938 3.9375 1.828125 C 3.59375 2.066406 3.0625 2.1875 2.34375 2.1875 Z M 2.1875 -1.875 C 2.507812 -1.875 2.742188 -1.96875 2.890625 -2.15625 C 3.035156 -2.351562 3.109375 -2.671875 3.109375 -3.109375 C 3.109375 -3.546875 3.035156 -3.859375 2.890625 -4.046875 C 2.742188 -4.242188 2.507812 -4.34375 2.1875 -4.34375 C 1.851562 -4.34375 1.613281 -4.242188 1.46875 -4.046875 C 1.320312 -3.859375 1.25 -3.546875 1.25 -3.109375 C 1.25 -2.671875 1.320312 -2.351562 1.46875 -2.15625 C 1.613281 -1.96875 1.851562 -1.875 2.1875 -1.875 Z M 2.34375 1.78125 C 3.144531 1.78125 3.546875 1.453125 3.546875 0.796875 C 3.546875 0.523438 3.453125 0.328125 3.265625 0.203125 C 3.078125 0.078125 2.800781 0.015625 2.4375 0.015625 L 1.59375 0.015625 C 1.289062 0.203125 1.140625 0.460938 1.140625 0.796875 C 1.140625 1.128906 1.242188 1.375 1.453125 1.53125 C 1.660156 1.695312 1.957031 1.78125 2.34375 1.78125 Z M 2.34375 1.78125 "/></g></g></g><g fill="#d17a22" fill-opacity="1"><g transform="translate(241.119427, 242.156365)"><g><path d="M 0.34375 -0.359375 C 0.488281 -0.390625 0.609375 -0.421875 0.703125 -0.453125 C 0.804688 -0.492188 0.90625 -0.550781 1 -0.625 L 1 -3.46875 C 1 -3.71875 0.945312 -3.882812 0.84375 -3.96875 C 0.738281 -4.0625 0.554688 -4.113281 0.296875 -4.125 L 0.328125 -4.421875 C 0.535156 -4.460938 0.832031 -4.539062 1.21875 -4.65625 L 1.546875 -4.765625 L 1.734375 -4.671875 L 1.8125 -4.046875 C 1.96875 -4.265625 2.164062 -4.4375 2.40625 -4.5625 C 2.644531 -4.695312 2.890625 -4.765625 3.140625 -4.765625 C 3.628906 -4.765625 4.007812 -4.640625 4.28125 -4.390625 C 4.550781 -4.148438 4.6875 -3.8125 4.6875 -3.375 L 4.6875 -0.625 C 4.738281 -0.570312 4.832031 -0.515625 4.96875 -0.453125 C 5.101562 -0.398438 5.238281 -0.363281 5.375 -0.34375 L 5.34375 0 L 3.140625 0 L 3.171875 -0.34375 C 3.421875 -0.382812 3.640625 -0.476562 3.828125 -0.625 L 3.828125 -3.296875 C 3.828125 -3.953125 3.539062 -4.28125 2.96875 -4.28125 C 2.738281 -4.28125 2.519531 -4.203125 2.3125 -4.046875 C 2.113281 -3.890625 1.957031 -3.6875 1.84375 -3.4375 L 1.84375 -0.625 C 2.007812 -0.5 2.242188 -0.40625 2.546875 -0.34375 L 2.515625 0 L 0.296875 0 Z M 0.34375 -0.359375 "/></g></g></g></svg>