<svg xmlns="http://www.w3.org/2000/svg" xmlns:xlink="http://www.w3.org/1999/xlink" width="500" zoomAndPan="magnify" viewBox="0 0 375 374.999991" height="500" preserveAspectRatio="xMidYMid meet" version="1.0"><defs><g/><clipPath id="e1bcbd0211"><path d="M 137 81.085938 L 245.808594 81.085938 L 245.808594 197 L 137 197 Z M 137 81.085938 " clip-rule="nonzero"/></clipPath></defs><path stroke-linecap="round" transform="matrix(0.746263, 0, 0, 0.75, 89.931963, 192.299987)" fill="none" stroke-linejoin="miter" d="M 0.499454 0.501059 L 77.895546 0.501059 " stroke="#d17a22" stroke-width="1" stroke-opacity="1" stroke-miterlimit="4"/><path stroke-linecap="round" transform="matrix(0.746269, 0, 0, 0.75, 253.535261, 193.049987)" fill="none" stroke-linejoin="miter" d="M 0.50236 0.501059 L 49.763067 0.501059 " stroke="#d17a22" stroke-width="1" stroke-opacity="1" stroke-miterlimit="4"/><g clip-path="url(#e1bcbd0211)"><path fill="#d17a22" d="M 156.226562 175.453125 L 155.199219 174.851562 L 155.699219 174.613281 L 154.867188 174.613281 L 155.054688 174.230469 C 154.398438 174.601562 153.972656 173.734375 153.359375 173.5 L 153.550781 173.289062 C 152.78125 173.242188 152.457031 172.402344 151.863281 171.953125 L 152 171.773438 C 151.554688 171.839844 151.386719 171.808594 150.863281 171.445312 L 151.605469 171.328125 C 151.21875 171.136719 151.136719 170.984375 150.71875 171.238281 L 150.628906 171.148438 L 150.882812 170.863281 C 150.265625 171.121094 150.222656 170.90625 149.792969 170.382812 L 149.527344 170.363281 C 149.242188 169.699219 148.414062 169.597656 148.105469 168.917969 L 148.277344 168.726562 C 147.960938 168.683594 147.726562 168.6875 147.6875 168.34375 C 146.664062 168.105469 145.789062 166.839844 145.058594 166.03125 L 145.1875 165.902344 C 144.476562 165.589844 144.023438 165.046875 143.414062 164.4375 L 143.855469 164.183594 L 143.792969 163.898438 C 143.070312 164.460938 142.792969 163.394531 142.320312 162.972656 C 142.417969 162.144531 141.011719 161.902344 141.125 161.109375 C 140.484375 161.128906 140.90625 160.074219 140.277344 159.984375 L 140.464844 159.773438 C 138.007812 157.742188 135.582031 148.507812 139.347656 147 C 139.609375 147.730469 140.339844 147.316406 140.882812 147.859375 C 142.394531 150.65625 144.332031 153.359375 146.382812 155.824219 C 146.230469 156.191406 146.949219 156.410156 147 156.714844 C 147.082031 157.097656 147.46875 157.085938 147.597656 157.390625 C 147.710938 157.65625 148.003906 157.847656 148.234375 158.089844 L 148.078125 158.292969 L 148.632812 158.410156 L 148.398438 158.910156 L 149.042969 159.347656 L 149.386719 159.25 C 150.636719 160.886719 152.664062 162.828125 154.511719 163.847656 L 154.324219 164.074219 C 156.417969 165.59375 158.855469 166.707031 160.910156 168.339844 C 161.332031 168.277344 161.230469 168.824219 161.59375 168.910156 C 162.148438 169.25 162.664062 169.640625 163.140625 170.082031 C 166.835938 173.433594 171.53125 175.6875 175.796875 178.320312 C 179.371094 179.476562 186.488281 184.515625 189.714844 182.777344 C 190.042969 183.136719 190.375 182.496094 190.730469 182.785156 C 190.949219 182.292969 191.425781 182.25 191.832031 182.046875 C 192.117188 182.296875 192.484375 182.226562 192.835938 182.21875 C 193.636719 182.3125 194.613281 183.023438 195.234375 182.214844 C 196.808594 182.515625 198.582031 181.90625 200.089844 181.25 L 200.207031 181.355469 C 200.503906 181.125 200.941406 180.640625 201.277344 181.0625 C 201.574219 180.582031 201.753906 180.476562 202.316406 180.503906 C 201.558594 180.265625 201.558594 180.265625 201.566406 179.855469 L 201.757812 180.027344 C 201.910156 179.546875 202.210938 179.097656 201.640625 178.722656 C 201.96875 177.96875 201.585938 176.816406 202.550781 176.4375 L 202.375 176.246094 L 202.769531 175.621094 C 200.753906 175.894531 199.144531 175.5 197.175781 175.28125 C 195.539062 177.007812 193.5 178.183594 191.34375 179.332031 C 190.679688 179.707031 189.765625 179.714844 189.230469 180.335938 C 188.390625 180.277344 187.546875 180.625 186.785156 180.304688 C 188.285156 177.0625 192.511719 177.6875 194.417969 174.734375 C 192.625 173.726562 190.410156 174.59375 188.554688 174.054688 C 184.257812 173.761719 180.152344 172.75 175.824219 172.726562 C 173.488281 172.292969 173.089844 171.855469 170.855469 173.0625 C 170.675781 172.125 169.128906 173.527344 168.613281 172.84375 L 168.757812 172.664062 L 168.605469 172.484375 L 169.339844 171.804688 L 168.863281 171.527344 C 169.339844 171.144531 169.601562 170.652344 170.125 170.464844 C 170.21875 169.210938 172.480469 169.109375 173.503906 168.339844 C 174.292969 168.289062 175.074219 168.183594 175.851562 168.027344 C 180.414062 167.824219 184.589844 170.019531 188.84375 171.46875 C 188.40625 170.816406 188.15625 170.101562 188.089844 169.316406 C 188.023438 168.535156 188.152344 167.785156 188.472656 167.070312 C 186.683594 166.589844 185.71875 165.800781 183.828125 165.382812 L 184.507812 165.261719 L 184.507812 164.914062 L 183.9375 165.160156 C 183.878906 164.621094 183.128906 164.726562 182.6875 164.6875 L 183.304688 165.09375 C 182.78125 165.195312 182.675781 165.054688 182.34375 164.746094 C 182.042969 165.113281 181.773438 164.839844 181.410156 164.664062 C 181.015625 164.984375 180.527344 164.425781 180.132812 164.460938 C 179.472656 164.917969 179.050781 164.300781 178.46875 164.171875 C 178.46875 164.167969 178.378906 164.277344 178.359375 164.265625 C 177.988281 164.03125 177.535156 164.15625 177.128906 163.96875 C 176.816406 163.828125 176.425781 163.652344 176.023438 163.761719 C 175.996094 163.769531 175.9375 163.65625 175.890625 163.609375 C 176.074219 163.519531 176.25 163.425781 176.414062 163.339844 L 176.351562 163.117188 C 176.113281 163.25 175.808594 163.277344 175.890625 163.609375 C 174.832031 163.28125 173.816406 162.125 172.828125 161.703125 L 173.035156 161.4375 L 172.617188 161.480469 L 172.621094 161.535156 C 171.257812 160.453125 170.457031 158.605469 169.351562 157.304688 L 169.816406 157.078125 L 169.109375 156.609375 L 169.269531 156.40625 L 168.945312 156.25 L 169.09375 156.082031 C 168.21875 154.699219 168.808594 152.992188 168.382812 151.445312 C 168.105469 151.464844 167.871094 150.863281 168.070312 150.664062 C 167.953125 149.417969 167.003906 148.5 166.992188 147.28125 C 166.949219 146.871094 166.46875 146.242188 166.726562 145.921875 C 166.601562 145.785156 166.480469 145.648438 166.3125 145.457031 L 166.742188 145.214844 L 166.417969 145.09375 C 166.90625 144.519531 165.597656 144.226562 166.246094 143.472656 L 165.773438 142.480469 L 165.84375 142.398438 C 165.640625 142.097656 165.835938 141.695312 165.695312 141.421875 C 165.511719 141.09375 165.5 140.761719 165.664062 140.425781 L 165.410156 140.578125 C 165.339844 140.257812 165.4375 140 165.710938 139.808594 L 165.449219 139.546875 L 165.339844 139.863281 C 164.539062 138.75 164.65625 137.183594 164.179688 135.832031 L 164.816406 136.019531 L 164.878906 135.738281 L 164.550781 135.613281 L 164.773438 135.214844 L 164.246094 135.136719 C 163.871094 133.699219 162.144531 133.167969 161.15625 132.183594 L 161.332031 132.007812 C 160.835938 131.996094 160.660156 131.722656 160.308594 131.367188 L 160.457031 131.167969 C 160.089844 131.074219 160.097656 130.664062 159.59375 130.71875 L 159.816406 130.460938 L 159.335938 130.402344 C 158.71875 128.933594 157.535156 127.777344 156.722656 126.398438 C 156.011719 125.726562 156.144531 124.472656 155.355469 123.886719 C 155.460938 123.59375 155.679688 123.40625 155.441406 123.09375 C 154.898438 122.46875 155.765625 121.164062 154.835938 120.867188 L 155.167969 120.597656 C 154.765625 119.433594 155.335938 118.085938 154.898438 116.984375 C 154.710938 116.835938 155.210938 116.625 154.875 116.460938 C 155.421875 114.808594 154.621094 113.308594 155.539062 111.71875 L 155.347656 111.503906 C 155.394531 111.425781 155.511719 111.316406 155.492188 111.253906 C 155.371094 110.898438 155.6875 110.570312 155.503906 110.203125 L 155.929688 109.878906 C 155.84375 109.527344 155.640625 109.289062 156.015625 109.042969 C 155.820312 108.535156 156.394531 108.257812 156.386719 107.746094 C 155.054688 108.375 153.984375 109.472656 152.582031 109.933594 C 152.335938 110.320312 151.808594 110.355469 151.601562 110.867188 C 151.261719 111.671875 150.183594 111.703125 149.515625 112.109375 C 147.476562 112.96875 145.25 112.6875 145.007812 110.113281 C 146.269531 107.671875 148.757812 106.75 151.105469 105.429688 L 151.222656 105.519531 L 151.378906 105.203125 L 151.703125 105.441406 L 152.003906 104.878906 C 152.957031 105.046875 153.546875 104.011719 154.113281 104.355469 C 154.171875 104.105469 154.539062 103.710938 154.796875 104.015625 L 154.90625 103.699219 L 155.464844 103.699219 L 155.445312 103.617188 L 156.746094 103.101562 L 156.089844 102.207031 L 156.222656 102.0625 L 156.074219 101.898438 L 156.273438 101.605469 L 155.664062 101.113281 L 155.882812 100.875 C 155.824219 100.820312 155.769531 100.761719 155.726562 100.695312 C 157.375 96.691406 167.859375 92.5625 171.082031 96.417969 C 173.773438 95.097656 177.058594 94.59375 179.523438 92.992188 L 178.972656 92.628906 C 179.214844 92.027344 179.683594 92.40625 179.820312 92.8125 L 180.789062 92.609375 L 180.789062 92.164062 L 180.011719 92.164062 L 179.898438 91.824219 C 179.3125 92.089844 178.65625 92.015625 178.363281 92.714844 L 178.121094 92.347656 C 175.167969 92.890625 175.550781 94.175781 173.933594 91.304688 C 173.066406 89.464844 169.8125 86.710938 173.042969 85.503906 L 172.867188 85.328125 C 175.398438 83.984375 177.882812 82.253906 180.707031 81.46875 C 181.84375 81.089844 183.027344 81.855469 184.238281 81.28125 L 184.726562 81.882812 L 184.964844 81.664062 C 185.289062 81.945312 185.53125 82.414062 186.007812 82.363281 C 186.429688 82.789062 186.648438 83.558594 187.203125 83.722656 C 187.828125 84.804688 188.507812 85.882812 189.164062 87.066406 C 190.574219 89.734375 192.328125 92.226562 193.40625 95.003906 C 194.0625 95.726562 194.996094 97.5625 194.042969 98.503906 L 194.199219 98.679688 C 193.921875 98.957031 193.636719 99.140625 193.667969 99.597656 L 193.265625 99.617188 C 192.902344 100.53125 191.816406 100.609375 191.105469 101.113281 C 190.609375 101.476562 190.261719 102.117188 189.648438 102.304688 C 187.222656 103.203125 184.265625 105.503906 181.65625 104.601562 L 181.832031 104.429688 C 179.800781 103.347656 180.753906 102.484375 179.832031 102.304688 C 179.390625 100.917969 178.367188 99.613281 177.746094 98.296875 C 176.359375 98.808594 174.84375 98.761719 173.527344 99.65625 C 174.558594 100.84375 174.519531 102.238281 173.5 103.472656 C 173.714844 103.757812 173.640625 104.230469 174.023438 104.425781 C 173.789062 105.492188 173.757812 106.542969 172.621094 107.003906 C 171.730469 107.683594 170.996094 108.265625 169.832031 108.519531 C 168.449219 108.414062 165.8125 109.21875 164.550781 108.53125 C 164.191406 109.710938 164.234375 110.878906 164.683594 112.027344 C 164.796875 112.210938 164.398438 112.359375 164.6875 112.578125 C 164.871094 113.292969 165.238281 114.027344 165.234375 114.796875 C 165.570312 115.21875 169.242188 115.6875 169.535156 115.359375 C 171.640625 115.65625 174.597656 115.289062 176.183594 117.375 C 176.9375 118.554688 178.617188 118.34375 179.734375 118.976562 C 181.308594 119.246094 183.304688 120.261719 184.75 118.953125 L 184.503906 118.542969 L 184.871094 118.140625 C 184.820312 118.085938 184.765625 118.027344 184.683594 117.9375 C 184.78125 117.71875 184.996094 117.515625 184.730469 117.304688 C 184.921875 117.101562 184.902344 116.6875 185.328125 116.679688 C 185.777344 115.203125 186.652344 113.9375 187.671875 112.828125 C 188.171875 112.023438 189.082031 111.609375 188.933594 110.605469 C 189.96875 110.773438 191.371094 108.878906 192.441406 109.265625 C 192.476562 108.875 192.828125 108.914062 193.144531 108.800781 C 193.164062 108.855469 193.203125 108.953125 193.269531 109.136719 C 195.078125 107.519531 198.785156 107.976562 201.09375 108.601562 C 201.121094 108.496094 201.148438 108.402344 201.199219 108.222656 C 201.605469 108.714844 202.273438 107.855469 202.785156 108.105469 C 203.027344 108.355469 203.320312 108.1875 203.582031 108.242188 C 204.253906 108.460938 204.960938 108.289062 205.601562 108.515625 L 205.632812 108.421875 C 206.804688 109.101562 208.160156 109.324219 209.015625 110.417969 C 209.421875 109.820312 207.277344 108.488281 206.800781 107.765625 L 207.367188 107.765625 C 207.425781 106.882812 208.382812 106.714844 209.015625 107.035156 C 209.378906 106.9375 209.101562 106.597656 209.25 106.421875 C 208.746094 105.917969 209.113281 105.386719 209.199219 104.867188 C 209.222656 103.898438 209.726562 102.914062 209.804688 101.992188 C 210.652344 99.882812 212.464844 98.855469 214.210938 97.582031 C 215.847656 96.839844 217.8125 97.734375 219.390625 96.75 L 219.585938 96.925781 L 220.417969 95.746094 L 220.609375 95.914062 C 220.613281 95.148438 221.03125 94.632812 221.550781 94.105469 L 221.757812 94.546875 C 221.816406 94.414062 221.871094 94.300781 221.9375 94.160156 C 222.449219 94.332031 222.453125 94.800781 222.585938 95.1875 C 223.160156 95.449219 222.617188 96.792969 222.449219 97.21875 L 222.558594 97.285156 L 221.964844 97.878906 L 222.71875 97.878906 L 222.523438 97.660156 C 222.691406 97.484375 222.753906 97.523438 222.933594 97.910156 L 223.109375 97.753906 C 224.089844 98.550781 224.621094 98.785156 225.871094 98.296875 C 225.960938 98.441406 226.203125 98.402344 226.367188 98.449219 C 226.496094 98.910156 227.171875 98.820312 227.53125 99.011719 C 227.929688 99.1875 228.40625 98.914062 228.761719 99.300781 C 229.183594 98.839844 229.933594 99.445312 230.035156 98.761719 L 230.382812 98.804688 L 230.15625 99.21875 L 230.703125 99.585938 L 230.339844 100.035156 L 230.476562 100.191406 C 229.738281 101.136719 228.691406 101.070312 227.585938 101.609375 C 227.136719 102.3125 226.121094 102.386719 225.304688 102.8125 C 223.957031 102.765625 222.398438 101.730469 221.085938 101.957031 C 220.839844 101.929688 220.601562 101.878906 220.371094 101.796875 C 220.132812 101.683594 219.953125 102.097656 219.722656 101.808594 L 219.542969 102.1875 L 219.203125 101.996094 C 218.914062 102.679688 218.175781 102.601562 217.640625 102.898438 C 218.03125 103.589844 219.441406 102.683594 220.1875 102.832031 C 221.921875 102.496094 224.1875 103.855469 225.8125 103.855469 L 226.203125 104.1875 C 226.367188 104.308594 226.378906 103.984375 226.617188 104.085938 C 227.089844 104.277344 227.5625 104.269531 228.027344 104.0625 C 229 104.660156 229.664062 103.257812 230.226562 103.832031 C 230.308594 103.769531 230.390625 103.707031 230.523438 103.601562 C 230.667969 103.945312 230.933594 104.078125 231.335938 104.261719 C 231.222656 104.539062 231.222656 104.539062 230.929688 104.363281 C 230.648438 104.839844 230.648438 104.839844 229.644531 105.101562 C 230.703125 106.546875 227.929688 108.019531 226.574219 108.101562 C 226.601562 108.230469 226.621094 108.320312 226.648438 108.4375 L 226.808594 108.277344 L 227.234375 108.847656 L 227.371094 108.671875 C 228.179688 108.972656 228.953125 109.320312 229.816406 109.195312 C 230.242188 109.105469 230.949219 108.75 231.324219 109.15625 C 231.007812 109.390625 231.359375 109.71875 231.472656 110.03125 C 230.925781 110.996094 229.535156 111.160156 228.492188 111.292969 C 227.277344 111.648438 224.847656 111.539062 224.097656 112.371094 C 224.066406 112.207031 224.050781 112.128906 224.027344 112.007812 C 223.046875 112.269531 221.363281 112.304688 220.457031 111.625 L 220.222656 111.78125 L 220.058594 111.433594 C 219.808594 111.511719 219.597656 111.597656 219.65625 111.988281 L 219.867188 111.832031 C 221.144531 112.914062 220.511719 112.839844 222.402344 113.128906 C 223.144531 113.320312 223.960938 112.539062 224.785156 112.828125 L 225.152344 112.484375 C 225.660156 112.800781 226.804688 112.171875 227.421875 112.359375 C 227.839844 112.585938 228.355469 112.695312 228.796875 112.867188 C 228.703125 113.546875 228.019531 113.121094 227.726562 114 L 227.542969 113.859375 L 226.699219 114.457031 C 226.195312 114.242188 225.863281 115.011719 225.523438 114.699219 C 225.019531 115.019531 224.378906 114.898438 223.757812 115.03125 C 223.5 115.761719 222.621094 115.484375 221.976562 115.390625 C 219.679688 116 218.734375 114.945312 216.847656 114.839844 C 216.480469 114.527344 216.210938 114.082031 215.625 113.992188 C 215.558594 113.292969 214.800781 113.496094 214.492188 113.066406 C 214.011719 112.570312 213.6875 111.914062 212.960938 111.582031 L 212.671875 111.882812 C 213.417969 113.121094 211.945312 114.714844 213.519531 115.410156 L 213.328125 115.710938 C 214.175781 116.664062 214.425781 117.996094 214.722656 119.15625 C 214.984375 119.335938 214.90625 119.613281 214.878906 119.847656 C 214.855469 120.070312 215.28125 120.25 214.925781 120.484375 C 214.988281 121.074219 215.378906 121.671875 214.902344 122.226562 C 215.058594 122.546875 215.011719 123.003906 214.703125 124.023438 C 214.789062 124.109375 214.882812 124.289062 215.011719 124.316406 C 217.644531 125.117188 219.503906 127.261719 221.820312 128.722656 C 223.519531 129.714844 225.535156 131.078125 226.734375 132.53125 C 227.007812 132.710938 227.023438 133.164062 227.449219 133.238281 C 227.59375 133.285156 227.691406 133.382812 227.738281 133.527344 C 227.871094 134.097656 228.550781 134.289062 228.855469 134.664062 C 228.941406 134.914062 229.363281 135.125 229.421875 135.140625 L 230.320312 136.035156 C 231.484375 139.011719 233.691406 141.566406 234.558594 144.785156 C 234.871094 145.175781 234.585938 145.683594 234.890625 146.175781 C 234.980469 146.3125 234.871094 146.484375 234.742188 146.601562 C 234.914062 146.707031 234.976562 146.949219 234.886719 147.03125 C 234.644531 147.25 234.984375 147.472656 234.886719 147.570312 C 234.632812 147.816406 234.96875 147.984375 234.910156 148.207031 C 234.761719 148.570312 235.191406 148.820312 235.070312 149.21875 L 235.507812 149.613281 C 235.632812 150.019531 235.464844 150.308594 235.742188 150.476562 C 235.214844 150.898438 236.105469 151.304688 235.914062 152.210938 C 235.808594 154.003906 236.421875 156.019531 236.40625 157.613281 L 236.8125 157.886719 C 236.5625 158.421875 236.960938 159.601562 237.441406 160.128906 C 237.453125 161.355469 238.367188 162.203125 238.796875 163.296875 C 239.742188 164.734375 240.457031 166.277344 241.34375 167.746094 C 241.863281 167.910156 241.6875 168.515625 242.015625 168.8125 C 242.28125 169.074219 242.390625 169.390625 242.355469 169.761719 C 243 169.976562 242.699219 170.765625 243.183594 171.089844 C 243.445312 171.230469 243.179688 171.441406 243.3125 171.589844 C 244.242188 173.132812 245.523438 177.070312 245.066406 178.746094 C 245.6875 179.238281 245.261719 180.15625 245.496094 180.824219 C 245.523438 181.078125 245.167969 181.371094 245.535156 181.585938 C 245.195312 182.382812 245.777344 183.144531 245.632812 183.960938 L 245.71875 183.96875 C 245.5625 184.320312 245.40625 184.667969 245.246094 185.015625 C 245.519531 185.367188 245.003906 185.703125 245.265625 185.972656 C 244.5 187.046875 244.496094 188.328125 243.382812 189.09375 C 243.285156 189.148438 243.261719 189.332031 243.28125 189.5 L 243.550781 189.265625 C 243.175781 191.542969 240.234375 191.613281 238.6875 192.6875 L 238.542969 192.558594 L 238.339844 192.75 C 237.730469 192.519531 236.867188 192.769531 236.199219 192.875 C 235.917969 192.757812 235.558594 192.386719 235.265625 192.730469 L 234.414062 192.015625 L 233.976562 192.261719 L 233.808594 191.855469 C 233.53125 191.988281 233.335938 192.117188 233.027344 191.859375 C 232.636719 192.304688 232.183594 191.976562 231.886719 191.785156 C 227.535156 189.8125 224.929688 185.265625 224.550781 180.78125 L 224.230469 180.460938 C 224.445312 178.964844 222.816406 177.371094 222.054688 176.027344 L 222.539062 175.71875 C 222.4375 175.273438 222.0625 175.179688 221.753906 174.976562 C 221.046875 175.546875 220.539062 176.425781 219.523438 176.691406 C 219.246094 177.371094 218.203125 177.320312 218.042969 178.234375 C 217.960938 178.042969 217.921875 177.945312 217.882812 177.851562 C 217.679688 179.8125 216.640625 181.640625 216.121094 183.640625 C 215.757812 185.59375 212.042969 186.078125 210.425781 186.601562 C 209.988281 186.195312 209.582031 186.738281 209.132812 186.648438 C 208.238281 186.617188 207.269531 186.488281 206.398438 186.78125 C 206.191406 186.894531 206.011719 186.859375 205.859375 186.679688 C 205.464844 186.902344 205.234375 186.257812 204.875 185.957031 L 204.605469 186.113281 L 204.472656 185.75 C 204.089844 186.386719 203.261719 186.222656 202.824219 186.851562 C 202.445312 187.394531 201.828125 187.773438 201.257812 188.277344 C 202.308594 188.511719 202.984375 189.472656 203.957031 189.507812 L 203.929688 189.574219 C 206.8125 190.683594 209.847656 191.253906 212.882812 191.6875 C 214.761719 192.097656 218.0625 191.46875 218.246094 194.144531 C 217.949219 194.878906 216.921875 195.019531 216.234375 195.484375 C 216.09375 195.335938 215.976562 195.214844 215.769531 195.230469 L 215.691406 194.753906 L 215.589844 194.757812 C 215.6875 195.230469 215.25 195.265625 214.996094 195.578125 C 214.183594 195.015625 213.261719 195.492188 212.402344 195.117188 C 212.136719 194.945312 211.6875 195.230469 211.386719 194.921875 C 208.425781 194.824219 205.246094 193.589844 202.289062 194.242188 C 199.179688 193.328125 198.59375 194.605469 195.738281 194.957031 L 196.023438 195.464844 C 195.632812 195.292969 195.65625 195.273438 195.332031 195.472656 C 195.257812 195.324219 195.203125 195.210938 195.125 195.054688 C 194.636719 195.320312 194.511719 195.859375 193.828125 195.78125 C 193.046875 195.890625 192.253906 195.90625 191.511719 196.105469 C 189.011719 196.320312 186.246094 196.460938 183.859375 196.785156 C 183.304688 196.296875 181.632812 197 180.640625 196.785156 C 180.5625 196.519531 179.023438 196.515625 178.945312 196.785156 C 176.75 196.261719 174.265625 196.667969 172.132812 196.261719 C 170.359375 196.652344 167.976562 195.839844 166.101562 196.46875 L 165.742188 196.109375 C 165.203125 196.34375 164.59375 196.1875 164.054688 196.128906 C 163.597656 196.269531 163.179688 196.34375 162.714844 196.152344 C 161.738281 196.800781 160.691406 196.230469 159.851562 195.964844 C 159.8125 196.050781 159.757812 196.167969 159.710938 196.265625 C 158.652344 195.761719 157.894531 196.574219 156.820312 196.113281 C 156.570312 196.34375 156.167969 196.054688 155.898438 196.027344 C 155.679688 195.953125 155.414062 196.242188 155.230469 195.9375 C 154.996094 196.167969 154.761719 195.90625 154.523438 195.9375 C 154.265625 195.964844 154.007812 195.988281 153.71875 196.015625 C 153.1875 194.273438 153.390625 192.511719 153.019531 190.695312 C 153.019531 190.371094 153.300781 190.058594 152.832031 189.734375 C 152.960938 189.25 152.679688 188.410156 152.9375 187.9375 C 153.070312 187.769531 153.019531 187.730469 152.820312 187.335938 C 153.371094 186.574219 152.457031 186.304688 153.003906 185.632812 C 152.949219 185.300781 152.527344 184.914062 152.84375 184.652344 C 152.417969 183.921875 152.867188 183.59375 152.726562 182.953125 C 153.101562 182.613281 152.53125 182.382812 152.8125 182.121094 C 152.519531 181.871094 152.738281 181.550781 152.652344 181.28125 L 152.984375 181.152344 C 152.808594 180.558594 152.875 180.195312 153.242188 179.699219 L 153.617188 179.921875 C 153.683594 179.53125 153.636719 179.359375 154.050781 179.273438 L 153.882812 178.914062 C 156.390625 178.792969 159.046875 179.335938 161.648438 179.175781 L 161.398438 178.667969 L 161.21875 178.832031 C 160.960938 178.339844 160.332031 178.464844 160.230469 177.984375 L 160.035156 178.160156 C 159.226562 177.324219 157.738281 177.179688 157.164062 176.132812 L 156.984375 176.296875 C 156.847656 176.128906 156.703125 175.960938 156.5625 175.789062 C 157.007812 175.6875 156.550781 175.355469 156.34375 175.21875 C 156.285156 175.332031 156.253906 175.390625 156.226562 175.453125 Z M 144.695312 155.984375 L 144.695312 155.492188 C 144.210938 155.453125 144.21875 155.496094 144.046875 155.96875 C 143.714844 155.40625 143.503906 155.179688 142.988281 154.902344 L 143.183594 154.679688 C 142.890625 154.496094 142.59375 154.417969 142.636719 153.992188 C 142.398438 153.9375 142.0625 153.972656 142.007812 153.699219 C 141.257812 152.664062 140.289062 151.800781 139.53125 150.734375 C 139.019531 151.570312 139.707031 151.761719 139.273438 152.171875 C 139.632812 152.597656 139.585938 153.253906 139.910156 153.734375 C 139.625 153.96875 140.167969 154.148438 139.949219 154.375 C 141.070312 156.601562 142.03125 158.90625 143.789062 160.734375 C 145.175781 162.644531 146.613281 164.195312 148.203125 165.996094 C 148.613281 166.625 149.429688 166.933594 149.816406 167.515625 C 150.015625 167.828125 150.527344 167.835938 150.488281 168.273438 C 150.722656 168.390625 151.050781 168.449219 151.113281 168.613281 C 152 169.691406 153.59375 170.382812 154.417969 171.386719 C 156.03125 172.285156 157.589844 173.695312 159.210938 174.765625 C 161.484375 175.898438 163.695312 177.839844 165.945312 178.535156 C 168.066406 179.996094 170.492188 181.15625 172.636719 182.078125 C 172.976562 182.699219 173.941406 182.90625 174.5 183.359375 L 174.625 183.234375 C 174.839844 183.933594 176.304688 183.890625 176.835938 184.589844 C 177.824219 184.859375 178.699219 185.34375 179.636719 185.835938 C 178.027344 186.929688 176.152344 187.773438 175.140625 189.371094 C 175.941406 188.9375 176.710938 189.378906 177.382812 189.042969 L 177.53125 189.191406 C 178.207031 188.519531 179.042969 188.15625 179.839844 187.640625 C 180.304688 187.457031 180.519531 186.835938 181.074219 186.941406 C 181.222656 186.726562 181.328125 186.324219 181.539062 186.589844 C 182.160156 186.273438 182.394531 186.289062 182.78125 185.632812 C 182.824219 185.675781 182.863281 185.714844 182.90625 185.753906 C 183.175781 185.230469 183.851562 185.277344 184.191406 184.855469 C 180.140625 182.550781 175.222656 181.191406 171.570312 178.351562 C 170.914062 178.652344 170.015625 177.574219 169.351562 177.339844 C 169.058594 177.304688 169.136719 176.832031 168.738281 176.949219 C 168.320312 176.972656 167.953125 176.152344 167.460938 176.296875 C 165.867188 175.0625 163.804688 173.941406 162.03125 172.761719 C 160.902344 171.976562 159.367188 171.402344 158.539062 170.382812 C 157.8125 170.378906 155.6875 168.316406 155.519531 167.59375 C 155.179688 167.449219 154.941406 167.34375 154.703125 167.242188 C 154.683594 166.734375 153.945312 166.820312 153.929688 166.308594 C 153.507812 166.226562 153.25 165.875 153.074219 165.570312 C 152.882812 165.25 152.417969 165.210938 152.375 164.773438 C 152.367188 164.679688 152.121094 164.613281 152.128906 164.617188 L 152.53125 164.210938 L 152.667969 164.285156 L 152.640625 163.988281 C 152.300781 163.953125 152.019531 163.808594 151.792969 163.550781 C 151.363281 163.796875 151.246094 163.765625 150.894531 163.511719 L 151.605469 163.105469 C 150.703125 163.019531 150.75 162.109375 150.125 161.828125 L 150.3125 161.621094 C 149.871094 161.628906 149.734375 161.355469 149.566406 161.070312 L 149.019531 161.367188 L 148.761719 161.15625 L 148.929688 160.960938 C 148.53125 160.859375 148.355469 160.535156 148.035156 160.253906 L 148.792969 160.171875 L 148.625 159.972656 L 148.839844 159.566406 C 148.25 159.988281 148.089844 159.695312 147.546875 159.640625 C 147.769531 159.546875 147.929688 159.394531 148.023438 159.175781 L 147.632812 159.175781 C 147.511719 158.667969 147.269531 158.507812 147.671875 158.097656 C 147.289062 158.203125 147.183594 158.433594 146.992188 158.191406 L 146.640625 158.515625 L 146.398438 158.277344 L 146.574219 158.042969 C 146.046875 158.058594 146.171875 157.898438 145.824219 157.648438 C 145.371094 157.472656 145.066406 157.152344 144.910156 156.691406 L 145.355469 156.609375 C 145.125 156.386719 144.921875 156.195312 144.695312 155.984375 Z M 194.203125 153.441406 C 194.4375 153.542969 194.429688 151.816406 194.277344 151.757812 C 194.222656 151.867188 194.171875 151.972656 194.117188 152.078125 C 194.171875 151.351562 193.683594 150.519531 194.582031 149.902344 L 194.140625 149.613281 L 194.347656 149.296875 C 193.867188 148.816406 194.652344 148.238281 194.304688 147.707031 C 193.90625 147.25 194.804688 146.347656 194.027344 146.289062 C 194.042969 146.066406 194.058594 145.867188 194.074219 145.664062 L 194.15625 145.664062 L 194.261719 146.152344 L 194.34375 146.140625 L 194.34375 145.007812 L 193.855469 145.195312 C 193.878906 145.003906 193.890625 144.90625 193.90625 144.785156 C 194.769531 144.941406 194.234375 144.035156 194.058594 143.667969 L 194.464844 143.53125 L 194.019531 143.214844 C 194.335938 142.96875 194.46875 142.695312 194.363281 142.300781 C 194.296875 142.085938 194.621094 141.925781 194.429688 141.742188 C 194.175781 141.492188 194.605469 141.425781 194.542969 141.238281 C 194.234375 140.847656 194.445312 140.382812 194.367188 140.03125 C 192.929688 138.867188 192.101562 139.578125 190.738281 137.691406 L 190.585938 137.832031 C 189.589844 137.113281 188.273438 136.171875 188.230469 134.851562 L 187.785156 135.03125 C 187.746094 134.679688 187.957031 134.195312 187.4375 134.097656 L 187.65625 133.703125 C 186.714844 133.210938 186.800781 132.308594 186.246094 131.695312 L 186.425781 131.457031 C 186.148438 131.089844 185.589844 130.714844 185.707031 130.273438 C 185.394531 129.839844 185.121094 129.726562 185.429688 129.351562 C 184.730469 128.976562 184.960938 127.925781 184.402344 127.65625 L 184.402344 127.230469 L 184.867188 127.160156 C 184.511719 126.363281 183.386719 126.46875 183.941406 125.390625 C 184.203125 125.09375 183.777344 124.855469 183.992188 124.609375 C 184.199219 124.375 183.816406 124.132812 184.003906 123.820312 C 184.160156 123.328125 183.96875 122.558594 184.03125 122.023438 C 182.953125 121.949219 182.140625 121.347656 181.078125 121.441406 C 180.53125 121.53125 180.339844 121.121094 179.675781 121.335938 C 180.652344 122.382812 181.25 123.535156 181.816406 124.808594 C 182.1875 125.316406 181.800781 126.023438 182.109375 126.542969 C 182.988281 130.101562 183.070312 134.265625 182.640625 137.738281 C 183.1875 138.0625 182.339844 138.363281 182.804688 138.757812 C 182.367188 139.398438 182.996094 139.917969 182.765625 140.4375 C 182.648438 140.773438 182.890625 141.277344 183.035156 141.660156 C 182.652344 141.851562 182.988281 142.140625 182.945312 142.378906 C 182.910156 142.589844 182.84375 142.746094 182.933594 142.96875 C 182.730469 143.808594 183.207031 143.28125 182.875 144.109375 C 183.136719 144.925781 183.09375 145.726562 182.746094 146.511719 C 182.78125 146.746094 182.898438 146.992188 182.820312 147.082031 C 182.464844 147.875 182.75 148.835938 182.472656 149.660156 C 182.382812 150.003906 182.472656 150.402344 182.285156 150.671875 C 181.554688 152.015625 181.929688 153.871094 181.316406 155.136719 C 181.304688 154.882812 181.105469 154.992188 180.980469 154.964844 C 181.074219 154.398438 180.53125 154.441406 180.144531 154.570312 L 180.144531 154.324219 L 180.636719 154.253906 C 180.628906 154.144531 180.621094 154.070312 180.613281 153.976562 C 180.398438 153.964844 180.191406 153.914062 179.996094 153.820312 L 180.695312 153.246094 L 180.085938 152.636719 C 180.492188 151.296875 180.515625 149.753906 180.835938 148.386719 L 181.191406 148.316406 L 180.75 148.070312 C 181.195312 147.6875 180.757812 147.039062 181.011719 146.613281 C 181.320312 146.097656 180.902344 145.503906 181.304688 145.046875 C 180.835938 144.707031 181.453125 144.132812 181.148438 143.816406 C 181.386719 143.609375 181.117188 143.398438 181.152344 143.195312 C 181.515625 142.621094 180.859375 142.070312 181.484375 141.652344 C 180.644531 140.769531 181.605469 139.277344 180.886719 138.195312 C 180.632812 137.691406 181.214844 137.300781 180.808594 136.84375 C 181.09375 136.609375 180.671875 136.335938 180.820312 136.144531 C 181.046875 135.851562 180.6875 135.613281 180.804688 135.34375 C 181.070312 134.492188 180.675781 133.609375 180.808594 132.6875 L 181.160156 132.546875 L 181.082031 132.246094 L 180.664062 132.414062 C 180.554688 131.292969 180.816406 130.203125 180.445312 129.144531 C 180.800781 129.113281 180.816406 128.808594 180.980469 128.570312 C 180.230469 128.667969 180.203125 128.039062 179.980469 127.609375 C 180.328125 123.558594 173.703125 117.617188 169.4375 118.097656 C 173.148438 121.882812 172.820312 123.945312 172.820312 128.726562 C 173.855469 134.652344 173.285156 140.671875 172.324219 146.421875 C 171.96875 146.574219 172.429688 146.773438 172.273438 147.027344 C 171.355469 148.792969 171.960938 150.984375 171.527344 152.835938 C 171.980469 153.46875 171.292969 154.285156 171.988281 154.679688 C 171.945312 155.632812 172.75 156.148438 172.957031 157.03125 C 173.433594 158.0625 173.972656 159.433594 174.945312 160.171875 C 177.507812 162.035156 179.898438 164.007812 183.179688 163.9375 C 183.308594 164.328125 183.722656 164.242188 183.972656 164.316406 C 185.121094 164.703125 186.152344 164.796875 187.261719 165.453125 C 188.046875 165.203125 189.113281 166.464844 189.804688 165.703125 C 188.957031 165.019531 188.027344 164.371094 187.382812 163.566406 L 187.632812 163.296875 C 186.464844 163.292969 186.386719 161.84375 185.679688 161.222656 L 185.875 160.988281 C 184.703125 160.445312 185.132812 159.039062 185.039062 157.996094 C 185.011719 156.222656 184.855469 154.65625 185.375 153.007812 C 184.9375 151.765625 185.796875 150.453125 185.558594 149.152344 C 185.492188 148.679688 185.644531 148.289062 186.015625 147.984375 C 186.058594 147.863281 185.859375 147.839844 185.792969 147.828125 C 185.9375 146.765625 186.59375 145.867188 186.191406 144.875 L 186.492188 145.148438 L 186.722656 144.90625 C 186.644531 144.769531 186.5625 144.628906 186.476562 144.480469 C 186.398438 144.542969 186.371094 144.648438 186.28125 144.601562 C 186.070312 144.433594 186.488281 144.285156 186.285156 144.050781 C 186.46875 143.242188 185.839844 142.59375 186.464844 141.914062 L 186.667969 142.097656 C 187.136719 141.164062 186.648438 141.835938 186.375 141.675781 C 186.3125 141.617188 186.085938 141.730469 185.929688 141.769531 C 185.914062 141.644531 185.902344 141.59375 185.886719 141.464844 L 186.828125 141.195312 L 186.691406 141.4375 L 187.316406 141.664062 C 187.191406 142 186.980469 142.261719 186.683594 142.457031 L 186.996094 142.816406 L 187.167969 142.414062 C 187.824219 143.480469 186.835938 144.972656 187.925781 145.558594 L 187.867188 145.671875 L 187.472656 145.519531 C 187.28125 145.859375 187.5625 146.042969 187.78125 146.265625 L 187.449219 146.386719 L 187.566406 146.617188 L 187.246094 146.734375 L 187.421875 146.925781 C 187.210938 147.054688 187.171875 147.753906 187.230469 147.992188 C 187.191406 148.4375 186.972656 148.632812 187.265625 149.152344 L 186.980469 149.25 C 187.039062 149.535156 187.09375 149.789062 187.148438 150.054688 L 187.445312 150.023438 L 187.445312 148.007812 L 187.785156 148.066406 C 187.402344 148.539062 188.066406 149.078125 187.59375 149.46875 C 187.824219 149.589844 187.648438 149.699219 187.605469 149.839844 C 187.554688 149.988281 187.59375 150.167969 187.59375 150.519531 L 187.164062 150.648438 L 187.566406 150.789062 L 187.566406 151.785156 L 187.085938 151.601562 C 187.046875 152.015625 187.253906 152.421875 187.089844 152.816406 C 187.078125 152.835938 187.144531 152.890625 187.175781 152.929688 C 187.308594 152.839844 187.21875 152.390625 187.589844 152.675781 C 187.046875 154.925781 187.324219 157.582031 187.253906 159.945312 C 187.46875 160.277344 187.605469 160.6875 187.886719 160.867188 C 188.261719 161.105469 188.179688 161.613281 188.574219 161.789062 C 188.574219 162.113281 189.039062 162.09375 189.042969 162.417969 C 190.414062 163.472656 191.769531 164.628906 193.105469 165.808594 C 193.328125 165.449219 193.078125 165.167969 193.003906 164.917969 L 193.179688 164.667969 C 192.871094 164.105469 193.175781 163.675781 193.304688 163.128906 L 193.0625 163.046875 C 193.253906 162.683594 193.785156 162.632812 193.898438 162.042969 L 193.382812 162.191406 L 193.382812 161.613281 L 193.710938 161.503906 C 193.691406 161.40625 193.675781 161.332031 193.652344 161.203125 L 193.179688 161.386719 C 193.164062 160.984375 193.222656 160.890625 193.570312 160.808594 L 193.140625 160.628906 L 193.519531 160.496094 C 193.460938 160.394531 193.410156 160.304688 193.355469 160.214844 L 194.039062 160.328125 L 193.996094 159.792969 L 193.355469 160.046875 C 193.113281 159.777344 193.324219 159.628906 193.46875 159.34375 L 193.65625 159.898438 C 193.679688 159.558594 193.691406 159.40625 193.703125 159.238281 C 193.070312 159.140625 193.03125 157.949219 193.609375 157.621094 L 193.945312 158.488281 C 194.265625 158.191406 193.835938 157.921875 194 157.601562 C 194.171875 157.277344 193.800781 157.003906 193.730469 156.679688 C 193.703125 156.949219 193.675781 157.21875 193.652344 157.488281 L 193.554688 157.476562 L 193.554688 156.289062 C 194.132812 156.519531 194.175781 156.289062 194.589844 155.972656 L 193.863281 155.972656 C 193.875 155.835938 193.882812 155.761719 193.890625 155.679688 L 194.292969 155.613281 C 194.3125 154.738281 193.25 154.113281 194.703125 154.09375 L 194.464844 153.640625 L 194.207031 153.789062 Z M 236.96875 170.878906 L 236.789062 170.648438 L 237.171875 170.296875 L 236.480469 170.082031 C 236.277344 170.460938 236.28125 170.460938 235.527344 170.707031 C 235.5 170.714844 235.453125 170.648438 235.417969 170.621094 L 235.539062 170.480469 L 234.871094 169.9375 C 235.304688 169.722656 235.304688 169.722656 235.570312 169.21875 C 234.292969 170.210938 233.679688 168.191406 233.226562 167.371094 L 233.390625 167.226562 C 232.75 166.902344 233.164062 166.113281 232.71875 165.730469 C 232.894531 165.433594 232.644531 165.070312 232.863281 164.792969 C 232.28125 163.941406 233.203125 163.335938 232.78125 162.5625 C 232.710938 162.703125 232.660156 162.808594 232.597656 162.929688 C 232.308594 161.769531 232.929688 160.8125 233.046875 159.757812 C 233.089844 159.398438 232.785156 159.058594 233.03125 158.710938 C 232.527344 154.199219 233.277344 149.527344 232.007812 145.140625 C 231.542969 144.96875 231.671875 144.554688 231.660156 144.207031 C 231.203125 143.683594 231.109375 143.253906 231.328125 142.785156 C 230.953125 142.246094 230.914062 141.316406 230.289062 141.011719 L 230.289062 140.609375 L 230.015625 140.539062 C 229.691406 139.515625 228.929688 138.65625 228.292969 137.746094 L 228.640625 137.628906 C 228.617188 137.53125 228.601562 137.453125 228.574219 137.328125 L 228.027344 137.5625 C 227.851562 137.222656 227.683594 136.902344 227.492188 136.539062 C 227.039062 136.527344 227.132812 135.917969 226.796875 135.785156 L 226.96875 135.34375 C 226.316406 135.429688 226.183594 134.929688 225.753906 134.488281 C 225.289062 134.589844 225.222656 134.191406 225.191406 133.777344 L 224.957031 133.972656 C 224.898438 133.617188 224.683594 133.628906 224.363281 133.582031 C 224.445312 133.488281 224.496094 133.429688 224.570312 133.347656 C 223.621094 133.25 223.175781 132.136719 222.484375 131.570312 C 221.617188 131.128906 220.605469 130.691406 220.242188 129.738281 L 220.03125 129.925781 C 219.753906 129.113281 218.644531 129.351562 218.359375 128.566406 L 218.1875 128.71875 C 218.078125 128.609375 217.976562 128.507812 217.878906 128.410156 C 216.394531 128.601562 214.050781 126.078125 213.046875 128.152344 L 213.15625 128.28125 C 212.890625 128.703125 212.632812 129.105469 212.375 129.515625 C 212.730469 129.875 213.246094 130.191406 213.457031 130.648438 C 214.015625 131.292969 215.210938 131.886719 214.179688 132.78125 L 214.359375 133.0625 C 213.257812 133.921875 212.328125 132.359375 211.4375 131.894531 C 211.339844 132.089844 211.265625 132.242188 211.1875 132.394531 C 211.339844 133.820312 211.394531 135.550781 211.652344 137.070312 C 211.339844 137.777344 211.550781 138.582031 211.210938 139.34375 C 211.589844 140.253906 210.605469 141.367188 210.816406 142.378906 L 210.488281 142.496094 C 210.925781 143.007812 210.152344 143.304688 210.441406 143.878906 C 210.378906 144.261719 209.878906 144.742188 210.136719 145.070312 C 209.6875 146.429688 208.871094 147.933594 208.558594 149.238281 L 207.832031 150.878906 L 207.949219 151.003906 L 207.582031 151.128906 C 207.507812 152.8125 206.515625 152.730469 206.511719 153.722656 L 205.746094 154.726562 L 205.902344 154.878906 C 205.449219 155.378906 205.335938 156.097656 205.097656 156.710938 C 204.441406 158.054688 203.222656 159.117188 202.230469 160.109375 C 202.773438 161.273438 202.410156 163.023438 203.367188 163.839844 C 203.160156 165.21875 205.242188 164.996094 205.652344 163.960938 C 206.324219 163.070312 207.441406 161.886719 208.59375 161.925781 C 208.652344 163.273438 207.25 163.84375 207.089844 165.019531 C 206.433594 165.796875 206.195312 166.839844 205.578125 167.578125 C 206.027344 168.292969 207.746094 171.082031 208.585938 169.917969 C 208.292969 169.691406 208.835938 169.507812 208.617188 169.285156 C 209.359375 166.550781 210.234375 163.636719 211.539062 161.09375 C 212.578125 159.367188 213.644531 157.4375 215.140625 155.988281 C 215.636719 155.378906 215.5625 154.832031 216.484375 154.722656 C 216.003906 154.460938 215.886719 154.058594 215.777344 153.613281 C 216.171875 153.605469 216.546875 153.707031 216.757812 153.347656 C 216.464844 153.234375 216.089844 153.289062 215.921875 153.003906 C 216.367188 152.726562 216.269531 152.269531 216.269531 151.792969 L 216.617188 151.675781 C 216.289062 151.53125 216.175781 151.339844 215.894531 151.621094 C 215.914062 151.3125 215.929688 151.105469 215.957031 150.707031 C 216.234375 151.144531 216.183594 151.152344 216.617188 151.253906 C 216.417969 150.761719 216.515625 150.316406 215.929688 150.367188 C 215.660156 149.386719 216.761719 148.804688 217.40625 149.4375 C 217.433594 149.820312 217.359375 150.230469 217.511719 150.523438 C 217.671875 151.273438 217.292969 151.84375 217.433594 152.617188 C 216.511719 152.390625 216.191406 153.484375 217.242188 152.890625 C 217.324219 153.496094 216.921875 153.757812 216.628906 154.046875 C 216.828125 154.335938 216.707031 154.875 217.3125 154.832031 C 215.28125 158.269531 213.488281 161.992188 212.726562 165.773438 C 213.960938 164.089844 215.242188 162.191406 217.203125 161.386719 C 217.273438 161.058594 217.574219 160.679688 217.855469 161.050781 L 218.179688 160.554688 L 218.390625 160.714844 C 218.535156 160.222656 219.207031 160.269531 219.535156 160.050781 C 219.640625 160.074219 219.65625 160.277344 219.789062 160.152344 C 219.808594 160.0625 219.824219 159.984375 219.84375 159.875 C 219.996094 159.875 220.171875 159.933594 220.261719 159.867188 C 220.710938 159.542969 221.269531 159.828125 221.75 159.566406 C 221.957031 159.453125 222.308594 159.507812 222.617188 159.671875 C 223.011719 159.992188 223.703125 159.382812 224.125 159.558594 C 224.460938 159.851562 224.824219 159.625 225.324219 159.773438 C 225.355469 159.664062 225.410156 159.503906 225.453125 159.363281 L 225.792969 159.609375 C 225.394531 158.199219 226.296875 157.105469 225.570312 155.789062 C 226.140625 155.097656 224.96875 154.277344 225.597656 153.5625 C 225.140625 153.230469 225.289062 152.863281 225.269531 152.40625 C 225.347656 152.464844 225.417969 152.527344 225.488281 152.597656 C 225.316406 151.859375 225.140625 149.695312 224.554688 149.316406 C 223.566406 145.761719 220.230469 142.777344 218.789062 139.625 C 217.703125 138.421875 216.734375 136.679688 215.75 135.230469 L 215.984375 135 L 216.160156 135.152344 L 216.328125 135 C 219.003906 137.203125 220.179688 140.605469 222.347656 143.234375 C 224.234375 146.238281 226.707031 149.117188 227.0625 152.707031 L 226.738281 152.863281 C 226.8125 153.328125 227.15625 153.199219 227.472656 153.386719 C 227.054688 153.84375 227.5 154.144531 227.777344 154.617188 C 227.753906 155.214844 227.3125 156.035156 227.9375 156.398438 L 227.785156 156.574219 L 227.925781 156.734375 C 227.410156 157.882812 228.464844 158.492188 227.566406 159.601562 C 227.792969 159.890625 227.828125 160.203125 227.667969 160.535156 L 227.945312 160.601562 C 227.894531 160.671875 227.851562 160.722656 227.78125 160.820312 C 228.066406 160.96875 228.089844 161.378906 228.449219 161.480469 C 228.222656 161.730469 228.359375 162.667969 228.707031 162.769531 C 230.3125 165.65625 231.625 169.253906 232.046875 172.289062 C 232.289062 172.777344 232.140625 173.277344 232.328125 173.796875 C 232.460938 174.222656 232.707031 174.71875 232.5 175.144531 C 232.324219 175.507812 232.371094 175.839844 232.359375 176.1875 C 232.324219 178.472656 232.722656 181.011719 232.527344 183.160156 C 233.441406 184.550781 234 186.585938 234.230469 188.082031 C 235.242188 189.144531 236.660156 189.445312 237.902344 190.132812 L 238.027344 190.019531 C 238.648438 190.425781 239.4375 190.382812 240.117188 190.183594 C 240.554688 189.148438 241.855469 188.675781 242.070312 187.480469 C 244.460938 183.371094 242.625 177.773438 241.753906 173.863281 C 240.699219 173.226562 240.828125 171.523438 239.925781 170.699219 L 240.183594 170.414062 C 239.746094 170.433594 239.59375 170.085938 239.523438 169.804688 C 239.332031 169.023438 238.558594 168.597656 238.363281 167.828125 C 238.34375 167.769531 238.304688 167.730469 238.246094 167.710938 C 237.878906 167.648438 237.890625 167.3125 237.75 167.105469 L 237.910156 166.929688 C 237.136719 165.8125 236.449219 164.644531 235.847656 163.429688 L 235.710938 163.488281 C 235.707031 163.921875 236.039062 164.410156 235.695312 164.839844 L 236.117188 165.046875 C 236.050781 165.269531 235.980469 165.492188 235.910156 165.722656 L 236.265625 165.894531 C 236.203125 167.511719 237.703125 169.171875 237.355469 170.878906 Z M 191.285156 130.617188 C 190.398438 129.265625 189.546875 128.167969 187.890625 128.011719 C 188.675781 130.164062 189.542969 132.191406 190.816406 134.054688 L 190.675781 134.195312 C 192.15625 136.492188 195.496094 138.566406 198.257812 137.96875 C 198.519531 137.617188 198.9375 137.570312 199.308594 137.433594 C 199.582031 137.332031 199.835938 136.988281 200.171875 137.3125 C 200.46875 137.164062 200.855469 137.066406 201.070312 137.238281 C 201.328125 137.441406 201.417969 137.058594 201.546875 137.195312 C 202.390625 137.644531 204.421875 137.382812 204.355469 138.734375 L 203.574219 138.734375 C 203.53125 138.863281 203.496094 138.960938 203.460938 139.0625 L 203.335938 138.953125 L 202.203125 139.304688 C 202.484375 139.742188 202.296875 140.222656 202.328125 140.679688 C 201.730469 142.671875 202.839844 144.535156 203.476562 146.386719 C 203.570312 145.945312 204.144531 145.421875 203.878906 145.0625 L 204.378906 144.421875 C 204.375 144.433594 204.402344 144.277344 204.425781 144.160156 L 205.027344 144.078125 L 205.015625 143.949219 L 204.273438 143.949219 C 204.59375 143.527344 204.578125 143.023438 205.054688 142.839844 C 205.179688 142.507812 204.605469 142.199219 205.035156 141.867188 C 205.058594 141.054688 204.964844 139.976562 205.59375 139.460938 C 205.394531 138.84375 205.59375 138.371094 205.703125 137.757812 C 205.863281 137.480469 205.632812 136.894531 205.914062 136.648438 C 205.554688 135.835938 206.394531 135.441406 205.667969 134.394531 C 205.125 134.453125 204.589844 134.550781 204.058594 134.683594 C 204.46875 134.316406 204.738281 134.078125 205.003906 133.839844 L 204.902344 133.738281 C 205.710938 132.601562 206 131.15625 206.105469 129.792969 C 206.425781 129.710938 205.933594 129.507812 206.171875 129.355469 C 206.253906 129.085938 206.296875 128.519531 206.398438 128.199219 C 206.375 127.886719 206.171875 127.714844 206.261719 127.355469 C 206.601562 127.347656 206.898438 127.050781 207.117188 126.882812 C 208.019531 126.644531 208.515625 124.964844 209.644531 125.660156 C 209.496094 125.953125 209.40625 126.128906 209.320312 126.296875 L 209.480469 126.460938 C 208.773438 127.007812 208.96875 128.113281 208.765625 128.863281 C 209.449219 129.332031 209.75 129.117188 210.320312 128.574219 C 210.402344 127.96875 211.117188 127.710938 211.320312 127.011719 C 211.230469 126.515625 211.597656 125.917969 211.339844 125.308594 C 211.304688 125.21875 211.429688 125.070312 211.46875 124.945312 C 211.734375 124.125 211.046875 124.125 210.898438 123.613281 C 210.300781 122.261719 209.046875 122.703125 207.960938 123.191406 C 207.941406 123.46875 207.898438 123.734375 207.824219 124 C 207.691406 124.347656 208.171875 124.640625 207.875 124.980469 L 207.535156 124.789062 C 207.175781 125.523438 206.601562 125.332031 205.949219 124.957031 C 206.097656 125.222656 206.160156 125.332031 206.222656 125.441406 C 205.21875 126.136719 203.882812 125.125 202.859375 125.339844 C 201.699219 124.667969 200.121094 124.386719 199.382812 123.449219 C 198.542969 123.605469 196.867188 120.527344 197.113281 119.890625 L 197.589844 119.890625 L 197.394531 119.542969 C 197.78125 119.265625 197.6875 119.007812 197.585938 118.699219 C 198.039062 118.578125 198.507812 118.023438 198.890625 118.222656 L 199.015625 117.886719 L 199.214844 118.0625 C 199.273438 117.738281 199.464844 117.542969 199.789062 117.480469 C 199.929688 116.8125 200.5625 117.257812 200.726562 116.34375 L 200.894531 116.703125 C 200.980469 116.503906 201.15625 116.300781 201.128906 116.125 C 201.074219 115.785156 201.546875 115.957031 201.492188 115.691406 C 201.4375 115.222656 202.101562 115.027344 202.132812 114.609375 C 202.144531 114.34375 202.417969 114.378906 202.515625 114.242188 L 202.363281 114.101562 C 202.675781 113.660156 202.679688 113.308594 202.558594 112.855469 C 203.125 112.410156 202.480469 111.601562 202.441406 110.957031 C 201.578125 110.675781 200.632812 110.691406 199.832031 110.085938 C 198.675781 110.144531 197.386719 110.195312 196.246094 110.027344 L 196.421875 109.828125 C 196.09375 109.707031 195.804688 109.472656 195.371094 109.671875 L 196.125 110.320312 C 194.8125 109.933594 195.339844 110.546875 194.71875 110.382812 L 195.097656 109.933594 C 194.429688 109.882812 194.402344 110.648438 193.738281 110.628906 C 193.699219 110.476562 193.679688 110.398438 193.652344 110.296875 L 193.222656 110.296875 C 193.152344 110.878906 192.632812 110.859375 192.191406 111 C 190.449219 112.734375 187.957031 114.039062 187.535156 116.6875 L 187.28125 116.742188 C 187.089844 117.640625 186.785156 118.511719 186.738281 119.402344 C 186.65625 120.105469 186.285156 120.679688 186.417969 121.375 C 186.554688 121.890625 186.253906 122.609375 186.582031 123.054688 C 186.722656 123.242188 186.230469 123.339844 186.53125 123.539062 C 186.550781 123.554688 186.378906 123.816406 186.417969 123.855469 C 186.867188 124.746094 186.136719 124.464844 187.101562 125.617188 C 188.347656 125.808594 189.425781 126.207031 190.671875 126.1875 C 190.847656 125.9375 191.03125 126.195312 191.207031 126.183594 C 191.855469 126.132812 192.296875 126.386719 192.453125 126.84375 C 192.601562 128.289062 192.890625 129.269531 192.429688 130.628906 C 192.046875 130.4375 191.667969 130.433594 191.285156 130.617188 Z M 215.484375 178.855469 C 217.933594 175.863281 220.128906 172.605469 222.492188 169.585938 L 222.375 169.464844 C 223.394531 168.660156 223.324219 167.355469 224.523438 166.980469 C 226.136719 163.1875 224.148438 159.9375 219.988281 162.339844 L 220.136719 162.511719 C 217.207031 164.316406 215.222656 166.859375 213.957031 170.011719 C 212.980469 171.777344 212.644531 173.933594 210.988281 175.207031 C 211.0625 176.230469 209.773438 175.777344 209.226562 175.992188 C 208.460938 176.371094 207.816406 175.75 207.132812 176.132812 C 205.375 175.921875 202.476562 179.585938 205.484375 179.515625 C 208.4375 181.753906 205.597656 182.164062 206.105469 184.886719 C 207.414062 185.453125 208.015625 184.644531 209.335938 184.96875 C 209.820312 185.035156 210.25 185.203125 210.734375 184.953125 C 211.046875 184.875 211.566406 185.007812 211.800781 184.691406 C 211.949219 184.488281 212.058594 184.839844 212.261719 184.648438 C 212.613281 184.402344 214.300781 184.449219 213.714844 183.664062 C 214.707031 182.210938 215.300781 180.609375 215.484375 178.855469 Z M 157.582031 121.871094 C 158.1875 122.527344 158 123.664062 158.617188 124.347656 C 159.65625 125.566406 160.125 127.421875 161.46875 128.316406 C 162.40625 129.742188 164.464844 130.660156 166.0625 131.335938 C 167.589844 131.976562 169.019531 132.808594 170.589844 133.417969 C 170.664062 132.996094 171.171875 132.011719 170.5 131.910156 C 170.960938 131.050781 170.15625 130.230469 170.570312 129.375 C 170.792969 128.867188 170.296875 128.382812 170.148438 127.917969 C 170.207031 126.886719 169.273438 121.59375 168.023438 121.785156 C 166.710938 120.886719 165.242188 119.96875 164.148438 118.769531 L 164.347656 118.457031 C 163.148438 118.460938 164.003906 116.917969 163.023438 116.613281 C 163.28125 116.40625 162.917969 116.136719 162.859375 115.914062 C 163.207031 115.691406 162.863281 115.53125 162.832031 115.347656 C 162.59375 114.324219 162.207031 113.105469 162.273438 112.167969 C 162.089844 112.007812 162.175781 111.808594 162.160156 111.621094 C 162.273438 111.007812 161.707031 110.386719 162.132812 109.824219 C 161.667969 108.535156 162.089844 107.207031 162.492188 105.949219 C 161.257812 105.542969 160.085938 106.871094 158.789062 106.941406 C 158.496094 107.023438 158.164062 106.976562 157.96875 107.269531 C 157.164062 110.082031 157 113.03125 156.554688 115.90625 C 156.953125 116.972656 156.558594 118.105469 157.074219 119.125 C 157.089844 119.835938 157.238281 121.289062 157.761719 121.691406 Z M 202.070312 157.886719 C 205.914062 153.960938 207.03125 148.074219 209.277344 143.421875 L 208.984375 142.84375 C 209.601562 141.988281 209.179688 140.875 209.765625 139.964844 C 209.25 138.855469 210.195312 137.644531 209.609375 136.585938 L 209.980469 136.449219 L 209.648438 136.09375 L 209.753906 135.945312 C 209.636719 135.054688 209.535156 134.28125 209.429688 133.476562 C 208.773438 133.386719 208.308594 133.8125 207.726562 134.015625 C 208.03125 134.480469 207.386719 135.28125 207.589844 135.902344 C 207.601562 135.964844 207.496094 136.042969 207.464844 136.082031 C 207.777344 136.542969 207.339844 136.921875 206.84375 136.921875 L 207.246094 137.078125 C 207.242188 137.320312 207.359375 137.582031 207.101562 137.769531 C 207.355469 137.894531 207.015625 138.175781 207.226562 138.296875 C 206.578125 139.808594 206.554688 141.542969 206.054688 143.183594 C 205.824219 144.308594 205.550781 145.460938 204.929688 146.382812 C 204.949219 147.011719 204.433594 147.441406 204.304688 148.046875 C 204.246094 149.175781 203.914062 148.777344 203.710938 149.527344 C 203.539062 150.332031 202.9375 150.921875 202.8125 151.699219 C 202.265625 152.761719 201.980469 153.539062 202.160156 154.507812 C 201.867188 155.683594 201.949219 156.730469 202.070312 157.886719 Z M 197.003906 142.933594 C 197.144531 143.8125 196.421875 144.359375 196.554688 145.246094 C 196.304688 145.445312 196.457031 145.71875 196.40625 145.949219 C 196.367188 146.183594 196.308594 146.414062 196.234375 146.640625 C 196.152344 146.851562 196.414062 146.976562 196.316406 147.210938 C 196.078125 148.25 196.324219 149.507812 195.875 150.488281 C 195.539062 150.847656 195.804688 151.144531 195.863281 151.324219 C 195.695312 152.566406 195.589844 153.519531 195.457031 154.777344 L 195.605469 154.941406 C 195.394531 155.125 195.304688 155.351562 195.527344 155.59375 C 195.296875 155.871094 195.332031 156.140625 195.546875 156.410156 C 195.058594 156.753906 195.230469 157.074219 195.539062 157.46875 C 194.550781 158.183594 195.34375 159.703125 194.894531 160.652344 L 195.234375 160.992188 C 194.960938 162.851562 195.867188 164.476562 196.269531 166.089844 C 197.238281 166.644531 198.109375 168.429688 199.226562 167.679688 C 197.992188 164.214844 197.160156 160.261719 197.757812 156.742188 C 197.996094 156.542969 197.503906 156.375 197.710938 156.101562 C 197.917969 155.820312 197.613281 155.390625 197.894531 155.078125 C 197.679688 154.820312 197.867188 154.667969 197.910156 154.386719 C 197.910156 154.242188 197.730469 154.046875 197.78125 153.964844 C 197.96875 153.3125 198.085938 152.445312 197.964844 151.828125 C 198.445312 150.648438 197.59375 148.683594 198.621094 147.960938 C 197.941406 147.265625 198.46875 146.421875 198.15625 145.578125 C 197.785156 144.695312 198.640625 143.539062 198.148438 142.6875 L 198.496094 141.019531 C 197.792969 140.515625 197.054688 141.101562 197.253906 141.847656 C 197.253906 142.050781 197.03125 142.257812 197.257812 142.464844 Z M 158.46875 100.027344 C 159.03125 100.195312 160.472656 101.050781 160.648438 101.527344 C 161.308594 102.757812 162.527344 103.304688 163.695312 104.09375 C 163.46875 103.261719 163.015625 102.585938 162.328125 102.0625 C 162.925781 101.101562 162.941406 101.074219 164.097656 100.664062 C 165.453125 101.039062 165.527344 102.738281 166.398438 103.398438 C 166.328125 103.820312 166.703125 103.933594 166.902344 104.191406 C 167.152344 104.023438 167.410156 103.871094 167.664062 104.160156 C 167.9375 103.972656 168.402344 103.960938 168.453125 103.585938 L 168.109375 103.425781 L 168.328125 103.101562 C 167.453125 102.683594 167.503906 101.375 166.558594 100.8125 C 166.667969 100.449219 167.132812 100.484375 167.269531 100.265625 C 167.449219 100.011719 167.675781 99.8125 167.953125 99.664062 C 169.308594 100.53125 170.152344 101.75 170.75 103.238281 C 171.992188 101.996094 170.578125 99.925781 169.648438 98.820312 L 169.804688 98.636719 C 169.3125 98.644531 169.085938 98.3125 168.777344 98.003906 L 168.980469 97.78125 C 168.347656 97.851562 168.363281 97.394531 167.835938 97.214844 C 167.339844 97.058594 166.863281 96.667969 166.328125 96.585938 C 163.273438 96.226562 160.363281 97.632812 158.46875 100.027344 Z M 189.167969 186.660156 C 187.875 187.140625 186.667969 187.785156 185.546875 188.585938 C 189.640625 190.332031 193.765625 192.886719 198.0625 192.890625 L 198.023438 192.773438 C 198.898438 192.378906 199.714844 191.902344 200.816406 191.726562 C 201.042969 191.5625 201.867188 192.25 201.816406 191.589844 C 200.121094 191.210938 200.738281 190.679688 199.75 190.230469 C 196.140625 189.277344 192.613281 188.085938 189.167969 186.660156 Z M 198.585938 185.328125 C 198.402344 185.273438 198.113281 185.09375 197.988281 185.171875 C 197.46875 185.4375 196.757812 185.109375 196.289062 185.34375 C 195.9375 185.644531 195.738281 185.257812 195.460938 185.265625 C 194.589844 185.207031 193.640625 185.398438 192.855469 185.28125 C 192.804688 185.925781 193.375 185.703125 193.617188 185.917969 C 194.78125 186.464844 196.101562 186.863281 197.335938 187.230469 C 197.996094 186.757812 198.144531 185.953125 198.585938 185.332031 Z M 216.921875 151.101562 L 217.296875 151.027344 C 217.011719 150.636719 217.289062 150.261719 217.042969 149.953125 L 216.59375 150.339844 L 216.921875 150.457031 Z M 186.800781 165.546875 C 186.382812 165.46875 186.003906 165.128906 185.773438 165.5 L 185.964844 165.820312 Z M 180.273438 163.992188 C 179.953125 164.09375 179.621094 164.144531 179.28125 164.140625 L 179.285156 164.238281 L 180.503906 164.238281 Z M 221.582031 95.015625 L 221.171875 95.886719 C 221.519531 95.9375 221.804688 95.351562 221.582031 95.015625 Z M 217.449219 103.433594 L 217.203125 103.1875 L 216.746094 103.429688 C 216.761719 103.503906 216.777344 103.578125 216.804688 103.707031 Z M 146.648438 166.804688 L 146.246094 166.402344 L 146.085938 166.804688 Z M 184.132812 172.585938 L 184.71875 172.546875 L 184.574219 171.988281 Z M 216.015625 149.75 L 216.316406 150.269531 L 216.570312 149.75 Z M 149.675781 160.359375 C 149.464844 160.160156 149.332031 160.003906 149.085938 159.808594 L 149.136719 160.359375 Z M 179.542969 124.007812 L 179.664062 123.863281 L 179.386719 123.496094 L 179.070312 123.757812 Z M 218.292969 110.609375 L 218.75 110.921875 L 218.75 110.300781 Z M 164.960938 137.308594 C 165.152344 136.824219 164.886719 136.621094 164.792969 136.3125 C 164.558594 136.699219 164.867188 136.90625 164.960938 137.308594 Z M 186.324219 160.691406 L 185.773438 160.238281 C 185.785156 160.535156 185.855469 160.757812 186.324219 160.691406 Z M 243.6875 181.710938 C 243.597656 181.445312 243.53125 181.25 243.402344 180.878906 L 243.402344 181.695312 Z M 206.53125 139.1875 C 206.496094 138.964844 206.464844 138.9375 206.09375 138.777344 C 205.960938 139.167969 206.441406 139.003906 206.53125 139.1875 Z M 180.671875 164.308594 C 180.933594 164.394531 181.207031 164.527344 181.640625 164.308594 Z M 180.851562 129.835938 L 180.851562 130.464844 L 181.230469 130.316406 Z M 191.933594 187.035156 L 192.699219 187.347656 C 192.523438 186.949219 192.304688 186.902344 191.933594 187.035156 Z M 238.132812 166.601562 L 238.53125 166.292969 L 238.132812 165.917969 Z M 146.589844 156.90625 L 146.589844 157.511719 L 146.980469 157.453125 Z M 186.265625 146.925781 L 186.265625 147.53125 L 186.65625 147.453125 Z M 186.265625 146.925781 " fill-opacity="1" fill-rule="nonzero"/></g><path fill="#d17a22" d="M 218.25 184.925781 C 218.695312 184.9375 218.804688 185.285156 219.054688 185.433594 C 219.105469 185.324219 219.160156 185.210938 219.25 185.027344 C 222.527344 186.925781 222.335938 191.058594 224.835938 193.550781 C 225.964844 193.738281 227.175781 193.996094 227.613281 195.300781 C 226.488281 198.09375 223.320312 194.828125 222.046875 193.710938 C 219.175781 191.496094 220.78125 187.359375 218.25 184.925781 Z M 218.25 184.925781 " fill-opacity="1" fill-rule="nonzero"/><path fill="#d17a22" d="M 181.320312 155.136719 C 181.359375 155.429688 181.199219 155.574219 180.914062 155.664062 L 180.664062 155.21875 C 180.816406 155.082031 181.234375 154.738281 181.320312 155.136719 Z M 181.320312 155.136719 " fill-opacity="1" fill-rule="nonzero"/><path fill="#d17a22" d="M 144.695312 155.984375 L 144.695312 156.390625 L 144.1875 156.117188 C 144.308594 155.890625 144.453125 155.777344 144.695312 155.8125 Z M 144.695312 155.984375 " fill-opacity="1" fill-rule="nonzero"/><path fill="#d17a22" d="M 216.925781 148.777344 L 216.925781 148.996094 L 216.226562 148.996094 C 216.429688 148.730469 216.628906 148.582031 216.925781 148.777344 Z M 216.925781 148.777344 " fill-opacity="1" fill-rule="nonzero"/><path fill="#d17a22" d="M 237 170.746094 C 236.855469 171.042969 236.777344 171.207031 236.6875 171.386719 L 236.40625 171.125 Z M 237 170.746094 " fill-opacity="1" fill-rule="nonzero"/><path fill="#d17a22" d="M 194.078125 153.445312 L 194.078125 152.441406 L 194.160156 152.433594 C 194.199219 152.773438 194.214844 153.117188 194.203125 153.457031 Z M 194.078125 153.445312 " fill-opacity="1" fill-rule="nonzero"/><path fill="#d17a22" d="M 198.546875 124.679688 L 199.3125 124.679688 L 199.140625 124.914062 C 199.863281 125.816406 199.53125 125.878906 198.5 125.875 C 197.140625 126.976562 195.027344 127.40625 193.21875 127.371094 C 193.78125 125.65625 195.730469 124.511719 197.515625 124.488281 C 197.859375 124.125 198.277344 124.34375 198.546875 124.679688 Z M 198.546875 124.679688 " fill-opacity="1" fill-rule="nonzero"/><path fill="#d17a22" d="M 150.425781 162.5625 C 150.183594 162.566406 149.96875 162.601562 149.800781 162.351562 C 149.921875 162.132812 150.246094 162.390625 150.449219 162.394531 Z M 150.425781 162.5625 " fill-opacity="1" fill-rule="nonzero"/><path fill="#d17a22" d="M 149.457031 161.882812 L 149.457031 161.445312 C 149.609375 161.390625 149.835938 161.785156 149.941406 161.882812 Z M 149.457031 161.882812 " fill-opacity="1" fill-rule="nonzero"/><g fill="#d17a22" fill-opacity="1"><g transform="translate(80.882812, 227.999985)"><g><path d="M 20.257812 -14.636719 L 26.085938 0 L 27.679688 0 L 37.253906 -23.746094 C 38.328125 -26.417969 39.8125 -26.605469 39.8125 -26.605469 L 35.898438 -26.605469 C 35.898438 -26.605469 37.214844 -26.382812 36.175781 -23.765625 C 36.175781 -23.765625 27.644531 -2.355469 27.570312 -2.152344 C 27.511719 -2.28125 23.949219 -11.1875 21.429688 -17.53125 L 23.933594 -23.746094 C 25.007812 -26.417969 26.492188 -26.605469 26.492188 -26.605469 L 22.578125 -26.605469 C 22.578125 -26.605469 23.914062 -26.382812 22.855469 -23.765625 C 22.855469 -23.765625 22.039062 -21.6875 20.890625 -18.832031 L 18.921875 -23.765625 C 17.882812 -26.382812 19.21875 -26.605469 19.21875 -26.605469 L 14.082031 -26.605469 C 14.082031 -26.605469 15.566406 -26.417969 16.640625 -23.746094 L 19.738281 -15.9375 C 17.289062 -9.796875 14.285156 -2.28125 14.25 -2.152344 C 14.175781 -2.335938 5.621094 -23.765625 5.621094 -23.765625 C 4.5625 -26.382812 5.898438 -26.605469 5.898438 -26.605469 L 0.761719 -26.605469 C 0.761719 -26.605469 2.246094 -26.417969 3.320312 -23.746094 L 12.765625 0 L 14.378906 0 Z M 20.257812 -14.636719 "/></g></g></g><g fill="#d17a22" fill-opacity="1"><g transform="translate(121.453568, 227.999985)"><g><path d="M 12.894531 -13.171875 L 12.894531 -18.757812 C 12.894531 -18.757812 12.207031 -16.25 6.417969 -16.25 L 4.472656 -16.25 L 4.472656 -23.746094 C 4.472656 -24.488281 4.453125 -25.433594 5.675781 -25.433594 C 5.675781 -25.433594 7.03125 -25.433594 11.835938 -25.433594 C 18.625 -25.433594 19.441406 -22.929688 19.441406 -22.929688 L 19.441406 -26.585938 L 0.761719 -26.605469 C 0.761719 -26.605469 2.171875 -26.363281 2.171875 -23.765625 L 2.171875 -2.839844 C 2.171875 -0.222656 0.761719 0 0.761719 0 L 19.441406 0 L 19.441406 -3.65625 C 19.441406 -3.65625 18.625 -1.148438 11.835938 -1.148438 C 7.03125 -1.148438 5.675781 -1.148438 5.675781 -1.148438 C 4.546875 -1.148438 4.472656 -2.097656 4.472656 -2.839844 L 4.472656 -15.65625 L 6.417969 -15.675781 C 12.207031 -15.675781 12.894531 -13.171875 12.894531 -13.171875 Z M 12.894531 -13.171875 "/></g></g></g><g fill="#d17a22" fill-opacity="1"><g transform="translate(141.674018, 227.999985)"><g><path d="M 16.160156 -16.640625 C 17.660156 -17.273438 18.644531 -18.757812 18.644531 -20.59375 C 18.644531 -24.933594 14.433594 -26.605469 10.09375 -26.605469 C 10.019531 -26.605469 0.761719 -26.605469 0.761719 -26.605469 C 0.761719 -26.605469 2.171875 -26.363281 2.171875 -23.765625 L 2.171875 -2.839844 C 2.171875 -0.222656 0.761719 0 0.761719 0 L 8.441406 -0.0195312 C 21.074219 -0.0195312 23.914062 -3.859375 23.914062 -8.460938 C 23.914062 -12.929688 20.722656 -15.789062 16.160156 -16.640625 Z M 4.472656 -23.746094 C 4.472656 -25.898438 5.695312 -25.992188 5.882812 -25.992188 C 5.882812 -25.992188 10.035156 -26.011719 10.09375 -26.011719 C 13.507812 -26.011719 16.269531 -23.652344 16.269531 -20.667969 C 16.269531 -19.183594 15.582031 -17.847656 14.472656 -16.863281 C 14.027344 -16.902344 13.582031 -16.917969 13.117188 -16.917969 C 10.257812 -16.917969 6.753906 -15.695312 4.472656 -13.96875 Z M 8.3125 -1.039062 C 4.582031 -1 4.453125 -1.316406 4.472656 -2.839844 L 4.472656 -11.707031 C 6.105469 -13.96875 9.980469 -16.085938 13.117188 -16.085938 C 17.867188 -16.085938 21.371094 -12.707031 21.371094 -8.570312 C 21.371094 -4.488281 17.996094 -1.148438 8.3125 -1.039062 Z M 8.3125 -1.039062 "/></g></g></g><g fill="#d17a22" fill-opacity="1"><g transform="translate(175.900376, 227.999985)"><g><path d="M 22.96875 -6.4375 C 22.449219 -5.472656 19.535156 -1.296875 13.710938 -1.296875 C 7.902344 -1.296875 3.171875 -6.714844 3.171875 -13.375 C 3.171875 -20.054688 7.902344 -25.472656 13.710938 -25.472656 C 18.367188 -25.472656 21.242188 -23.023438 20.742188 -20.242188 L 23.671875 -22.820312 C 22.261719 -23.429688 19.515625 -26.605469 13.878906 -26.605469 C 6.640625 -26.605469 0.761719 -20.667969 0.761719 -13.339844 C 0.761719 -6.03125 6.640625 -0.0742188 13.878906 -0.0742188 C 19.351562 -0.0742188 22.78125 -4.210938 22.96875 -6.4375 Z M 22.96875 -6.4375 "/></g></g></g><g fill="#d17a22" fill-opacity="1"><g transform="translate(200.331874, 227.999985)"><g><path d="M 19.292969 -2.839844 L 14.453125 -10.074219 C 21.78125 -11.167969 23.894531 -14.414062 23.894531 -18.125 C 23.894531 -23.5625 19.109375 -26.585938 13.078125 -26.585938 L 0.761719 -26.605469 C 0.761719 -26.605469 2.1875 -26.363281 2.1875 -23.765625 L 2.1875 -2.839844 C 2.1875 -0.222656 0.761719 0 0.761719 0 L 5.898438 0 C 5.898438 0 4.488281 -0.183594 4.472656 -2.839844 L 4.472656 -9.683594 L 8.402344 -9.683594 C 9.832031 -9.683594 11.132812 -9.722656 12.320312 -9.832031 L 16.992188 -2.839844 C 18.757812 -0.183594 17.476562 0 17.476562 0 L 22.613281 0 C 22.613281 0 21.058594 -0.222656 19.292969 -2.839844 Z M 8.402344 -10.703125 L 4.472656 -10.703125 L 4.472656 -23.746094 C 4.472656 -24.488281 4.601562 -25.433594 5.769531 -25.433594 L 13.078125 -25.433594 C 17.828125 -25.433594 21.335938 -22.390625 21.335938 -18.238281 C 21.335938 -14.15625 18.089844 -10.816406 8.402344 -10.703125 Z M 8.402344 -10.703125 "/></g></g></g><g fill="#d17a22" fill-opacity="1"><g transform="translate(224.985983, 227.999985)"><g><path d="M 21.355469 0 L 26.492188 0 C 26.492188 0 25.007812 -0.183594 23.933594 -2.839844 L 14.488281 -26.605469 L 12.78125 -26.605469 L 3.320312 -2.839844 C 2.246094 -0.183594 0.761719 0 0.761719 0 L 4.675781 0 C 4.675781 0 3.339844 -0.222656 4.398438 -2.839844 L 7.292969 -10.09375 L 18.738281 -10.09375 L 21.632812 -2.839844 C 22.6875 -0.222656 21.355469 0 21.355469 0 Z M 7.570312 -10.777344 C 7.570312 -10.777344 12.929688 -24.230469 12.988281 -24.433594 C 13.078125 -24.230469 18.460938 -10.777344 18.460938 -10.777344 Z M 7.570312 -10.777344 "/></g></g></g><g fill="#d17a22" fill-opacity="1"><g transform="translate(252.218663, 227.999985)"><g><path d="M 12.894531 -13.171875 L 12.894531 -18.757812 C 12.894531 -18.757812 12.207031 -16.25 6.417969 -16.25 L 4.472656 -16.25 L 4.472656 -23.746094 C 4.472656 -24.488281 4.453125 -25.433594 5.546875 -25.433594 C 5.546875 -25.433594 7.03125 -25.433594 11.835938 -25.433594 C 18.625 -25.433594 19.441406 -22.929688 19.441406 -22.929688 L 19.441406 -26.585938 L 0.761719 -26.605469 C 0.761719 -26.605469 2.171875 -26.363281 2.171875 -23.765625 L 2.171875 -2.839844 C 2.171875 -0.222656 0.761719 0 0.761719 0 L 5.898438 0 C 5.898438 0 4.488281 -0.183594 4.472656 -2.839844 L 4.472656 -15.65625 L 6.417969 -15.675781 C 12.207031 -15.675781 12.894531 -13.171875 12.894531 -13.171875 Z M 12.894531 -13.171875 "/></g></g></g><g fill="#d17a22" fill-opacity="1"><g transform="translate(272.439113, 227.999985)"><g><path d="M 0.761719 -26.585938 L 0.761719 -22.261719 C 0.761719 -22.261719 1.726562 -25.433594 7.21875 -25.433594 L 9.40625 -25.433594 C 9.554688 -25.027344 9.664062 -24.488281 9.664062 -23.765625 L 9.664062 -2.839844 C 9.664062 -0.222656 8.253906 0 8.253906 0 L 13.394531 0 C 13.394531 0 11.964844 -0.183594 11.964844 -2.839844 L 11.964844 -23.746094 C 11.964844 -24.488281 12.078125 -25.027344 12.226562 -25.433594 L 14.453125 -25.433594 C 19.960938 -25.433594 20.910156 -22.261719 20.910156 -22.261719 L 20.910156 -26.585938 Z M 0.761719 -26.585938 "/></g></g></g><g fill="#d17a22" fill-opacity="1"><g transform="translate(123.201492, 244.95637)"><g><path d="M 0.765625 -7.265625 C 0.585938 -7.398438 0.347656 -7.503906 0.046875 -7.578125 L 0.09375 -8 L 3.015625 -8 L 2.9375 -7.578125 C 2.519531 -7.515625 2.175781 -7.40625 1.90625 -7.25 L 3.484375 -1.90625 L 5.28125 -8 L 5.65625 -8 L 7.578125 -1.9375 L 9.015625 -7.25 C 8.691406 -7.414062 8.328125 -7.523438 7.921875 -7.578125 L 7.984375 -8 L 10.625 -8 L 10.546875 -7.578125 C 10.285156 -7.523438 10.046875 -7.421875 9.828125 -7.265625 L 7.75 0 L 7.171875 0 L 5.328125 -5.546875 L 3.640625 0 L 3.078125 0 Z M 0.765625 -7.265625 "/></g></g></g><g fill="#d17a22" fill-opacity="1"><g transform="translate(133.869514, 244.95637)"><g><path d="M 2.84375 0.078125 C 1.945312 0.078125 1.304688 -0.164062 0.921875 -0.65625 C 0.535156 -1.144531 0.34375 -1.878906 0.34375 -2.859375 C 0.34375 -3.742188 0.554688 -4.441406 0.984375 -4.953125 C 1.410156 -5.460938 2.03125 -5.71875 2.84375 -5.71875 C 3.632812 -5.71875 4.1875 -5.507812 4.5 -5.09375 C 4.820312 -4.675781 5 -4.054688 5.03125 -3.234375 L 4.78125 -2.921875 L 1.4375 -2.921875 L 1.4375 -2.859375 C 1.4375 -2.335938 1.46875 -1.910156 1.53125 -1.578125 C 1.59375 -1.253906 1.734375 -0.992188 1.953125 -0.796875 C 2.171875 -0.597656 2.492188 -0.5 2.921875 -0.5 C 3.234375 -0.5 3.519531 -0.554688 3.78125 -0.671875 C 4.050781 -0.796875 4.273438 -0.925781 4.453125 -1.0625 L 4.75 -0.703125 C 4.550781 -0.523438 4.289062 -0.347656 3.96875 -0.171875 C 3.644531 -0.00390625 3.269531 0.078125 2.84375 0.078125 Z M 3.953125 -3.4375 C 3.953125 -4.070312 3.867188 -4.53125 3.703125 -4.8125 C 3.535156 -5.09375 3.234375 -5.234375 2.796875 -5.234375 C 2.335938 -5.234375 2 -5.066406 1.78125 -4.734375 C 1.570312 -4.398438 1.457031 -3.941406 1.4375 -3.359375 Z M 3.953125 -3.4375 "/></g></g></g><g fill="#d17a22" fill-opacity="1"><g transform="translate(139.161525, 244.95637)"><g><path d="M 3.3125 0.078125 C 2.8125 0.078125 2.347656 -0.113281 1.921875 -0.5 C 1.796875 -0.320312 1.71875 -0.15625 1.6875 0 L 1.109375 0 L 1.109375 -6.796875 C 1.109375 -7.097656 1.046875 -7.300781 0.921875 -7.40625 C 0.804688 -7.519531 0.585938 -7.582031 0.265625 -7.59375 L 0.296875 -7.953125 C 0.609375 -8.003906 0.929688 -8.078125 1.265625 -8.171875 C 1.609375 -8.273438 1.816406 -8.335938 1.890625 -8.359375 L 2.140625 -8.25 L 2.140625 -4.875 C 2.253906 -5.101562 2.445312 -5.300781 2.71875 -5.46875 C 2.988281 -5.632812 3.265625 -5.71875 3.546875 -5.71875 C 4.367188 -5.71875 4.96875 -5.457031 5.34375 -4.9375 C 5.71875 -4.425781 5.90625 -3.726562 5.90625 -2.84375 C 5.90625 -1.96875 5.679688 -1.257812 5.234375 -0.71875 C 4.785156 -0.1875 4.144531 0.078125 3.3125 0.078125 Z M 3.375 -0.421875 C 3.945312 -0.421875 4.328125 -0.644531 4.515625 -1.09375 C 4.710938 -1.550781 4.8125 -2.132812 4.8125 -2.84375 C 4.8125 -3.332031 4.78125 -3.742188 4.71875 -4.078125 C 4.664062 -4.410156 4.550781 -4.679688 4.375 -4.890625 C 4.195312 -5.097656 3.929688 -5.203125 3.578125 -5.203125 C 2.992188 -5.203125 2.609375 -4.953125 2.421875 -4.453125 C 2.234375 -3.953125 2.140625 -3.285156 2.140625 -2.453125 L 2.140625 -1.015625 C 2.347656 -0.835938 2.546875 -0.691406 2.734375 -0.578125 C 2.929688 -0.472656 3.144531 -0.421875 3.375 -0.421875 Z M 3.375 -0.421875 "/></g></g></g><g fill="#d17a22" fill-opacity="1"><g transform="translate(145.401541, 244.95637)"><g/></g></g><g fill="#d17a22" fill-opacity="1"><g transform="translate(148.041544, 244.95637)"><g><path d="M 0.4375 -0.4375 C 0.675781 -0.46875 0.878906 -0.503906 1.046875 -0.546875 C 1.210938 -0.585938 1.375 -0.65625 1.53125 -0.75 L 1.53125 -7.25 C 1.25 -7.394531 0.859375 -7.503906 0.359375 -7.578125 L 0.421875 -8 L 3 -8 C 4.394531 -8 5.441406 -7.675781 6.140625 -7.03125 C 6.835938 -6.394531 7.1875 -5.382812 7.1875 -4 C 7.1875 -2.59375 6.835938 -1.570312 6.140625 -0.9375 C 5.441406 -0.3125 4.367188 0 2.921875 0 L 0.375 0 Z M 3.125 -0.59375 C 4.09375 -0.59375 4.8125 -0.847656 5.28125 -1.359375 C 5.75 -1.878906 5.984375 -2.765625 5.984375 -4.015625 C 5.984375 -5.253906 5.75 -6.128906 5.28125 -6.640625 C 4.820312 -7.148438 4.117188 -7.40625 3.171875 -7.40625 L 2.59375 -7.40625 L 2.59375 -0.640625 C 2.726562 -0.609375 2.90625 -0.59375 3.125 -0.59375 Z M 3.125 -0.59375 "/></g></g></g><g fill="#d17a22" fill-opacity="1"><g transform="translate(155.541555, 244.95637)"><g><path d="M 2.84375 0.078125 C 1.945312 0.078125 1.304688 -0.164062 0.921875 -0.65625 C 0.535156 -1.144531 0.34375 -1.878906 0.34375 -2.859375 C 0.34375 -3.742188 0.554688 -4.441406 0.984375 -4.953125 C 1.410156 -5.460938 2.03125 -5.71875 2.84375 -5.71875 C 3.632812 -5.71875 4.1875 -5.507812 4.5 -5.09375 C 4.820312 -4.675781 5 -4.054688 5.03125 -3.234375 L 4.78125 -2.921875 L 1.4375 -2.921875 L 1.4375 -2.859375 C 1.4375 -2.335938 1.46875 -1.910156 1.53125 -1.578125 C 1.59375 -1.253906 1.734375 -0.992188 1.953125 -0.796875 C 2.171875 -0.597656 2.492188 -0.5 2.921875 -0.5 C 3.234375 -0.5 3.519531 -0.554688 3.78125 -0.671875 C 4.050781 -0.796875 4.273438 -0.925781 4.453125 -1.0625 L 4.75 -0.703125 C 4.550781 -0.523438 4.289062 -0.347656 3.96875 -0.171875 C 3.644531 -0.00390625 3.269531 0.078125 2.84375 0.078125 Z M 3.953125 -3.4375 C 3.953125 -4.070312 3.867188 -4.53125 3.703125 -4.8125 C 3.535156 -5.09375 3.234375 -5.234375 2.796875 -5.234375 C 2.335938 -5.234375 2 -5.066406 1.78125 -4.734375 C 1.570312 -4.398438 1.457031 -3.941406 1.4375 -3.359375 Z M 3.953125 -3.4375 "/></g></g></g><g fill="#d17a22" fill-opacity="1"><g transform="translate(160.833566, 244.95637)"><g><path d="M 0.515625 -4.6875 C 0.460938 -4.84375 0.375 -4.957031 0.25 -5.03125 C 0.132812 -5.113281 -0.0664062 -5.1875 -0.359375 -5.25 L -0.34375 -5.609375 L 2.34375 -5.609375 L 2.296875 -5.25 C 2.128906 -5.21875 1.988281 -5.1875 1.875 -5.15625 C 1.757812 -5.125 1.65625 -5.066406 1.5625 -4.984375 L 2.828125 -1.15625 L 4.109375 -4.984375 C 3.941406 -5.097656 3.703125 -5.1875 3.390625 -5.25 L 3.421875 -5.609375 L 5.703125 -5.609375 L 5.65625 -5.25 C 5.375 -5.1875 5.175781 -5.125 5.0625 -5.0625 C 4.945312 -5.007812 4.875 -4.925781 4.84375 -4.8125 L 3.03125 0 L 2.234375 0 Z M 0.515625 -4.6875 "/></g></g></g><g fill="#d17a22" fill-opacity="1"><g transform="translate(166.473581, 244.95637)"><g><path d="M 2.84375 0.078125 C 1.945312 0.078125 1.304688 -0.164062 0.921875 -0.65625 C 0.535156 -1.144531 0.34375 -1.878906 0.34375 -2.859375 C 0.34375 -3.742188 0.554688 -4.441406 0.984375 -4.953125 C 1.410156 -5.460938 2.03125 -5.71875 2.84375 -5.71875 C 3.632812 -5.71875 4.1875 -5.507812 4.5 -5.09375 C 4.820312 -4.675781 5 -4.054688 5.03125 -3.234375 L 4.78125 -2.921875 L 1.4375 -2.921875 L 1.4375 -2.859375 C 1.4375 -2.335938 1.46875 -1.910156 1.53125 -1.578125 C 1.59375 -1.253906 1.734375 -0.992188 1.953125 -0.796875 C 2.171875 -0.597656 2.492188 -0.5 2.921875 -0.5 C 3.234375 -0.5 3.519531 -0.554688 3.78125 -0.671875 C 4.050781 -0.796875 4.273438 -0.925781 4.453125 -1.0625 L 4.75 -0.703125 C 4.550781 -0.523438 4.289062 -0.347656 3.96875 -0.171875 C 3.644531 -0.00390625 3.269531 0.078125 2.84375 0.078125 Z M 3.953125 -3.4375 C 3.953125 -4.070312 3.867188 -4.53125 3.703125 -4.8125 C 3.535156 -5.09375 3.234375 -5.234375 2.796875 -5.234375 C 2.335938 -5.234375 2 -5.066406 1.78125 -4.734375 C 1.570312 -4.398438 1.457031 -3.941406 1.4375 -3.359375 Z M 3.953125 -3.4375 "/></g></g></g><g fill="#d17a22" fill-opacity="1"><g transform="translate(171.765591, 244.95637)"><g><path d="M 0.359375 -0.4375 C 0.546875 -0.46875 0.691406 -0.5 0.796875 -0.53125 C 0.910156 -0.570312 1.03125 -0.644531 1.15625 -0.75 L 1.15625 -6.796875 C 1.15625 -7.097656 1.09375 -7.300781 0.96875 -7.40625 C 0.851562 -7.519531 0.632812 -7.582031 0.3125 -7.59375 L 0.34375 -7.953125 C 0.65625 -8.003906 0.984375 -8.078125 1.328125 -8.171875 C 1.671875 -8.273438 1.875 -8.335938 1.9375 -8.359375 L 2.171875 -8.25 L 2.171875 -0.75 C 2.367188 -0.59375 2.648438 -0.484375 3.015625 -0.421875 L 2.96875 0 L 0.3125 0 Z M 0.359375 -0.4375 "/></g></g></g><g fill="#d17a22" fill-opacity="1"><g transform="translate(175.017602, 244.95637)"><g><path d="M 2.875 0.078125 C 2.039062 0.078125 1.410156 -0.164062 0.984375 -0.65625 C 0.554688 -1.15625 0.34375 -1.875 0.34375 -2.8125 C 0.34375 -3.757812 0.554688 -4.476562 0.984375 -4.96875 C 1.410156 -5.46875 2.039062 -5.71875 2.875 -5.71875 C 3.71875 -5.71875 4.351562 -5.46875 4.78125 -4.96875 C 5.207031 -4.476562 5.421875 -3.757812 5.421875 -2.8125 C 5.421875 -1.875 5.207031 -1.15625 4.78125 -0.65625 C 4.351562 -0.164062 3.71875 0.078125 2.875 0.078125 Z M 2.875 -0.46875 C 3.394531 -0.46875 3.773438 -0.648438 4.015625 -1.015625 C 4.253906 -1.390625 4.375 -1.988281 4.375 -2.8125 C 4.375 -3.644531 4.253906 -4.242188 4.015625 -4.609375 C 3.785156 -4.972656 3.40625 -5.15625 2.875 -5.15625 C 2.351562 -5.15625 1.976562 -4.972656 1.75 -4.609375 C 1.53125 -4.242188 1.421875 -3.644531 1.421875 -2.8125 C 1.421875 -1.988281 1.53125 -1.390625 1.75 -1.015625 C 1.976562 -0.648438 2.351562 -0.46875 2.875 -0.46875 Z M 2.875 -0.46875 "/></g></g></g><g fill="#d17a22" fill-opacity="1"><g transform="translate(180.777619, 244.95637)"><g><path d="M 0.359375 2.09375 C 0.535156 2.0625 0.675781 2.023438 0.78125 1.984375 C 0.894531 1.941406 1.015625 1.875 1.140625 1.78125 L 1.140625 -4.171875 C 1.140625 -4.472656 1.078125 -4.675781 0.953125 -4.78125 C 0.835938 -4.882812 0.625 -4.945312 0.3125 -4.96875 L 0.34375 -5.3125 C 0.59375 -5.363281 0.953125 -5.460938 1.421875 -5.609375 L 1.8125 -5.71875 L 2.03125 -5.609375 L 2.140625 -4.875 C 2.460938 -5.4375 2.984375 -5.71875 3.703125 -5.71875 C 4.429688 -5.71875 4.976562 -5.484375 5.34375 -5.015625 C 5.71875 -4.546875 5.90625 -3.847656 5.90625 -2.921875 C 5.90625 -1.953125 5.671875 -1.207031 5.203125 -0.6875 C 4.742188 -0.175781 4.070312 0.078125 3.1875 0.078125 C 2.8125 0.078125 2.472656 0.015625 2.171875 -0.109375 L 2.171875 1.78125 C 2.378906 1.945312 2.65625 2.054688 3 2.109375 L 2.96875 2.515625 L 0.3125 2.515625 Z M 3.234375 -0.421875 C 3.742188 -0.421875 4.140625 -0.640625 4.421875 -1.078125 C 4.703125 -1.515625 4.84375 -2.128906 4.84375 -2.921875 C 4.84375 -3.703125 4.742188 -4.273438 4.546875 -4.640625 C 4.347656 -5.015625 4.035156 -5.203125 3.609375 -5.203125 C 3.140625 -5.203125 2.78125 -5.007812 2.53125 -4.625 C 2.289062 -4.25 2.171875 -3.6875 2.171875 -2.9375 L 2.171875 -0.65625 C 2.460938 -0.5 2.816406 -0.421875 3.234375 -0.421875 Z M 3.234375 -0.421875 "/></g></g></g><g fill="#d17a22" fill-opacity="1"><g transform="translate(187.017635, 244.95637)"><g><path d="M 0.40625 -0.4375 C 0.601562 -0.46875 0.753906 -0.5 0.859375 -0.53125 C 0.972656 -0.570312 1.085938 -0.644531 1.203125 -0.75 L 1.203125 -4.15625 C 1.203125 -4.457031 1.140625 -4.660156 1.015625 -4.765625 C 0.898438 -4.878906 0.679688 -4.941406 0.359375 -4.953125 L 0.390625 -5.296875 C 0.679688 -5.359375 1.046875 -5.457031 1.484375 -5.59375 C 1.535156 -5.601562 1.664062 -5.644531 1.875 -5.71875 L 2.09375 -5.609375 L 2.171875 -4.984375 C 2.304688 -5.128906 2.492188 -5.285156 2.734375 -5.453125 C 2.984375 -5.628906 3.285156 -5.71875 3.640625 -5.71875 C 4.367188 -5.71875 4.894531 -5.46875 5.21875 -4.96875 C 5.46875 -5.1875 5.71875 -5.363281 5.96875 -5.5 C 6.226562 -5.644531 6.507812 -5.71875 6.8125 -5.71875 C 7.351562 -5.71875 7.796875 -5.570312 8.140625 -5.28125 C 8.492188 -4.988281 8.671875 -4.53125 8.671875 -3.90625 L 8.671875 -0.75 C 8.753906 -0.675781 8.875 -0.609375 9.03125 -0.546875 C 9.1875 -0.484375 9.347656 -0.4375 9.515625 -0.40625 L 9.46875 0 L 6.84375 0 L 6.859375 -0.40625 C 7.160156 -0.457031 7.425781 -0.570312 7.65625 -0.75 L 7.65625 -3.953125 C 7.65625 -4.359375 7.578125 -4.65625 7.421875 -4.84375 C 7.265625 -5.039062 7.023438 -5.140625 6.703125 -5.140625 C 6.453125 -5.140625 6.210938 -5.054688 5.984375 -4.890625 C 5.765625 -4.734375 5.597656 -4.546875 5.484375 -4.328125 L 5.484375 -0.75 C 5.554688 -0.675781 5.671875 -0.609375 5.828125 -0.546875 C 5.992188 -0.484375 6.160156 -0.4375 6.328125 -0.40625 L 6.28125 0 L 3.640625 0 L 3.671875 -0.40625 C 3.972656 -0.457031 4.238281 -0.570312 4.46875 -0.75 L 4.46875 -3.953125 C 4.46875 -4.359375 4.390625 -4.65625 4.234375 -4.84375 C 4.078125 -5.039062 3.835938 -5.140625 3.515625 -5.140625 C 3.234375 -5.140625 2.96875 -5.039062 2.71875 -4.84375 C 2.476562 -4.644531 2.316406 -4.429688 2.234375 -4.203125 L 2.234375 -0.75 C 2.421875 -0.601562 2.695312 -0.488281 3.0625 -0.40625 L 3.015625 0 L 0.359375 0 Z M 0.40625 -0.4375 "/></g></g></g><g fill="#d17a22" fill-opacity="1"><g transform="translate(196.773654, 244.95637)"><g><path d="M 2.84375 0.078125 C 1.945312 0.078125 1.304688 -0.164062 0.921875 -0.65625 C 0.535156 -1.144531 0.34375 -1.878906 0.34375 -2.859375 C 0.34375 -3.742188 0.554688 -4.441406 0.984375 -4.953125 C 1.410156 -5.460938 2.03125 -5.71875 2.84375 -5.71875 C 3.632812 -5.71875 4.1875 -5.507812 4.5 -5.09375 C 4.820312 -4.675781 5 -4.054688 5.03125 -3.234375 L 4.78125 -2.921875 L 1.4375 -2.921875 L 1.4375 -2.859375 C 1.4375 -2.335938 1.46875 -1.910156 1.53125 -1.578125 C 1.59375 -1.253906 1.734375 -0.992188 1.953125 -0.796875 C 2.171875 -0.597656 2.492188 -0.5 2.921875 -0.5 C 3.234375 -0.5 3.519531 -0.554688 3.78125 -0.671875 C 4.050781 -0.796875 4.273438 -0.925781 4.453125 -1.0625 L 4.75 -0.703125 C 4.550781 -0.523438 4.289062 -0.347656 3.96875 -0.171875 C 3.644531 -0.00390625 3.269531 0.078125 2.84375 0.078125 Z M 3.953125 -3.4375 C 3.953125 -4.070312 3.867188 -4.53125 3.703125 -4.8125 C 3.535156 -5.09375 3.234375 -5.234375 2.796875 -5.234375 C 2.335938 -5.234375 2 -5.066406 1.78125 -4.734375 C 1.570312 -4.398438 1.457031 -3.941406 1.4375 -3.359375 Z M 3.953125 -3.4375 "/></g></g></g><g fill="#d17a22" fill-opacity="1"><g transform="translate(202.065665, 244.95637)"><g><path d="M 0.40625 -0.4375 C 0.59375 -0.46875 0.742188 -0.503906 0.859375 -0.546875 C 0.972656 -0.585938 1.085938 -0.65625 1.203125 -0.75 L 1.203125 -4.15625 C 1.203125 -4.457031 1.140625 -4.660156 1.015625 -4.765625 C 0.890625 -4.878906 0.671875 -4.941406 0.359375 -4.953125 L 0.390625 -5.296875 C 0.640625 -5.347656 1 -5.445312 1.46875 -5.59375 L 1.859375 -5.71875 L 2.078125 -5.609375 L 2.1875 -4.859375 C 2.363281 -5.117188 2.59375 -5.328125 2.875 -5.484375 C 3.164062 -5.640625 3.460938 -5.71875 3.765625 -5.71875 C 4.347656 -5.71875 4.800781 -5.570312 5.125 -5.28125 C 5.445312 -4.988281 5.609375 -4.582031 5.609375 -4.0625 L 5.609375 -0.75 C 5.679688 -0.675781 5.796875 -0.609375 5.953125 -0.546875 C 6.117188 -0.484375 6.285156 -0.4375 6.453125 -0.40625 L 6.40625 0 L 3.765625 0 L 3.796875 -0.40625 C 4.109375 -0.457031 4.375 -0.570312 4.59375 -0.75 L 4.59375 -3.953125 C 4.59375 -4.742188 4.25 -5.140625 3.5625 -5.140625 C 3.289062 -5.140625 3.03125 -5.046875 2.78125 -4.859375 C 2.53125 -4.671875 2.34375 -4.425781 2.21875 -4.125 L 2.21875 -0.75 C 2.414062 -0.59375 2.695312 -0.476562 3.0625 -0.40625 L 3.015625 0 L 0.359375 0 Z M 0.40625 -0.4375 "/></g></g></g><g fill="#d17a22" fill-opacity="1"><g transform="translate(208.761683, 244.95637)"><g><path d="M 2.46875 0.125 C 1.9375 0.125 1.570312 0.015625 1.375 -0.203125 C 1.1875 -0.429688 1.09375 -0.816406 1.09375 -1.359375 L 1.09375 -4.953125 L 0.125 -4.953125 L 0.125 -5.3125 C 0.894531 -5.582031 1.40625 -6.066406 1.65625 -6.765625 L 2.140625 -6.765625 L 2.140625 -5.609375 L 3.671875 -5.609375 L 3.671875 -4.953125 L 2.125 -4.953125 L 2.125 -1.265625 C 2.125 -0.972656 2.160156 -0.757812 2.234375 -0.625 C 2.316406 -0.5 2.492188 -0.4375 2.765625 -0.4375 C 2.941406 -0.4375 3.09375 -0.457031 3.21875 -0.5 C 3.34375 -0.550781 3.46875 -0.613281 3.59375 -0.6875 L 3.84375 -0.328125 C 3.675781 -0.203125 3.488281 -0.09375 3.28125 0 C 3.070312 0.0820312 2.800781 0.125 2.46875 0.125 Z M 2.46875 0.125 "/></g></g></g><g fill="#d17a22" fill-opacity="1"><g transform="translate(212.661692, 244.95637)"><g/></g></g><g fill="#d17a22" fill-opacity="1"><g transform="translate(215.301695, 244.95637)"><g><path d="M 3.75 0.09375 C 2.726562 0.09375 1.9375 -0.117188 1.375 -0.546875 C 0.8125 -0.984375 0.53125 -1.585938 0.53125 -2.359375 C 0.53125 -3.492188 1.082031 -4.25 2.1875 -4.625 C 1.863281 -4.769531 1.609375 -4.972656 1.421875 -5.234375 C 1.242188 -5.503906 1.15625 -5.832031 1.15625 -6.21875 C 1.15625 -6.820312 1.367188 -7.273438 1.796875 -7.578125 C 2.222656 -7.890625 2.757812 -8.046875 3.40625 -8.046875 C 4.03125 -8.046875 4.546875 -7.914062 4.953125 -7.65625 C 5.359375 -7.40625 5.5625 -7.0625 5.5625 -6.625 C 5.5625 -6.382812 5.5 -6.191406 5.375 -6.046875 C 5.25 -5.898438 5.097656 -5.828125 4.921875 -5.828125 C 4.804688 -5.828125 4.695312 -5.851562 4.59375 -5.90625 C 4.488281 -5.96875 4.40625 -6.046875 4.34375 -6.140625 C 4.457031 -6.316406 4.515625 -6.484375 4.515625 -6.640625 C 4.515625 -6.960938 4.410156 -7.195312 4.203125 -7.34375 C 4.003906 -7.5 3.738281 -7.578125 3.40625 -7.578125 C 3.019531 -7.578125 2.722656 -7.457031 2.515625 -7.21875 C 2.304688 -6.976562 2.203125 -6.640625 2.203125 -6.203125 C 2.203125 -5.878906 2.304688 -5.585938 2.515625 -5.328125 C 2.734375 -5.078125 3.078125 -4.945312 3.546875 -4.9375 L 3.546875 -4.375 C 2.960938 -4.300781 2.492188 -4.085938 2.140625 -3.734375 C 1.796875 -3.390625 1.625 -2.945312 1.625 -2.40625 C 1.625 -1.78125 1.8125 -1.304688 2.1875 -0.984375 C 2.570312 -0.660156 3.09375 -0.5 3.75 -0.5 C 4.21875 -0.5 4.644531 -0.585938 5.03125 -0.765625 C 5.414062 -0.953125 5.726562 -1.234375 5.96875 -1.609375 C 6.207031 -1.992188 6.328125 -2.460938 6.328125 -3.015625 C 6.328125 -3.523438 6.234375 -4.054688 6.046875 -4.609375 C 5.722656 -4.585938 5.488281 -4.53125 5.34375 -4.4375 C 5.207031 -4.34375 5.140625 -4.203125 5.140625 -4.015625 C 5.140625 -3.828125 5.222656 -3.664062 5.390625 -3.53125 C 5.234375 -3.375 5.054688 -3.296875 4.859375 -3.296875 C 4.679688 -3.296875 4.535156 -3.363281 4.421875 -3.5 C 4.316406 -3.632812 4.265625 -3.804688 4.265625 -4.015625 C 4.265625 -4.742188 4.898438 -5.109375 6.171875 -5.109375 C 6.597656 -5.109375 6.910156 -5.15625 7.109375 -5.25 C 7.304688 -5.34375 7.40625 -5.5 7.40625 -5.71875 C 7.40625 -5.914062 7.328125 -6.082031 7.171875 -6.21875 C 7.328125 -6.363281 7.5 -6.4375 7.6875 -6.4375 C 7.863281 -6.4375 8.007812 -6.375 8.125 -6.25 C 8.238281 -6.132812 8.296875 -5.972656 8.296875 -5.765625 C 8.296875 -5.410156 8.15625 -5.128906 7.875 -4.921875 C 7.59375 -4.722656 7.175781 -4.625 6.625 -4.625 C 6.851562 -4.0625 6.96875 -3.46875 6.96875 -2.84375 C 6.96875 -1.90625 6.671875 -1.179688 6.078125 -0.671875 C 5.492188 -0.160156 4.71875 0.09375 3.75 0.09375 Z M 3.75 0.09375 "/></g></g></g><g fill="#d17a22" fill-opacity="1"><g transform="translate(223.545709, 244.95637)"><g/></g></g><g fill="#d17a22" fill-opacity="1"><g transform="translate(226.185712, 244.95637)"><g><path d="M 2.53125 0.078125 C 1.800781 0.078125 1.253906 -0.148438 0.890625 -0.609375 C 0.523438 -1.078125 0.34375 -1.769531 0.34375 -2.6875 C 0.34375 -3.664062 0.570312 -4.414062 1.03125 -4.9375 C 1.5 -5.457031 2.171875 -5.71875 3.046875 -5.71875 C 3.390625 -5.71875 3.726562 -5.648438 4.0625 -5.515625 L 4.0625 -6.796875 C 4.0625 -7.097656 4 -7.300781 3.875 -7.40625 C 3.757812 -7.519531 3.546875 -7.582031 3.234375 -7.59375 L 3.265625 -7.9375 C 3.628906 -8.007812 4.082031 -8.128906 4.625 -8.296875 L 4.859375 -8.359375 L 5.09375 -8.25 L 5.09375 -0.734375 C 5.28125 -0.585938 5.554688 -0.476562 5.921875 -0.40625 L 5.890625 0 L 4.15625 0 L 4.0625 -0.703125 C 3.726562 -0.179688 3.21875 0.078125 2.53125 0.078125 Z M 2.640625 -0.4375 C 3.109375 -0.4375 3.460938 -0.625 3.703125 -1 C 3.941406 -1.375 4.0625 -1.9375 4.0625 -2.6875 L 4.0625 -4.96875 C 3.925781 -5.039062 3.773438 -5.097656 3.609375 -5.140625 C 3.453125 -5.179688 3.253906 -5.203125 3.015625 -5.203125 C 2.503906 -5.203125 2.101562 -4.984375 1.8125 -4.546875 C 1.53125 -4.109375 1.390625 -3.488281 1.390625 -2.6875 C 1.390625 -1.914062 1.488281 -1.347656 1.6875 -0.984375 C 1.894531 -0.617188 2.210938 -0.4375 2.640625 -0.4375 Z M 2.640625 -0.4375 "/></g></g></g><g fill="#d17a22" fill-opacity="1"><g transform="translate(232.425729, 244.95637)"><g><path d="M 2.84375 0.078125 C 1.945312 0.078125 1.304688 -0.164062 0.921875 -0.65625 C 0.535156 -1.144531 0.34375 -1.878906 0.34375 -2.859375 C 0.34375 -3.742188 0.554688 -4.441406 0.984375 -4.953125 C 1.410156 -5.460938 2.03125 -5.71875 2.84375 -5.71875 C 3.632812 -5.71875 4.1875 -5.507812 4.5 -5.09375 C 4.820312 -4.675781 5 -4.054688 5.03125 -3.234375 L 4.78125 -2.921875 L 1.4375 -2.921875 L 1.4375 -2.859375 C 1.4375 -2.335938 1.46875 -1.910156 1.53125 -1.578125 C 1.59375 -1.253906 1.734375 -0.992188 1.953125 -0.796875 C 2.171875 -0.597656 2.492188 -0.5 2.921875 -0.5 C 3.234375 -0.5 3.519531 -0.554688 3.78125 -0.671875 C 4.050781 -0.796875 4.273438 -0.925781 4.453125 -1.0625 L 4.75 -0.703125 C 4.550781 -0.523438 4.289062 -0.347656 3.96875 -0.171875 C 3.644531 -0.00390625 3.269531 0.078125 2.84375 0.078125 Z M 3.953125 -3.4375 C 3.953125 -4.070312 3.867188 -4.53125 3.703125 -4.8125 C 3.535156 -5.09375 3.234375 -5.234375 2.796875 -5.234375 C 2.335938 -5.234375 2 -5.066406 1.78125 -4.734375 C 1.570312 -4.398438 1.457031 -3.941406 1.4375 -3.359375 Z M 3.953125 -3.4375 "/></g></g></g><g fill="#d17a22" fill-opacity="1"><g transform="translate(237.717739, 244.95637)"><g><path d="M 2.203125 0.078125 C 1.921875 0.078125 1.597656 0.03125 1.234375 -0.0625 C 0.867188 -0.15625 0.59375 -0.265625 0.40625 -0.390625 L 0.40625 -1.859375 L 1.046875 -1.9375 C 1.078125 -1.601562 1.113281 -1.335938 1.15625 -1.140625 C 1.195312 -0.953125 1.269531 -0.769531 1.375 -0.59375 C 1.625 -0.507812 1.929688 -0.46875 2.296875 -0.46875 C 2.617188 -0.46875 2.882812 -0.554688 3.09375 -0.734375 C 3.300781 -0.910156 3.40625 -1.128906 3.40625 -1.390625 C 3.40625 -1.648438 3.300781 -1.847656 3.09375 -1.984375 C 2.894531 -2.117188 2.578125 -2.257812 2.140625 -2.40625 C 1.765625 -2.539062 1.460938 -2.664062 1.234375 -2.78125 C 1.015625 -2.90625 0.820312 -3.078125 0.65625 -3.296875 C 0.5 -3.523438 0.421875 -3.8125 0.421875 -4.15625 C 0.421875 -4.644531 0.597656 -5.023438 0.953125 -5.296875 C 1.304688 -5.566406 1.796875 -5.703125 2.421875 -5.703125 C 2.753906 -5.703125 3.0625 -5.648438 3.34375 -5.546875 C 3.632812 -5.441406 3.863281 -5.296875 4.03125 -5.109375 C 4.195312 -4.929688 4.28125 -4.738281 4.28125 -4.53125 C 4.28125 -4.113281 4.097656 -3.90625 3.734375 -3.90625 C 3.578125 -3.90625 3.445312 -3.929688 3.34375 -3.984375 C 3.25 -4.035156 3.160156 -4.113281 3.078125 -4.21875 C 3.210938 -4.320312 3.28125 -4.46875 3.28125 -4.65625 C 3.28125 -4.820312 3.191406 -4.957031 3.015625 -5.0625 C 2.835938 -5.164062 2.617188 -5.21875 2.359375 -5.21875 C 2.035156 -5.21875 1.78125 -5.144531 1.59375 -5 C 1.40625 -4.851562 1.3125 -4.660156 1.3125 -4.421875 C 1.3125 -4.210938 1.375 -4.039062 1.5 -3.90625 C 1.625 -3.78125 1.773438 -3.675781 1.953125 -3.59375 C 2.128906 -3.519531 2.382812 -3.425781 2.71875 -3.3125 C 3.0625 -3.1875 3.34375 -3.0625 3.5625 -2.9375 C 3.78125 -2.820312 3.960938 -2.65625 4.109375 -2.4375 C 4.265625 -2.226562 4.34375 -1.957031 4.34375 -1.625 C 4.34375 -1.09375 4.15625 -0.675781 3.78125 -0.375 C 3.40625 -0.0703125 2.878906 0.078125 2.203125 0.078125 Z M 2.203125 0.078125 "/></g></g></g><g fill="#d17a22" fill-opacity="1"><g transform="translate(242.421753, 244.95637)"><g><path d="M 0.40625 -0.4375 C 0.59375 -0.46875 0.738281 -0.5 0.84375 -0.53125 C 0.957031 -0.570312 1.078125 -0.640625 1.203125 -0.734375 L 1.203125 -4.1875 C 1.203125 -4.476562 1.140625 -4.675781 1.015625 -4.78125 C 0.890625 -4.894531 0.671875 -4.960938 0.359375 -4.984375 L 0.390625 -5.328125 C 0.710938 -5.378906 1.039062 -5.457031 1.375 -5.5625 C 1.71875 -5.664062 1.921875 -5.726562 1.984375 -5.75 L 2.21875 -5.609375 L 2.21875 -0.734375 C 2.414062 -0.585938 2.695312 -0.476562 3.0625 -0.40625 L 3.015625 0 L 0.359375 0 Z M 1.578125 -6.640625 C 1.160156 -6.640625 0.953125 -6.867188 0.953125 -7.328125 C 0.953125 -7.796875 1.160156 -8.03125 1.578125 -8.03125 C 1.785156 -8.03125 1.941406 -7.96875 2.046875 -7.84375 C 2.160156 -7.726562 2.21875 -7.554688 2.21875 -7.328125 C 2.21875 -7.109375 2.160156 -6.9375 2.046875 -6.8125 C 1.941406 -6.695312 1.785156 -6.640625 1.578125 -6.640625 Z M 1.578125 -6.640625 "/></g></g></g><g fill="#d17a22" fill-opacity="1"><g transform="translate(245.745758, 244.95637)"><g><path d="M 2.8125 2.625 C 1.96875 2.625 1.332031 2.488281 0.90625 2.21875 C 0.476562 1.945312 0.265625 1.578125 0.265625 1.109375 C 0.265625 0.835938 0.296875 0.613281 0.359375 0.4375 C 0.421875 0.269531 0.515625 0.128906 0.640625 0.015625 C 0.773438 -0.0859375 0.957031 -0.207031 1.1875 -0.34375 C 1.007812 -0.539062 0.921875 -0.804688 0.921875 -1.140625 L 1.90625 -1.84375 C 1.4375 -1.945312 1.070312 -2.160156 0.8125 -2.484375 C 0.550781 -2.804688 0.421875 -3.210938 0.421875 -3.703125 C 0.421875 -4.359375 0.601562 -4.851562 0.96875 -5.1875 C 1.34375 -5.53125 1.890625 -5.703125 2.609375 -5.703125 C 3.160156 -5.703125 3.609375 -5.601562 3.953125 -5.40625 C 4.242188 -5.5 4.390625 -5.65625 4.390625 -5.875 C 4.390625 -5.957031 4.359375 -6.035156 4.296875 -6.109375 C 4.242188 -6.191406 4.164062 -6.257812 4.0625 -6.3125 C 4.0625 -6.425781 4.109375 -6.519531 4.203125 -6.59375 C 4.304688 -6.675781 4.445312 -6.71875 4.625 -6.71875 C 4.800781 -6.71875 4.941406 -6.660156 5.046875 -6.546875 C 5.160156 -6.441406 5.21875 -6.300781 5.21875 -6.125 C 5.21875 -5.882812 5.144531 -5.671875 5 -5.484375 C 4.851562 -5.304688 4.644531 -5.171875 4.375 -5.078125 C 4.675781 -4.742188 4.828125 -4.285156 4.828125 -3.703125 C 4.828125 -3.109375 4.628906 -2.632812 4.234375 -2.28125 C 3.835938 -1.9375 3.296875 -1.765625 2.609375 -1.765625 L 2.453125 -1.765625 L 1.9375 -1.140625 C 1.957031 -1.015625 2.019531 -0.925781 2.125 -0.875 C 2.238281 -0.832031 2.4375 -0.804688 2.71875 -0.796875 L 3.21875 -0.796875 C 3.945312 -0.796875 4.484375 -0.628906 4.828125 -0.296875 C 5.179688 0.0234375 5.359375 0.441406 5.359375 0.953125 C 5.359375 1.492188 5.148438 1.90625 4.734375 2.1875 C 4.316406 2.476562 3.675781 2.625 2.8125 2.625 Z M 2.609375 -2.25 C 3.003906 -2.25 3.289062 -2.363281 3.46875 -2.59375 C 3.644531 -2.832031 3.734375 -3.210938 3.734375 -3.734375 C 3.734375 -4.253906 3.644531 -4.628906 3.46875 -4.859375 C 3.289062 -5.097656 3.003906 -5.21875 2.609375 -5.21875 C 2.222656 -5.21875 1.941406 -5.097656 1.765625 -4.859375 C 1.585938 -4.628906 1.5 -4.253906 1.5 -3.734375 C 1.5 -3.210938 1.585938 -2.832031 1.765625 -2.59375 C 1.941406 -2.363281 2.222656 -2.25 2.609375 -2.25 Z M 2.8125 2.140625 C 3.78125 2.140625 4.265625 1.742188 4.265625 0.953125 C 4.265625 0.628906 4.148438 0.390625 3.921875 0.234375 C 3.691406 0.0859375 3.359375 0.015625 2.921875 0.015625 L 1.90625 0.015625 C 1.550781 0.242188 1.375 0.554688 1.375 0.953125 C 1.375 1.347656 1.492188 1.644531 1.734375 1.84375 C 1.984375 2.039062 2.34375 2.140625 2.8125 2.140625 Z M 2.8125 2.140625 "/></g></g></g><g fill="#d17a22" fill-opacity="1"><g transform="translate(251.253764, 244.95637)"><g><path d="M 0.40625 -0.4375 C 0.59375 -0.46875 0.742188 -0.503906 0.859375 -0.546875 C 0.972656 -0.585938 1.085938 -0.65625 1.203125 -0.75 L 1.203125 -4.15625 C 1.203125 -4.457031 1.140625 -4.660156 1.015625 -4.765625 C 0.890625 -4.878906 0.671875 -4.941406 0.359375 -4.953125 L 0.390625 -5.296875 C 0.640625 -5.347656 1 -5.445312 1.46875 -5.59375 L 1.859375 -5.71875 L 2.078125 -5.609375 L 2.1875 -4.859375 C 2.363281 -5.117188 2.59375 -5.328125 2.875 -5.484375 C 3.164062 -5.640625 3.460938 -5.71875 3.765625 -5.71875 C 4.347656 -5.71875 4.800781 -5.570312 5.125 -5.28125 C 5.445312 -4.988281 5.609375 -4.582031 5.609375 -4.0625 L 5.609375 -0.75 C 5.679688 -0.675781 5.796875 -0.609375 5.953125 -0.546875 C 6.117188 -0.484375 6.285156 -0.4375 6.453125 -0.40625 L 6.40625 0 L 3.765625 0 L 3.796875 -0.40625 C 4.109375 -0.457031 4.375 -0.570312 4.59375 -0.75 L 4.59375 -3.953125 C 4.59375 -4.742188 4.25 -5.140625 3.5625 -5.140625 C 3.289062 -5.140625 3.03125 -5.046875 2.78125 -4.859375 C 2.53125 -4.671875 2.34375 -4.425781 2.21875 -4.125 L 2.21875 -0.75 C 2.414062 -0.59375 2.695312 -0.476562 3.0625 -0.40625 L 3.015625 0 L 0.359375 0 Z M 0.40625 -0.4375 "/></g></g></g></svg>